# Blender 5.0.0
# www.blender.org
mtllib Car-nowheels.mtl
o backlight
v 0.613600 0.476136 -0.877272
v 0.614462 0.331587 -0.876620
v 0.340170 0.469742 -0.879625
v 0.341004 0.329945 -0.878994
v -0.588101 0.448033 -0.887612
v -0.587363 0.324372 -0.887055
v -0.314671 0.454428 -0.885260
v -0.313906 0.326013 -0.884681
vn 0.0087 -0.0045 -1.0000
vt 0.232832 0.965665
vt 0.017208 0.534417
vt 0.232792 0.534417
vt 0.767388 0.534775
vt 0.982667 0.965334
vt 0.767441 0.965118
vt 0.017249 0.965503
vt 0.982612 0.534775
s 0
usemtl rear_lights
f 3/1/1 2/2/1 4/3/1
f 8/4/1 5/5/1 7/6/1
f 3/1/1 1/7/1 2/2/1
f 8/4/1 6/8/1 5/5/1
o headlight
v 0.579127 0.493949 1.323321
v 0.598072 0.360428 1.293020
v 0.338901 0.359090 1.340726
v 0.328712 0.503811 1.371302
v -0.342774 0.499779 1.365473
v -0.350693 0.354950 1.334738
v -0.608994 0.353181 1.282540
v -0.592182 0.486917 1.313152
vn 0.1774 -0.1915 0.9653
vn -0.1918 -0.1937 0.9621
vn 0.1786 -0.1936 0.9647
vn -0.1930 -0.1958 0.9615
vt 0.888281 0.111719
vt 0.111293 0.888707
vt 0.114396 0.114396
vt 0.111293 0.111293
vt 0.888281 0.888281
vt 0.114396 0.885604
vt 0.884625 0.884625
vt 0.884625 0.115375
s 0
usemtl headlight
f 11/9/2 9/10/2 12/11/2
f 16/12/3 14/13/3 13/14/3
f 11/9/4 10/15/4 9/10/4
f 16/12/5 15/16/5 14/13/5
o body
v 0.611994 0.516782 1.352880
v 0.633838 0.132733 -0.897566
v -0.604112 0.146816 -0.908410
v -0.606013 0.465517 -0.909847
v -0.616951 0.167857 0.555745
v 0.618929 0.500985 0.565024
v 0.626493 0.497115 -0.303529
v -0.609992 0.164297 -0.243312
v -0.447650 1.030329 0.388332
v 0.444161 1.035683 0.396075
v 0.449175 1.033117 -0.179622
v -0.442637 1.027763 -0.187365
v -0.650167 0.315846 1.297911
v 0.639418 0.323588 1.309108
v 0.658641 0.313753 -0.898157
v -0.630944 0.306011 -0.909354
v -0.643696 0.312535 0.554868
v 0.645889 0.320277 0.566064
v 0.652848 0.316716 -0.232994
v -0.636737 0.308975 -0.244190
v -0.649812 0.225507 1.319418
v 0.639774 0.233249 1.330614
v 0.659180 0.223320 -0.897749
v -0.630469 0.226335 -0.908994
v -0.643221 0.232859 0.555227
v 0.646428 0.229845 0.566472
v 0.653387 0.226284 -0.232586
v -0.636262 0.229299 -0.243831
v -0.644508 0.084207 1.341345
v 0.681385 0.081853 -0.935297
v -0.652155 0.095361 -0.946971
v -0.610453 0.092882 -0.242998
v -0.007594 0.535953 1.409612
v 0.014863 0.139774 -0.902988
v -0.008224 0.530951 0.586518
v 0.007549 0.498964 -0.308928
v -0.009987 1.066687 0.419071
v 0.003269 1.030440 -0.183493
v -0.005497 0.314279 1.321354
v 0.013848 0.309882 -0.903755
v 0.014181 0.224917 -0.883373
v 0.002418 0.095290 0.561090
v 0.009374 0.091732 -0.237595
v 0.304693 0.140949 1.360509
v 0.301914 0.528985 1.412338
v 0.324350 0.136253 -0.900277
v 0.316972 0.506200 -0.306265
v 0.299642 1.054148 0.411726
v 0.336245 0.311817 -0.900956
v 0.316836 0.231591 1.390023
v 0.336768 0.224075 -0.900561
v 0.311906 0.091770 0.563801
v 0.318862 0.088212 -0.234884
v -0.314218 0.137234 1.355135
v -0.301875 0.491728 -0.311590
v -0.306187 1.028583 -0.186180
v -0.308548 0.307946 -0.906554
v -0.327957 0.227720 1.384424
v -0.308057 0.225581 -0.906183
v -0.314359 0.086469 1.406423
v -0.307070 0.098811 0.558379
v -0.300114 0.095252 -0.240306
v 0.230172 0.246730 1.381800
v -0.241352 0.243899 1.377706
v -0.005196 0.237774 1.339568
v 0.226027 0.506749 1.366814
v -0.240071 0.503951 1.362768
v -0.240958 0.236359 1.337521
v -0.355142 0.252851 1.378165
v 0.612432 0.298132 1.314897
v 0.343665 0.296799 1.374775
v 0.343822 0.257047 1.384234
v -0.355462 0.293289 1.387053
v 0.343502 0.297485 1.393121
v 0.343658 0.257734 1.402590
v -0.630537 0.150621 0.662049
v 0.644963 0.320751 0.672399
v -0.644138 0.231836 0.661569
v 0.645502 0.230318 0.672807
v -0.630882 0.099817 0.662272
v 0.632595 0.088810 0.673325
v 0.001466 0.099534 0.667781
v 0.308392 0.525671 0.668555
v 0.310981 0.091517 0.670526
v -0.307986 0.097098 0.665056
v -0.006401 0.535343 1.272618
v 0.170239 0.529365 0.804342
v -0.174799 0.527293 0.801346
v 0.167197 0.586416 1.273903
v -0.180595 0.584328 1.270883
v -0.177027 0.559684 0.876920
v -0.169401 0.539520 1.271180
v 0.157212 0.576838 1.273858
v -0.170498 0.574871 1.271013
v -0.169113 0.539373 1.238082
v 0.157500 0.576691 1.240760
v -0.170210 0.574724 1.237915
v -0.575354 0.527505 0.548500
v 0.575090 0.534229 0.558245
v -0.423376 1.002999 0.400099
v 0.420075 1.007779 0.407309
v -0.008323 0.561463 0.576812
v -0.009888 1.036175 0.428777
v 0.302519 0.548847 0.569349
v 0.297750 1.023754 0.421596
v -0.318847 0.545108 0.563931
v -0.317016 1.020080 0.416294
v 0.572709 0.525484 0.531752
v 0.417694 0.999035 0.380817
v -0.008041 0.553127 0.550054
v -0.009606 1.027839 0.402018
v 0.296073 1.015212 0.394973
v -0.314678 1.011549 0.389716
v -0.609176 0.522930 0.511807
v -0.601979 0.499882 -0.274270
v -0.456799 0.999620 0.364414
v -0.452431 0.997342 -0.161559
v 0.609298 0.531190 0.522092
v 0.616141 0.527689 -0.263685
v 0.454373 1.005181 0.372323
v 0.458955 1.002836 -0.153845
v -0.583863 0.515097 0.512181
v -0.576666 0.492050 -0.273896
v -0.431486 0.991788 0.364788
v -0.427117 0.989510 -0.161185
v 0.584127 0.522905 0.521909
v 0.429202 0.996895 0.372141
v 0.433784 0.994551 -0.154027
v -0.333111 0.886082 -0.218926
v 0.313462 0.632103 -0.273400
v -0.305384 0.617741 -0.279207
v 0.427434 0.624831 -0.229720
v -0.333293 0.876420 -0.176001
v 0.313260 0.622177 -0.230535
v -0.305256 0.876502 -0.175596
v 0.632140 0.133602 -0.702567
v 0.629982 0.495330 -0.704197
v -0.605810 0.147684 -0.713411
v -0.607711 0.466385 -0.714847
v 0.656943 0.314621 -0.703157
v -0.632642 0.306880 -0.714354
v 0.657482 0.224189 -0.702750
v -0.632167 0.227204 -0.713995
v 0.631558 0.082606 -0.702345
v -0.606393 0.096688 -0.713188
v 0.011038 0.497179 -0.709596
v 0.013469 0.089637 -0.707759
v 0.322956 0.086117 -0.705048
v -0.296019 0.093157 -0.710470
v 0.628979 0.538317 -0.704397
v -0.299292 0.516609 -0.712385
v 0.014688 0.139863 -0.882989
v 0.013674 0.309971 -0.883756
v 0.324176 0.136342 -0.880278
v 0.336071 0.311906 -0.880957
v 0.336594 0.224164 -0.880561
v -0.294800 0.143384 -0.885700
v -0.308722 0.308035 -0.886555
v -0.308231 0.225671 -0.886184
v 0.613791 0.476038 -0.899271
v 0.614653 0.331489 -0.898619
v 0.340361 0.469643 -0.901623
v 0.341195 0.329847 -0.900993
v -0.587909 0.447935 -0.909611
v -0.587171 0.324274 -0.909054
v -0.314480 0.454330 -0.907258
v -0.313714 0.325915 -0.906680
v 0.613599 0.476136 -0.877272
v 0.614462 0.331587 -0.876620
v 0.340170 0.469741 -0.879624
v 0.341004 0.329945 -0.878994
v -0.588100 0.448033 -0.887612
v -0.587363 0.324372 -0.887055
v -0.314672 0.454428 -0.885259
v -0.313906 0.326013 -0.884680
v 0.357199 0.291943 -0.900685
v -0.609990 0.286136 -0.909082
v -0.609752 0.246286 -0.908903
v -0.329264 0.287822 -0.906645
v -0.329012 0.245630 -0.906455
v 0.638152 0.293512 -0.924247
v 0.638452 0.243254 -0.924020
v 0.357425 0.291827 -0.926684
v -0.609764 0.286020 -0.935081
v -0.609526 0.246171 -0.934902
v -0.329037 0.287706 -0.932644
v -0.328786 0.245514 -0.932454
v -0.637026 0.182184 1.305442
v 0.627754 0.189777 1.316423
v -0.005178 0.186257 1.373139
v 0.311019 0.188172 1.375885
v -0.321374 0.184359 1.370394
v 0.634406 0.116901 0.999241
v 0.642124 0.322203 0.998397
v -0.646950 0.228700 0.987587
v 0.642663 0.231771 0.998804
v -0.637424 0.092323 0.988277
v 0.633675 0.093471 0.999345
v -0.001435 0.111481 0.993731
v 0.308154 0.090932 0.996520
v -0.310789 0.092423 0.991156
v 0.168593 0.530207 0.993346
v 0.169739 0.568856 0.993184
v -0.693398 0.134716 1.289042
v -0.693997 0.083949 1.340325
v -0.686967 0.142241 0.987022
v -0.686912 0.092065 0.987250
v 0.679871 0.128071 0.468539
v 0.685714 0.125081 -0.202367
v -0.667843 0.122575 -0.214133
v -0.674285 0.112648 0.456511
v -0.668671 0.109659 -0.214083
v 0.659221 0.423357 -0.018982
v 0.660158 0.422878 -0.126561
v 0.664839 0.392512 -0.124543
v -0.661057 0.386059 -0.136567
v 0.673999 0.394543 -0.018725
v 0.669301 0.424917 -0.018901
v 0.670238 0.424437 -0.126480
v 0.344989 0.352488 1.369348
v -0.349280 0.493101 1.393986
v -0.357198 0.348273 1.363251
v 0.328712 0.503810 1.371302
v -0.342775 0.499779 1.365472
v -0.350693 0.354950 1.334737
v -0.608995 0.353181 1.282543
v -0.592181 0.486917 1.313155
v -0.007324 0.497728 1.404944
v -0.240374 0.496329 1.402921
v -0.007021 0.505350 1.364791
v -0.643910 0.134974 1.290071
v 0.635484 0.142655 1.301179
v 0.631681 0.494461 -0.899197
v 0.621051 0.145160 0.566628
v 0.628010 0.141600 -0.232430
v 0.634885 0.091888 1.352453
v -0.617186 0.096436 0.555689
v 0.620815 0.073740 0.566571
v 0.627550 0.070185 -0.232115
v -0.004762 0.139091 1.357822
v 0.012833 0.479989 -0.904522
v -0.004796 0.125316 1.371224
v 0.015501 0.088597 -0.941127
v 0.322257 0.487225 -0.901860
v 0.304553 0.090185 1.411796
v 0.324989 0.085077 -0.938416
v -0.294625 0.143294 -0.905699
v -0.296590 0.472753 -0.907185
v -0.293987 0.092117 -0.943838
v 0.632939 0.139808 0.673101
v 0.166147 0.531458 1.274138
v -0.178891 0.529387 1.271143
v -0.002310 0.533249 0.802822
v -0.006729 0.590331 1.272370
v -0.003161 0.565687 0.878407
v 0.170765 0.561772 0.879940
v -0.006460 0.545146 1.272574
v 0.156537 0.541477 1.274010
v -0.006671 0.580528 1.272415
v -0.006171 0.544999 1.239476
v 0.156825 0.541329 1.240912
v -0.006382 0.580380 1.239316
v 0.320461 0.504415 -0.706933
v -0.298386 0.489943 -0.712258
v 0.630654 0.612129 -0.948323
v -0.607041 0.583185 -0.958973
v 0.011806 0.597657 -0.953648
v 0.321230 0.604893 -0.950985
v -0.297617 0.590421 -0.956310
v -0.608716 0.509373 -0.715048
v 0.010132 0.523845 -0.709723
v 0.319555 0.531081 -0.707060
v -0.637479 0.142499 0.988050
v -0.176445 0.528136 0.990350
v -0.004187 0.572771 0.991651
v -0.178052 0.566768 0.990164
v 0.684979 0.141998 1.300993
v 0.684380 0.091231 1.352277
v 0.683898 0.116759 0.999060
v 0.683168 0.093328 0.999164
v 0.679273 0.115154 0.468277
v 0.684887 0.112165 -0.202317
v -0.673686 0.125565 0.456772
v -0.650975 0.384533 -0.136343
v -0.647539 0.396385 -0.137194
v -0.648918 0.413712 -0.030332
v -0.651649 0.384971 -0.030227
v 0.663918 0.392983 -0.018806
v -0.657622 0.397911 -0.137418
v -0.659001 0.415238 -0.030556
v -0.661730 0.386497 -0.030451
v 0.674920 0.394071 -0.124462
v -0.625828 0.509350 1.342133
v -0.618893 0.493554 0.554277
v -0.611201 0.468171 -0.314179
v -0.005561 0.229656 1.387223
v 0.301405 0.518412 0.579173
v 0.312724 1.032298 -0.180807
v 0.316480 0.321930 1.368516
v -0.316998 0.525270 1.406965
v -0.317506 0.514696 0.573800
v -0.319268 1.050432 0.406352
v -0.328313 0.318059 1.362918
v -0.005590 0.245314 1.379753
v 0.225725 0.499127 1.406968
v 0.230156 0.315652 1.365402
v -0.241880 0.312818 1.361303
v 0.230520 0.315696 1.323403
v 0.230567 0.239190 1.341615
v -0.241515 0.312863 1.319304
v -0.622982 0.290716 1.304170
v -0.622826 0.250963 1.313639
v -0.355299 0.292603 1.368706
v 0.612588 0.258380 1.324365
v -0.623146 0.291401 1.322527
v -0.622989 0.251650 1.331986
v -0.355306 0.253537 1.396521
v 0.612268 0.298818 1.333253
v 0.612425 0.259067 1.342712
v -0.619893 0.506313 0.660557
v 0.617929 0.513745 0.671304
v -0.644622 0.313009 0.661203
v -0.001117 0.532639 0.665828
v -0.310520 0.521955 0.663181
v 0.427612 0.634808 -0.272573
v -0.414703 0.615148 -0.279987
v 0.343105 0.890173 -0.213191
v 0.004038 0.624923 -0.276305
v 0.004406 0.888124 -0.216064
v 0.313863 0.890038 -0.213619
v -0.305052 0.886212 -0.218510
v 0.637925 0.293628 -0.898248
v 0.638225 0.243369 -0.898021
v 0.357485 0.244026 -0.900469
v 0.357711 0.243910 -0.926468
v -0.622732 0.507766 0.986554
v 0.615090 0.515197 0.997301
v -0.647461 0.314461 0.987200
v 0.305552 0.527124 0.994552
v -0.313359 0.523408 0.989179
v 0.585215 0.487347 1.351948
v 0.604161 0.353825 1.321647
v 0.334800 0.497208 1.399926
v -0.615499 0.346503 1.311057
v -0.598686 0.480239 1.341669
v 0.579126 0.493949 1.323324
v 0.598072 0.360428 1.293023
v 0.338901 0.359090 1.340724
v -0.572216 0.518769 0.522083
v -0.420238 0.994263 0.373681
v 0.300843 0.540305 0.542726
v -0.316510 0.536577 0.537352
v 0.590970 0.519404 -0.263867
v -0.414886 0.605487 -0.237062
v 0.342928 0.880195 -0.170338
v 0.003812 0.615106 -0.233414
v 0.004180 0.878307 -0.173173
v 0.313662 0.880112 -0.170754
v -0.305589 0.608031 -0.236292
vn 0.1760 -0.3260 0.9288
vn 0.9890 0.1476 0.0080
vn 0.0087 -0.0045 -1.0000
vn -0.9563 0.2918 -0.0170
vn -0.9535 0.3011 -0.0099
vn -0.0583 -0.9983 0.0039
vn -0.9542 0.2990 -0.0096
vn 0.9999 0.0060 0.0087
vn 0.0294 0.9996 -0.0042
vn 0.1230 -0.9923 -0.0132
vn 0.0233 -0.9997 0.0047
vn -0.0114 -0.9999 0.0044
vn -0.9271 -0.3747 -0.0064
vn -0.9569 0.2904 -0.0097
vn -0.9513 -0.2571 0.1703
vn 0.0380 0.9479 -0.3163
vn -0.0316 -0.9544 0.2970
vn -0.0458 0.9468 -0.3185
vn 0.9498 0.3126 0.0069
vn -0.1347 0.3316 0.9337
vn -0.9999 -0.0060 -0.0087
vn 0.9579 -0.2870 0.0096
vn -0.9880 0.1544 -0.0093
vn 0.9630 -0.2694 0.0096
vn -0.9937 -0.1093 -0.0239
vn -0.0064 -0.3087 0.9511
vn -0.0233 0.9997 -0.0047
vn 0.0077 -0.9999 0.0143
vn -0.0875 -0.9469 0.3093
vn 0.0316 0.9544 -0.2970
vn 0.2958 0.9549 -0.0253
vn -0.0706 -0.2740 -0.9591
vn -0.2956 -0.9553 0.0017
vn -0.0759 -0.1986 0.9771
vn -0.3126 0.9499 -0.0070
vn -0.0064 -0.3088 0.9511
vn 0.0606 -0.2057 0.9767
vn -0.0379 0.9539 -0.2976
vn 0.3126 -0.9499 0.0070
vn 0.0962 -0.2712 -0.9577
vn -0.0114 -0.9999 -0.0025
vn -0.0247 0.9751 0.2205
vn 0.1041 -0.9443 0.3122
vn 0.9594 -0.2759 -0.0580
vn 0.0077 -0.9756 -0.2196
vn 0.0078 -0.9998 -0.0160
vn 0.0078 -0.9748 -0.2231
vn 0.9504 -0.2434 0.1934
vn -0.0247 0.9739 0.2254
vn 0.0078 -0.9742 -0.2256
vn -0.9518 -0.2979 -0.0733
vn -0.1882 -0.3283 0.9256
vn -0.0247 0.9737 0.2266
vn 0.0076 -1.0000 0.0045
vn 0.0078 -0.9753 -0.2206
vn 0.0379 -0.9539 0.2976
vn -0.0247 0.9745 0.2229
vn -0.0809 0.2672 0.9602
vn -0.9852 -0.1713 -0.0078
vn -0.9823 0.0838 -0.1677
vn -0.8719 0.4891 -0.0220
vn 0.9855 -0.1693 0.0093
vn -0.9492 -0.3147 -0.0069
vn 0.9053 0.4248 0.0060
vn 0.9848 0.0845 -0.1519
vn -0.0064 -0.3089 0.9511
vn -0.1882 -0.3281 0.9257
vn 0.0611 -0.9974 0.0371
vn 0.9995 -0.0312 -0.0029
vn 0.9629 -0.2694 0.0130
vn -0.0113 -0.9999 -0.0082
vn -0.0759 0.9971 -0.0051
vn 0.0060 -1.0000 0.0045
vn 0.0114 0.9999 -0.0044
vn -0.0552 0.3060 0.9504
vn 0.9869 0.1611 0.0079
vn -0.9901 0.1400 -0.0092
vn -0.0550 0.3025 0.9516
vn -0.1981 0.0297 0.9797
vn -0.0099 0.2315 0.9728
vn 0.1807 0.0320 0.9830
vn -0.0097 0.2315 0.9728
vn 0.0087 -0.0044 -1.0000
vn -0.0060 1.0000 -0.0045
vn 0.0075 -0.9992 0.0398
vn 0.9905 -0.1375 0.0092
vn -0.9748 -0.1641 -0.1512
vn 0.0078 -1.0000 -0.0045
vn -0.0096 -0.9900 0.1408
vn -0.0665 -0.9971 0.0360
vn 0.0005 -0.9997 -0.0230
vn 0.0225 0.9997 -0.0043
vn -0.0345 0.9994 -0.0048
vn -0.9998 -0.0012 -0.0201
vn -0.0087 0.0045 1.0000
vn -0.9600 -0.2798 -0.0110
vn -0.9905 0.1282 0.0497
vn 0.9879 0.1410 0.0650
vn -0.0037 -0.0043 -1.0000
vn -0.0133 -0.9999 -0.0044
vn 0.0208 -0.0045 -0.9998
vn 0.0057 -0.9997 -0.0229
vn 0.0350 0.3058 0.9514
vn 0.0349 0.3031 0.9523
vn 0.0577 0.2720 0.9606
vn 0.1059 0.3309 0.9377
vn 0.1373 0.2657 0.9542
vn -0.1735 0.2554 0.9511
vn 0.0075 -0.9824 -0.1864
vn -0.0092 0.7107 0.7034
vn -0.0249 0.9569 0.2894
vn 0.0138 0.5976 -0.8017
vn -0.1497 -0.9887 0.0031
vn -0.0213 0.0057 0.9998
vn 0.1512 0.9761 -0.1563
vn 0.0109 -0.0748 -0.9971
vn -0.9606 0.2779 -0.0072
vn 0.1528 -0.9882 0.0057
vn 0.0178 -0.0636 -0.9978
vn 0.9882 0.1529 0.0079
vn -0.1529 0.9882 -0.0057
vn 0.9938 -0.0072 -0.1113
vn -0.9998 -0.0012 -0.0213
vn -0.0339 0.9975 -0.0627
vn 0.9995 -0.0296 0.0088
vn 0.0242 0.9188 -0.3940
vn -0.0283 0.9185 -0.3945
vn -0.9988 -0.0489 -0.0085
vn -0.0087 0.0044 1.0000
vn -0.9998 0.0190 -0.0088
vn -0.0225 -0.9997 0.0043
vn 0.0345 -0.9994 0.0048
vn 0.9995 0.0311 0.0086
vn -0.9999 0.0114 -0.0085
vn 0.9989 -0.0464 0.0089
vn -0.9989 0.0465 -0.0089
vn 0.9995 -0.0312 -0.0010
vn -0.1420 0.7037 0.6961
vn -0.9918 0.0062 -0.1276
vn -0.9999 0.0114 -0.0088
vn 0.9999 -0.0114 0.0088
vn 0.9999 -0.0114 0.0090
vn 0.0169 -0.3851 -0.9227
vn -0.9997 -0.0234 -0.0086
vn 0.9997 0.0234 0.0086
vn -0.2763 -0.9611 0.0019
vn 0.1218 0.7053 0.6984
vn 0.0230 0.9978 -0.0622
vn 0.9995 -0.0296 0.0109
vn -0.9991 -0.0416 -0.0085
vn 0.0129 0.9963 -0.0850
vn -0.8680 0.0025 0.4965
vn 0.0119 0.7105 0.7036
vn -0.0182 0.7106 0.7034
vn -0.0057 0.9997 0.0248
vn 0.2761 0.9611 -0.0019
vn 0.8601 -0.0032 0.5101
vn 0.5876 -0.8091 0.0086
vn 0.4651 -0.0069 -0.8852
vn -0.0115 0.7107 0.7034
vn -0.5878 0.8090 -0.0087
vn -0.4498 -0.0010 -0.8932
vn -0.0071 -0.2217 0.9751
vn -0.9902 0.1358 0.0323
vn 0.9878 0.1477 0.0485
vn -0.9919 0.1269 -0.0092
vn 0.0385 0.9992 -0.0041
vn 0.0119 -0.2062 0.9784
vn 0.9903 0.1388 0.0080
vn -0.0120 -0.1472 0.9890
vn -0.0104 0.4305 0.9025
vn -0.0518 0.2311 0.9716
vn 0.0322 0.2316 0.9723
vn -0.0104 0.4306 0.9025
vn -0.0264 -0.2065 0.9781
vn -0.1491 0.9880 -0.0397
vn -0.0034 -0.1472 0.9891
vn -0.9997 -0.0215 -0.0116
vn -0.0043 0.9828 -0.1845
vn -1.0000 -0.0025 -0.0093
vn 0.9999 0.0096 0.0080
vn 0.9999 -0.0095 0.0057
vn -0.0020 -0.9993 0.0374
vn 0.0020 0.9993 -0.0373
vn -0.2299 0.2247 0.9469
vn 0.0133 -0.9992 0.0375
vn -0.0133 0.9992 -0.0374
vn -0.9916 0.1268 -0.0245
vn 0.0393 0.9921 -0.1187
vn 0.9903 0.1387 -0.0073
vn -0.0497 0.9958 -0.0770
vn 0.0232 0.9963 -0.0827
vn -0.0101 0.2394 -0.9709
vn 0.0057 0.2194 -0.9756
vn 0.0071 0.2227 -0.9749
vn 0.0071 0.2248 -0.9744
vn 0.0024 0.2526 -0.9676
vn 0.0071 0.2236 -0.9747
vn 0.0056 0.2270 -0.9739
vn 0.0156 0.2408 -0.9705
vn -0.0505 0.9987 -0.0049
vn 0.0071 0.2231 -0.9748
vn 0.0025 0.2508 -0.9680
vn 0.1231 0.9918 -0.0339
vn -0.0024 -1.0000 0.0044
vn -0.0098 0.2316 0.9728
vn 0.1774 -0.1933 0.9650
vn 0.1773 -0.1935 0.9650
vn 0.1785 -0.1920 0.9650
vn 0.1791 -0.1916 0.9650
vn -0.1918 -0.1955 0.9618
vn -0.1935 -0.1939 0.9618
vn -0.1929 -0.1943 0.9618
vn -0.0057 0.9993 -0.0370
vn -0.1916 -0.1957 0.9618
vn 0.2107 0.2273 0.9508
vn -0.0783 -0.9749 -0.2082
vn 0.9772 0.1075 -0.1831
vn 0.0350 0.9754 0.2176
vn -0.9704 -0.1754 0.1660
vn 0.0936 -0.9739 -0.2067
vn 0.9694 -0.1637 0.1828
vn -0.0505 0.9749 0.2168
vn -0.9751 0.0958 -0.2000
vn -0.0492 0.9958 -0.0770
vn 0.0134 0.2205 -0.9753
vn -0.9539 0.2995 -0.0175
vn 0.1491 0.2951 0.9438
vn 0.0040 0.2231 -0.9748
vn -0.1902 0.2921 0.9373
vn 0.0350 0.2972 0.9542
vn 0.0132 0.2257 -0.9741
vn 0.0040 0.2205 -0.9754
vn -0.0552 0.2966 0.9534
vn 0.1713 -0.3482 0.9216
vn -0.9540 0.2991 -0.0191
vn -0.0583 -0.9983 0.0040
vn -0.9563 0.2921 -0.0092
vn -0.9492 -0.3146 0.0027
vn -0.9563 0.2918 -0.0190
vn 0.0394 0.9507 -0.3075
vn -0.0322 -0.9511 0.3072
vn -0.0477 0.9498 -0.3091
vn -0.0923 0.3234 0.9417
vn 0.9837 -0.1369 -0.1167
vn -0.9862 -0.1652 -0.0101
vn -0.0084 -1.0000 -0.0019
vn -0.0580 -0.9980 -0.0269
vn -0.0883 -0.9435 0.3194
vn 0.0322 0.9511 -0.3072
vn -0.0383 0.9505 -0.3084
vn -0.0262 -0.9989 0.0395
vn -0.0242 0.9753 0.2194
vn 0.1049 -0.9404 0.3234
vn 0.0060 -0.9753 -0.2207
vn -0.0087 -0.9995 0.0306
vn -0.0091 -0.9999 0.0075
vn 0.0074 -0.9742 -0.2256
vn -0.0243 0.9745 0.2229
vn 0.0060 -0.9739 -0.2268
vn -0.1840 -0.2799 0.9422
vn -0.0242 0.9740 0.2254
vn 0.0074 -0.9748 -0.2231
vn 0.0383 -0.9505 0.3084
vn -0.0243 0.9751 0.2205
vn -0.0780 0.3046 0.9493
vn -0.9841 -0.1776 -0.0055
vn -0.9233 0.2465 -0.2946
vn -0.9451 0.3203 -0.0641
vn 0.9698 0.1361 -0.2023
vn 0.1710 -0.2778 0.9453
vn -0.1831 -0.3504 0.9185
vn 0.0080 -0.9999 -0.0143
vn 1.0000 -0.0068 -0.0050
vn -0.0091 -1.0000 0.0013
vn -0.0554 0.3025 0.9515
vn -0.0547 0.3072 0.9501
vn -0.2147 0.4270 0.8784
vn -0.0096 0.2314 0.9728
vn -0.2147 0.4274 0.8782
vn -0.0102 0.2317 0.9727
vn 0.1943 0.4295 0.8819
vn -0.0094 0.2317 0.9727
vn 0.1943 0.4298 0.8818
vn -0.0112 -0.9998 -0.0161
vn 0.9974 -0.0717 -0.0095
vn -0.9271 -0.3748 -0.0116
vn 0.0048 -1.0000 -0.0018
vn -0.0582 -0.9983 -0.0029
vn -0.1125 -0.9937 -0.0028
vn 0.0097 -0.9999 -0.0143
vn -0.9998 0.0067 -0.0211
vn -0.0259 -0.9997 -0.0020
vn -0.0083 -0.9999 -0.0144
vn 0.9974 -0.0717 0.0026
vn -0.0029 -1.0000 -0.0059
vn 0.0352 0.3031 0.9523
vn 0.0346 0.3067 0.9512
vn 0.0551 0.3049 0.9508
vn 0.0665 0.3227 0.9442
vn 0.1490 0.2970 0.9432
vn -0.1897 0.2929 0.9371
vn -0.0104 0.6973 0.7167
vn 0.0124 0.5922 -0.8057
vn -0.0214 0.0057 0.9998
vn -0.9951 0.0944 -0.0281
vn 0.1529 -0.9882 0.0057
vn 0.9940 -0.0032 -0.1092
vn -0.9998 -0.0087 -0.0203
vn 0.9998 -0.0190 0.0102
vn -0.9991 -0.0416 -0.0064
vn -0.9998 0.0191 -0.0088
vn -0.9999 0.0064 -0.0091
vn 0.9979 -0.0639 0.0086
vn -0.9979 0.0639 -0.0086
vn 0.9999 -0.0154 -0.0035
vn -0.1421 0.7042 0.6956
vn -0.9920 0.0034 -0.1262
vn -0.7759 0.6132 0.1484
vn 0.0124 0.6031 -0.7976
vn 0.7786 0.6055 0.1646
vn 0.9999 -0.0064 0.0084
vn -0.9999 -0.0133 -0.0109
vn 0.9999 0.0133 0.0109
vn -0.2760 -0.9612 0.0020
vn 0.1218 0.7046 0.6991
vn 0.9993 -0.0369 0.0089
vn -0.9995 -0.0310 -0.0071
vn 0.0026 0.9965 -0.0833
vn -0.8641 0.0300 0.5024
vn 0.0121 0.7106 0.7035
vn -0.0183 0.7107 0.7033
vn 0.8527 -0.0500 0.5200
vn 0.5878 -0.8089 0.0085
vn 0.4544 -0.0326 -0.8902
vn -0.4390 0.0246 -0.8982
vn -0.9952 0.0946 0.0252
vn 0.9870 0.1529 0.0494
vn -0.0191 -0.2213 0.9750
vn -0.0079 -0.1213 0.9926
vn -0.0519 0.2311 0.9715
vn 0.0048 -0.2212 0.9752
vn -0.9997 -0.0215 -0.0087
vn -1.0000 -0.0027 -0.0087
vn 0.9999 0.0093 0.0087
vn 0.9999 -0.0095 0.0087
vn -0.2299 0.2244 0.9470
vn -0.0133 0.9992 -0.0375
vn -0.9907 0.1357 -0.0092
vn 0.0508 0.9951 -0.0848
vn -0.0618 0.9909 -0.1195
vn 0.0399 0.9989 -0.0248
vn 0.0010 0.2489 -0.9685
vn 0.0024 0.2192 -0.9757
vn 0.0134 0.2215 -0.9751
vn 0.0063 0.2231 -0.9748
vn 0.0033 0.2508 -0.9680
vn 0.0132 0.2248 -0.9743
vn 0.0021 0.2272 -0.9739
vn 0.0010 0.2526 -0.9676
vn 0.0063 0.2215 -0.9751
vn 0.0033 0.2490 -0.9685
vn 0.1774 -0.1919 0.9652
vn 0.1791 -0.1935 0.9646
vn 0.1786 -0.1929 0.9648
vn 0.1771 -0.1915 0.9654
vn -0.1918 -0.1942 0.9620
vn -0.1915 -0.1937 0.9622
vn -0.1930 -0.1951 0.9616
vn 0.0390 0.9975 -0.0591
vn -0.1935 -0.1957 0.9614
vn 0.2107 0.2271 0.9508
vn 0.0350 0.9754 0.2175
vn -0.0499 0.9969 -0.0611
vn -0.0343 0.9992 -0.0182
vn 0.0018 0.2194 -0.9756
vn -0.9570 0.2898 -0.0092
vn 0.0556 0.3197 0.9459
vn 0.0063 0.2258 -0.9742
vn -0.0787 0.3198 0.9442
vn 0.0343 0.2976 0.9541
vn 0.0017 0.2270 -0.9739
vn -0.0543 0.2971 0.9533
vt 1.000000 0.130200
vt 0.750000 0.250000
vt 0.750000 0.130245
vt 1.000000 0.500000
vt 0.932407 1.000000
vt 0.939470 0.500000
vt 0.250000 0.250000
vt 0.000000 0.000000
vt 0.250000 0.000000
vt 0.000000 0.413998
vt 0.000000 0.793523
vt 0.000000 0.393975
vt 1.000000 0.206477
vt 0.750537 0.606026
vt 0.750716 0.206477
vt 0.000000 0.773814
vt 0.982667 0.965334
vt 0.982612 0.534775
vt 0.750000 0.793523
vt 1.000000 0.932408
vt 0.750000 0.932408
vt 0.250445 0.809277
vt 0.500358 1.000000
vt 0.250358 1.000000
vt 0.767441 0.965118
vt 0.500716 0.060531
vt 0.250716 0.206477
vt 0.250716 0.060531
vt 0.060531 0.250000
vt 0.206477 0.000000
vt 0.206477 0.250000
vt 0.000000 0.773632
vt 0.988175 0.393975
vt 0.984818 0.393975
vt 0.765018 0.393975
vt 0.512917 0.393975
vt 0.828949 0.393975
vt 0.234692 0.393975
vt 0.015313 0.393975
vt 1.000000 0.793523
vt 1.000000 0.414201
vt 1.000000 0.393975
vt 0.939470 0.250000
vt 0.662406 0.500000
vt 0.606026 0.250000
vt 0.660849 0.250000
vt 0.339151 0.250000
vt 0.393974 0.000000
vt 0.393974 0.250000
vt 0.606026 0.500000
vt 0.206477 0.500000
vt 0.393974 0.500000
vt 0.793523 0.250000
vt 0.793523 0.500000
vt 0.060531 0.500000
vt 0.206477 1.000000
vt 0.067593 1.000000
vt 1.000000 0.773513
vt 0.500000 0.500000
vt 0.500000 0.250000
vt 0.000000 0.250000
vt 0.939470 0.000000
vt 1.000000 0.250000
vt 0.828926 0.250000
vt 0.663074 0.000000
vt 0.837970 0.000000
vt 0.337594 0.500000
vt 0.230785 0.480785
vt 0.250000 0.500000
vt 0.019215 0.480785
vt 0.000000 0.500000
vt 0.019293 0.269293
vt 0.769163 0.269163
vt 0.750000 0.500000
vt 0.980921 0.480921
vt 0.250000 0.130200
vt 0.500000 0.130200
vt 0.750000 0.000000
vt 0.500000 0.000000
vt 1.000000 0.773737
vt 0.250537 0.606026
vt 0.500716 0.206477
vt 0.500537 0.606026
vt 0.250000 0.932408
vt 0.500000 0.793523
vt 0.500000 0.932408
vt 0.750445 0.809264
vt 1.000000 0.659528
vt 1.000000 0.822979
vt 1.000000 0.060531
vt 0.750716 0.060531
vt 0.851866 0.393975
vt 0.741471 0.393975
vt 0.513187 0.393975
vt 0.750000 1.000000
vt 0.500000 1.000000
vt 0.000000 0.413785
vt 0.486813 0.393975
vt 0.258524 0.393975
vt 1.000000 0.413944
vt 0.250000 1.000000
vt 0.750513 0.659535
vt 0.750716 0.000000
vt 0.067856 0.793523
vt 0.182788 0.793523
vt 0.011553 0.393975
vt 0.148046 0.393975
vt 0.054568 0.793523
vt 0.129783 0.793523
vt 0.250513 0.659508
vt 0.000000 0.606026
vt 0.000000 0.060531
vt 0.250716 0.000000
vt 0.767960 0.793523
vt 0.559652 0.793523
vt 0.558797 0.793523
vt 0.709155 0.793523
vt 0.943850 0.793523
vt 0.870695 0.793523
vt 0.931102 0.793523
vt 0.000000 0.130200
vt 1.000000 0.000000
vt 0.816767 0.793523
vt 0.440644 0.793523
vt 0.231647 0.793523
vt 0.171099 0.393975
vt 0.487083 0.393975
vt 0.289496 0.793523
vt 0.439798 0.793523
vt 0.250000 0.393975
vt 0.793523 1.000000
vt 0.563890 0.552729
vt 0.260906 0.931887
vt 0.563256 0.946477
vt 0.606026 1.000000
vt 0.436336 0.553012
vt 0.060531 0.000000
vt 0.436336 0.946988
vt 0.393974 1.000000
vt 0.740156 0.933217
vt 0.500511 0.662225
vt 0.500440 0.818738
vt 1.000000 0.837972
vt 0.000000 1.000000
vt 0.793523 0.000000
vt 0.000000 0.206477
vt 0.000000 0.932408
vt 0.500000 0.393975
vt 0.153003 0.393975
vt 0.224950 0.275050
vt 0.025050 0.474950
vt 0.775050 0.474950
vt 0.775050 0.275050
vt 0.974950 0.474950
vt 0.017208 0.534417
vt 0.232792 0.534417
vt 0.017249 0.965503
vt 0.767388 0.534775
vt 1.000000 1.000000
vt 0.232832 0.965665
vt 0.835254 0.500000
vt 0.171074 0.250000
vt 0.336926 0.000000
vt 0.606026 0.000000
vt 0.164745 0.500000
vt 1.000000 0.606026
vt 0.000000 0.822979
vt 0.750000 0.191430
vt 0.694417 0.265033
vt 0.694417 0.188890
vt 0.500000 0.340804
vt 0.750000 0.340804
vt 0.694417 0.075772
vt 0.305583 0.265033
vt 0.250000 0.340804
vt 0.250000 0.191430
vt 0.305583 0.075772
vt 0.305583 0.188890
vt 0.000000 0.837970
vt 0.000000 0.659528
vt 0.683930 0.074267
vt 0.541589 0.053838
vt 0.683899 0.074262
vt 0.458411 0.053838
vt 0.316070 0.074267
vt 0.316101 0.074262
vt 0.750000 0.393975
vt 0.846997 0.393975
vt 0.510710 0.978580
vt 0.721504 0.943009
vt 0.278496 0.943009
vt 0.489290 0.978580
vt 0.239877 0.541797
vt 0.758627 0.543669
vt 1.000000 0.663074
vt 0.460753 0.220096
vt 0.305583 0.210629
vt 0.694417 0.210629
vt 0.539247 0.287302
vt 0.460753 0.287302
vt 0.539247 0.053502
vt 0.460753 0.053502
vt 0.541961 0.053892
vt 0.458039 0.053892
vt 0.000000 0.663074
vt 0.750358 1.000000
vt 0.500716 0.000000
vt 0.539247 0.220096
vt 0.267786 0.535572
vt 0.822202 1.000000
vt 1.000000 0.340804
vt 0.340804 1.000000
vt 0.177798 1.000000
vt 0.721096 0.278904
vt 0.278904 0.278904
vt 0.153003 0.793523
vt 0.732214 0.535572
vt 0.506671 0.256671
vt 0.727767 0.477767
vt 0.272233 0.477767
vt 0.493329 0.256671
vt 0.025050 0.275050
vt 0.224950 0.474950
vt 0.974950 0.275050
vt 0.659196 1.000000
vt 0.000000 0.340804
vt 0.250000 0.793523
vt 0.846997 0.793523
vt 0.000000 0.177798
vt 0.230863 0.269137
vt 0.769079 0.480921
vt 0.981006 0.268994
vt 1.000000 0.177798
vt 0.114396 0.114396
vt 0.884625 0.884625
vt 0.114396 0.885604
vt 0.884625 0.115375
vt 0.111293 0.888707
vt 0.888281 0.111719
vt 0.111293 0.111293
vt 0.888281 0.888281
vt 0.162028 0.000000
s 0
usemtl glass
f 375/121/231 149/124/231 151/125/231
f 140/113/232 139/48/232 138/26/232
f 367/51/233 125/49/233 128/108/233
f 369/74/24 143/116/24 142/57/24
f 373/131/234 150/133/234 372/132/234
f 366/122/235 368/54/235 129/123/235
f 128/53/236 126/110/236 367/109/236
f 371/134/237 150/139/237 374/135/237
f 151/141/238 372/145/238 375/144/238
f 126/114/239 129/142/239 368/115/239
f 375/121/381 370/120/381 149/124/381
f 140/113/382 141/32/382 139/48/382
f 367/51/383 124/50/383 125/49/383
f 369/74/24 144/96/24 143/116/24
f 373/131/384 374/130/384 150/133/384
f 366/122/385 365/55/385 368/54/385
f 128/53/386 127/52/386 126/110/386
f 371/134/387 148/136/387 150/139/387
f 151/141/361 373/140/361 372/145/361
f 126/114/388 127/143/388 129/142/388
usemtl car_body_1
f 205/17/6 66/18/6 207/19/6
f 31/20/7 153/21/7 156/22/7
f 67/23/8 18/24/8 62/25/8
f 130/26/9 311/27/9 310/28/9
f 25/28/10 130/26/10 310/28/10
f 255/29/11 68/30/11 69/31/11
f 133/32/12 25/28/12 28/27/12
f 188/33/13 181/34/13 180/33/13
f 63/35/14 153/36/14 279/37/14
f 217/38/15 258/39/15 76/40/15
f 190/41/16 180/33/16 182/41/16
f 163/42/17 78/43/17 165/44/17
f 159/45/18 24/46/18 44/47/18
f 131/48/19 28/27/19 311/27/19
f 117/49/20 124/50/20 115/50/20
f 124/50/21 120/51/21 115/50/21
f 127/52/22 121/53/22 119/52/22
f 122/54/23 365/55/23 114/55/23
f 23/56/24 134/57/24 22/58/24
f 158/59/13 31/20/13 156/22/13
f 114/55/25 25/28/25 310/28/25
f 338/60/26 41/61/26 94/62/26
f 95/63/27 250/64/27 42/65/27
f 44/47/26 33/66/26 36/67/26
f 34/68/13 43/69/13 35/70/13
f 157/71/28 311/72/28 155/73/28
f 27/56/24 135/74/24 23/56/24
f 175/18/8 169/75/8 57/76/8
f 157/71/26 40/77/26 159/45/26
f 152/78/29 39/79/29 158/59/29
f 211/80/30 92/81/30 289/82/30
f 42/65/13 93/83/13 95/63/13
f 24/46/18 41/61/18 44/47/18
f 250/64/27 43/69/27 42/65/27
f 192/84/8 67/23/8 65/85/8
f 348/86/8 65/85/8 31/87/8
f 349/88/8 31/87/8 39/77/8
f 67/23/8 349/88/8 39/77/8
f 196/89/8 73/90/8 75/18/8
f 40/79/8 196/89/8 75/18/8
f 193/91/8 40/79/8 32/20/8
f 73/90/8 193/91/8 32/20/8
f 312/76/31 208/92/31 206/93/31
f 173/94/8 57/76/8 168/95/8
f 26/58/24 137/96/24 27/56/24
f 77/97/17 59/98/17 58/99/17
f 280/100/32 52/101/32 162/102/32
f 216/103/33 97/104/33 214/105/33
f 160/106/17 69/31/17 164/107/17
f 134/57/24 26/58/24 22/58/24
f 128/108/34 117/49/34 121/108/34
f 120/109/35 126/110/35 118/110/35
f 138/26/36 131/48/36 130/26/36
f 56/75/8 264/111/8 257/112/8
f 132/113/37 138/26/37 130/26/37
f 141/32/38 132/113/38 133/32/38
f 131/48/39 141/32/39 133/32/39
f 135/74/40 142/57/40 134/57/40
f 206/93/41 60/94/41 207/19/41
f 170/25/8 57/76/8 172/23/8
f 144/96/42 135/74/42 137/96/42
f 58/99/17 69/31/17 68/30/17
f 162/102/32 63/35/32 279/37/32
f 126/114/43 122/115/43 118/114/43
f 136/116/44 144/96/44 137/96/44
f 56/75/8 260/117/8 65/85/8
f 134/57/45 143/116/45 136/116/45
f 100/118/46 58/99/46 68/30/46
f 163/42/17 262/119/17 164/107/17
f 342/120/47 375/121/47 147/121/47
f 116/122/48 129/123/48 123/123/48
f 149/124/49 342/120/49 145/124/49
f 57/76/8 171/85/8 172/23/8
f 347/125/50 149/124/50 145/124/50
f 101/126/51 253/127/51 77/97/51
f 161/128/17 265/129/17 165/44/17
f 346/130/52 373/131/52 345/131/52
f 365/55/53 116/122/53 114/55/53
f 344/132/54 150/133/54 146/133/54
f 343/134/55 374/135/55 346/135/55
f 148/136/56 343/134/56 341/136/56
f 204/137/57 70/25/57 208/92/57
f 19/138/8 75/18/8 263/94/8
f 146/139/58 148/136/58 341/136/58
f 253/127/59 78/43/59 77/97/59
f 345/140/60 151/141/60 347/141/60
f 123/142/61 127/143/61 119/143/61
f 147/144/62 372/145/62 344/145/62
f 317/146/63 114/55/63 310/28/63
f 23/147/7 156/22/7 153/21/7
f 303/148/64 36/67/64 33/66/64
f 36/67/65 301/149/65 311/72/65
f 311/72/66 302/150/66 310/151/66
f 265/129/17 163/42/17 165/44/17
f 35/70/67 304/152/67 34/68/67
f 159/45/68 19/24/68 154/153/68
f 229/154/69 23/147/69 22/155/69
f 230/156/70 35/70/70 23/147/70
f 60/94/6 205/17/6 207/19/6
f 70/25/71 206/93/71 208/92/71
f 207/19/31 312/76/31 206/93/31
f 74/23/72 204/137/72 208/92/72
f 35/70/13 158/59/13 156/22/13
f 217/38/73 98/157/73 215/158/73
f 97/104/74 209/159/74 214/105/74
f 20/160/28 157/71/28 155/73/28
f 44/47/26 157/71/26 159/45/26
f 158/59/75 251/161/75 152/78/75
f 262/119/17 160/106/17 164/107/17
f 69/31/17 163/42/17 164/107/17
f 165/44/76 48/162/76 161/128/76
f 311/27/77 280/100/77 155/163/77
f 174/90/13 75/18/13 73/90/13
f 56/75/78 174/90/78 73/90/78
f 173/94/79 50/95/79 263/94/79
f 51/164/80 122/115/80 317/146/80
f 75/18/81 173/94/81 263/94/81
f 62/25/82 172/23/82 67/23/82
f 168/95/79 62/25/79 50/95/79
f 67/23/26 171/85/26 65/85/26
f 171/85/78 56/75/78 65/85/78
f 318/165/83 119/143/83 53/164/83
f 85/166/84 37/77/84 74/23/84
f 319/85/85 85/166/85 74/23/85
f 327/167/84 319/85/84 29/87/84
f 37/77/85 327/167/85 29/87/85
f 66/18/85 87/168/85 315/90/85
f 38/79/86 88/169/86 66/18/86
f 86/170/87 38/79/87 30/20/87
f 315/90/86 86/170/86 30/20/86
f 65/85/8 177/171/8 31/87/8
f 260/117/8 179/172/8 65/85/8
f 176/173/88 260/117/88 249/160/88
f 31/87/8 176/173/8 249/160/8
f 183/174/8 264/111/8 73/90/8
f 181/34/88 73/90/88 32/20/88
f 180/33/8 32/20/8 20/175/8
f 182/41/8 20/175/8 264/111/8
f 187/172/89 177/171/89 179/172/89
f 178/176/13 187/172/13 179/172/13
f 176/173/16 186/176/16 178/176/16
f 101/126/90 58/99/90 98/157/90
f 211/80/26 29/20/26 354/177/26
f 212/178/91 266/179/91 95/63/91
f 94/62/92 21/180/92 92/81/92
f 210/181/13 95/63/13 93/83/13
f 252/175/93 216/103/93 214/105/93
f 354/177/26 94/62/26 211/80/26
f 185/171/26 176/173/26 177/171/26
f 100/118/94 254/182/94 97/104/94
f 191/174/26 182/41/26 183/174/26
f 216/103/95 258/39/95 215/158/95
f 217/38/96 45/160/96 213/183/96
f 30/87/13 212/178/13 210/181/13
f 355/184/97 103/185/97 218/186/97
f 339/187/97 103/185/97 99/188/97
f 267/189/97 49/95/97 61/94/97
f 104/190/98 339/187/98 340/191/98
f 356/192/98 268/193/98 290/194/98
f 49/95/98 268/193/98 316/25/98
f 289/195/99 96/196/99 213/183/99
f 98/157/95 216/103/95 215/158/95
f 112/197/100 276/198/100 277/199/100
f 96/196/96 217/38/96 213/183/96
f 267/189/97 355/184/97 218/186/97
f 276/200/100 113/201/100 111/202/100
f 104/190/98 356/192/98 290/194/98
f 204/17/101 37/79/101 211/80/101
f 211/80/102 247/138/102 204/17/102
f 212/178/29 38/77/29 205/137/29
f 248/24/103 212/178/103 205/137/103
f 209/24/104 296/175/104 214/160/104
f 214/24/105 294/175/105 252/160/105
f 213/24/106 222/175/106 289/160/106
f 221/138/107 213/160/107 45/24/107
f 120/109/108 51/164/108 313/203/108
f 119/52/109 64/204/109 53/164/109
f 189/34/89 183/174/89 181/34/89
f 115/50/110 313/203/110 22/58/110
f 26/58/111 115/50/111 22/58/111
f 64/204/112 117/49/112 26/58/112
f 116/122/113 318/165/113 25/28/113
f 205/17/240 38/79/240 66/18/240
f 31/20/7 249/175/7 153/21/7
f 67/23/8 39/77/8 18/24/8
f 130/26/232 131/48/232 311/27/232
f 25/28/241 132/113/241 130/26/241
f 255/29/242 254/182/242 68/30/242
f 133/32/243 132/113/243 25/28/243
f 188/33/13 189/34/13 181/34/13
f 63/35/14 23/56/14 153/36/14
f 217/38/73 215/158/73 258/39/73
f 190/41/16 188/33/16 180/33/16
f 163/42/17 59/98/17 78/43/17
f 159/45/244 154/153/244 24/46/244
f 131/48/245 133/32/245 28/27/245
f 117/49/20 125/49/20 124/50/20
f 124/50/246 367/51/246 120/51/246
f 127/52/247 128/53/247 121/53/247
f 122/54/248 368/54/248 365/55/248
f 23/56/24 135/74/24 134/57/24
f 158/59/13 39/79/13 31/20/13
f 114/55/249 116/122/249 25/28/249
f 338/60/26 33/66/26 41/61/26
f 95/63/250 266/179/250 250/64/250
f 44/47/26 41/61/26 33/66/26
f 34/68/13 42/65/13 43/69/13
f 157/71/28 36/67/28 311/72/28
f 27/56/24 137/96/24 135/74/24
f 175/18/8 174/90/8 169/75/8
f 157/71/26 32/87/26 40/77/26
f 152/78/29 18/138/29 39/79/29
f 211/80/251 94/62/251 92/81/251
f 42/65/13 34/68/13 93/83/13
f 24/46/18 21/180/18 41/61/18
f 250/64/27 251/161/27 43/69/27
f 192/84/8 350/246/8 67/23/8
f 348/86/88 192/84/88 65/85/88
f 349/88/8 348/86/8 31/87/8
f 67/23/8 350/246/8 349/88/8
f 196/89/8 195/247/8 73/90/8
f 40/79/88 194/248/88 196/89/88
f 193/91/8 194/248/8 40/79/8
f 73/90/8 195/247/8 193/91/8
f 312/76/31 74/23/31 208/92/31
f 173/94/8 175/18/8 57/76/8
f 26/58/24 136/116/24 137/96/24
f 77/97/17 78/43/17 59/98/17
f 280/100/32 71/243/32 52/101/32
f 216/103/252 100/118/252 97/104/252
f 160/106/253 255/29/253 69/31/253
f 134/57/24 136/116/24 26/58/24
f 128/108/254 125/49/254 117/49/254
f 120/109/255 367/109/255 126/110/255
f 138/26/36 139/48/36 131/48/36
f 56/75/8 73/90/8 264/111/8
f 132/113/37 140/113/37 138/26/37
f 141/32/38 140/113/38 132/113/38
f 131/48/39 139/48/39 141/32/39
f 135/74/40 369/74/40 142/57/40
f 206/93/71 256/95/71 60/94/71
f 170/25/8 168/95/8 57/76/8
f 144/96/42 369/74/42 135/74/42
f 58/99/17 59/98/17 69/31/17
f 162/102/32 52/101/32 63/35/32
f 126/114/256 368/115/256 122/115/256
f 136/116/44 143/116/44 144/96/44
f 56/75/8 257/112/8 260/117/8
f 134/57/45 142/57/45 143/116/45
f 100/118/257 98/157/257 58/99/257
f 163/42/17 259/223/17 262/119/17
f 342/120/258 370/120/258 375/121/258
f 116/122/259 366/122/259 129/123/259
f 149/124/49 370/120/49 342/120/49
f 57/76/8 169/75/8 171/85/8
f 347/125/260 151/125/260 149/124/260
f 101/126/261 96/196/261 253/127/261
f 161/128/262 47/24/262 265/129/262
f 346/130/263 374/130/263 373/131/263
f 365/55/53 366/122/53 116/122/53
f 344/132/264 372/132/264 150/133/264
f 343/134/265 371/134/265 374/135/265
f 148/136/56 371/134/56 343/134/56
f 204/137/266 247/24/266 70/25/266
f 19/138/8 40/79/8 75/18/8
f 146/139/267 150/139/267 148/136/267
f 253/127/59 48/162/59 78/43/59
f 345/140/268 373/140/268 151/141/268
f 123/142/269 129/142/269 127/143/269
f 147/144/270 375/144/270 372/145/270
f 317/146/271 122/54/271 114/55/271
f 23/147/7 35/70/7 156/22/7
f 303/148/272 300/209/272 36/67/272
f 36/67/273 300/209/273 301/149/273
f 311/72/274 301/149/274 302/150/274
f 265/129/17 259/223/17 163/42/17
f 35/70/67 231/210/67 304/152/67
f 159/45/68 40/77/68 19/24/68
f 229/154/69 230/156/69 23/147/69
f 230/156/275 231/210/275 35/70/275
f 60/94/276 248/138/276 205/17/276
f 70/25/71 256/95/71 206/93/71
f 207/19/41 66/18/41 312/76/41
f 74/23/277 37/77/277 204/137/277
f 35/70/13 43/69/13 158/59/13
f 217/38/278 101/126/278 98/157/278
f 97/104/279 266/211/279 209/159/279
f 20/160/28 32/87/28 157/71/28
f 44/47/26 36/67/26 157/71/26
f 158/59/27 43/69/27 251/161/27
f 262/119/280 46/138/280 160/106/280
f 69/31/17 59/98/17 163/42/17
f 165/44/59 78/43/59 48/162/59
f 311/27/77 71/243/77 280/100/77
f 174/90/13 175/18/13 75/18/13
f 56/75/78 169/75/78 174/90/78
f 173/94/79 168/95/79 50/95/79
f 51/164/281 118/114/281 122/115/281
f 75/18/81 175/18/81 173/94/81
f 62/25/82 170/25/82 172/23/82
f 168/95/79 170/25/79 62/25/79
f 67/23/26 172/23/26 171/85/26
f 171/85/78 169/75/78 56/75/78
f 318/165/282 123/142/282 119/143/282
f 85/166/283 328/238/283 37/77/283
f 319/85/284 329/239/284 85/166/284
f 327/167/285 329/239/285 319/85/285
f 37/77/286 328/238/286 327/167/286
f 66/18/284 88/169/284 87/168/284
f 38/79/287 330/240/287 88/169/287
f 86/170/288 330/240/288 38/79/288
f 315/90/289 87/168/289 86/170/289
f 65/85/8 179/172/8 177/171/8
f 260/117/8 178/176/8 179/172/8
f 176/173/8 178/176/8 260/117/8
f 31/87/8 177/171/8 176/173/8
f 183/174/8 182/41/8 264/111/8
f 181/34/8 183/174/8 73/90/8
f 180/33/8 181/34/8 32/20/8
f 182/41/88 180/33/88 20/175/88
f 187/172/89 185/171/89 177/171/89
f 178/176/13 186/176/13 187/172/13
f 176/173/16 184/173/16 186/176/16
f 101/126/290 77/97/290 58/99/290
f 211/80/26 37/79/26 29/20/26
f 212/178/291 209/258/291 266/179/291
f 94/62/292 41/61/292 21/180/292
f 210/181/13 212/178/13 95/63/13
f 252/175/293 261/222/293 216/103/293
f 354/177/26 338/60/26 94/62/26
f 185/171/26 184/173/26 176/173/26
f 100/118/294 68/30/294 254/182/294
f 191/174/26 190/41/26 182/41/26
f 216/103/295 261/222/295 258/39/295
f 217/38/296 76/40/296 45/160/296
f 30/87/13 38/77/13 212/178/13
f 355/184/97 99/188/97 103/185/97
f 339/187/97 269/215/97 103/185/97
f 267/189/97 102/217/97 49/95/97
f 104/190/98 269/216/98 339/187/98
f 356/192/98 316/25/98 268/193/98
f 49/95/98 102/218/98 268/193/98
f 289/195/297 92/221/297 96/196/297
f 98/157/298 100/118/298 216/103/298
f 112/197/100 278/219/100 276/198/100
f 96/196/299 101/126/299 217/38/299
f 267/189/97 61/94/97 355/184/97
f 276/200/100 278/220/100 113/201/100
f 104/190/98 340/191/98 356/192/98
f 211/80/30 289/82/30 247/138/30
f 248/24/300 209/258/300 212/178/300
f 209/24/104 295/138/104 296/175/104
f 214/24/301 296/138/301 294/175/301
f 213/24/106 223/138/106 222/175/106
f 221/138/107 223/175/107 213/160/107
f 120/109/302 118/110/302 51/164/302
f 119/52/303 121/53/303 64/204/303
f 189/34/89 191/174/89 183/174/89
f 115/50/304 120/51/304 313/203/304
f 26/58/305 117/49/305 115/50/305
f 64/204/306 121/108/306 117/49/306
f 116/122/307 123/123/307 318/165/307
usemtl car_body
f 244/205/114 82/206/114 321/206/114
f 83/207/114 244/208/114 245/207/114
f 258/39/115 70/117/115 76/40/115
f 167/100/116 282/160/116 286/163/116
f 265/129/117 19/24/117 263/25/117
f 307/138/118 300/160/118 303/24/118
f 302/24/119 307/175/119 303/160/119
f 305/138/120 302/160/120 301/24/120
f 300/24/121 305/175/121 301/160/121
f 307/148/122 305/149/122 232/209/122
f 308/138/123 304/160/123 231/24/123
f 230/24/124 308/175/124 231/160/124
f 308/210/125 234/154/125 233/152/125
f 229/24/126 235/175/126 230/160/126
f 233/138/100 229/160/100 304/24/100
f 97/104/127 250/182/127 266/211/127
f 223/183/128 220/160/128 222/195/128
f 106/193/129 291/212/129 292/213/129
f 219/214/130 267/189/130 218/186/130
f 269/215/131 272/185/131 103/185/131
f 107/190/132 269/216/132 104/190/132
f 290/194/133 107/190/133 104/190/133
f 274/199/100 102/217/100 267/189/100
f 105/189/100 274/199/100 267/189/100
f 270/217/100 109/197/100 105/189/100
f 102/218/134 108/202/134 268/193/134
f 110/201/100 270/218/100 106/193/100
f 108/202/100 106/193/100 268/193/100
f 277/199/97 273/198/97 274/199/97
f 109/197/135 277/199/135 274/199/135
f 278/219/136 109/197/136 275/219/136
f 276/200/98 108/202/98 273/200/98
f 113/201/137 275/220/137 110/201/137
f 111/202/138 110/201/138 108/202/138
f 166/36/116 284/111/116 288/37/116
f 48/162/139 154/128/139 161/128/139
f 297/182/140 225/29/140 224/182/140
f 226/162/141 227/127/141 299/127/141
f 293/175/142 296/105/142 295/159/142
f 70/117/143 45/160/143 76/40/143
f 92/221/144 253/127/144 96/196/144
f 19/24/145 161/128/145 154/128/145
f 18/138/117 262/119/117 62/94/117
f 160/106/146 18/138/146 152/106/146
f 251/29/147 160/106/147 152/106/147
f 287/102/116 285/117/116 167/100/116
f 288/37/116 283/112/116 287/102/116
f 280/100/100 286/163/100 155/163/100
f 282/160/148 264/117/148 20/160/148
f 286/163/149 20/160/149 155/163/149
f 166/36/100 279/37/100 153/36/100
f 249/175/150 166/36/150 153/36/150
f 284/111/148 249/175/148 260/111/148
f 287/102/100 280/100/100 162/102/100
f 227/138/151 48/160/151 253/24/151
f 285/117/148 257/112/148 264/117/148
f 288/37/100 162/102/100 279/37/100
f 283/112/148 260/111/148 257/112/148
f 252/175/152 60/111/152 261/222/152
f 265/129/117 50/95/117 259/223/117
f 219/214/153 271/215/153 291/224/153
f 271/216/129 292/213/129 291/212/129
f 291/224/153 105/189/153 219/214/153
f 218/186/154 272/185/154 219/214/154
f 268/193/155 292/213/155 290/194/155
f 293/138/156 209/160/156 248/24/156
f 299/138/157 253/160/157 21/24/157
f 294/138/158 248/160/158 252/24/158
f 259/223/117 62/94/117 262/119/117
f 247/24/159 221/175/159 45/160/159
f 222/138/160 247/160/160 289/24/160
f 224/138/161 251/160/161 250/24/161
f 297/138/162 250/160/162 254/24/162
f 255/24/163 297/175/163 254/160/163
f 251/24/164 298/175/164 255/160/164
f 60/111/165 258/39/165 261/222/165
f 24/24/166 299/175/166 21/160/166
f 48/24/167 226/175/167 24/160/167
f 55/75/168 83/207/168 326/225/168
f 302/150/169 33/66/169 310/151/169
f 34/68/170 229/154/170 22/155/170
f 29/20/171 352/226/171 354/177/171
f 355/184/172 337/227/172 99/188/172
f 321/206/173 315/90/173 61/111/173
f 210/181/174 337/228/174 353/229/174
f 49/112/175 321/206/175 61/111/175
f 79/230/176 312/76/176 66/18/176
f 315/90/177 79/230/177 66/18/177
f 80/231/178 319/85/178 74/23/178
f 312/76/179 80/231/179 74/23/179
f 319/85/180 245/207/180 316/117/180
f 72/232/181 25/28/181 318/165/181
f 245/207/182 49/112/182 316/117/182
f 82/206/183 322/233/183 321/206/183
f 79/230/184 81/234/184 320/234/184
f 322/235/185 325/230/185 79/230/185
f 55/75/168 82/206/168 246/205/168
f 84/231/186 323/236/186 80/231/186
f 81/237/184 80/231/184 320/237/184
f 323/225/187 83/207/187 245/207/187
f 85/166/188 332/238/188 328/238/188
f 89/239/13 85/166/13 329/239/13
f 331/167/189 329/239/189 327/167/189
f 328/238/26 331/167/26 327/167/26
f 89/239/190 332/238/190 333/166/190
f 88/169/26 90/168/26 87/168/26
f 335/240/191 88/169/191 330/240/191
f 334/170/13 330/240/13 86/170/13
f 87/168/192 334/170/192 86/170/192
f 310/151/193 338/60/193 336/241/193
f 22/58/194 99/188/194 337/227/194
f 93/83/195 22/155/195 337/228/195
f 317/146/196 336/242/196 340/191/196
f 313/203/197 339/187/197 99/188/197
f 342/120/198 71/243/198 311/27/198
f 28/27/199 342/120/199 311/27/199
f 72/232/200 145/124/200 28/27/200
f 346/130/201 54/101/201 314/244/201
f 52/101/202 146/133/202 63/35/202
f 343/134/203 314/244/203 27/56/203
f 341/136/204 27/56/204 23/56/204
f 63/35/205 341/136/205 23/56/205
f 340/191/206 352/245/206 356/192/206
f 345/140/207 72/232/207 54/101/207
f 71/243/208 344/145/208 52/101/208
f 199/84/26 350/246/26 192/84/26
f 348/86/89 199/84/89 192/84/89
f 26/58/209 314/244/209 64/204/209
f 349/88/13 197/86/13 348/86/13
f 351/246/210 349/88/210 350/246/210
f 196/89/13 202/247/13 195/247/13
f 201/248/210 196/89/210 194/248/210
f 325/230/211 55/75/211 81/234/211
f 197/86/8 351/246/8 199/84/8
f 200/91/26 194/248/26 193/91/26
f 202/247/89 193/91/89 195/247/89
f 336/241/171 354/177/171 352/226/171
f 355/184/172 17/138/172 353/249/172
f 353/229/174 30/87/174 210/181/174
f 309/24/206 356/192/206 352/245/206
f 359/250/212 17/160/212 61/24/212
f 17/160/213 358/251/213 30/175/213
f 358/251/214 315/138/214 30/175/214
f 315/138/215 359/250/215 61/24/215
f 309/24/216 237/252/216 316/160/216
f 237/252/217 319/175/217 316/160/217
f 319/175/218 360/253/218 29/138/218
f 54/101/219 64/204/219 314/244/219
f 360/253/220 309/24/220 29/138/220
f 335/240/221 90/168/221 91/169/221
f 359/250/222 362/254/222 357/254/222
f 364/255/223 359/250/223 236/255/223
f 363/251/224 236/255/224 358/251/224
f 357/254/225 363/251/225 358/251/225
f 318/165/219 54/101/219 72/232/219
f 243/256/226 237/252/226 361/256/226
f 84/231/211 55/75/211 326/236/211
f 201/248/8 202/247/8 203/89/8
f 242/253/227 361/256/227 360/253/227
f 238/257/228 242/253/228 360/253/228
f 237/252/229 241/257/229 238/257/229
f 340/191/230 51/164/230 317/146/230
f 244/205/114 246/205/114 82/206/114
f 83/207/114 246/208/114 244/208/114
f 258/39/308 256/112/308 70/117/308
f 167/100/116 285/117/116 282/160/116
f 265/129/309 47/24/309 19/24/309
f 307/138/118 232/175/118 300/160/118
f 302/24/310 306/138/310 307/175/310
f 305/138/120 306/175/120 302/160/120
f 300/24/121 232/138/121 305/175/121
f 307/148/311 306/150/311 305/149/311
f 308/138/312 233/175/312 304/160/312
f 230/24/124 235/138/124 308/175/124
f 308/210/125 235/156/125 234/154/125
f 229/24/126 234/138/126 235/175/126
f 233/138/100 234/175/100 229/160/100
f 97/104/313 254/182/313 250/182/313
f 223/183/314 221/160/314 220/160/314
f 106/193/129 270/218/129 291/212/129
f 219/214/315 105/189/315 267/189/315
f 269/215/131 271/215/131 272/185/131
f 107/190/132 271/216/132 269/216/132
f 290/194/316 292/213/316 107/190/316
f 274/199/134 273/198/134 102/217/134
f 105/189/100 109/197/100 274/199/100
f 270/217/100 275/219/100 109/197/100
f 102/218/100 273/200/100 108/202/100
f 110/201/100 275/220/100 270/218/100
f 108/202/100 110/201/100 106/193/100
f 277/199/97 276/198/97 273/198/97
f 109/197/317 112/197/317 277/199/317
f 278/219/136 112/197/136 109/197/136
f 276/200/98 111/202/98 108/202/98
f 113/201/137 278/220/137 275/220/137
f 111/202/138 113/201/138 110/201/138
f 166/36/116 281/175/116 284/111/116
f 48/162/318 24/162/318 154/128/318
f 297/182/319 298/29/319 225/29/319
f 226/162/320 228/162/320 227/127/320
f 293/175/321 294/175/321 296/105/321
f 70/117/322 247/160/322 45/160/322
f 92/221/323 21/127/323 253/127/323
f 19/24/324 47/24/324 161/128/324
f 18/138/325 46/138/325 262/119/325
f 160/106/326 46/138/326 18/138/326
f 251/29/327 255/29/327 160/106/327
f 287/102/116 283/112/116 285/117/116
f 288/37/116 284/111/116 283/112/116
f 280/100/134 167/100/134 286/163/134
f 282/160/148 285/117/148 264/117/148
f 286/163/328 282/160/328 20/160/328
f 166/36/100 288/37/100 279/37/100
f 249/175/329 281/175/329 166/36/329
f 284/111/148 281/175/148 249/175/148
f 287/102/100 167/100/100 280/100/100
f 227/138/330 228/175/330 48/160/330
f 285/117/148 283/112/148 257/112/148
f 288/37/100 287/102/100 162/102/100
f 283/112/148 284/111/148 260/111/148
f 252/175/331 248/175/331 60/111/331
f 265/129/117 263/25/117 50/95/117
f 219/214/153 272/185/153 271/215/153
f 271/216/129 107/190/129 292/213/129
f 291/224/153 270/217/153 105/189/153
f 218/186/332 103/185/332 272/185/332
f 268/193/333 106/193/333 292/213/333
f 293/138/334 295/175/334 209/160/334
f 299/138/335 227/175/335 253/160/335
f 294/138/336 293/175/336 248/160/336
f 259/223/117 50/95/117 62/94/117
f 247/24/337 220/138/337 221/175/337
f 222/138/160 220/175/160 247/160/160
f 224/138/161 225/175/161 251/160/161
f 297/138/338 224/175/338 250/160/338
f 255/24/339 298/138/339 297/175/339
f 251/24/340 225/138/340 298/175/340
f 60/111/308 256/112/308 258/39/308
f 24/24/166 226/138/166 299/175/166
f 48/24/341 228/138/341 226/175/341
f 55/75/168 246/208/168 83/207/168
f 302/150/342 303/148/342 33/66/342
f 34/68/343 304/152/343 229/154/343
f 29/20/171 309/175/171 352/226/171
f 355/184/172 353/249/172 337/227/172
f 321/206/344 322/233/344 315/90/344
f 210/181/174 93/83/174 337/228/174
f 49/112/345 244/205/345 321/206/345
f 79/230/179 320/234/179 312/76/179
f 315/90/346 322/235/346 79/230/346
f 80/231/178 323/236/178 319/85/178
f 312/76/176 320/237/176 80/231/176
f 319/85/347 323/225/347 245/207/347
f 72/232/89 28/27/89 25/28/89
f 245/207/345 244/208/345 49/112/345
f 82/206/348 324/233/348 322/233/348
f 79/230/184 325/230/184 81/234/184
f 322/235/349 324/235/349 325/230/349
f 55/75/168 324/233/168 82/206/168
f 84/231/350 326/236/350 323/236/350
f 81/237/184 84/231/184 80/231/184
f 323/225/351 326/225/351 83/207/351
f 85/166/188 333/166/188 332/238/188
f 89/239/13 333/166/13 85/166/13
f 331/167/189 89/239/189 329/239/189
f 328/238/26 332/238/26 331/167/26
f 89/239/352 331/167/352 332/238/352
f 88/169/26 91/169/26 90/168/26
f 335/240/191 91/169/191 88/169/191
f 334/170/13 335/240/13 330/240/13
f 87/168/353 90/168/353 334/170/353
f 310/151/354 33/66/354 338/60/354
f 22/58/355 313/203/355 99/188/355
f 93/83/7 34/68/7 22/155/7
f 317/146/356 310/28/356 336/242/356
f 313/203/357 51/164/357 339/187/357
f 342/120/358 147/121/358 71/243/358
f 28/27/359 145/124/359 342/120/359
f 72/232/360 347/125/360 145/124/360
f 346/130/361 345/131/361 54/101/361
f 52/101/362 344/132/362 146/133/362
f 343/134/363 346/135/363 314/244/363
f 341/136/364 343/134/364 27/56/364
f 63/35/365 146/139/365 341/136/365
f 340/191/206 336/242/206 352/245/206
f 345/140/366 347/141/366 72/232/366
f 71/243/367 147/144/367 344/145/367
f 199/84/26 351/246/26 350/246/26
f 348/86/89 197/86/89 199/84/89
f 26/58/89 27/56/89 314/244/89
f 349/88/13 198/88/13 197/86/13
f 351/246/210 198/88/210 349/88/210
f 196/89/13 203/89/13 202/247/13
f 201/248/210 203/89/210 196/89/210
f 325/230/211 324/235/211 55/75/211
f 197/86/8 198/88/8 351/246/8
f 200/91/26 201/248/26 194/248/26
f 202/247/89 200/91/89 193/91/89
f 336/241/171 338/60/171 354/177/171
f 355/184/172 61/94/172 17/138/172
f 353/229/174 17/160/174 30/87/174
f 309/24/206 316/25/206 356/192/206
f 359/250/368 357/254/368 17/160/368
f 17/160/369 357/254/369 358/251/369
f 358/251/370 236/255/370 315/138/370
f 315/138/371 236/255/371 359/250/371
f 309/24/372 361/256/372 237/252/372
f 237/252/373 238/257/373 319/175/373
f 319/175/374 238/257/374 360/253/374
f 54/101/375 53/164/375 64/204/375
f 360/253/376 361/256/376 309/24/376
f 335/240/377 334/170/377 90/168/377
f 359/250/222 239/250/222 362/254/222
f 364/255/223 239/250/223 359/250/223
f 363/251/378 364/255/378 236/255/378
f 357/254/225 362/254/225 363/251/225
f 318/165/379 53/164/379 54/101/379
f 243/256/226 240/252/226 237/252/226
f 84/231/211 81/237/211 55/75/211
f 201/248/8 200/91/8 202/247/8
f 242/253/227 243/256/227 361/256/227
f 238/257/228 241/257/228 242/253/228
f 237/252/229 240/252/229 241/257/229
f 340/191/380 339/187/380 51/164/380
o front_fender
v 0.626157 0.094302 1.004204
v 0.625749 0.203086 0.975960
v 0.683159 0.094644 1.004699
v 0.682751 0.203429 0.976455
v 0.683367 0.094538 0.980824
v 0.682990 0.196750 0.953533
v 0.626365 0.094196 0.980329
v 0.625988 0.196408 0.953038
v 0.625887 0.276813 0.909103
v 0.682889 0.277155 0.909598
v 0.683115 0.256265 0.898040
v 0.626113 0.255922 0.897545
v 0.626407 0.305926 0.829121
v 0.683409 0.306268 0.829616
v 0.683547 0.282400 0.830193
v 0.626545 0.282057 0.829698
v 0.627173 0.293579 0.749388
v 0.684175 0.293921 0.749883
v 0.684221 0.272131 0.759643
v 0.627219 0.271788 0.759148
v 0.628011 0.243802 0.687281
v 0.685013 0.244144 0.687776
v 0.684948 0.228645 0.705937
v 0.627946 0.228303 0.705442
v -0.628863 0.086768 0.993308
v -0.629271 0.195552 0.965064
v -0.685865 0.086425 0.992813
v -0.686273 0.195210 0.964569
v -0.685657 0.086319 0.968938
v -0.686034 0.188532 0.941647
v -0.628655 0.086661 0.969433
v -0.629032 0.188874 0.942142
v -0.629133 0.269279 0.898207
v -0.686135 0.268937 0.897712
v -0.685909 0.248046 0.886154
v -0.628907 0.248388 0.886649
v -0.628613 0.298392 0.818224
v -0.685615 0.298050 0.817729
v -0.685477 0.274181 0.818307
v -0.628475 0.274523 0.818802
v -0.627847 0.286044 0.738492
v -0.684849 0.285702 0.737997
v -0.684803 0.263912 0.747757
v -0.627801 0.264254 0.748252
v -0.627009 0.236268 0.676385
v -0.684011 0.235925 0.675890
v -0.684075 0.220427 0.694051
v -0.627074 0.220769 0.694546
vn -0.0099 0.2513 0.9679
vn 0.9999 0.0060 0.0087
vn 0.0099 -0.2579 -0.9661
vn -0.9999 -0.0060 -0.0087
vn 0.0102 -0.7606 -0.6491
vn 0.0060 -1.0000 0.0045
vn -0.0105 0.6717 0.7407
vn 0.0104 -0.6819 -0.7313
vn -0.0086 0.9397 0.3420
vn 0.0087 -0.9331 -0.3594
vn -0.0046 0.9882 -0.1531
vn 0.0047 -0.9896 0.1441
vn 0.0007 0.7803 -0.6254
vn -0.0008 -0.7772 0.6293
vt 1.000000 1.000000
vt 0.000000 0.000000
vt 1.000000 0.000000
vt 0.000000 1.000000
s 0
usemtl car_body
f 379/259/389 376/260/389 378/261/389
f 380/261/390 379/262/390 378/260/390
f 382/261/391 381/262/391 380/260/391
f 377/259/392 382/260/392 376/261/392
f 398/259/393 396/260/393 397/261/393
f 380/261/394 376/262/394 382/260/394
f 385/261/395 377/260/395 379/261/395
f 381/259/390 385/261/390 379/261/390
f 387/262/396 381/259/396 383/262/396
f 384/260/392 383/262/392 377/260/392
f 389/261/397 384/260/397 385/261/397
f 390/259/390 385/261/390 386/259/390
f 387/262/398 390/259/398 386/259/398
f 384/260/392 391/262/392 387/262/392
f 393/261/399 388/260/399 389/261/399
f 394/259/390 389/261/390 390/259/390
f 391/262/400 394/259/400 390/259/400
f 388/260/392 395/262/392 391/262/392
f 393/261/401 396/260/401 392/260/401
f 394/259/390 397/261/390 393/261/390
f 395/262/402 398/259/402 394/259/402
f 396/260/392 395/262/392 392/260/392
f 403/259/389 400/260/389 401/262/389
f 403/262/392 404/261/392 402/260/392
f 405/262/391 406/261/391 404/260/391
f 401/259/390 406/260/390 407/262/390
f 423/262/393 421/261/393 420/260/393
f 400/262/394 404/261/394 406/260/394
f 408/260/395 403/261/395 401/260/395
f 409/261/392 405/259/392 403/261/392
f 410/259/396 407/262/396 405/259/396
f 408/260/390 407/262/390 411/262/390
f 412/260/397 409/261/397 408/260/397
f 414/259/392 409/261/392 413/261/392
f 415/262/398 410/259/398 414/259/398
f 415/262/390 408/260/390 411/262/390
f 416/260/399 413/261/399 412/260/399
f 418/259/392 413/261/392 417/261/392
f 419/262/400 414/259/400 418/259/400
f 419/262/390 412/260/390 415/262/390
f 420/260/401 417/261/401 416/260/401
f 421/261/392 418/259/392 417/261/392
f 423/262/402 418/259/402 422/259/402
f 420/260/390 419/262/390 423/262/390
f 379/259/389 377/262/389 376/260/389
f 380/261/390 381/259/390 379/262/390
f 382/261/391 383/259/391 381/262/391
f 377/259/392 383/262/392 382/260/392
f 398/259/393 399/262/393 396/260/393
f 380/261/394 378/259/394 376/262/394
f 385/261/395 384/260/395 377/260/395
f 381/259/390 386/259/390 385/261/390
f 387/262/396 386/259/396 381/259/396
f 384/260/392 387/262/392 383/262/392
f 389/261/397 388/260/397 384/260/397
f 390/259/390 389/261/390 385/261/390
f 387/262/398 391/262/398 390/259/398
f 384/260/392 388/260/392 391/262/392
f 393/261/399 392/260/399 388/260/399
f 394/259/390 393/261/390 389/261/390
f 391/262/400 395/262/400 394/259/400
f 388/260/392 392/260/392 395/262/392
f 393/261/401 397/261/401 396/260/401
f 394/259/390 398/259/390 397/261/390
f 395/262/402 399/262/402 398/259/402
f 396/260/392 399/262/392 395/262/392
f 403/259/389 402/261/389 400/260/389
f 403/262/392 405/259/392 404/261/392
f 405/262/391 407/259/391 406/261/391
f 401/259/390 400/261/390 406/260/390
f 423/262/393 422/259/393 421/261/393
f 400/262/394 402/259/394 404/261/394
f 408/260/395 409/261/395 403/261/395
f 409/261/392 410/259/392 405/259/392
f 410/259/396 411/262/396 407/262/396
f 408/260/390 401/260/390 407/262/390
f 412/260/397 413/261/397 409/261/397
f 414/259/392 410/259/392 409/261/392
f 415/262/398 411/262/398 410/259/398
f 415/262/390 412/260/390 408/260/390
f 416/260/399 417/261/399 413/261/399
f 418/259/392 414/259/392 413/261/392
f 419/262/400 415/262/400 414/259/400
f 419/262/390 416/260/390 412/260/390
f 420/260/401 421/261/401 417/261/401
f 421/261/392 422/259/392 418/259/392
f 423/262/402 419/262/402 418/259/402
f 420/260/390 416/260/390 419/262/390
o rear_fender
v 0.632051 0.157495 -0.248677
v 0.631978 0.253687 -0.306804
v 0.653427 0.157623 -0.248492
v 0.688980 0.254030 -0.306309
v 0.653667 0.150704 -0.271342
v 0.689232 0.241085 -0.326370
v 0.632291 0.150576 -0.271527
v 0.632230 0.240742 -0.326865
v 0.632408 0.305257 -0.391928
v 0.689410 0.305599 -0.391433
v 0.689594 0.282278 -0.396545
v 0.632592 0.281935 -0.397040
v 0.633115 0.310321 -0.476891
v 0.690117 0.310664 -0.476397
v 0.690189 0.287953 -0.469028
v 0.633187 0.287611 -0.469523
v 0.633956 0.275722 -0.549778
v 0.690957 0.276064 -0.549283
v 0.690931 0.257968 -0.533709
v 0.633929 0.257625 -0.534204
v 0.634742 0.210283 -0.595088
v 0.656118 0.210412 -0.594902
v 0.655986 0.200744 -0.573072
v 0.634610 0.200615 -0.573258
v -0.613761 0.150016 -0.259494
v -0.613834 0.246208 -0.317621
v -0.635137 0.149887 -0.259679
v -0.670836 0.245866 -0.318116
v -0.634897 0.142968 -0.282529
v -0.670584 0.232921 -0.338176
v -0.613521 0.143097 -0.282344
v -0.613582 0.233263 -0.337681
v -0.613405 0.297778 -0.402744
v -0.670407 0.297436 -0.403239
v -0.670222 0.274114 -0.408351
v -0.613220 0.274456 -0.407856
v -0.612697 0.302842 -0.487708
v -0.669699 0.302500 -0.488203
v -0.669627 0.279790 -0.480834
v -0.612625 0.280132 -0.480339
v -0.611857 0.268243 -0.560594
v -0.668859 0.267901 -0.561089
v -0.668885 0.249804 -0.545515
v -0.611883 0.250146 -0.545020
v -0.611071 0.202804 -0.605904
v -0.632447 0.202676 -0.606090
v -0.632578 0.193008 -0.584260
v -0.611202 0.193136 -0.584074
vn -0.0105 0.5171 0.8558
vn 0.9514 -0.2919 0.0984
vn 0.0105 -0.5230 -0.8522
vn -0.9999 -0.0060 -0.0087
vn 0.0090 -0.9143 -0.4049
vn 0.0032 -0.9571 0.2898
vn -0.0096 0.8553 0.5181
vn 0.9999 0.0060 0.0087
vn 0.0096 -0.8624 -0.5062
vn -0.0065 0.9982 0.0594
vn 0.0067 -0.9969 -0.0780
vn -0.0017 0.9034 -0.4289
vn 0.0018 -0.9072 0.4206
vn 0.0037 0.5693 -0.8221
vn 0.9120 -0.2684 -0.3103
vn -0.0038 -0.5652 0.8250
vn -0.9494 -0.3033 0.0819
vn -0.9032 -0.2793 -0.3260
vn 0.9477 -0.2625 0.1813
vn 0.8898 -0.4193 -0.1803
vn -0.9475 -0.2739 0.1649
vn -0.8814 -0.4299 -0.1957
vt 1.000000 0.000000
vt 0.000000 1.000000
vt 0.000000 0.000000
vt 1.000000 1.000000
s 0
usemtl car_body
f 426/263/403 425/264/403 424/265/403
f 428/263/404 427/264/404 426/265/404
f 431/266/405 428/265/405 430/263/405
f 425/266/406 430/265/406 424/263/406
f 445/263/407 447/264/407 444/265/407
f 426/266/408 430/265/408 428/263/408
f 433/263/409 425/265/409 427/263/409
f 429/266/410 433/263/410 427/263/410
f 435/264/411 429/266/411 431/264/411
f 432/265/406 431/264/406 425/265/406
f 433/263/412 436/265/412 432/265/412
f 438/266/410 433/263/410 434/266/410
f 439/264/413 434/266/413 435/264/413
f 432/265/406 439/264/406 435/264/406
f 437/263/414 440/265/414 436/265/414
f 442/266/410 437/263/410 438/266/410
f 443/264/415 438/266/415 439/264/415
f 436/265/406 443/264/406 439/264/406
f 445/263/416 440/265/416 441/263/416
f 442/266/417 445/263/417 441/263/417
f 443/264/418 446/266/418 442/266/418
f 444/265/406 443/264/406 440/265/406
f 449/264/403 450/263/403 448/265/403
f 451/264/419 452/263/419 450/265/419
f 455/266/405 452/265/405 453/264/405
f 449/266/410 454/265/410 455/264/410
f 470/266/407 468/265/407 471/264/407
f 448/264/408 452/263/408 454/265/408
f 456/265/409 451/263/409 449/265/409
f 457/263/406 453/266/406 451/263/406
f 459/264/411 453/266/411 458/266/411
f 456/265/410 455/264/410 459/264/410
f 461/263/412 456/265/412 460/265/412
f 462/266/406 457/263/406 461/263/406
f 462/266/413 459/264/413 458/266/413
f 463/264/410 456/265/410 459/264/410
f 464/265/414 461/263/414 460/265/414
f 466/266/406 461/263/406 465/263/406
f 466/266/415 463/264/415 462/266/415
f 467/264/410 460/265/410 463/264/410
f 469/263/416 464/265/416 468/265/416
f 469/263/420 466/266/420 465/263/420
f 470/266/418 467/264/418 466/266/418
f 468/265/410 467/264/410 471/264/410
f 426/263/403 427/266/403 425/264/403
f 428/263/421 429/266/421 427/264/421
f 431/266/405 429/264/405 428/265/405
f 425/266/406 431/264/406 430/265/406
f 445/263/407 446/266/407 447/264/407
f 426/266/408 424/264/408 430/265/408
f 433/263/409 432/265/409 425/265/409
f 429/266/410 434/266/410 433/263/410
f 435/264/411 434/266/411 429/266/411
f 432/265/406 435/264/406 431/264/406
f 433/263/412 437/263/412 436/265/412
f 438/266/410 437/263/410 433/263/410
f 439/264/413 438/266/413 434/266/413
f 432/265/406 436/265/406 439/264/406
f 437/263/414 441/263/414 440/265/414
f 442/266/410 441/263/410 437/263/410
f 443/264/415 442/266/415 438/266/415
f 436/265/406 440/265/406 443/264/406
f 445/263/416 444/265/416 440/265/416
f 442/266/422 446/266/422 445/263/422
f 443/264/418 447/264/418 446/266/418
f 444/265/406 447/264/406 443/264/406
f 449/264/403 451/266/403 450/263/403
f 451/264/423 453/266/423 452/263/423
f 455/266/405 454/263/405 452/265/405
f 449/266/410 448/263/410 454/265/410
f 470/266/407 469/263/407 468/265/407
f 448/264/408 450/266/408 452/263/408
f 456/265/409 457/263/409 451/263/409
f 457/263/406 458/266/406 453/266/406
f 459/264/411 455/264/411 453/266/411
f 456/265/410 449/265/410 455/264/410
f 461/263/412 457/263/412 456/265/412
f 462/266/406 458/266/406 457/263/406
f 462/266/413 463/264/413 459/264/413
f 463/264/410 460/265/410 456/265/410
f 464/265/414 465/263/414 461/263/414
f 466/266/406 462/266/406 461/263/406
f 466/266/415 467/264/415 463/264/415
f 467/264/410 464/265/410 460/265/410
f 469/263/416 465/263/416 464/265/416
f 469/263/424 470/266/424 466/266/424
f 470/266/418 471/264/418 467/264/418
f 468/265/410 464/265/410 467/264/410
o lattice.1
v -0.238173 0.226281 1.358748
v -0.240039 0.500761 1.383952
v -0.224635 0.226362 1.358865
v -0.226502 0.500842 1.384070
v -0.224130 0.228117 1.299439
v -0.226167 0.502601 1.344229
v -0.237667 0.228036 1.299321
v -0.239704 0.502520 1.344111
v -0.238512 0.311589 1.338901
v -0.224975 0.311670 1.339019
v -0.224690 0.310493 1.306952
v -0.238227 0.310412 1.306834
v -0.208174 0.226461 1.359008
v -0.210041 0.500941 1.384213
v -0.194637 0.226542 1.359126
v -0.196504 0.501022 1.384330
v -0.194132 0.228297 1.299699
v -0.196168 0.502781 1.344489
v -0.207669 0.228216 1.299582
v -0.209706 0.502700 1.344371
v -0.208514 0.311769 1.339162
v -0.194977 0.311850 1.339279
v -0.194691 0.310673 1.307212
v -0.208229 0.310592 1.307095
v -0.178176 0.226641 1.359269
v -0.180043 0.501121 1.384473
v -0.164639 0.226722 1.359386
v -0.166505 0.501202 1.384591
v -0.164133 0.228477 1.299960
v -0.166170 0.502961 1.344749
v -0.177671 0.228396 1.299842
v -0.179707 0.502880 1.344632
v -0.178516 0.311949 1.339422
v -0.164979 0.312030 1.339540
v -0.164693 0.310853 1.307473
v -0.178230 0.310772 1.307355
v -0.148178 0.226821 1.359529
v -0.150044 0.501301 1.384734
v -0.134640 0.226902 1.359647
v -0.136507 0.501382 1.384851
v -0.134135 0.228657 1.300220
v -0.136172 0.503141 1.345010
v -0.147672 0.228576 1.300103
v -0.149709 0.503060 1.344892
v -0.148517 0.312129 1.339683
v -0.134980 0.312210 1.339800
v -0.134695 0.311033 1.307733
v -0.148232 0.310952 1.307616
v -0.118179 0.227001 1.359790
v -0.120046 0.501481 1.384994
v -0.104642 0.227082 1.359907
v -0.106509 0.501562 1.385112
v -0.104136 0.228837 1.300481
v -0.106173 0.503321 1.345270
v -0.117674 0.228756 1.300363
v -0.119711 0.503240 1.345153
v -0.118519 0.312309 1.339943
v -0.104982 0.312390 1.340061
v -0.104696 0.311213 1.307994
v -0.118234 0.311132 1.307876
v -0.088181 0.227181 1.360050
v -0.090048 0.501661 1.385255
v -0.074644 0.227262 1.360168
v -0.076510 0.501742 1.385372
v -0.074138 0.229017 1.300741
v -0.076175 0.503501 1.345531
v -0.087676 0.228936 1.300624
v -0.089712 0.503420 1.345413
v -0.088521 0.312489 1.340204
v -0.074983 0.312570 1.340321
v -0.074698 0.311394 1.308254
v -0.088235 0.311312 1.308136
v -0.058183 0.227361 1.360311
v -0.060049 0.501841 1.385515
v -0.044645 0.227442 1.360428
v -0.046512 0.501922 1.385632
v -0.044140 0.229197 1.301002
v -0.046177 0.503681 1.345791
v -0.057677 0.229116 1.300884
v -0.059714 0.503600 1.345674
v -0.058523 0.312669 1.340464
v -0.044985 0.312750 1.340582
v -0.044700 0.311574 1.308515
v -0.058237 0.311492 1.308397
v -0.028185 0.227541 1.360571
v -0.030051 0.502021 1.385775
v -0.014647 0.227623 1.360688
v -0.016513 0.502102 1.385893
v -0.014141 0.229377 1.301262
v -0.016178 0.503862 1.346052
v -0.027679 0.229296 1.301145
v -0.029716 0.503780 1.345934
v -0.028524 0.312849 1.340724
v -0.014987 0.312931 1.340842
v -0.014701 0.311754 1.308775
v -0.028239 0.311672 1.308657
v 0.001814 0.227721 1.360831
v -0.000053 0.502201 1.386036
v 0.015352 0.227803 1.360949
v 0.013485 0.502283 1.386153
v 0.015857 0.229558 1.301523
v 0.013820 0.504042 1.346312
v 0.002319 0.229476 1.301405
v 0.000282 0.503960 1.346195
v 0.001474 0.313029 1.340985
v 0.015012 0.313111 1.341102
v 0.015297 0.311934 1.309035
v 0.001759 0.311853 1.308918
v 0.031812 0.227902 1.361092
v 0.029946 0.502381 1.386296
v 0.045350 0.227983 1.361209
v 0.043483 0.502463 1.386414
v 0.045855 0.229738 1.301783
v 0.043818 0.504222 1.346572
v 0.032318 0.229656 1.301666
v 0.030281 0.504140 1.346455
v 0.031472 0.313210 1.341246
v 0.045010 0.313291 1.341363
v 0.045295 0.312114 1.309296
v 0.031758 0.312033 1.309178
v 0.061811 0.228082 1.361352
v 0.059944 0.502562 1.386557
v 0.075348 0.228163 1.361470
v 0.073481 0.502643 1.386674
v 0.075854 0.229918 1.302044
v 0.073817 0.504402 1.346833
v 0.062316 0.229836 1.301926
v 0.060279 0.504321 1.346715
v 0.061471 0.313390 1.341506
v 0.075008 0.313471 1.341623
v 0.075294 0.312294 1.309556
v 0.061756 0.312213 1.309439
v 0.091809 0.228262 1.361613
v 0.089942 0.502742 1.386817
v 0.105346 0.228343 1.361730
v 0.103480 0.502823 1.386935
v 0.105852 0.230098 1.302304
v 0.103815 0.504582 1.347093
v 0.092314 0.230017 1.302187
v 0.090277 0.504501 1.346976
v 0.091469 0.313570 1.341766
v 0.105006 0.313651 1.341884
v 0.105292 0.312474 1.309817
v 0.091754 0.312393 1.309699
v 0.121807 0.228442 1.361873
v 0.119941 0.502922 1.387078
v 0.135345 0.228523 1.361991
v 0.133478 0.503003 1.387195
v 0.135850 0.230278 1.302565
v 0.133813 0.504762 1.347354
v 0.122313 0.230197 1.302447
v 0.120276 0.504681 1.347236
v 0.121468 0.313750 1.342027
v 0.135005 0.313831 1.342144
v 0.135290 0.312654 1.310077
v 0.121753 0.312573 1.309960
v 0.151806 0.228622 1.362134
v 0.149939 0.503102 1.387338
v 0.165343 0.228703 1.362251
v 0.163476 0.503183 1.387456
v 0.165848 0.230458 1.302825
v 0.163812 0.504942 1.347614
v 0.152311 0.230377 1.302707
v 0.150274 0.504861 1.347497
v 0.151466 0.313930 1.342287
v 0.165003 0.314011 1.342405
v 0.165289 0.312834 1.310338
v 0.151751 0.312753 1.310220
v 0.181804 0.228802 1.362394
v 0.179937 0.503282 1.387599
v 0.195341 0.228883 1.362512
v 0.193475 0.503363 1.387716
v 0.195847 0.230638 1.303085
v 0.193810 0.505122 1.347875
v 0.182309 0.230557 1.302968
v 0.180273 0.505041 1.347757
v 0.181464 0.314110 1.342548
v 0.195001 0.314191 1.342665
v 0.195287 0.313014 1.310598
v 0.181750 0.312933 1.310481
v 0.211802 0.228982 1.362655
v 0.209936 0.503462 1.387859
v 0.225340 0.229063 1.362772
v 0.223473 0.503543 1.387977
v 0.225845 0.230818 1.303346
v 0.223808 0.505302 1.348135
v 0.212308 0.230737 1.303228
v 0.210271 0.505221 1.348018
v 0.211462 0.314290 1.342808
v 0.225000 0.314371 1.342926
v 0.225285 0.313194 1.310858
v 0.211748 0.313113 1.310741
vn -0.0098 0.2265 0.9740
vn 0.9999 0.0060 0.0087
vn 0.0081 0.0909 -0.9958
vn -0.9999 -0.0060 -0.0087
vn -0.0064 0.9990 0.0441
vn 0.0063 -0.9995 -0.0295
vn -0.0071 -0.2317 0.9728
vn 0.0074 0.1905 -0.9817
vn -0.0070 -0.2317 0.9728
vn -0.0064 0.9990 0.0440
vt 1.000000 0.298716
vt 0.000000 0.000000
vt 1.000000 0.000000
vt 0.000000 0.298716
vt 0.000000 0.305620
vt 0.000000 1.000000
vt 1.000000 1.000000
vt 1.000000 0.305620
s 0
usemtl engine_grille
f 481/267/425 472/268/425 474/269/425
f 476/269/426 481/270/426 474/268/426
f 478/269/427 482/271/427 476/268/427
f 480/267/428 479/272/428 483/271/428
f 477/273/429 473/268/429 475/269/429
f 474/273/430 478/268/430 476/269/430
f 475/273/431 480/270/431 481/267/431
f 477/273/426 481/270/426 482/274/426
f 479/273/432 482/271/432 483/274/432
f 478/268/428 480/267/428 483/271/428
f 486/269/425 492/270/425 484/268/425
f 488/269/426 493/270/426 486/268/426
f 490/269/427 494/271/427 488/268/427
f 492/267/428 491/272/428 495/271/428
f 487/269/429 491/272/429 485/268/429
f 488/269/430 484/272/430 490/268/430
f 487/273/431 492/270/431 493/267/431
f 489/273/426 493/270/426 494/274/426
f 495/274/432 489/272/432 494/271/432
f 490/268/428 492/267/428 495/271/428
f 498/269/425 504/270/425 496/268/425
f 500/269/426 505/270/426 498/268/426
f 507/274/427 500/268/427 502/269/427
f 504/267/428 503/272/428 507/271/428
f 499/269/429 503/272/429 497/268/429
f 498/273/430 502/268/430 500/269/430
f 499/273/431 504/270/431 505/267/431
f 501/273/426 505/270/426 506/274/426
f 503/273/432 506/271/432 507/274/432
f 502/268/428 504/267/428 507/271/428
f 517/267/425 508/268/425 510/269/425
f 512/269/426 517/270/426 510/268/426
f 514/269/427 518/271/427 512/268/427
f 516/267/428 515/272/428 519/271/428
f 513/273/429 509/268/429 511/269/429
f 512/269/430 508/272/430 514/268/430
f 511/273/431 516/270/431 517/267/431
f 513/273/426 517/270/426 518/274/426
f 519/274/432 513/272/432 518/271/432
f 514/268/428 516/267/428 519/271/428
f 529/267/425 520/268/425 522/269/425
f 524/269/426 529/270/426 522/268/426
f 531/274/427 524/268/427 526/269/427
f 528/267/428 527/272/428 531/271/428
f 523/269/429 527/272/429 521/268/429
f 522/273/430 526/268/430 524/269/430
f 523/273/431 528/270/431 529/267/431
f 525/273/426 529/270/426 530/274/426
f 527/273/432 530/271/432 531/274/432
f 526/268/428 528/267/428 531/271/428
f 541/267/425 532/268/425 534/269/425
f 536/269/426 541/270/426 534/268/426
f 543/274/427 536/268/427 538/269/427
f 540/267/428 539/272/428 543/271/428
f 535/269/429 539/272/429 533/268/429
f 536/269/430 532/272/430 538/268/430
f 535/273/431 540/270/431 541/267/431
f 537/273/426 541/270/426 542/274/426
f 543/274/432 537/272/432 542/271/432
f 538/268/428 540/267/428 543/271/428
f 546/269/425 552/270/425 544/268/425
f 548/269/426 553/270/426 546/268/426
f 555/274/427 548/268/427 550/269/427
f 552/267/428 551/272/428 555/271/428
f 549/273/429 545/268/429 547/269/429
f 548/269/430 544/272/430 550/268/430
f 547/273/431 552/270/431 553/267/431
f 549/273/426 553/270/426 554/274/426
f 551/273/432 554/271/432 555/274/432
f 550/268/428 552/267/428 555/271/428
f 565/267/425 556/268/425 558/269/425
f 560/269/426 565/270/426 558/268/426
f 567/274/427 560/268/427 562/269/427
f 564/267/428 563/272/428 567/271/428
f 561/273/429 557/268/429 559/269/429
f 558/273/430 562/268/430 560/269/430
f 565/267/431 557/272/431 564/270/431
f 561/273/426 565/270/426 566/274/426
f 567/274/432 561/272/432 566/271/432
f 562/268/428 564/267/428 567/271/428
f 577/267/425 568/268/425 570/269/425
f 572/269/426 577/270/426 570/268/426
f 579/274/427 572/268/427 574/269/427
f 576/267/428 575/272/428 579/271/428
f 573/273/429 569/268/429 571/269/429
f 572/269/430 568/272/430 574/268/430
f 571/273/433 576/270/433 577/267/433
f 573/273/426 577/270/426 578/274/426
f 575/273/432 578/271/432 579/274/432
f 574/268/428 576/267/428 579/271/428
f 582/269/425 588/270/425 580/268/425
f 584/269/426 589/270/426 582/268/426
f 586/269/427 590/271/427 584/268/427
f 588/267/428 587/272/428 591/271/428
f 583/269/429 587/272/429 581/268/429
f 584/269/430 580/272/430 586/268/430
f 583/273/431 588/270/431 589/267/431
f 585/273/426 589/270/426 590/274/426
f 591/274/432 585/272/432 590/271/432
f 586/268/428 588/267/428 591/271/428
f 594/269/425 600/270/425 592/268/425
f 596/269/426 601/270/426 594/268/426
f 598/269/427 602/271/427 596/268/427
f 600/267/428 599/272/428 603/271/428
f 597/273/429 593/268/429 595/269/429
f 594/273/430 598/268/430 596/269/430
f 595/273/431 600/270/431 601/267/431
f 597/273/426 601/270/426 602/274/426
f 599/273/432 602/271/432 603/274/432
f 598/268/428 600/267/428 603/271/428
f 606/269/425 612/270/425 604/268/425
f 608/269/426 613/270/426 606/268/426
f 615/274/427 608/268/427 610/269/427
f 612/267/428 611/272/428 615/271/428
f 609/273/429 605/268/429 607/269/429
f 608/269/430 604/272/430 610/268/430
f 607/273/431 612/270/431 613/267/431
f 609/273/426 613/270/426 614/274/426
f 611/273/432 614/271/432 615/274/432
f 610/268/428 612/267/428 615/271/428
f 625/267/425 616/268/425 618/269/425
f 620/269/426 625/270/426 618/268/426
f 622/269/427 626/271/427 620/268/427
f 624/267/428 623/272/428 627/271/428
f 621/273/429 617/268/429 619/269/429
f 618/273/430 622/268/430 620/269/430
f 619/273/431 624/270/431 625/267/431
f 621/273/426 625/270/426 626/274/426
f 623/273/432 626/271/432 627/274/432
f 622/268/428 624/267/428 627/271/428
f 630/269/425 636/270/425 628/268/425
f 632/269/426 637/270/426 630/268/426
f 639/274/427 632/268/427 634/269/427
f 636/267/428 635/272/428 639/271/428
f 631/269/429 635/272/429 629/268/429
f 632/269/430 628/272/430 634/268/430
f 631/273/431 636/270/431 637/267/431
f 633/273/426 637/270/426 638/274/426
f 639/274/432 633/272/432 638/271/432
f 634/268/428 636/267/428 639/271/428
f 642/269/425 648/270/425 640/268/425
f 644/269/426 649/270/426 642/268/426
f 651/274/427 644/268/427 646/269/427
f 648/267/428 647/272/428 651/271/428
f 645/273/429 641/268/429 643/269/429
f 642/273/430 646/268/430 644/269/430
f 643/273/431 648/270/431 649/267/431
f 645/273/426 649/270/426 650/274/426
f 647/273/432 650/271/432 651/274/432
f 646/268/428 648/267/428 651/271/428
f 661/267/425 652/268/425 654/269/425
f 656/269/426 661/270/426 654/268/426
f 658/269/427 662/271/427 656/268/427
f 660/267/428 659/272/428 663/271/428
f 655/269/434 659/272/434 653/268/434
f 654/273/430 658/268/430 656/269/430
f 661/267/431 653/272/431 660/270/431
f 657/273/426 661/270/426 662/274/426
f 663/274/432 657/272/432 662/271/432
f 658/268/428 660/267/428 663/271/428
f 481/267/425 480/270/425 472/268/425
f 476/269/426 482/274/426 481/270/426
f 478/269/427 483/274/427 482/271/427
f 480/267/428 473/273/428 479/272/428
f 477/273/429 479/272/429 473/268/429
f 474/273/430 472/272/430 478/268/430
f 475/273/431 473/272/431 480/270/431
f 477/273/426 475/272/426 481/270/426
f 479/273/432 477/272/432 482/271/432
f 478/268/428 472/269/428 480/267/428
f 486/269/425 493/267/425 492/270/425
f 488/269/426 494/274/426 493/270/426
f 490/269/427 495/274/427 494/271/427
f 492/267/428 485/273/428 491/272/428
f 487/269/429 489/273/429 491/272/429
f 488/269/430 486/273/430 484/272/430
f 487/273/431 485/272/431 492/270/431
f 489/273/426 487/272/426 493/270/426
f 495/274/432 491/273/432 489/272/432
f 490/268/428 484/269/428 492/267/428
f 498/269/425 505/267/425 504/270/425
f 500/269/426 506/274/426 505/270/426
f 507/274/427 506/271/427 500/268/427
f 504/267/428 497/273/428 503/272/428
f 499/269/429 501/273/429 503/272/429
f 498/273/430 496/272/430 502/268/430
f 499/273/431 497/272/431 504/270/431
f 501/273/426 499/272/426 505/270/426
f 503/273/432 501/272/432 506/271/432
f 502/268/428 496/269/428 504/267/428
f 517/267/425 516/270/425 508/268/425
f 512/269/426 518/274/426 517/270/426
f 514/269/427 519/274/427 518/271/427
f 516/267/428 509/273/428 515/272/428
f 513/273/429 515/272/429 509/268/429
f 512/269/430 510/273/430 508/272/430
f 511/273/431 509/272/431 516/270/431
f 513/273/426 511/272/426 517/270/426
f 519/274/432 515/273/432 513/272/432
f 514/268/428 508/269/428 516/267/428
f 529/267/425 528/270/425 520/268/425
f 524/269/426 530/274/426 529/270/426
f 531/274/427 530/271/427 524/268/427
f 528/267/428 521/273/428 527/272/428
f 523/269/429 525/273/429 527/272/429
f 522/273/430 520/272/430 526/268/430
f 523/273/431 521/272/431 528/270/431
f 525/273/426 523/272/426 529/270/426
f 527/273/432 525/272/432 530/271/432
f 526/268/428 520/269/428 528/267/428
f 541/267/425 540/270/425 532/268/425
f 536/269/426 542/274/426 541/270/426
f 543/274/427 542/271/427 536/268/427
f 540/267/428 533/273/428 539/272/428
f 535/269/429 537/273/429 539/272/429
f 536/269/430 534/273/430 532/272/430
f 535/273/433 533/272/433 540/270/433
f 537/273/426 535/272/426 541/270/426
f 543/274/432 539/273/432 537/272/432
f 538/268/428 532/269/428 540/267/428
f 546/269/425 553/267/425 552/270/425
f 548/269/426 554/274/426 553/270/426
f 555/274/427 554/271/427 548/268/427
f 552/267/428 545/273/428 551/272/428
f 549/273/429 551/272/429 545/268/429
f 548/269/430 546/273/430 544/272/430
f 547/273/431 545/272/431 552/270/431
f 549/273/426 547/272/426 553/270/426
f 551/273/432 549/272/432 554/271/432
f 550/268/428 544/269/428 552/267/428
f 565/267/425 564/270/425 556/268/425
f 560/269/426 566/274/426 565/270/426
f 567/274/427 566/271/427 560/268/427
f 564/267/428 557/273/428 563/272/428
f 561/273/429 563/272/429 557/268/429
f 558/273/430 556/272/430 562/268/430
f 565/267/431 559/273/431 557/272/431
f 561/273/426 559/272/426 565/270/426
f 567/274/432 563/273/432 561/272/432
f 562/268/428 556/269/428 564/267/428
f 577/267/425 576/270/425 568/268/425
f 572/269/426 578/274/426 577/270/426
f 579/274/427 578/271/427 572/268/427
f 576/267/428 569/273/428 575/272/428
f 573/273/429 575/272/429 569/268/429
f 572/269/430 570/273/430 568/272/430
f 571/273/431 569/272/431 576/270/431
f 573/273/426 571/272/426 577/270/426
f 575/273/432 573/272/432 578/271/432
f 574/268/428 568/269/428 576/267/428
f 582/269/425 589/267/425 588/270/425
f 584/269/426 590/274/426 589/270/426
f 586/269/427 591/274/427 590/271/427
f 588/267/428 581/273/428 587/272/428
f 583/269/429 585/273/429 587/272/429
f 584/269/430 582/273/430 580/272/430
f 583/273/431 581/272/431 588/270/431
f 585/273/426 583/272/426 589/270/426
f 591/274/432 587/273/432 585/272/432
f 586/268/428 580/269/428 588/267/428
f 594/269/425 601/267/425 600/270/425
f 596/269/426 602/274/426 601/270/426
f 598/269/427 603/274/427 602/271/427
f 600/267/428 593/273/428 599/272/428
f 597/273/429 599/272/429 593/268/429
f 594/273/430 592/272/430 598/268/430
f 595/273/431 593/272/431 600/270/431
f 597/273/426 595/272/426 601/270/426
f 599/273/432 597/272/432 602/271/432
f 598/268/428 592/269/428 600/267/428
f 606/269/425 613/267/425 612/270/425
f 608/269/426 614/274/426 613/270/426
f 615/274/427 614/271/427 608/268/427
f 612/267/428 605/273/428 611/272/428
f 609/273/429 611/272/429 605/268/429
f 608/269/430 606/273/430 604/272/430
f 607/273/433 605/272/433 612/270/433
f 609/273/426 607/272/426 613/270/426
f 611/273/432 609/272/432 614/271/432
f 610/268/428 604/269/428 612/267/428
f 625/267/425 624/270/425 616/268/425
f 620/269/426 626/274/426 625/270/426
f 622/269/427 627/274/427 626/271/427
f 624/267/428 617/273/428 623/272/428
f 621/273/429 623/272/429 617/268/429
f 618/273/430 616/272/430 622/268/430
f 619/273/431 617/272/431 624/270/431
f 621/273/426 619/272/426 625/270/426
f 623/273/432 621/272/432 626/271/432
f 622/268/428 616/269/428 624/267/428
f 630/269/425 637/267/425 636/270/425
f 632/269/426 638/274/426 637/270/426
f 639/274/427 638/271/427 632/268/427
f 636/267/428 629/273/428 635/272/428
f 631/269/429 633/273/429 635/272/429
f 632/269/430 630/273/430 628/272/430
f 631/273/431 629/272/431 636/270/431
f 633/273/426 631/272/426 637/270/426
f 639/274/432 635/273/432 633/272/432
f 634/268/428 628/269/428 636/267/428
f 642/269/425 649/267/425 648/270/425
f 644/269/426 650/274/426 649/270/426
f 651/274/427 650/271/427 644/268/427
f 648/267/428 641/273/428 647/272/428
f 645/273/429 647/272/429 641/268/429
f 642/273/430 640/272/430 646/268/430
f 643/273/431 641/272/431 648/270/431
f 645/273/426 643/272/426 649/270/426
f 647/273/432 645/272/432 650/271/432
f 646/268/428 640/269/428 648/267/428
f 661/267/425 660/270/425 652/268/425
f 656/269/426 662/274/426 661/270/426
f 658/269/427 663/274/427 662/271/427
f 660/267/428 653/273/428 659/272/428
f 655/269/429 657/273/429 659/272/429
f 654/273/430 652/272/430 658/268/430
f 661/267/431 655/273/431 653/272/431
f 657/273/426 655/272/426 661/270/426
f 663/274/432 659/273/432 657/272/432
f 658/268/428 652/269/428 660/267/428
