# Blender 4.5.4 LTS
# www.blender.org
mtllib edificio.mtl
o obj1
v -31.984573 6.170181 -43.309254
v 31.984573 0.000015 -43.309254
v -31.984573 0.000015 -43.309254
v 31.984573 6.170166 37.781666
v 31.984573 6.170181 -43.309254
v -31.984573 6.170166 37.781666
v 31.984573 0.000000 37.781666
v -31.984573 0.000000 37.781666
v 7.921883 3.511070 39.714520
v 7.921882 0.000000 37.781666
v 7.921882 5.266663 37.781666
v -7.921883 3.511070 39.714520
v -7.921883 1.755524 42.556927
v -7.921883 3.511070 42.556927
v -7.921882 0.000000 37.781666
v -7.921882 0.000000 39.714512
v 7.921882 5.266663 39.714512
v -7.921882 5.266663 37.781666
v -7.921882 5.266663 39.714512
v 7.921882 0.000000 39.714512
v 7.921883 1.755524 42.556927
v 7.921882 0.000000 42.556919
v 7.921883 1.755524 45.257236
v 7.921883 3.511070 42.556927
v -7.921883 1.755524 45.257236
v 7.921882 0.000000 45.257236
v -7.921882 0.000000 42.556919
v -30.850901 69.573891 -42.380295
v 30.850901 5.266727 -42.380306
v -30.850901 5.266727 -42.380306
v -30.850901 63.237137 -19.801134
v -30.850901 63.237137 -3.436808
v -30.850901 32.422474 -5.731349
v -30.850901 49.939545 -19.801136
v -30.850901 31.154789 -19.801138
v 33.727840 69.573891 -45.257233
v 30.850901 69.573891 -42.380295
v 30.850901 49.939545 -19.801136
v 30.850901 49.939541 -3.436809
v 30.850901 32.422474 -5.731349
v 30.850901 69.573883 19.321474
v 30.850901 63.237137 -3.436808
v -30.850901 5.266716 19.321466
v -18.769892 62.642677 19.321474
v -18.334686 62.642677 19.321474
v -30.850901 69.573883 19.321474
v 19.027149 50.038818 19.321472
v 15.310662 42.025787 19.321472
v 19.406738 50.038818 19.321472
v -33.727840 69.573891 -45.257233
v 33.727840 69.573883 22.198412
v 33.727840 72.826431 -45.257233
v -33.727840 69.573883 22.198412
v -33.727840 72.826431 -45.257233
v 33.727840 72.826424 22.198412
v -32.542961 74.011360 -44.072357
v -33.727840 72.826424 22.198414
v -32.542961 74.011353 21.013536
v 32.542961 74.011353 21.013536
v 32.542961 74.011360 -44.072357
v 30.850901 74.011360 -42.380295
v -30.850901 74.011360 -42.380295
v -30.850901 74.011353 19.321476
v 30.850901 74.011353 19.321476
v -30.850901 130.579651 -42.380291
v 30.850901 130.579651 -42.380291
v -30.850901 111.823463 -30.243248
v -30.850901 125.157440 -30.243246
v -30.850901 130.579636 19.321482
v -30.850958 109.511185 3.868309
v -30.850901 96.177147 3.868308
v 30.850901 96.177147 3.868308
v 30.850901 109.511185 3.868309
v 30.850901 130.579636 19.321482
v 30.850901 96.177147 -30.243250
v 33.587605 130.579651 -45.116993
v -15.616256 111.823456 19.321480
v -15.616256 125.157433 19.321482
v 13.333191 96.177139 19.321478
v 13.333191 94.062363 19.321476
v -33.587605 130.579651 -45.116993
v 33.587605 130.579636 22.058184
v 33.587605 132.798004 -45.116993
v -33.587605 130.579636 22.058184
v -33.587605 132.798004 -45.116993
v 33.587605 132.798004 22.058184
v 28.050032 132.798004 -39.579418
v -28.050032 132.798004 -39.579418
v -33.587605 132.798004 22.058184
v -28.050032 132.798004 16.520613
v 28.050032 132.798004 16.520613
v 28.050032 130.808441 -39.579418
v -28.050032 130.808441 -39.579418
v 28.050032 130.808426 16.520615
v -28.050032 130.808426 16.520615
v -30.850901 80.728386 -30.243252
v -29.494503 94.062370 -30.243252
v -30.850901 94.062370 -30.243252
v -29.494503 94.062363 3.868308
v -30.850901 94.062363 3.868308
v -29.494503 80.728386 -30.243252
v -30.850901 80.728386 3.868306
v -29.494503 80.728386 3.868306
v -30.850901 96.177147 -30.243250
v -29.494503 109.511185 -30.243248
v -30.850958 109.511185 -30.243248
v -29.494503 109.511185 3.868309
v -29.494503 96.177147 -30.243250
v -29.494503 96.177147 3.868308
v -29.494503 125.157440 -30.243246
v -29.494503 125.157440 3.868311
v -30.850901 125.157440 3.868311
v -29.494503 111.823463 -30.243248
v -30.850901 111.823456 3.868310
v -29.494503 111.823456 3.868310
v -30.850901 49.939545 -32.515106
v -29.122242 63.237137 -32.515106
v -30.850901 63.237137 -32.515106
v -29.122242 63.237137 -19.801134
v -29.122242 49.939491 -32.515106
v -29.122242 49.939491 -19.801136
v -30.850901 49.939541 -3.436809
v -29.122242 63.237137 -3.436808
v -29.122242 63.237133 9.277166
v -30.850901 63.237133 9.277166
v -29.122242 49.939487 -3.436809
v -30.850901 49.939537 9.277165
v -29.122242 49.939484 9.277165
v -30.850901 17.857193 -32.515110
v -29.122242 31.154789 -32.515114
v -30.850901 31.154789 -32.515114
v -29.122242 31.154789 -19.801138
v -29.122242 17.857193 -32.515110
v -30.850901 17.857193 -19.801140
v -29.122242 17.857193 -19.801140
v -30.850901 16.589500 -5.731350
v -29.122242 32.422474 -5.731349
v -29.122242 32.422474 8.595856
v -30.850901 32.422474 8.595856
v -29.122242 16.589500 -5.731350
v -30.850901 16.589500 8.595853
v -29.122242 16.589500 8.595853
v 30.850901 94.062370 -30.243252
v 29.494503 80.728386 -30.243252
v 30.850901 80.728386 -30.243252
v 29.494503 80.728386 3.868306
v 30.850901 80.728386 3.868306
v 29.494503 94.062363 3.868308
v 29.494503 94.062370 -30.243252
v 30.850901 94.062363 3.868308
v 30.850901 109.511185 -30.243248
v 29.494503 96.177147 -30.243250
v 29.494503 96.177147 3.868308
v 29.494503 109.511185 3.868309
v 29.494503 109.511185 -30.243248
v 30.850901 125.157440 -30.243246
v 29.494503 111.823463 -30.243248
v 30.850901 111.823463 -30.243248
v 29.494503 111.823456 3.868310
v 30.850901 111.823456 3.868310
v 29.494503 125.157440 3.868311
v 29.494503 125.157440 -30.243246
v 30.850901 125.157440 3.868311
v 30.850901 63.237137 -32.515106
v 29.122242 49.939545 -32.515106
v 30.850901 49.939545 -32.515106
v 29.122242 49.939545 -19.801136
v 29.122242 63.237137 -19.801134
v 29.122242 63.237137 -32.515106
v 30.850901 63.237137 -19.801134
v 29.122242 49.939541 -3.436809
v 29.122242 49.939537 9.277165
v 30.850901 49.939537 9.277165
v 29.122242 63.237133 9.277166
v 29.122242 63.237137 -3.436808
v 30.850901 63.237133 9.277166
v 30.850901 31.154789 -32.515114
v 29.122242 17.857193 -32.515110
v 30.850901 17.857193 -32.515110
v 29.122242 17.857193 -19.801140
v 30.850901 17.857193 -19.801140
v 29.122242 31.154789 -19.801138
v 29.122242 31.154789 -32.515114
v 30.850901 31.154789 -19.801138
v 29.122242 16.589500 -5.731350
v 30.850958 16.589500 -5.731350
v 29.122242 16.589500 8.595853
v 30.850958 16.589500 8.595853
v 29.122242 32.422474 8.595856
v 29.122242 32.422474 -5.731349
v 30.850901 32.422474 8.595856
v -8.323145 6.303654 17.040104
v 8.323145 33.211449 17.040108
v -8.323145 33.211449 17.040108
v -8.323145 6.303654 19.321466
v -8.323145 33.211449 19.321470
v -5.421086 35.460892 19.321470
v -2.654988 36.956482 17.040108
v -1.506585 37.352337 19.321472
v -2.654988 36.956482 19.321470
v 1.506585 37.352341 17.040110
v 2.654988 36.956482 19.321470
v 1.506585 37.352337 19.321472
v 5.421086 35.460896 17.040108
v 8.323145 33.211449 19.321470
v 5.421086 35.460892 19.321470
v 8.323145 6.303654 17.040104
v 8.323145 6.303654 19.321466
v -18.334686 50.038818 17.248072
v -10.492640 62.642677 17.248074
v -18.334686 62.642677 17.248074
v -18.334686 50.038818 19.321472
v -10.492640 62.642677 19.321474
v -10.492640 50.038818 17.248072
v -10.492640 50.038818 19.321472
v -26.611937 50.038765 19.321472
v -26.611937 62.642677 17.248074
v -26.611937 62.642677 19.321474
v -18.769892 62.642677 17.248074
v -18.769892 50.038818 17.248072
v -18.769892 50.038818 19.321472
v -26.611937 50.038765 17.248072
v 19.406738 62.642677 17.248074
v 27.276562 50.038818 17.248072
v 27.276562 62.642677 17.248074
v 19.406738 62.642677 19.321474
v 27.276562 62.642677 19.321474
v 27.276562 50.038818 19.321472
v 19.406738 50.038818 17.248072
v 11.157321 50.038818 19.321472
v 11.157321 62.642677 17.248074
v 11.157321 62.642677 19.321474
v 19.027149 62.642677 17.248074
v 19.027149 62.642677 19.321474
v 11.157321 50.038818 17.248072
v 19.027149 50.038818 17.248072
v -24.777199 14.081844 17.489122
v -14.645979 24.678116 17.489122
v -24.777199 24.678116 17.489122
v -24.777199 14.081844 19.321468
v -24.777199 24.678116 19.321468
v -14.645979 24.678116 19.321468
v -14.645979 14.081844 17.489122
v -14.645979 14.081844 19.321468
v 15.310662 14.081844 17.489122
v 25.441826 24.678116 17.489122
v 15.310662 24.678116 17.489122
v 15.310662 14.081844 19.321468
v 15.310662 24.678116 19.321468
v 25.441826 24.678116 19.321468
v 25.441826 14.081844 17.489122
v 25.441826 14.081844 19.321468
v -24.777199 31.429512 17.489124
v -14.645979 42.025787 17.489126
v -24.777199 42.025787 17.489126
v -24.777199 31.429512 19.321470
v -24.777199 42.025787 19.321472
v -14.645979 42.025787 19.321472
v -14.645979 31.429512 17.489124
v -14.645979 31.429512 19.321470
v 15.310662 31.429512 17.489124
v 25.441826 42.025787 17.489126
v 15.310662 42.025787 17.489126
v 15.310662 31.429512 19.321470
v 25.441826 42.025787 19.321472
v 25.441826 31.429512 17.489124
v 25.441826 31.429512 19.321470
v -15.616256 80.728378 17.814432
v 13.333191 94.062363 17.814432
v -15.616256 94.062363 17.814432
v -15.616256 80.728378 19.321476
v -15.616256 94.062363 19.321476
v 13.333191 80.728378 17.814432
v 13.333191 80.728378 19.321476
v -15.616256 96.177139 17.814434
v 13.333191 109.511177 17.814436
v -15.616256 109.511177 17.814436
v -15.616256 96.177139 19.321478
v -15.616256 109.511177 19.321480
v 13.333191 109.511177 19.321480
v 13.333191 96.177139 17.814434
v -15.616256 111.823456 17.814436
v 13.333191 125.157433 17.814438
v -15.616256 125.157433 17.814438
v 13.333191 125.157433 19.321482
v 13.333191 111.823456 17.814436
v 13.333191 111.823456 19.321480
v -7.921882 0.000000 45.257236
v 30.850901 5.266716 19.321466
v -3.392835 36.668266 19.321470
v -1.506585 37.352341 17.040110
v -4.775891 35.920471 17.040108
v -4.775891 35.920467 19.321470
v -4.099805 36.322929 17.040108
v -4.099805 36.322926 19.321470
v -3.392835 36.668266 17.040108
v -0.753296 37.547081 17.040110
v -0.753296 37.547081 19.321472
v 0.000000 37.611996 17.040110
v 0.000000 37.611992 19.321472
v 0.753296 37.547081 19.321472
v 0.753296 37.547081 17.040110
v 3.392835 36.668266 17.040108
v 3.392835 36.668266 19.321470
v 4.099805 36.322929 17.040108
v 4.099805 36.322926 19.321470
v 4.775891 35.920467 19.321470
v 4.775891 35.920471 17.040108
v -5.421086 35.460896 17.040108
v 2.654988 36.956482 17.040108
v -30.992283 92.780510 19.462942
v -22.301414 98.767990 19.521482
v -30.992342 98.798782 19.462883
v -31.050901 98.767990 9.528313
v -31.050901 92.722595 9.528312
v -22.301414 92.722588 19.521482
v -30.850901 92.780510 19.321482
v -22.301414 92.722588 19.321482
v -22.301414 98.767990 19.321482
v -30.850901 98.798782 19.321482
v -30.850901 98.767990 9.528313
v -30.850901 92.722595 9.528312
v -30.992283 114.173737 19.462942
v -22.301414 120.161209 19.521482
v -30.992342 120.192001 19.462883
v -31.050901 120.161217 9.528312
v -31.050901 114.115822 9.528311
v -22.301414 114.115814 19.521482
v -30.850901 114.173737 19.321482
v -22.301414 114.115814 19.321482
v -22.301414 120.161209 19.321482
v -30.850901 120.192001 19.321482
v -30.850901 120.161217 9.528312
v -30.850901 114.115822 9.528311
v 30.861885 81.505928 19.462944
v 22.171017 87.493408 19.521484
v 22.171017 81.448006 19.521484
v 30.920504 87.493408 9.528313
v 30.861944 87.524200 19.462885
v 30.720503 81.505928 19.321484
v 22.171017 81.448006 19.321484
v 22.171017 87.493408 19.321484
v 30.720503 87.524200 19.321484
v 30.920504 81.448013 9.528312
v 30.720503 87.493408 9.528313
v 30.720503 81.448013 9.528312
v 30.861885 102.899155 19.462942
v 22.171017 108.886627 19.521482
v 22.171017 102.841232 19.521482
v 30.920504 108.886635 9.528312
v 30.861944 108.917419 19.462883
v 30.720503 102.899155 19.321482
v 22.171017 102.841232 19.321482
v 22.171017 108.886627 19.321482
v 30.720503 108.917419 19.321482
v 30.920504 102.841240 9.528311
v 30.720503 108.886635 9.528312
v 30.720503 102.841240 9.528311
v -30.992283 82.579285 -42.493752
v -22.301414 88.566757 -42.552292
v -22.301414 82.521362 -42.552292
v -31.050901 88.566765 -32.559120
v -30.992342 88.597549 -42.493690
v -30.850901 82.579285 -42.352295
v -22.301414 82.521362 -42.352295
v -22.301414 88.566757 -42.352295
v -30.850901 88.597549 -42.352295
v -31.050901 82.521370 -32.559120
v -30.850901 88.566765 -32.559120
v -30.850901 82.521370 -32.559120
v -30.992283 103.972511 -42.493752
v -22.301414 109.959984 -42.552292
v -22.301414 103.914589 -42.552292
v -31.050901 109.959991 -32.559120
v -30.992342 109.990776 -42.493690
v -30.850901 103.972511 -42.352295
v -22.301414 103.914589 -42.352295
v -22.301414 109.959984 -42.352295
v -30.850901 109.990776 -42.352295
v -31.050901 103.914597 -32.559120
v -30.850901 109.959991 -32.559120
v -30.850901 103.914597 -32.559120
v 30.861885 93.429588 -42.493752
v 22.171017 99.417068 -42.552292
v 30.861944 99.447861 -42.493690
v 30.920504 99.417068 -32.559120
v 30.920504 93.371674 -32.559120
v 22.171017 93.371666 -42.552292
v 30.720503 93.429588 -42.352295
v 22.171017 93.371666 -42.352295
v 22.171017 99.417068 -42.352295
v 30.720503 99.447861 -42.352295
v 30.720503 99.417068 -32.559120
v 30.720503 93.371674 -32.559120
v 30.861885 114.822815 -42.493755
v 22.171017 120.810287 -42.552296
v 30.861944 120.841080 -42.493694
v 30.920504 120.810295 -32.559124
v 30.920504 114.764900 -32.559124
v 22.171017 114.764893 -42.552296
v 30.720503 114.822815 -42.352299
v 22.171017 114.764893 -42.352299
v 22.171017 120.810287 -42.352299
v 30.720503 120.841080 -42.352299
v 30.720503 120.810295 -32.559124
v 30.720503 114.764900 -32.559124
v -30.992283 8.166073 -42.493748
v -22.301414 14.153549 -42.552288
v -22.301414 8.108150 -42.552288
v -31.050901 14.153553 -32.559116
v -30.992342 14.184341 -42.493687
v -30.850901 8.166073 -42.352291
v -22.301414 8.108150 -42.352291
v -22.301414 14.153549 -42.352291
v -30.850901 14.184341 -42.352291
v -31.050901 8.108158 -32.559116
v -30.850901 14.153553 -32.559116
v -30.850901 8.108158 -32.559116
v -30.992283 40.441673 -42.493752
v -22.301414 46.429146 -42.552292
v -22.301414 40.383751 -42.552292
v -31.050901 46.429153 -32.559120
v -30.992342 46.459938 -42.493690
v -30.850901 40.441673 -42.352295
v -22.301414 40.383751 -42.352295
v -22.301414 46.429146 -42.352295
v -30.850901 46.459938 -42.352295
v -31.050901 40.383759 -32.559120
v -30.850901 46.429153 -32.559120
v -30.850901 40.383759 -32.559120
v 30.861885 10.716274 -42.493748
v 22.171017 16.703751 -42.552288
v 30.861944 16.734543 -42.493687
v 30.920504 16.703754 -32.559116
v 30.920504 10.658360 -32.559116
v 22.171017 10.658352 -42.552288
v 30.720503 10.716274 -42.352291
v 22.171017 10.658352 -42.352291
v 22.171017 16.703751 -42.352291
v 30.720503 16.734543 -42.352291
v 30.720503 16.703754 -32.559116
v 30.720503 10.658360 -32.559116
v 30.861885 41.283539 -42.493752
v 22.171017 47.271011 -42.552292
v 30.861944 47.301804 -42.493690
v 30.920504 47.271019 -32.559120
v 30.920504 41.225624 -32.559120
v 22.171017 41.225616 -42.552292
v 30.720503 41.283539 -42.352295
v 22.171017 41.225616 -42.352295
v 22.171017 47.271011 -42.352295
v 30.720503 47.301804 -42.352295
v 30.720503 47.271019 -32.559120
v 30.720503 41.225624 -32.559120
vn -0.5773 0.5774 -0.5773
vn 0.5773 -0.5774 -0.5773
vn -0.5774 -0.5774 -0.5774
vn 0.5773 0.5774 0.5773
vn 0.5774 0.5774 -0.5774
vn -0.5773 0.5773 0.5774
vn 0.5773 -0.5773 0.5774
vn -0.5773 -0.5774 0.5773
vn 0.9045 0.3015 0.3015
vn 1.0000 -0.0000 -0.0000
vn 0.7071 0.7071 -0.0000
vn -0.9045 0.3015 0.3015
vn -1.0000 -0.0000 -0.0000
vn 0.5773 0.5774 0.5774
vn -0.7071 0.7071 -0.0000
vn -0.5774 0.5774 0.5773
vn 0.5774 0.5773 0.5774
vn -0.5774 0.5773 0.5774
vn 0.7071 -0.0000 0.7071
vn -0.3015 -0.9045 -0.3015
vn 0.5773 -0.5774 -0.5774
vn -0.5773 -0.5774 -0.5774
vn -0.9045 -0.3015 -0.3015
vn -0.9045 -0.3015 0.3015
vn -0.9045 0.3015 -0.3015
vn 0.3015 -0.9045 -0.3015
vn 0.9045 0.3015 -0.3015
vn 0.9045 -0.3015 0.3015
vn 0.3015 -0.9046 0.3015
vn -0.3015 -0.3015 0.9045
vn 0.3015 -0.3015 0.9045
vn -0.3015 -0.9045 0.3015
vn -0.3015 0.3015 0.9045
vn 0.3015 0.3015 0.9045
vn -0.5773 -0.5774 -0.5773
vn 0.5773 -0.5774 0.5773
vn 0.6507 0.3914 -0.6507
vn -0.6507 0.3914 -0.6507
vn 0.6507 0.3914 0.6507
vn -0.3002 0.9054 -0.3002
vn -0.6507 0.3914 0.6507
vn -0.3002 0.9054 0.3002
vn 0.3002 0.9054 0.3002
vn 0.3002 0.9054 -0.3002
vn 0.3015 0.9045 -0.3015
vn -0.3015 0.9045 -0.3015
vn -0.3015 0.9045 0.3015
vn 0.3015 0.9045 0.3015
vn 0.9045 -0.3015 -0.3015
vn 0.3015 -0.9045 0.3015
vn 0.5773 0.5774 -0.5773
vn -0.5773 0.5774 0.5773
vn 0.5773 0.5773 -0.5774
vn -0.5773 -0.5773 0.5774
vn -0.5773 0.5774 0.5774
vn -0.5773 0.5773 -0.5774
vn -0.5774 -0.5773 -0.5773
vn -0.5774 0.5773 0.5773
vn -0.5774 0.5774 -0.5774
vn 0.5774 0.5773 0.5773
vn 0.5774 -0.5773 -0.5773
vn 0.5774 -0.5774 0.5774
vn 0.5774 0.5774 -0.5773
vn 0.5774 -0.5774 0.5773
vn 0.5773 0.5774 -0.5774
vn -0.7044 -0.3453 0.6201
vn 0.7044 -0.3452 0.6202
vn 0.5130 -0.2514 0.8208
vn 0.4190 -0.5638 0.7117
vn 0.2455 -0.6679 0.7026
vn 0.2012 -0.6683 0.7161
vn 0.2423 -0.6594 0.7117
vn -0.2064 -0.6856 0.6981
vn -0.2423 -0.6594 0.7117
vn -0.2012 -0.6684 0.7161
vn -0.4245 -0.5711 0.7026
vn -0.5130 -0.2514 0.8208
vn -0.4191 -0.5638 0.7117
vn -0.5774 -0.5773 0.5774
vn 0.5773 -0.5774 0.5774
vn 0.5773 0.5773 0.5774
vn 0.5774 0.5774 0.5773
vn -0.5774 -0.5774 0.5773
vn 0.5774 -0.5773 0.5773
vn -0.7071 -0.0000 0.7071
vn 0.2802 -0.6389 0.7165
vn 0.2064 -0.6854 0.6983
vn 0.3912 -0.5998 0.6980
vn 0.3811 -0.5843 0.7165
vn 0.3406 -0.6300 0.6979
vn 0.3319 -0.6138 0.7163
vn 0.2877 -0.6558 0.6980
vn 0.1225 -0.7158 0.6875
vn 0.1161 -0.6787 0.7252
vn -0.0000 -0.7267 0.6870
vn -0.0000 -0.6880 0.7257
vn -0.1161 -0.6787 0.7252
vn -0.1225 -0.7157 0.6876
vn -0.2878 -0.6561 0.6977
vn -0.2804 -0.6391 0.7162
vn -0.3406 -0.6300 0.6979
vn -0.3318 -0.6136 0.7165
vn -0.3811 -0.5843 0.7165
vn -0.3912 -0.5998 0.6980
vn 0.4245 -0.5711 0.7026
vn -0.2455 -0.6679 0.7026
vn -0.5782 -0.5762 0.5776
vn 0.5763 0.5756 0.5802
vn -0.5768 0.5789 0.5764
vn -0.5799 0.5758 -0.5764
vn -0.5779 -0.5794 -0.5748
vn 0.5744 -0.5796 0.5780
vn -0.0021 -1.0000 0.0015
vn 0.7047 -0.7095 -0.0020
vn 0.7084 0.7058 0.0010
vn 0.0012 1.0000 -0.0008
vn -0.0009 0.7060 -0.7082
vn 0.0018 -0.7092 -0.7050
vn -0.5783 -0.5759 0.5778
vn 0.5762 0.5756 0.5802
vn -0.5767 0.5791 0.5763
vn -0.5799 0.5758 -0.5763
vn -0.5780 -0.5793 -0.5747
vn 0.5743 -0.5796 0.5781
vn -0.0020 -1.0000 0.0015
vn 0.7084 0.7058 0.0009
vn 0.0013 1.0000 -0.0008
vn 0.5784 -0.5759 0.5778
vn -0.5763 0.5756 0.5802
vn -0.5744 -0.5797 0.5780
vn 0.5799 0.5758 -0.5764
vn 0.5767 0.5791 0.5762
vn 0.0021 -1.0000 0.0015
vn -0.7047 -0.7095 -0.0020
vn -0.7084 0.7058 0.0010
vn -0.0011 1.0000 -0.0007
vn 0.5780 -0.5793 -0.5747
vn 0.0009 0.7060 -0.7082
vn -0.0018 -0.7092 -0.7050
vn 0.5783 -0.5759 0.5778
vn -0.5763 0.5757 0.5801
vn 0.5798 0.5759 -0.5764
vn -0.7084 0.7058 0.0009
vn -0.0012 1.0000 -0.0008
vn -0.5783 -0.5759 -0.5778
vn 0.5762 0.5756 -0.5802
vn 0.5743 -0.5796 -0.5781
vn -0.5798 0.5759 0.5764
vn -0.5768 0.5789 -0.5764
vn -0.0021 -1.0000 -0.0015
vn 0.7047 -0.7095 0.0018
vn 0.7084 0.7058 -0.0011
vn 0.0011 1.0000 0.0007
vn -0.5780 -0.5793 0.5747
vn -0.0009 0.7060 0.7082
vn 0.0018 -0.7091 0.7051
vn -0.5782 -0.5761 -0.5777
vn -0.5799 0.5758 0.5763
vn -0.0020 -1.0000 -0.0015
vn 0.7084 0.7058 -0.0010
vn 0.0012 1.0000 0.0008
vn 0.5783 -0.5761 -0.5777
vn -0.5762 0.5756 -0.5802
vn 0.5766 0.5792 -0.5762
vn 0.5796 0.5759 0.5765
vn 0.5780 -0.5793 0.5748
vn -0.5743 -0.5796 -0.5781
vn 0.0021 -1.0000 -0.0015
vn -0.7047 -0.7095 0.0018
vn -0.7084 0.7058 -0.0011
vn -0.0011 1.0000 0.0008
vn 0.0009 0.7060 0.7082
vn -0.0018 -0.7091 0.7051
vn 0.5783 -0.5759 -0.5778
vn -0.5763 0.5757 -0.5801
vn 0.5768 0.5788 -0.5764
vn 0.5798 0.5759 0.5764
vn 0.5780 -0.5793 0.5747
vn 0.0020 -1.0000 -0.0015
vn -0.0010 1.0000 0.0007
vn -0.5783 -0.5760 -0.5777
vn 0.5763 0.5757 -0.5801
vn 0.7084 0.7058 -0.0009
vn -0.5784 -0.5759 -0.5778
vn 0.5783 -0.5760 -0.5777
vn 0.5768 0.5789 -0.5764
vn -0.0012 1.0000 0.0008
vn -0.7084 0.7058 -0.0010
vn -0.0011 1.0000 0.0007
vt 0.898780 0.275000
vt 0.992230 0.283840
vt 0.898800 0.284010
vt 0.686900 0.275400
vt 0.568470 0.284640
vt 0.568460 0.275630
vt 0.780330 0.275230
vt 0.686920 0.284410
vt 0.780350 0.284240
vt 0.794230 0.504720
vt 0.601310 0.353190
vt 0.794230 0.353190
vt 0.797460 0.353820
vt 0.990390 0.505350
vt 0.797460 0.505350
vt 0.890290 0.169780
vt 0.840900 0.143980
vt 0.914100 0.142390
vt 0.942920 0.177560
vt 0.967440 0.217000
vt 0.943040 0.217070
vt 0.991660 0.150550
vt 0.991730 0.177420
vt 0.994070 0.114010
vt 0.834480 0.131150
vt 0.834760 0.111720
vt 0.918520 0.177630
vt 0.918440 0.150760
vt 0.835020 0.094060
vt 0.994330 0.096360
vt 0.841490 0.170840
vt 0.866750 0.209820
vt 0.842350 0.210350
vt 0.914690 0.169250
vt 0.835680 0.047830
vt 0.995380 0.022980
vt 0.994990 0.050130
vt 0.835430 0.065480
vt 0.994740 0.067780
vt 0.891150 0.209290
vt 0.836080 0.020680
vt 0.995640 0.005330
vt 0.843170 0.247880
vt 0.991850 0.216930
vt 0.967550 0.254540
vt 0.976620 0.747360
vt 0.758650 0.522530
vt 0.975450 0.521400
vt 0.621230 0.963050
vt 0.678730 0.963180
vt 0.541850 0.985150
vt 0.670900 0.854890
vt 0.621330 0.916330
vt 0.621470 0.850330
vt 0.677890 0.320400
vt 0.574920 0.327900
vt 0.574920 0.320400
vt 0.680120 0.679900
vt 0.622630 0.680200
vt 0.630370 0.618610
vt 0.543020 0.749600
vt 0.622870 0.726920
vt 0.759820 0.748480
vt 0.560470 0.122960
vt 0.490220 0.194080
vt 0.489780 0.123390
vt 0.801150 0.961350
vt 0.802680 0.961350
vt 0.758650 0.985610
vt 0.934050 0.917340
vt 0.921050 0.889160
vt 0.935390 0.917350
vt 0.774530 0.320400
vt 0.677890 0.327900
vt 0.985420 0.320400
vt 0.877200 0.327900
vt 0.877200 0.320400
vt 0.574920 0.335110
vt 0.774530 0.327900
vt 0.677890 0.335110
vt 0.985420 0.327900
vt 0.877200 0.335110
vt 0.677890 0.340350
vt 0.774530 0.335110
vt 0.774530 0.340350
vt 0.877200 0.340350
vt 0.985420 0.335110
vt 0.985420 0.340350
vt 0.574920 0.344670
vt 0.677890 0.344670
vt 0.774530 0.344670
vt 0.877200 0.344670
vt 0.985420 0.344670
vt 0.267590 0.754020
vt 0.522360 0.988630
vt 0.267080 0.988070
vt 0.065920 0.670050
vt 0.066590 0.725210
vt 0.016650 0.748260
vt 0.271920 0.745130
vt 0.206920 0.658750
vt 0.206240 0.603590
vt 0.076040 0.845310
vt 0.075920 0.900480
vt 0.011790 0.987510
vt 0.217170 0.845620
vt 0.869560 0.289120
vt 0.765980 0.296650
vt 0.765980 0.289120
vt 0.333990 0.666760
vt 0.334670 0.721930
vt 0.524310 0.507980
vt 0.452970 0.600570
vt 0.452860 0.591820
vt 0.975200 0.289120
vt 0.869560 0.296650
vt 0.674560 0.296650
vt 0.674560 0.289120
vt 0.765980 0.302830
vt 0.574920 0.296650
vt 0.574920 0.289120
vt 0.975200 0.296650
vt 0.869560 0.302830
vt 0.674560 0.302830
vt 0.765980 0.312790
vt 0.869560 0.312790
vt 0.574920 0.302830
vt 0.975200 0.302830
vt 0.975200 0.312790
vt 0.674560 0.312790
vt 0.765980 0.320190
vt 0.574920 0.312790
vt 0.869560 0.320190
vt 0.674560 0.320190
vt 0.576510 0.014740
vt 0.831940 0.266490
vt 0.578350 0.268330
vt 0.574920 0.320190
vt 0.423450 0.036460
vt 0.383080 0.040680
vt 0.383070 0.036570
vt 0.279760 0.040950
vt 0.279740 0.036840
vt 0.278660 0.297490
vt 0.404900 0.346830
vt 0.278660 0.346830
vt 0.526770 0.036180
vt 0.423460 0.040570
vt 0.567160 0.036080
vt 0.526790 0.040290
vt 0.320130 0.053310
vt 0.279750 0.057490
vt 0.279740 0.053380
vt 0.567160 0.052900
vt 0.463850 0.057180
vt 0.463840 0.053070
vt 0.278660 0.197970
vt 0.404900 0.247320
vt 0.278660 0.247320
vt 0.423450 0.053140
vt 0.320140 0.057420
vt 0.423460 0.057250
vt 0.320130 0.048960
vt 0.279750 0.053140
vt 0.279740 0.049030
vt 0.567160 0.048550
vt 0.463850 0.052830
vt 0.463840 0.048720
vt 0.278660 0.397000
vt 0.404900 0.446350
vt 0.278660 0.446350
vt 0.423450 0.048790
vt 0.320140 0.053070
vt 0.423460 0.052900
vt 0.526810 0.102290
vt 0.567090 0.097050
vt 0.567090 0.102290
vt 0.409520 0.102300
vt 0.448030 0.097060
vt 0.448030 0.102290
vt 0.513330 0.247730
vt 0.560380 0.296940
vt 0.513330 0.296940
vt 0.488300 0.102290
vt 0.526810 0.097050
vt 0.488300 0.097060
vt 0.526830 0.096380
vt 0.567090 0.091000
vt 0.567110 0.096230
vt 0.409540 0.096820
vt 0.448030 0.091440
vt 0.448040 0.096680
vt 0.512520 0.397000
vt 0.559580 0.446220
vt 0.512520 0.446220
vt 0.488320 0.096520
vt 0.526810 0.091140
vt 0.488300 0.091290
vt 0.398850 0.068870
vt 0.358530 0.073740
vt 0.358580 0.068500
vt 0.320020 0.073380
vt 0.320070 0.068150
vt 0.513330 0.346980
vt 0.560380 0.396190
vt 0.513330 0.396190
vt 0.437360 0.069230
vt 0.398800 0.074110
vt 0.279790 0.067780
vt 0.279740 0.073010
vt 0.519000 0.047740
vt 0.567020 0.043070
vt 0.566960 0.048310
vt 0.384260 0.046150
vt 0.427720 0.041430
vt 0.427660 0.046660
vt 0.459080 0.397000
vt 0.512100 0.455600
vt 0.459080 0.455600
vt 0.475610 0.047230
vt 0.519060 0.042510
vt 0.475670 0.041990
vt 0.320130 0.027810
vt 0.279780 0.032250
vt 0.279740 0.028140
vt 0.567150 0.025760
vt 0.463870 0.030720
vt 0.463840 0.026610
vt 0.278660 0.396590
vt 0.404900 0.347250
vt 0.404900 0.396590
vt 0.423450 0.026950
vt 0.320160 0.031920
vt 0.423480 0.031060
vt 0.423450 0.022450
vt 0.383100 0.026940
vt 0.383060 0.022830
vt 0.279780 0.027900
vt 0.279740 0.023790
vt 0.278660 0.297080
vt 0.404900 0.247730
vt 0.404900 0.297080
vt 0.526770 0.021490
vt 0.423490 0.026560
vt 0.567150 0.021120
vt 0.526800 0.025600
vt 0.320130 0.032160
vt 0.279780 0.036600
vt 0.279740 0.032490
vt 0.567150 0.030110
vt 0.463870 0.035070
vt 0.463840 0.030970
vt 0.405640 0.247320
vt 0.531880 0.197970
vt 0.531880 0.247320
vt 0.423450 0.031300
vt 0.320160 0.036270
vt 0.423480 0.035410
vt 0.358530 0.075200
vt 0.318290 0.080680
vt 0.318250 0.075450
vt 0.279780 0.080920
vt 0.279740 0.075690
vt 0.278660 0.495980
vt 0.325710 0.446760
vt 0.325710 0.495980
vt 0.397040 0.074950
vt 0.358560 0.080430
vt 0.437320 0.074700
vt 0.397070 0.080190
vt 0.320020 0.086550
vt 0.279770 0.091980
vt 0.279740 0.086750
vt 0.437320 0.085970
vt 0.398830 0.091400
vt 0.398810 0.086160
vt 0.513330 0.346570
vt 0.560380 0.297350
vt 0.560380 0.346570
vt 0.358530 0.086360
vt 0.320050 0.091780
vt 0.358560 0.091590
vt 0.567110 0.081150
vt 0.526810 0.086180
vt 0.526840 0.080950
vt 0.488300 0.085990
vt 0.488330 0.080750
vt 0.512520 0.495840
vt 0.559580 0.446630
vt 0.559580 0.495840
vt 0.448050 0.080550
vt 0.409520 0.085590
vt 0.409540 0.080350
vt 0.448020 0.085780
vt 0.323140 0.067790
vt 0.371130 0.062830
vt 0.371100 0.068070
vt 0.414520 0.063090
vt 0.414490 0.068320
vt 0.405640 0.455600
vt 0.458660 0.397000
vt 0.458660 0.455600
vt 0.279740 0.067530
vt 0.323170 0.062550
vt 0.462450 0.068610
vt 0.462480 0.063370
vt 0.009850 0.011020
vt 0.268280 0.428760
vt 0.009850 0.428760
vt 0.500820 0.006420
vt 0.419270 0.012770
vt 0.419320 0.005860
vt 0.408190 0.005780
vt 0.398580 0.012630
vt 0.394950 0.005690
vt 0.398630 0.005720
vt 0.385610 0.012540
vt 0.381980 0.005600
vt 0.385660 0.005630
vt 0.372370 0.012450
vt 0.361290 0.005460
vt 0.372410 0.005540
vt 0.279740 0.011810
vt 0.279790 0.004900
vt 0.551240 0.006770
vt 0.500770 0.013330
vt 0.560340 0.443660
vt 0.589360 0.490300
vt 0.560340 0.490300
vt 0.523480 0.076360
vt 0.561750 0.070690
vt 0.561650 0.076970
vt 0.437810 0.074980
vt 0.461660 0.069080
vt 0.461560 0.075360
vt 0.499830 0.069700
vt 0.499730 0.075980
vt 0.523580 0.070080
vt 0.341670 0.098930
vt 0.303500 0.105210
vt 0.303500 0.098930
vt 0.279740 0.105210
vt 0.279740 0.098930
vt 0.560340 0.443250
vt 0.589360 0.396600
vt 0.589360 0.443250
vt 0.365430 0.098930
vt 0.341670 0.105210
vt 0.403600 0.098930
vt 0.365430 0.105210
vt 0.470730 0.502660
vt 0.499860 0.456010
vt 0.499860 0.502660
vt 0.321830 0.047360
vt 0.360010 0.041080
vt 0.360010 0.047360
vt 0.383850 0.041080
vt 0.383850 0.047360
vt 0.567160 0.062220
vt 0.528990 0.068500
vt 0.528990 0.062220
vt 0.505150 0.068500
vt 0.505150 0.062220
vt 0.385310 0.091740
vt 0.347180 0.098280
vt 0.347130 0.092000
vt 0.323340 0.098440
vt 0.323300 0.092160
vt 0.441000 0.456010
vt 0.470120 0.502660
vt 0.441000 0.502660
vt 0.409150 0.091590
vt 0.385350 0.098020
vt 0.285160 0.098690
vt 0.285120 0.092410
vt 0.532610 0.197970
vt 0.570110 0.237180
vt 0.532610 0.237180
vt 0.466710 0.108320
vt 0.498780 0.102650
vt 0.498800 0.108200
vt 0.529470 0.102530
vt 0.529490 0.108080
vt 0.403920 0.108550
vt 0.436000 0.102880
vt 0.436020 0.108430
vt 0.466690 0.102770
vt 0.364650 0.446760
vt 0.402150 0.485980
vt 0.364650 0.485980
vt 0.504350 0.113970
vt 0.536430 0.108290
vt 0.536450 0.113840
vt 0.567110 0.108180
vt 0.567130 0.113730
vt 0.441570 0.114200
vt 0.473640 0.108530
vt 0.473670 0.114080
vt 0.504330 0.108420
vt 0.326480 0.446760
vt 0.363970 0.485980
vt 0.326480 0.485980
vt 0.536440 0.114620
vt 0.504330 0.120110
vt 0.504340 0.114560
vt 0.473640 0.120050
vt 0.473660 0.114500
vt 0.441550 0.119990
vt 0.441560 0.114440
vt 0.567120 0.114680
vt 0.536430 0.120170
vt 0.402820 0.456010
vt 0.440320 0.495230
vt 0.402820 0.495230
vt 0.378320 0.114440
vt 0.410400 0.108770
vt 0.410420 0.114320
vt 0.441080 0.108650
vt 0.441100 0.114200
vt 0.315540 0.114680
vt 0.347610 0.109000
vt 0.347640 0.114550
vt 0.378300 0.108890
vt 0.405640 0.297490
vt 0.512780 0.346830
vt 0.405640 0.346830
vt 0.566990 0.057340
vt 0.526610 0.061950
vt 0.526600 0.057390
vt 0.438920 0.062070
vt 0.438920 0.057500
vt 0.398530 0.062120
vt 0.398530 0.057560
vt 0.310850 0.062240
vt 0.310840 0.057670
vt 0.405640 0.247730
vt 0.512780 0.297080
vt 0.405640 0.297080
vt 0.358330 0.121240
vt 0.383650 0.118650
vt 0.383620 0.121510
vt 0.438540 0.119220
vt 0.438510 0.122080
vt 0.278160 0.120400
vt 0.303470 0.117810
vt 0.303440 0.120670
vt 0.358360 0.118380
vt 0.405640 0.347250
vt 0.512780 0.396590
vt 0.405640 0.396590
vt 0.510740 0.020650
vt 0.551070 0.015570
vt 0.551130 0.020140
vt 0.295000 0.023410
vt 0.382620 0.017720
vt 0.382680 0.022290
vt 0.423010 0.017210
vt 0.423060 0.021770
vt 0.510680 0.016090
vt 0.601310 0.504720
vt 0.990390 0.353820
vt 0.993790 0.133450
vt 0.836330 0.003030
vt 0.867560 0.247350
vt 0.991950 0.254470
vt 0.542330 0.759190
vt 0.576800 0.850230
vt 0.576900 0.803510
vt 0.576660 0.916240
vt 0.721360 0.799360
vt 0.671020 0.799250
vt 0.759130 0.759650
vt 0.723500 0.916550
vt 0.721240 0.854990
vt 0.576560 0.962960
vt 0.678830 0.916450
vt 0.723400 0.963270
vt 0.621570 0.803600
vt 0.541850 0.523650
vt 0.630080 0.562980
vt 0.724210 0.566940
vt 0.679540 0.567170
vt 0.679780 0.613900
vt 0.724460 0.613670
vt 0.724800 0.679670
vt 0.577950 0.680430
vt 0.580030 0.618870
vt 0.579740 0.563240
vt 0.725040 0.726390
vt 0.680370 0.726630
vt 0.578190 0.727160
vt 0.560910 0.193650
vt 0.773690 0.917000
vt 0.780330 0.827910
vt 0.780280 0.851630
vt 0.780410 0.790670
vt 0.830240 0.961410
vt 0.975450 0.986070
vt 0.801250 0.917060
vt 0.802770 0.917060
vt 0.780200 0.888860
vt 0.773600 0.961290
vt 0.816000 0.790750
vt 0.838280 0.763470
vt 0.815920 0.827980
vt 0.838080 0.858010
vt 0.815870 0.851700
vt 0.815800 0.888940
vt 0.855380 0.870200
vt 0.830330 0.917120
vt 0.935290 0.961630
vt 0.933960 0.961630
vt 0.906400 0.917280
vt 0.906310 0.961570
vt 0.896570 0.858140
vt 0.896770 0.763590
vt 0.921180 0.828200
vt 0.921130 0.851930
vt 0.921260 0.790970
vt 0.975930 0.760110
vt 0.962950 0.961690
vt 0.963040 0.917400
vt 0.956650 0.889240
vt 0.956860 0.791050
vt 0.956780 0.828280
vt 0.956730 0.852000
vt 0.522870 0.754590
vt 0.065120 0.605320
vt 0.065800 0.660480
vt 0.064340 0.541410
vt 0.065020 0.596570
vt 0.013790 0.514230
vt 0.207710 0.723480
vt 0.205460 0.539680
vt 0.269050 0.511110
vt 0.207040 0.668320
vt 0.206140 0.594840
vt 0.012310 0.753460
vt 0.076180 0.781390
vt 0.217310 0.781700
vt 0.075780 0.965210
vt 0.075900 0.910040
vt 0.217050 0.900790
vt 0.217030 0.910360
vt 0.076060 0.836560
vt 0.217190 0.836870
vt 0.216910 0.965520
vt 0.333200 0.602040
vt 0.333090 0.593290
vt 0.332420 0.538120
vt 0.454440 0.720460
vt 0.527180 0.742000
vt 0.333880 0.657200
vt 0.453760 0.665300
vt 0.452180 0.536660
vt 0.453640 0.655730
vt 0.404900 0.297490
vt 0.404900 0.197970
vt 0.404900 0.397000
vt 0.560380 0.247730
vt 0.559580 0.397000
vt 0.560380 0.346980
vt 0.512100 0.397000
vt 0.278660 0.347250
vt 0.278660 0.247730
vt 0.405640 0.197970
vt 0.278660 0.446760
vt 0.513330 0.297350
vt 0.512520 0.446630
vt 0.405640 0.397000
vt 0.097850 0.486900
vt 0.115670 0.493040
vt 0.268280 0.011020
vt 0.361240 0.012370
vt 0.551190 0.013680
vt 0.589360 0.443660
vt 0.560340 0.396600
vt 0.470730 0.456010
vt 0.470120 0.456010
vt 0.570110 0.197970
vt 0.363970 0.446760
vt 0.440320 0.456010
vt 0.512780 0.297490
vt 0.512780 0.247730
vt 0.512780 0.347250
vt 0.405750 0.012680
vt 0.405800 0.005770
vt 0.403360 0.012660
vt 0.403410 0.005750
vt 0.401030 0.005730
vt 0.400980 0.012640
vt 0.392550 0.012580
vt 0.392590 0.005670
vt 0.390260 0.012570
vt 0.390300 0.005660
vt 0.388010 0.005640
vt 0.387970 0.012550
vt 0.379530 0.012500
vt 0.379580 0.005590
vt 0.377150 0.012480
vt 0.377200 0.005570
vt 0.374810 0.005550
vt 0.374760 0.012460
vt 0.848260 0.865940
vt 0.850520 0.867560
vt 0.852890 0.868980
vt 0.857970 0.871210
vt 0.862000 0.872610
vt 0.864640 0.873300
vt 0.867290 0.873540
vt 0.869940 0.873310
vt 0.872590 0.872640
vt 0.876620 0.871250
vt 0.879220 0.870250
vt 0.881710 0.869040
vt 0.884080 0.867630
vt 0.886350 0.866020
vt 0.054900 0.463680
vt 0.064920 0.470820
vt 0.075420 0.477060
vt 0.086390 0.482420
vt 0.223220 0.463680
vt 0.213210 0.470820
vt 0.202710 0.477060
vt 0.191740 0.482420
vt 0.180280 0.486900
vt 0.162450 0.493040
vt 0.150760 0.496070
vt 0.139060 0.497080
vt 0.127370 0.496070
vt 0.395170 0.187790
vt 0.373740 0.172580
vt 0.395390 0.173020
vt 0.420130 0.173320
vt 0.419330 0.188620
vt 0.374110 0.187950
vt 0.395190 0.188110
vt 0.373790 0.188310
vt 0.373450 0.172210
vt 0.395390 0.172710
vt 0.420450 0.172960
vt 0.419610 0.189000
vt 0.458730 0.165340
vt 0.437300 0.150130
vt 0.458940 0.150580
vt 0.483690 0.150870
vt 0.482880 0.166170
vt 0.437670 0.165500
vt 0.458750 0.165660
vt 0.437350 0.165860
vt 0.437010 0.149760
vt 0.458950 0.150260
vt 0.484010 0.150510
vt 0.483160 0.166560
vt 0.308140 0.126640
vt 0.286710 0.141850
vt 0.287080 0.126480
vt 0.333110 0.141110
vt 0.308360 0.141410
vt 0.308170 0.126320
vt 0.286760 0.126120
vt 0.286430 0.142220
vt 0.308370 0.141720
vt 0.332300 0.125810
vt 0.333430 0.141470
vt 0.332580 0.125420
vt 0.359060 0.125760
vt 0.337630 0.140970
vt 0.338000 0.125600
vt 0.384030 0.140240
vt 0.359280 0.140530
vt 0.359090 0.125450
vt 0.337680 0.125250
vt 0.337340 0.141350
vt 0.359280 0.140840
vt 0.383220 0.124930
vt 0.384340 0.140590
vt 0.383500 0.124550
vt 0.463640 0.140380
vt 0.485070 0.125170
vt 0.484700 0.140540
vt 0.438680 0.125900
vt 0.463420 0.125610
vt 0.463620 0.140690
vt 0.485020 0.140890
vt 0.485360 0.124790
vt 0.463420 0.125300
vt 0.439480 0.141210
vt 0.438360 0.125540
vt 0.439200 0.141590
vt 0.359140 0.164930
vt 0.380570 0.149720
vt 0.380200 0.165090
vt 0.334170 0.150450
vt 0.358920 0.150160
vt 0.359110 0.165250
vt 0.380520 0.165450
vt 0.380860 0.149350
vt 0.358920 0.149850
vt 0.334980 0.165760
vt 0.333860 0.150100
vt 0.334700 0.166140
vt 0.301580 0.173780
vt 0.323010 0.188990
vt 0.301360 0.188540
vt 0.276610 0.188250
vt 0.277420 0.172950
vt 0.322640 0.173620
vt 0.301560 0.173460
vt 0.322960 0.173260
vt 0.323300 0.189360
vt 0.301360 0.188860
vt 0.276300 0.188610
vt 0.277140 0.172570
vt 0.308110 0.149930
vt 0.329540 0.165140
vt 0.307890 0.164690
vt 0.283140 0.164400
vt 0.283950 0.149100
vt 0.329170 0.149770
vt 0.308090 0.149610
vt 0.329490 0.149410
vt 0.329830 0.165510
vt 0.307890 0.165010
vt 0.282830 0.164760
vt 0.283670 0.148710
vt 0.447990 0.191940
vt 0.469420 0.176740
vt 0.469050 0.192110
vt 0.423030 0.177470
vt 0.447770 0.177180
vt 0.447970 0.192260
vt 0.469370 0.192460
vt 0.469710 0.176360
vt 0.447770 0.176860
vt 0.423830 0.192780
vt 0.422710 0.177110
vt 0.423550 0.193160
vt 0.409050 0.139340
vt 0.430480 0.124130
vt 0.430110 0.139500
vt 0.384090 0.124860
vt 0.408830 0.124570
vt 0.409030 0.139660
vt 0.430430 0.139860
vt 0.430770 0.123760
vt 0.408830 0.124260
vt 0.384890 0.140170
vt 0.383770 0.124510
vt 0.384610 0.140550
vt 0.348790 0.174490
vt 0.370220 0.189700
vt 0.348580 0.189250
vt 0.323830 0.188960
vt 0.324640 0.173660
vt 0.369860 0.174330
vt 0.348770 0.174170
vt 0.370170 0.173970
vt 0.370510 0.190070
vt 0.348570 0.189570
vt 0.323510 0.189320
vt 0.324360 0.173280
vt 0.409020 0.151640
vt 0.430450 0.166850
vt 0.408800 0.166410
vt 0.384050 0.166120
vt 0.384860 0.150810
vt 0.430080 0.151480
vt 0.409000 0.151330
vt 0.430400 0.151130
vt 0.430740 0.167230
vt 0.408800 0.166730
vt 0.383740 0.166480
vt 0.384580 0.150430
vt 0.992210 0.274830
vt 0.574920 0.340350
vt 0.975200 0.320190
vt 0.830100 0.012910
vt 0.567170 0.040180
vt 0.567170 0.057010
vt 0.567170 0.052660
vt 0.409520 0.097060
vt 0.409520 0.091580
vt 0.437310 0.074460
vt 0.384320 0.040910
vt 0.567190 0.029860
vt 0.567190 0.025220
vt 0.567190 0.034220
vt 0.437350 0.079940
vt 0.437340 0.091210
vt 0.567090 0.086390
vt 0.279770 0.062300
vt 0.408150 0.012690
vt 0.394900 0.012600
vt 0.381930 0.012510
vt 0.437910 0.068700
vt 0.403600 0.105210
vt 0.321830 0.041080
vt 0.567160 0.068500
vt 0.409190 0.097870
vt 0.403900 0.103000
vt 0.402150 0.446760
vt 0.441550 0.108650
vt 0.567110 0.120230
vt 0.315520 0.109130
vt 0.567000 0.061900
vt 0.278190 0.117540
vt 0.294940 0.018840
s 1
usemtl mat0
f 1/1/1 2/2/2 3/3/3
f 4/4/4 2/5/2 5/6/5
f 6/7/6 7/8/7 4/4/4
f 1/1/1 8/9/8 6/7/6
f 2/10/2 8/11/8 3/12/3
f 4/13/4 1/14/1 6/15/6
f 9/16/9 10/17/10 11/18/11
f 12/19/12 13/20/12 14/21/6
f 12/19/12 15/22/13 16/23/13
f 17/24/14 18/25/15 19/26/16
f 19/27/16 18/28/15 12/19/12
f 17/24/14 12/29/12 9/30/9
f 20/31/10 21/32/9 22/33/10
f 11/18/11 17/34/14 9/16/9
f 13/35/12 23/36/17 21/37/9
f 14/38/6 21/37/9 24/39/17
f 16/23/13 13/20/12 12/19/12
f 9/16/9 24/40/17 21/32/9
f 12/29/12 24/39/17 9/30/9
f 25/41/18 26/42/19 23/36/17
f 21/32/9 26/43/19 22/33/10
f 27/44/13 25/45/18 13/20/12
f 28/46/20 29/47/21 30/48/22
f 31/49/23 32/50/24 28/51/20
f 33/52/24 34/53/25 35/54/23
f 28/55/20 36/56/2 37/57/26
f 38/58/27 39/59/9 40/60/28
f 41/61/29 42/62/28 37/63/26
f 29/64/21 43/65/8 30/66/22
f 44/67/30 45/68/31 46/69/32
f 47/70/33 48/71/31 49/72/34
f 46/73/32 50/74/35 28/55/20
f 37/75/26 51/76/36 41/77/29
f 50/74/35 52/78/37 36/56/2
f 41/77/29 53/79/8 46/73/32
f 53/79/8 54/80/38 50/74/35
f 36/81/2 55/82/39 51/76/36
f 56/83/40 52/78/37 54/80/38
f 51/76/36 57/84/41 53/79/8
f 56/83/40 57/84/41 58/85/42
f 59/86/43 52/87/37 60/88/44
f 61/89/45 56/83/40 62/90/46
f 58/85/42 55/82/39 59/86/43
f 62/90/46 58/85/42 63/91/47
f 64/92/48 60/88/44 61/93/45
f 61/94/45 65/95/20 66/96/26
f 63/91/47 59/86/43 64/92/48
f 67/97/12 68/98/24 65/99/20
f 69/100/32 70/101/23 71/102/25
f 72/103/27 73/104/49 74/105/50
f 66/96/26 75/106/9 61/94/45
f 65/107/20 76/108/2 66/109/26
f 77/110/34 78/111/31 69/100/32
f 64/112/48 79/113/33 80/114/30
f 69/115/32 81/116/35 65/107/20
f 66/109/26 82/117/36 74/118/50
f 81/116/35 83/119/51 76/108/2
f 74/118/50 84/120/8 69/121/32
f 84/122/8 85/123/1 81/116/35
f 76/108/2 86/124/4 82/117/36
f 87/125/47 85/123/1 88/126/48
f 82/117/36 89/127/52 84/120/8
f 88/126/48 89/128/52 90/129/45
f 91/130/46 83/119/51 87/125/47
f 88/126/48 92/131/6 87/125/47
f 90/132/45 86/124/4 91/130/46
f 90/129/45 93/133/4 88/126/48
f 87/125/47 94/134/1 91/130/46
f 94/135/1 93/136/4 95/137/53
f 91/130/46 95/138/53 90/132/45
f 96/139/12 97/140/54 98/141/24
f 98/141/24 99/142/22 100/143/23
f 101/144/55 99/145/22 97/146/54
f 102/147/25 101/148/55 96/139/12
f 100/149/23 103/150/56 102/147/25
f 104/151/12 105/152/54 106/153/24
f 106/154/24 107/155/22 70/156/23
f 108/157/55 107/158/22 105/159/54
f 71/160/25 108/161/55 104/151/12
f 70/156/23 109/162/56 71/160/25
f 67/163/12 110/164/54 68/165/24
f 68/166/24 111/167/22 112/168/23
f 113/169/55 111/170/22 110/171/54
f 114/172/25 113/173/55 67/163/12
f 112/168/23 115/174/56 114/172/25
f 116/175/12 117/176/54 118/177/24
f 118/178/24 119/179/57 31/180/23
f 120/181/58 119/182/57 117/183/54
f 34/184/25 120/185/58 116/175/12
f 34/184/25 119/179/57 121/186/1
f 122/187/12 123/188/54 32/189/24
f 32/190/24 124/191/57 125/192/23
f 126/193/58 124/194/57 123/195/54
f 127/196/25 126/197/58 122/187/12
f 127/196/25 124/191/57 128/198/1
f 129/199/12 130/200/54 131/201/24
f 131/201/24 132/202/57 35/203/23
f 133/204/58 132/205/57 130/206/54
f 134/207/25 133/208/58 129/199/12
f 134/209/25 132/202/57 135/210/59
f 136/211/12 137/212/54 33/213/24
f 33/214/24 138/215/57 139/216/23
f 140/217/58 138/218/57 137/219/54
f 141/220/25 140/221/58 136/211/12
f 139/216/23 142/222/56 141/220/25
f 143/223/28 144/224/14 145/225/9
f 145/226/9 146/227/51 147/228/27
f 148/229/21 144/230/14 149/231/36
f 150/232/49 149/233/36 143/223/28
f 147/228/27 148/234/21 150/232/49
f 151/235/28 152/236/14 75/237/9
f 75/237/9 153/238/51 72/239/27
f 154/240/21 152/241/14 155/242/36
f 73/243/49 155/244/36 151/235/28
f 72/245/27 154/246/21 73/243/49
f 156/247/28 157/248/14 158/249/9
f 158/250/9 159/251/51 160/252/27
f 161/253/21 157/254/14 162/255/36
f 163/256/49 162/257/36 156/247/28
f 160/252/27 161/258/21 163/256/49
f 164/259/28 165/260/60 166/261/9
f 166/261/9 167/262/5 38/263/27
f 168/264/61 165/265/60 169/266/62
f 170/267/49 169/268/62 164/259/28
f 38/269/27 168/270/61 170/267/49
f 42/271/28 171/272/60 39/273/9
f 39/274/9 172/275/63 173/276/27
f 174/277/61 171/278/60 175/279/64
f 176/280/49 175/281/64 42/271/28
f 173/276/27 174/282/61 176/280/49
f 177/283/28 178/284/60 179/285/9
f 179/285/9 180/286/5 181/287/27
f 182/288/61 178/289/60 183/290/62
f 184/291/49 183/292/62 177/293/28
f 181/287/27 182/294/61 184/291/49
f 40/295/28 185/296/60 186/297/9
f 186/297/9 187/298/65 188/299/27
f 189/300/61 185/301/60 190/302/36
f 191/303/49 190/304/36 40/295/28
f 191/305/49 187/298/65 189/306/61
f 192/307/14 193/308/66 194/309/67
f 195/310/34 194/311/67 196/312/68
f 194/311/67 197/313/69 196/312/68
f 198/314/70 199/315/71 200/316/72
f 201/317/73 202/318/74 203/319/75
f 204/320/76 205/321/77 206/322/78
f 205/321/77 207/323/58 208/324/33
f 208/325/33 192/326/14 195/310/34
f 209/327/17 210/328/79 211/329/80
f 212/330/34 211/331/80 45/332/31
f 45/333/31 210/334/79 213/335/30
f 213/335/30 214/336/55 215/337/33
f 215/337/33 209/338/17 212/330/34
f 216/339/34 217/340/80 218/341/31
f 218/341/31 219/342/79 44/343/30
f 217/344/80 220/345/6 219/346/79
f 221/347/33 222/348/17 216/339/34
f 44/349/30 220/350/6 221/347/33
f 223/351/80 224/352/55 225/353/79
f 49/354/34 223/355/80 226/356/31
f 226/356/31 225/357/79 227/358/30
f 227/359/30 224/360/55 228/361/33
f 228/361/33 229/362/17 49/363/34
f 230/364/34 231/365/80 232/366/31
f 232/366/31 233/367/79 234/368/30
f 235/369/17 233/370/79 231/371/80
f 47/372/33 235/373/17 230/364/34
f 234/368/30 236/374/55 47/375/33
f 237/376/81 238/377/54 239/378/80
f 240/379/34 239/380/80 241/381/31
f 241/381/31 238/382/54 242/383/30
f 242/384/30 243/385/55 244/386/33
f 244/386/33 237/387/81 240/379/34
f 245/388/81 246/389/54 247/390/80
f 248/391/34 247/392/80 249/393/31
f 249/393/31 246/394/54 250/395/30
f 250/396/30 251/397/55 252/398/33
f 252/398/33 245/399/81 248/391/34
f 253/400/81 254/401/54 255/402/80
f 256/403/34 255/404/80 257/405/31
f 257/405/31 254/406/54 258/407/30
f 258/407/30 259/408/55 260/409/33
f 260/410/33 253/411/81 256/403/34
f 261/412/81 262/413/54 263/414/80
f 264/415/34 263/416/80 48/417/31
f 48/417/31 262/418/54 265/419/30
f 265/420/30 266/421/55 267/422/33
f 267/422/33 261/423/81 264/415/34
f 268/424/82 269/425/83 270/426/84
f 271/427/34 270/428/84 272/429/31
f 272/429/31 269/430/83 80/431/30
f 80/431/30 273/432/58 274/433/33
f 274/433/33 268/434/82 271/435/34
f 275/436/82 276/437/83 277/438/84
f 278/439/34 277/440/84 279/441/31
f 279/441/31 276/442/83 280/443/30
f 280/444/30 281/445/58 79/446/33
f 79/446/33 275/447/82 278/439/34
f 282/448/82 283/449/83 284/450/84
f 77/451/34 284/452/84 78/453/31
f 78/454/31 283/455/83 285/456/30
f 285/456/30 286/457/58 287/458/33
f 287/458/33 282/459/82 77/451/34
f 2/10/2 7/460/7 8/11/8
f 4/13/4 5/461/5 1/14/1
f 9/16/9 20/31/10 10/17/10
f 12/19/12 18/28/15 15/22/13
f 17/24/14 11/462/11 18/25/15
f 17/24/14 19/26/16 12/29/12
f 20/31/10 9/16/9 21/32/9
f 13/35/12 25/41/18 23/36/17
f 14/38/6 13/35/12 21/37/9
f 16/23/13 27/44/13 13/20/12
f 12/29/12 14/38/6 24/39/17
f 25/41/18 288/463/85 26/42/19
f 21/32/9 23/464/17 26/43/19
f 27/44/13 288/465/85 25/45/18
f 28/46/20 37/63/26 29/47/21
f 28/51/20 30/466/22 131/467/24
f 129/468/12 131/467/24 30/466/22
f 28/51/20 131/467/24 116/469/12
f 141/470/25 136/471/12 43/472/8
f 127/473/25 139/474/23 46/69/32
f 139/474/23 141/470/25 43/472/8
f 28/51/20 116/469/12 118/475/24
f 31/49/23 34/53/25 122/476/12
f 28/51/20 118/475/24 31/49/23
f 139/474/23 43/472/8 46/69/32
f 125/477/23 127/473/25 46/69/32
f 46/69/32 28/51/20 32/50/24
f 31/49/23 122/476/12 32/50/24
f 32/50/24 125/477/23 46/69/32
f 129/468/12 30/466/22 134/478/25
f 30/466/22 43/472/8 136/471/12
f 134/478/25 30/466/22 136/471/12
f 33/52/24 139/474/23 122/476/12
f 134/478/25 136/471/12 33/52/24
f 116/469/12 131/467/24 35/54/23
f 35/54/23 134/478/25 33/52/24
f 139/474/23 127/473/25 122/476/12
f 34/53/25 116/469/12 35/54/23
f 33/52/24 122/476/12 34/53/25
f 289/479/36 29/47/21 186/480/9
f 29/47/21 179/481/9 181/482/27
f 186/480/9 29/47/21 181/482/27
f 184/483/49 177/484/28 166/485/9
f 186/480/9 181/482/27 184/483/49
f 173/486/27 191/487/49 39/59/9
f 40/60/28 186/480/9 184/483/49
f 184/483/49 166/485/9 38/58/27
f 39/59/9 191/487/49 40/60/28
f 184/483/49 38/58/27 40/60/28
f 179/481/9 29/47/21 177/484/28
f 289/479/36 186/480/9 188/488/27
f 188/488/27 191/487/49 289/479/36
f 289/479/36 191/487/49 41/61/29
f 177/484/28 29/47/21 37/63/26
f 164/489/28 166/485/9 37/63/26
f 39/59/9 38/58/27 170/490/49
f 166/485/9 177/484/28 37/63/26
f 42/62/28 39/59/9 170/490/49
f 170/490/49 164/489/28 37/63/26
f 41/61/29 191/487/49 173/486/27
f 176/491/49 42/62/28 41/61/29
f 41/61/29 173/486/27 176/491/49
f 170/490/49 37/63/26 42/62/28
f 29/64/21 289/492/36 43/65/8
f 46/69/32 43/472/8 216/493/34
f 241/494/31 256/495/34 43/472/8
f 43/472/8 240/496/34 241/494/31
f 213/497/30 41/498/29 46/69/32
f 221/499/33 212/500/34 45/68/31
f 45/68/31 213/497/30 46/69/32
f 256/495/34 257/501/31 216/493/34
f 43/472/8 256/495/34 216/493/34
f 44/67/30 221/499/33 45/68/31
f 46/69/32 216/493/34 218/502/31
f 218/502/31 44/67/30 46/69/32
f 240/496/34 43/472/8 244/503/33
f 244/503/33 43/472/8 195/504/34
f 256/495/34 241/494/31 242/505/30
f 242/505/30 244/503/33 195/504/34
f 242/505/30 195/504/34 196/506/68
f 260/507/33 256/495/34 242/505/30
f 216/493/34 257/501/31 221/499/33
f 260/507/33 242/505/30 196/506/68
f 221/499/33 257/501/31 258/508/30
f 258/508/30 260/507/33 196/506/68
f 258/508/30 290/509/86 215/510/33
f 212/500/34 221/499/33 258/508/30
f 215/510/33 212/500/34 258/508/30
f 47/70/33 49/72/34 226/511/31
f 234/512/30 47/70/33 226/511/31
f 213/497/30 215/510/33 230/513/34
f 234/512/30 226/511/31 41/498/29
f 232/514/31 234/512/30 41/498/29
f 205/515/77 208/516/33 249/517/31
f 249/517/31 264/518/34 205/515/77
f 208/516/33 248/519/34 249/517/31
f 232/514/31 41/498/29 213/497/30
f 264/518/34 48/71/31 205/515/77
f 230/513/34 232/514/31 213/497/30
f 195/504/34 43/472/8 289/520/36
f 41/498/29 226/511/31 227/521/30
f 228/522/33 49/72/34 265/523/30
f 41/498/29 227/521/30 228/522/33
f 208/516/33 195/504/34 289/520/36
f 252/524/33 248/519/34 289/520/36
f 264/518/34 249/517/31 250/525/30
f 248/519/34 208/516/33 289/520/36
f 267/526/33 264/518/34 250/525/30
f 250/525/30 252/524/33 289/520/36
f 289/520/36 41/498/29 228/522/33
f 47/70/33 230/513/34 48/71/31
f 250/525/30 289/520/36 267/526/33
f 265/523/30 267/526/33 228/522/33
f 49/72/34 48/71/31 265/523/30
f 267/526/33 289/520/36 228/522/33
f 61/94/45 62/527/46 65/95/20
f 65/99/20 104/528/12 106/529/24
f 96/530/12 98/531/24 62/532/46
f 106/529/24 67/97/12 65/99/20
f 98/531/24 104/528/12 62/532/46
f 112/533/23 69/100/32 65/99/20
f 104/528/12 65/99/20 62/532/46
f 68/98/24 112/533/23 65/99/20
f 96/530/12 62/532/46 102/534/25
f 63/535/47 69/100/32 71/102/25
f 114/536/25 67/97/12 106/529/24
f 69/100/32 112/533/23 114/536/25
f 102/534/25 62/532/46 63/535/47
f 104/528/12 98/531/24 100/537/23
f 100/537/23 102/534/25 63/535/47
f 114/536/25 106/529/24 70/101/23
f 71/102/25 104/528/12 100/537/23
f 69/100/32 114/536/25 70/101/23
f 71/102/25 100/537/23 63/535/47
f 64/538/48 61/94/45 147/539/27
f 61/94/45 145/540/9 147/539/27
f 163/541/49 74/105/50 160/542/27
f 151/543/28 158/544/9 160/542/27
f 160/542/27 74/105/50 73/104/49
f 64/538/48 147/539/27 150/545/49
f 150/545/49 143/546/28 75/106/9
f 150/545/49 75/106/9 72/103/27
f 74/105/50 64/538/48 72/103/27
f 73/104/49 151/543/28 160/542/27
f 64/538/48 150/545/49 72/103/27
f 145/540/9 61/94/45 143/546/28
f 66/96/26 74/105/50 163/541/49
f 156/547/28 158/544/9 66/96/26
f 66/96/26 163/541/49 156/547/28
f 143/546/28 61/94/45 75/106/9
f 151/543/28 75/106/9 66/96/26
f 66/96/26 158/544/9 151/543/28
f 69/100/32 63/535/47 278/548/34
f 272/549/31 278/548/34 63/535/47
f 63/535/47 271/550/34 272/549/31
f 285/551/30 74/552/50 69/100/32
f 279/553/31 77/110/34 69/100/32
f 78/111/31 285/551/30 69/100/32
f 69/100/32 278/548/34 279/553/31
f 64/112/48 74/552/50 79/113/33
f 287/554/33 77/110/34 279/553/31
f 74/552/50 285/551/30 287/554/33
f 271/550/34 63/535/47 274/555/33
f 274/555/33 63/535/47 64/112/48
f 287/554/33 279/553/31 280/556/30
f 79/113/33 278/548/34 272/549/31
f 74/552/50 287/554/33 280/556/30
f 79/113/33 272/549/31 80/114/30
f 74/552/50 280/556/30 79/113/33
f 80/114/30 274/555/33 64/112/48
f 101/144/55 103/557/56 99/145/22
f 108/157/55 109/558/56 107/158/22
f 113/169/55 115/559/56 111/170/22
f 120/181/58 121/560/1 119/182/57
f 126/193/58 128/561/1 124/194/57
f 133/204/58 135/562/59 132/205/57
f 140/217/58 142/563/56 138/218/57
f 148/229/21 146/564/51 144/230/14
f 154/240/21 153/565/51 152/241/14
f 161/253/21 159/566/51 157/254/14
f 168/264/61 167/567/5 165/265/60
f 174/277/61 172/568/63 171/278/60
f 182/288/61 180/569/5 178/289/60
f 189/300/61 187/570/65 185/301/60
f 198/571/70 193/308/66 291/572/87
f 192/307/14 207/573/58 193/308/66
f 195/310/34 192/326/14 194/311/67
f 205/321/77 193/574/66 207/323/58
f 208/325/33 207/575/58 192/326/14
f 209/327/17 214/576/55 210/328/79
f 217/344/80 222/577/17 220/345/6
f 223/351/80 229/578/17 224/352/55
f 235/369/17 236/579/55 233/370/79
f 237/376/81 243/580/55 238/377/54
f 253/400/81 259/581/55 254/401/54
f 261/412/81 266/582/55 262/413/54
f 268/424/82 273/583/58 269/425/83
f 275/436/82 281/584/58 276/437/83
f 282/448/82 286/585/58 283/449/83
f 197/313/69 292/586/88 293/587/89
f 293/587/89 294/588/90 295/589/91
f 198/314/70 290/590/86 296/591/92
f 296/591/92 295/589/91 294/588/90
f 199/315/71 297/592/93 298/593/94
f 298/593/94 299/594/95 300/595/96
f 201/317/73 301/596/97 302/597/98
f 302/597/98 300/595/96 299/594/95
f 202/318/74 303/598/99 304/599/100
f 304/599/100 305/600/101 306/601/102
f 204/320/76 307/602/103 308/603/104
f 308/603/104 306/601/102 305/600/101
f 258/508/30 196/506/68 197/604/69
f 258/508/30 197/604/69 293/605/89
f 258/508/30 293/605/89 295/606/91
f 290/509/86 200/607/72 215/510/33
f 200/607/72 199/608/71 215/510/33
f 199/608/71 298/609/94 215/510/33
f 298/609/94 300/610/96 215/510/33
f 258/508/30 295/606/91 290/509/86
f 300/610/96 230/513/34 215/510/33
f 300/610/96 301/611/97 230/513/34
f 301/611/97 203/612/75 230/513/34
f 203/612/75 202/613/74 230/513/34
f 202/613/74 304/614/100 230/513/34
f 304/614/100 306/615/102 230/513/34
f 306/615/102 307/616/103 230/513/34
f 307/616/103 206/617/78 230/513/34
f 206/617/78 48/71/31 230/513/34
f 206/617/78 205/515/77 48/71/31
f 309/618/105 194/309/67 193/308/66
f 292/619/88 309/618/105 193/308/66
f 294/620/90 292/619/88 193/308/66
f 296/621/92 294/620/90 193/308/66
f 198/571/70 296/621/92 193/308/66
f 193/308/66 204/622/76 308/623/104
f 193/308/66 308/623/104 305/624/101
f 193/308/66 305/624/101 303/625/99
f 193/308/66 303/625/99 310/626/106
f 193/308/66 310/626/106 201/627/73
f 193/308/66 201/627/73 302/628/98
f 193/308/66 302/628/98 299/629/95
f 193/308/66 299/629/95 297/630/93
f 193/308/66 297/630/93 291/572/87
f 311/631/107 312/632/108 313/633/109
f 311/631/107 314/634/110 315/635/111
f 316/636/112 317/637/113 318/638/114
f 312/632/108 318/638/114 319/639/115
f 313/633/109 319/639/115 320/640/116
f 314/634/110 320/640/116 321/641/117
f 315/635/111 321/641/117 322/642/118
f 311/631/107 322/642/118 317/637/113
f 323/643/119 324/644/120 325/645/121
f 323/643/119 326/646/122 327/647/123
f 328/648/124 329/649/125 330/650/114
f 324/644/120 330/650/114 331/651/126
f 325/645/121 331/651/126 332/652/127
f 326/646/122 332/652/127 333/653/117
f 327/647/123 333/653/117 334/654/118
f 323/643/119 334/654/118 329/649/125
f 335/655/128 336/656/129 337/657/130
f 335/655/128 338/658/131 339/659/132
f 337/657/130 340/660/133 335/655/128
f 336/656/129 341/661/134 337/657/130
f 339/659/132 342/662/135 336/656/129
f 338/658/131 343/663/136 339/659/132
f 344/664/137 345/665/138 338/658/131
f 335/655/128 346/666/139 344/664/137
f 347/667/140 348/668/141 349/669/130
f 347/667/140 350/670/142 351/671/132
f 349/669/130 352/672/133 347/667/140
f 348/668/141 353/673/134 349/669/130
f 351/671/132 354/674/143 348/668/141
f 350/670/142 355/675/144 351/671/132
f 356/676/137 357/677/138 350/670/142
f 347/667/140 358/678/139 356/676/137
f 359/679/145 360/680/146 361/681/147
f 359/679/145 362/682/148 363/683/149
f 361/681/147 364/684/150 359/679/145
f 360/680/146 365/685/151 361/681/147
f 363/683/149 366/686/152 360/680/146
f 362/682/148 367/687/153 363/683/149
f 368/688/154 369/689/155 362/682/148
f 359/679/145 370/690/156 368/688/154
f 371/691/157 372/692/146 373/693/147
f 371/691/157 374/694/158 375/695/149
f 373/693/147 376/696/159 371/691/157
f 372/692/146 377/697/151 373/693/147
f 375/695/149 378/698/160 372/692/146
f 374/694/158 379/699/161 375/695/149
f 380/700/154 381/701/155 374/694/158
f 371/691/157 382/702/156 380/700/154
f 383/703/162 384/704/163 385/705/164
f 383/703/162 386/706/165 387/707/166
f 388/708/167 389/709/168 390/710/169
f 384/704/163 390/710/169 391/711/170
f 385/705/164 391/711/170 392/712/171
f 386/706/165 392/712/171 393/713/172
f 387/707/166 393/713/172 394/714/173
f 383/703/162 394/714/173 389/709/168
f 395/715/174 396/716/175 397/717/176
f 395/715/174 398/718/177 399/719/178
f 400/720/167 401/721/179 402/722/169
f 396/716/175 402/722/169 403/723/170
f 397/717/176 403/723/170 404/724/180
f 398/718/177 404/724/180 405/725/172
f 399/719/178 405/725/172 406/726/173
f 395/715/174 406/726/173 401/721/179
f 407/727/181 408/728/182 409/729/147
f 407/727/181 410/730/158 411/731/149
f 409/729/147 412/732/150 407/727/181
f 408/728/182 413/733/151 409/729/147
f 411/731/149 414/734/183 408/728/182
f 410/730/158 415/735/161 411/731/149
f 416/736/154 417/737/155 410/730/158
f 407/727/181 418/738/156 416/736/154
f 419/739/184 420/740/146 421/741/147
f 419/739/184 422/742/148 423/743/149
f 421/741/147 424/744/150 419/739/184
f 420/740/146 425/745/151 421/741/147
f 423/743/149 426/746/160 420/740/146
f 422/742/148 427/747/153 423/743/149
f 428/748/154 429/749/155 422/742/148
f 419/739/184 430/750/156 428/748/154
f 431/751/185 432/752/175 433/753/186
f 431/751/185 434/754/177 435/755/178
f 436/756/167 437/757/168 438/758/169
f 432/752/175 438/758/169 439/759/170
f 433/753/186 439/759/170 440/760/187
f 434/754/177 440/760/187 441/761/172
f 435/755/178 441/761/172 442/762/173
f 431/751/185 442/762/173 437/757/168
f 443/763/185 444/764/163 445/765/186
f 443/763/185 446/766/177 447/767/178
f 448/768/167 449/769/179 450/770/169
f 444/764/163 450/770/169 451/771/188
f 445/765/186 451/771/188 452/772/189
f 446/766/177 452/772/189 453/773/172
f 447/767/178 453/773/172 454/774/173
f 443/763/185 454/774/173 449/769/179
f 1/1/1 5/775/5 2/2/2
f 4/4/4 7/8/7 2/5/2
f 6/7/6 8/9/8 7/8/7
f 1/1/1 3/3/3 8/9/8
f 28/55/20 50/74/35 36/56/2
f 46/73/32 53/79/8 50/74/35
f 37/75/26 36/81/2 51/76/36
f 50/74/35 54/80/38 52/78/37
f 41/77/29 51/76/36 53/79/8
f 53/79/8 57/84/41 54/80/38
f 36/81/2 52/87/37 55/82/39
f 56/83/40 60/776/44 52/78/37
f 51/76/36 55/82/39 57/84/41
f 56/83/40 54/80/38 57/84/41
f 59/86/43 55/82/39 52/87/37
f 61/89/45 60/776/44 56/83/40
f 58/85/42 57/84/41 55/82/39
f 62/90/46 56/83/40 58/85/42
f 64/92/48 59/86/43 60/88/44
f 63/91/47 58/85/42 59/86/43
f 65/107/20 81/116/35 76/108/2
f 69/115/32 84/122/8 81/116/35
f 66/109/26 76/108/2 82/117/36
f 81/116/35 85/123/1 83/119/51
f 74/118/50 82/117/36 84/120/8
f 84/122/8 89/128/52 85/123/1
f 76/108/2 83/119/51 86/124/4
f 87/125/47 83/119/51 85/123/1
f 82/117/36 86/124/4 89/127/52
f 88/126/48 85/123/1 89/128/52
f 91/130/46 86/124/4 83/119/51
f 88/126/48 93/133/4 92/131/6
f 90/132/45 89/127/52 86/124/4
f 90/129/45 95/777/53 93/133/4
f 87/125/47 92/131/6 94/134/1
f 94/135/1 92/778/6 93/136/4
f 91/130/46 94/134/1 95/138/53
f 96/139/12 101/148/55 97/140/54
f 98/141/24 97/140/54 99/142/22
f 102/147/25 103/150/56 101/148/55
f 100/149/23 99/779/22 103/150/56
f 104/151/12 108/161/55 105/152/54
f 106/154/24 105/780/54 107/155/22
f 71/160/25 109/162/56 108/161/55
f 70/156/23 107/155/22 109/162/56
f 67/163/12 113/173/55 110/164/54
f 68/166/24 110/781/54 111/167/22
f 114/172/25 115/174/56 113/173/55
f 112/168/23 111/167/22 115/174/56
f 116/175/12 120/185/58 117/176/54
f 118/178/24 117/782/54 119/179/57
f 34/184/25 121/186/1 120/185/58
f 34/184/25 31/180/23 119/179/57
f 122/187/12 126/197/58 123/188/54
f 32/190/24 123/783/54 124/191/57
f 127/196/25 128/198/1 126/197/58
f 127/196/25 125/192/23 124/191/57
f 129/199/12 133/208/58 130/200/54
f 131/201/24 130/200/54 132/202/57
f 134/207/25 135/784/59 133/208/58
f 134/209/25 35/203/23 132/202/57
f 136/211/12 140/221/58 137/212/54
f 33/214/24 137/785/54 138/215/57
f 141/220/25 142/222/56 140/221/58
f 139/216/23 138/215/57 142/222/56
f 143/223/28 149/233/36 144/224/14
f 145/226/9 144/786/14 146/227/51
f 150/232/49 148/234/21 149/233/36
f 147/228/27 146/227/51 148/234/21
f 151/235/28 155/244/36 152/236/14
f 75/237/9 152/236/14 153/238/51
f 73/243/49 154/246/21 155/244/36
f 72/245/27 153/787/51 154/246/21
f 156/247/28 162/257/36 157/248/14
f 158/250/9 157/788/14 159/251/51
f 163/256/49 161/258/21 162/257/36
f 160/252/27 159/251/51 161/258/21
f 164/259/28 169/268/62 165/260/60
f 166/261/9 165/260/60 167/262/5
f 170/267/49 168/270/61 169/268/62
f 38/269/27 167/789/5 168/270/61
f 42/271/28 175/281/64 171/272/60
f 39/274/9 171/790/60 172/275/63
f 176/280/49 174/282/61 175/281/64
f 173/276/27 172/275/63 174/282/61
f 177/283/28 183/791/62 178/284/60
f 179/285/9 178/284/60 180/286/5
f 184/291/49 182/294/61 183/292/62
f 181/287/27 180/286/5 182/294/61
f 40/295/28 190/304/36 185/296/60
f 186/297/9 185/296/60 187/298/65
f 191/303/49 189/792/61 190/304/36
f 191/305/49 188/299/27 187/298/65
f 194/311/67 309/793/105 197/313/69
f 198/314/70 291/794/87 199/315/71
f 201/317/73 310/795/106 202/318/74
f 204/320/76 193/574/66 205/321/77
f 212/330/34 209/338/17 211/331/80
f 45/333/31 211/796/80 210/334/79
f 213/335/30 210/334/79 214/336/55
f 215/337/33 214/336/55 209/338/17
f 216/339/34 222/348/17 217/340/80
f 218/341/31 217/340/80 219/342/79
f 221/347/33 220/350/6 222/348/17
f 44/349/30 219/797/79 220/350/6
f 49/354/34 229/798/17 223/355/80
f 226/356/31 223/355/80 225/357/79
f 227/359/30 225/799/79 224/360/55
f 228/361/33 224/360/55 229/362/17
f 230/364/34 235/373/17 231/365/80
f 232/366/31 231/365/80 233/367/79
f 47/372/33 236/800/55 235/373/17
f 234/368/30 233/367/79 236/374/55
f 240/379/34 237/387/81 239/380/80
f 241/381/31 239/380/80 238/382/54
f 242/384/30 238/801/54 243/385/55
f 244/386/33 243/385/55 237/387/81
f 245/388/81 251/802/55 246/389/54
f 248/391/34 245/399/81 247/392/80
f 249/393/31 247/392/80 246/394/54
f 250/396/30 246/803/54 251/397/55
f 252/398/33 251/397/55 245/399/81
f 256/403/34 253/411/81 255/404/80
f 257/405/31 255/404/80 254/406/54
f 258/407/30 254/406/54 259/408/55
f 260/410/33 259/804/55 253/411/81
f 264/415/34 261/423/81 263/416/80
f 48/417/31 263/416/80 262/418/54
f 265/420/30 262/805/54 266/421/55
f 267/422/33 266/421/55 261/423/81
f 271/427/34 268/806/82 270/428/84
f 272/429/31 270/428/84 269/430/83
f 80/431/30 269/430/83 273/432/58
f 274/433/33 273/432/58 268/434/82
f 278/439/34 275/447/82 277/440/84
f 279/441/31 277/440/84 276/442/83
f 280/444/30 276/807/83 281/445/58
f 79/446/33 281/445/58 275/447/82
f 77/451/34 282/459/82 284/452/84
f 78/454/31 284/808/84 283/455/83
f 285/456/30 283/455/83 286/457/58
f 287/458/33 286/457/58 282/459/82
f 197/313/69 309/793/105 292/586/88
f 293/587/89 292/586/88 294/588/90
f 198/314/70 200/316/72 290/590/86
f 296/591/92 290/590/86 295/589/91
f 199/315/71 291/794/87 297/592/93
f 298/593/94 297/592/93 299/594/95
f 201/317/73 203/319/75 301/596/97
f 302/597/98 301/596/97 300/595/96
f 202/318/74 310/795/106 303/598/99
f 304/599/100 303/598/99 305/600/101
f 204/320/76 206/322/78 307/602/103
f 308/603/104 307/602/103 306/601/102
f 311/631/107 316/636/112 312/632/108
f 311/631/107 313/633/109 314/634/110
f 316/636/112 311/631/107 317/637/113
f 312/632/108 316/636/112 318/638/114
f 313/633/109 312/632/108 319/639/115
f 314/634/110 313/633/109 320/640/116
f 315/635/111 314/634/110 321/641/117
f 311/631/107 315/635/111 322/642/118
f 323/643/119 328/648/124 324/644/120
f 323/643/119 325/645/121 326/646/122
f 328/648/124 323/643/119 329/649/125
f 324/644/120 328/648/124 330/650/114
f 325/645/121 324/644/120 331/651/126
f 326/646/122 325/645/121 332/652/127
f 327/647/123 326/646/122 333/653/117
f 323/643/119 327/647/123 334/654/118
f 335/655/128 339/659/132 336/656/129
f 335/655/128 344/664/137 338/658/131
f 337/657/130 341/661/134 340/660/133
f 336/656/129 342/662/135 341/661/134
f 339/659/132 343/663/136 342/662/135
f 338/658/131 345/665/138 343/663/136
f 344/664/137 346/666/139 345/665/138
f 335/655/128 340/660/133 346/666/139
f 347/667/140 351/671/132 348/668/141
f 347/667/140 356/676/137 350/670/142
f 349/669/130 353/673/134 352/672/133
f 348/668/141 354/674/143 353/673/134
f 351/671/132 355/675/144 354/674/143
f 350/670/142 357/677/138 355/675/144
f 356/676/137 358/678/139 357/677/138
f 347/667/140 352/672/133 358/678/139
f 359/679/145 363/683/149 360/680/146
f 359/679/145 368/688/154 362/682/148
f 361/681/147 365/685/151 364/684/150
f 360/680/146 366/686/152 365/685/151
f 363/683/149 367/687/153 366/686/152
f 362/682/148 369/689/155 367/687/153
f 368/688/154 370/690/156 369/689/155
f 359/679/145 364/684/150 370/690/156
f 371/691/157 375/695/149 372/692/146
f 371/691/157 380/700/154 374/694/158
f 373/693/147 377/697/151 376/696/159
f 372/692/146 378/698/160 377/697/151
f 375/695/149 379/699/161 378/698/160
f 374/694/158 381/701/155 379/699/161
f 380/700/154 382/702/156 381/701/155
f 371/691/157 376/696/159 382/702/156
f 383/703/162 388/708/167 384/704/163
f 383/703/162 385/705/164 386/706/165
f 388/708/167 383/703/162 389/709/168
f 384/704/163 388/708/167 390/710/169
f 385/705/164 384/704/163 391/711/170
f 386/706/165 385/705/164 392/712/171
f 387/707/166 386/706/165 393/713/172
f 383/703/162 387/707/166 394/714/173
f 395/715/174 400/720/167 396/716/175
f 395/715/174 397/717/176 398/718/177
f 400/720/167 395/715/174 401/721/179
f 396/716/175 400/720/167 402/722/169
f 397/717/176 396/716/175 403/723/170
f 398/718/177 397/717/176 404/724/180
f 399/719/178 398/718/177 405/725/172
f 395/715/174 399/719/178 406/726/173
f 407/727/181 411/731/149 408/728/182
f 407/727/181 416/736/154 410/730/158
f 409/729/147 413/733/151 412/732/150
f 408/728/182 414/734/183 413/733/151
f 411/731/149 415/735/161 414/734/183
f 410/730/158 417/737/155 415/735/161
f 416/736/154 418/738/156 417/737/155
f 407/727/181 412/732/150 418/738/156
f 419/739/184 423/743/149 420/740/146
f 419/739/184 428/748/154 422/742/148
f 421/741/147 425/745/151 424/744/150
f 420/740/146 426/746/160 425/745/151
f 423/743/149 427/747/153 426/746/160
f 422/742/148 429/749/155 427/747/153
f 428/748/154 430/750/156 429/749/155
f 419/739/184 424/744/150 430/750/156
f 431/751/185 436/756/167 432/752/175
f 431/751/185 433/753/186 434/754/177
f 436/756/167 431/751/185 437/757/168
f 432/752/175 436/756/167 438/758/169
f 433/753/186 432/752/175 439/759/170
f 434/754/177 433/753/186 440/760/187
f 435/755/178 434/754/177 441/761/172
f 431/751/185 435/755/178 442/762/173
f 443/763/185 448/768/167 444/764/163
f 443/763/185 445/765/186 446/766/177
f 448/768/167 443/763/185 449/769/179
f 444/764/163 448/768/167 450/770/169
f 445/765/186 444/764/163 451/771/188
f 446/766/177 445/765/186 452/772/189
f 447/767/178 446/766/177 453/773/172
f 443/763/185 447/767/178 454/774/173
