# Blender 5.0.0
# www.blender.org
mtllib llantasPair.mtl
o wheel.1
v 0.673946 0.119223 -0.008153
v 0.559091 -0.036916 -0.008479
v 0.693906 -0.036106 -0.007284
v 0.559599 -0.021823 -0.075992
v 0.694414 -0.021013 -0.074796
v 0.559823 0.021069 -0.130271
v 0.694638 0.021878 -0.129076
v 0.559718 0.083263 -0.160567
v 0.694534 0.084072 -0.159371
v 0.559306 0.152442 -0.160879
v 0.694121 0.153251 -0.159683
v 0.558667 0.214904 -0.131146
v 0.557237 0.273972 -0.009881
v 0.691544 0.259688 0.058827
v 0.691320 0.216796 0.113107
v 0.556610 0.153792 0.142207
v 0.691425 0.154602 0.143403
v 0.557022 0.084614 0.142519
v 0.691838 0.085423 0.143715
v 0.557661 0.022152 0.112785
v 0.558399 -0.021222 0.058894
v 0.694165 0.003358 -0.063194
v 0.694350 0.038801 -0.108049
v 0.694264 0.090196 -0.133084
v 0.693395 0.198978 -0.108771
v 0.692213 0.247789 -0.008564
v 0.691793 0.235316 0.047226
v 0.674712 -0.009228 -0.007574
v 0.675132 0.003243 -0.063363
v 0.674890 0.147248 -0.133510
v 0.672575 0.199759 0.091911
v 0.672662 0.148364 0.116946
v 0.674141 0.003740 0.048100
v 0.674725 0.002005 -0.016616
v 0.674261 0.079790 -0.016967
v 0.674979 0.009558 -0.050399
v 0.675077 0.017288 -0.066635
v 0.674359 0.087520 -0.033203
v 0.675189 0.038751 -0.093797
v 0.675205 0.052760 -0.105072
v 0.674375 0.101529 -0.044478
v 0.675153 0.083883 -0.120232
v 0.675084 0.101396 -0.124313
v 0.674306 0.119043 -0.048558
v 0.674877 0.136014 -0.124469
v 0.674737 0.153563 -0.120546
v 0.674166 0.136592 -0.044636
v 0.674417 0.184819 -0.105668
v 0.674234 0.198928 -0.094520
v 0.673982 0.150701 -0.033488
v 0.673864 0.220632 -0.067552
v 0.673674 0.228506 -0.051387
v 0.673791 0.158575 -0.017322
v 0.673328 0.236360 -0.017673
v 0.673168 0.236440 0.000309
v 0.673631 0.158655 0.000660
v 0.672913 0.228887 0.034093
v 0.672816 0.221158 0.050329
v 0.673534 0.150925 0.016896
v 0.672704 0.199694 0.077491
v 0.672688 0.185685 0.088766
v 0.673518 0.136916 0.028171
v 0.672740 0.154563 0.103926
v 0.672809 0.137050 0.108006
v 0.673587 0.119403 0.032251
v 0.673016 0.102432 0.108162
v 0.673156 0.084883 0.104240
v 0.673727 0.101854 0.028329
v 0.673475 0.053627 0.089361
v 0.673659 0.039518 0.078213
v 0.673911 0.087745 0.017181
v 0.674028 0.017813 0.051246
v 0.674219 0.009939 0.035080
v 0.674101 0.079870 0.001015
v 0.674565 0.002086 0.001366
v 0.665101 0.009499 -0.050487
v 0.665199 0.017229 -0.066723
v 0.665311 0.038692 -0.093885
v 0.665205 0.101337 -0.124400
v 0.664427 0.118984 -0.048646
v 0.664999 0.135954 -0.124557
v 0.664287 0.136533 -0.044723
v 0.664539 0.184760 -0.105755
v 0.664355 0.198869 -0.094607
v 0.664104 0.150642 -0.033575
v 0.663986 0.220573 -0.067640
v 0.663795 0.228447 -0.051474
v 0.663913 0.158516 -0.017409
v 0.663449 0.236300 -0.017760
v 0.663289 0.236380 0.000222
v 0.663753 0.158596 0.000572
v 0.663035 0.228828 0.034005
v 0.662937 0.221098 0.050241
v 0.663655 0.150866 0.016808
v 0.662825 0.199635 0.077403
v 0.662809 0.185626 0.088678
v 0.663640 0.136857 0.028083
v 0.663597 0.053567 0.089273
v 0.663780 0.039458 0.078125
v 0.664032 0.087686 0.017093
v 0.664150 0.017754 0.051158
v 0.664341 0.009880 0.034992
v 0.664687 0.002026 0.001278
v -0.535947 0.111959 -0.018884
v -0.651730 0.111264 -0.019910
v -0.669104 0.013691 -0.141171
v -0.534806 0.145874 -0.170582
v -0.669621 0.145064 -0.171778
v -0.536183 0.251709 -0.086958
v -0.670998 0.250900 -0.088154
v -0.536874 0.267403 -0.019584
v -0.671690 0.266594 -0.020780
v -0.672198 0.251501 0.046732
v -0.672317 0.146415 0.131308
v -0.537089 0.078045 0.132816
v -0.671266 0.014774 0.101886
v -0.535712 -0.027790 0.049191
v -0.669392 0.030614 -0.120143
v -0.669478 0.082009 -0.145178
v -0.669819 0.139175 -0.145436
v -0.670347 0.190791 -0.120866
v -0.670957 0.226633 -0.076333
v -0.671529 0.239602 -0.020658
v -0.671948 0.227129 0.035131
v -0.672134 0.191686 0.079985
v -0.672047 0.140291 0.105020
v -0.670568 -0.004333 0.036175
v -0.650964 -0.017187 -0.019331
v -0.650544 -0.004715 -0.075120
v -0.650359 0.030728 -0.119975
v -0.650786 0.139289 -0.145267
v -0.651314 0.190905 -0.120697
v -0.651924 0.226747 -0.076164
v -0.652496 0.239716 -0.020490
v -0.652916 0.227243 0.035300
v -0.653101 0.191800 0.080154
v -0.653014 0.140405 0.105189
v -0.652673 0.083239 0.105447
v -0.651535 -0.004218 0.036343
v -0.650951 -0.005953 -0.028373
v -0.651415 0.071832 -0.028724
v -0.650697 0.001600 -0.062156
v -0.650599 0.009330 -0.078392
v -0.651317 0.079562 -0.044960
v -0.650487 0.030793 -0.105554
v -0.650471 0.044802 -0.116829
v -0.651301 0.093571 -0.056235
v -0.650523 0.075924 -0.131989
v -0.650592 0.093438 -0.136070
v -0.651370 0.111084 -0.060315
v -0.650799 0.128055 -0.136226
v -0.650939 0.145604 -0.132303
v -0.651510 0.128633 -0.056393
v -0.651259 0.176860 -0.117425
v -0.651442 0.190969 -0.106277
v -0.651694 0.142742 -0.045245
v -0.651812 0.212674 -0.079309
v -0.652002 0.220548 -0.063144
v -0.651885 0.150617 -0.029079
v -0.652348 0.228401 -0.029430
v -0.652508 0.228481 -0.011448
v -0.652044 0.150697 -0.011097
v -0.652763 0.220929 0.022336
v -0.652860 0.213199 0.038572
v -0.652142 0.142967 0.005139
v -0.652972 0.191736 0.065734
v -0.652988 0.177727 0.077009
v -0.652158 0.128958 0.016414
v -0.652936 0.146604 0.092169
v -0.652867 0.129091 0.096249
v -0.652089 0.111444 0.020494
v -0.652660 0.094473 0.096405
v -0.652520 0.076924 0.092483
v -0.651949 0.093895 0.016572
v -0.652201 0.045668 0.077604
v -0.652017 0.031559 0.066456
v -0.651765 0.079786 0.005424
v -0.651648 0.009855 0.039489
v -0.651457 0.001980 0.023323
v -0.651575 0.071912 -0.010742
v -0.651111 -0.005873 -0.010391
v -0.641536 0.071891 -0.028636
v -0.641439 0.079621 -0.044872
v -0.641423 0.093630 -0.056147
v -0.640645 0.075983 -0.131902
v -0.640714 0.093497 -0.135982
v -0.640920 0.128114 -0.136138
v -0.641632 0.128693 -0.056305
v -0.641815 0.142802 -0.045157
v -0.641933 0.212733 -0.079222
v -0.642124 0.220607 -0.063056
v -0.642470 0.228460 -0.029342
v -0.643094 0.191795 0.065821
v -0.642280 0.129017 0.016501
v -0.642211 0.111504 0.020582
v -0.642782 0.094533 0.096493
v -0.642642 0.076984 0.092571
v -0.642322 0.045727 0.077692
v -0.642139 0.031618 0.066544
v -0.641769 0.009914 0.039576
v -0.641578 0.002040 0.023411
v -0.641696 0.071971 -0.010654
v -0.641232 -0.005814 -0.010304
v 0.558164 0.118528 -0.009180
v 0.693482 0.215713 -0.129950
v 0.557929 0.258277 -0.077255
v 0.692744 0.259087 -0.076059
v 0.692052 0.274781 -0.008685
v 0.556729 0.258878 0.057631
v 0.556505 0.215987 0.111911
v 0.692476 0.022961 0.113981
v 0.693215 -0.020412 0.060090
v 0.693745 -0.009114 -0.007405
v 0.693923 0.147362 -0.133342
v 0.692785 0.234820 -0.064238
v 0.691608 0.199873 0.092080
v 0.691695 0.148478 0.117115
v 0.692036 0.091312 0.117373
v 0.692563 0.039696 0.092802
v 0.693174 0.003854 0.048269
v 0.675317 0.038687 -0.108218
v 0.675231 0.090082 -0.133253
v 0.674362 0.198864 -0.108940
v 0.673752 0.234705 -0.064407
v 0.673180 0.247674 -0.008733
v 0.672760 0.235202 0.047057
v 0.673003 0.091198 0.117204
v 0.673531 0.039582 0.092633
v -0.535020 -0.043484 -0.018183
v -0.669836 -0.044294 -0.019378
v -0.534512 -0.028391 -0.085695
v -0.669327 -0.029201 -0.086891
v -0.534288 0.014500 -0.139975
v -0.534393 0.076695 -0.170270
v -0.669208 0.075885 -0.171466
v -0.535444 0.208335 -0.140849
v -0.670259 0.207526 -0.142045
v -0.537382 0.252310 0.047928
v -0.537606 0.209418 0.102208
v -0.672422 0.208609 0.101012
v -0.537502 0.147224 0.132504
v -0.671904 0.077236 0.131620
v -0.536450 0.015583 0.103082
v -0.670527 -0.028599 0.047995
v -0.669997 -0.017301 -0.019500
v -0.669577 -0.004829 -0.075289
v -0.671706 0.083125 0.105278
v -0.671178 0.031509 0.080707
v -0.650445 0.082123 -0.145010
v -0.652145 0.031623 0.080876
v 0.664847 0.001946 -0.016704
v 0.664383 0.079731 -0.017054
v 0.664480 0.087461 -0.033290
v 0.665326 0.052701 -0.105160
v 0.664496 0.101470 -0.044565
v 0.665274 0.083823 -0.120320
v 0.664859 0.153503 -0.120634
v 0.662862 0.154504 0.103838
v 0.662931 0.136990 0.107919
v 0.663708 0.119344 0.032164
v 0.663137 0.102373 0.108075
v 0.663277 0.084824 0.104152
v 0.663849 0.101794 0.028241
v 0.664223 0.079811 0.000927
v -0.641072 -0.005894 -0.028285
v -0.640818 0.001659 -0.062069
v -0.640721 0.009389 -0.078305
v -0.640609 0.030852 -0.105467
v -0.640593 0.044861 -0.116742
v -0.641492 0.111144 -0.060227
v -0.641061 0.145663 -0.132216
v -0.641380 0.176920 -0.117337
v -0.641564 0.191029 -0.106189
v -0.642006 0.150676 -0.028991
v -0.642630 0.228540 -0.011360
v -0.642166 0.150756 -0.011010
v -0.642884 0.220988 0.022423
v -0.642982 0.213258 0.038660
v -0.642264 0.143026 0.005227
v -0.643110 0.177786 0.077096
v -0.643057 0.146664 0.092256
v -0.642988 0.129150 0.096337
v -0.642070 0.093954 0.016660
v -0.641887 0.079846 0.005512
vn 0.0038 -0.9739 0.2269
vn 0.0054 0.4299 -0.9029
vn -0.0078 0.9759 0.2181
vn -0.0102 0.7846 0.6199
vn 0.0078 -0.9759 -0.2181
vn -0.0009 -0.7790 0.6270
vn 0.0009 0.7790 -0.6270
vn -0.0106 0.4379 0.8990
vn 0.0106 -0.4379 -0.8990
vn 0.0102 -0.7846 -0.6199
vn -0.0038 0.9739 -0.2269
vn -0.0089 0.0045 1.0000
vn -0.9999 -0.0060 -0.0089
vn 0.0089 -0.0045 -1.0000
vn -0.0054 -0.4299 0.9029
vn 0.9999 0.0060 0.0089
vn -0.0054 -0.4298 0.9029
vt 0.500000 0.364220
vt 0.452254 0.117401
vt 0.709022 0.176006
vt 0.622986 0.134574
vt 0.441087 0.622333
vt 0.377014 0.865427
vt 0.558913 0.377667
vt 0.171102 0.701217
vt 0.230641 0.775877
vt 0.828898 0.298783
vt 0.769359 0.224123
vt 0.606157 0.415343
vt 0.393843 0.584657
vt 0.862382 0.368314
vt 0.883631 0.461413
vt 0.632376 0.469786
vt 0.137618 0.631686
vt 0.116369 0.538587
vt 0.883631 0.538587
vt 0.895675 0.657633
vt 0.924885 0.529655
vt 0.632376 0.530214
vt 0.500000 0.500000
vt 0.367624 0.530214
vt 0.862382 0.631686
vt 0.769359 0.775877
vt 0.869941 0.711068
vt 0.828898 0.701217
vt 0.606157 0.584657
vt 0.788096 0.813699
vt 0.137618 0.368314
vt 0.116369 0.461413
vt 0.709022 0.823994
vt 0.623457 0.907633
vt 0.741726 0.850678
vt 0.558913 0.622333
vt 0.367624 0.469786
vt 0.622986 0.865427
vt 0.452254 0.882599
vt 0.565635 0.920831
vt 0.547746 0.882599
vt 0.500000 0.635780
vt 0.434365 0.920831
vt 0.171102 0.298783
vt 0.230641 0.224123
vt 0.290978 0.823994
vt 0.376543 0.907633
vt 0.393843 0.415343
vt 0.258274 0.850678
vt 0.211904 0.813699
vt 0.130059 0.711068
vt 0.377014 0.134574
vt 0.290978 0.176006
vt 0.075115 0.529655
vt 0.104326 0.657633
vt 0.075115 0.470345
vt 0.104326 0.342367
vt 0.211904 0.186301
vt 0.130059 0.288932
vt 0.258274 0.149323
vt 0.441087 0.377667
vt 0.376543 0.092367
vt 0.547746 0.117401
vt 0.434365 0.079169
vt 0.565635 0.079169
vt 0.623457 0.092367
vt 0.741726 0.149323
vt 0.788096 0.186301
vt 0.869941 0.288932
vt 0.895675 0.342367
vt 0.924885 0.470345
vt 0.049516 0.716942
vt 0.000000 0.500000
vt 0.071429 0.000000
vt 0.000000 1.000000
vt 0.000000 0.000000
vt 0.188255 0.890916
vt 0.142857 1.000000
vt 0.142857 0.000000
vt 0.071429 1.000000
vt 0.388740 0.987464
vt 0.214286 0.000000
vt 0.611260 0.987464
vt 0.285714 1.000000
vt 0.285714 0.000000
vt 0.811745 0.890916
vt 0.357143 1.000000
vt 0.357143 0.000000
vt 0.950484 0.716942
vt 0.428571 1.000000
vt 0.428571 0.000000
vt 0.214286 1.000000
vt 1.000000 0.500000
vt 0.500000 0.000000
vt 0.950484 0.283058
vt 0.571429 1.000000
vt 0.571429 0.000000
vt 0.811745 0.109084
vt 0.642857 0.000000
vt 0.611260 0.012536
vt 0.714286 1.000000
vt 0.714286 0.000000
vt 0.388740 0.012536
vt 0.785714 0.000000
vt 0.188255 0.109084
vt 0.857143 1.000000
vt 0.857143 0.000000
vt 0.049516 0.283058
vt 0.928571 0.000000
vt 1.000000 1.000000
vt 1.000000 0.000000
vt 0.500000 1.000000
vt 0.000000 0.500000
vt 0.642857 1.000000
vt 0.785714 1.000000
vt 0.928571 1.000000
s 0
usemtl wheels
f 4/72/13 2/73/13 204/23/13
f 4/74/5 3/75/5 2/76/5
f 229/73/16 231/72/16 104/23/16
f 6/77/13 4/72/13 204/23/13
f 7/78/10 4/74/10 6/79/10
f 232/80/5 229/76/5 230/75/5
f 8/81/13 6/77/13 204/23/13
f 8/82/9 7/78/9 6/79/9
f 231/72/16 233/77/16 104/23/16
f 10/83/13 8/81/13 204/23/13
f 11/84/14 8/82/14 10/85/14
f 232/80/10 233/79/10 231/74/10
f 12/86/13 10/83/13 204/23/13
f 205/87/2 10/85/2 12/88/2
f 233/77/16 234/81/16 104/23/16
f 206/89/13 12/86/13 204/23/13
f 207/90/7 12/88/7 206/91/7
f 235/92/9 233/79/9 106/78/9
f 13/93/13 206/89/13 204/23/13
f 13/94/11 207/90/11 206/91/11
f 234/81/16 107/83/16 104/23/16
f 209/95/13 13/93/13 204/23/13
f 14/96/3 13/94/3 209/97/3
f 235/92/14 107/85/14 234/82/14
f 210/98/13 209/95/13 204/23/13
f 210/99/4 14/96/4 209/97/4
f 107/83/16 236/86/16 104/23/16
f 16/100/13 210/98/13 204/23/13
f 17/101/8 210/99/8 16/102/8
f 237/87/2 107/85/2 108/84/2
f 18/103/13 16/100/13 204/23/13
f 18/104/12 17/101/12 16/102/12
f 236/86/16 109/89/16 104/23/16
f 20/105/13 18/103/13 204/23/13
f 211/106/15 18/104/15 20/107/15
f 237/87/7 109/91/7 236/88/7
f 21/108/13 20/105/13 204/23/13
f 21/109/6 211/106/6 20/107/6
f 109/89/16 111/93/16 104/23/16
f 2/73/13 21/108/13 204/23/13
f 3/110/1 21/109/1 2/111/1
f 112/112/11 109/91/11 110/90/11
f 22/20/16 3/93/16 5/89/16
f 23/30/16 5/89/16 7/86/16
f 9/83/16 23/35/16 7/86/16
f 214/43/16 9/83/16 11/81/16
f 25/49/16 11/81/16 205/77/16
f 207/72/16 25/50/16 205/77/16
f 208/113/16 215/55/16 207/72/16
f 14/108/16 26/56/16 208/113/16
f 15/105/16 27/59/16 14/108/16
f 217/62/16 15/105/16 17/103/16
f 19/100/16 217/64/16 17/103/16
f 219/67/16 19/100/16 211/98/16
f 212/95/16 219/68/16 211/98/16
f 3/93/16 220/70/16 212/95/16
f 29/20/3 213/21/3 22/20/3
f 23/30/4 29/27/4 22/27/4
f 222/34/8 23/35/8 24/34/8
f 214/43/12 222/40/12 24/40/12
f 25/49/15 30/47/15 214/47/15
f 224/51/6 25/50/6 215/51/6
f 26/54/1 224/55/1 215/55/1
f 226/57/5 26/56/5 27/57/5
f 31/58/10 27/59/10 216/58/10
f 32/62/9 216/60/9 217/62/9
f 227/65/14 217/64/14 218/65/14
f 219/67/2 227/66/2 218/66/2
f 33/69/7 219/68/7 220/69/7
f 213/71/11 33/70/11 220/70/11
f 111/93/16 238/95/16 104/23/16
f 113/96/3 111/94/3 112/112/3
f 238/95/16 239/98/16 104/23/16
f 240/114/4 238/97/4 113/96/4
f 239/98/16 241/100/16 104/23/16
f 240/114/8 241/102/8 239/99/8
f 241/100/16 115/103/16 104/23/16
f 242/115/12 241/102/12 114/101/12
f 115/103/16 243/105/16 104/23/16
f 242/115/15 243/107/15 115/104/15
f 243/105/16 117/108/16 104/23/16
f 244/116/6 243/107/6 116/106/6
f 117/108/16 229/73/16 104/23/16
f 230/110/1 117/109/1 244/116/1
f 246/20/13 230/93/13 245/21/13
f 118/30/13 232/89/13 246/27/13
f 118/35/13 235/83/13 106/86/13
f 120/43/13 235/83/13 119/40/13
f 121/49/13 108/81/13 120/47/13
f 121/50/13 110/72/13 237/77/13
f 122/55/13 112/113/13 110/72/13
f 123/56/13 113/108/13 112/113/13
f 124/59/13 240/105/13 113/108/13
f 126/62/13 240/105/13 125/60/13
f 126/64/13 242/100/13 114/103/13
f 248/67/13 242/100/13 247/66/13
f 248/68/13 244/95/13 116/98/13
f 127/70/13 230/93/13 244/95/13
f 129/20/3 245/21/3 128/21/3
f 130/30/4 246/27/4 129/27/4
f 249/34/8 118/35/8 130/35/8
f 131/43/12 119/40/12 249/40/12
f 131/47/15 121/49/15 120/47/15
f 133/51/6 121/50/6 132/50/6
f 134/54/1 122/55/1 133/55/1
f 134/56/5 124/57/5 123/56/5
f 136/58/10 124/59/10 135/59/10
f 137/62/9 125/60/9 136/60/9
f 137/64/14 247/65/14 126/64/14
f 250/67/2 247/66/2 138/66/2
f 139/69/7 248/68/7 250/68/7
f 128/71/11 127/70/11 139/70/11
f 4/74/5 5/80/5 3/75/5
f 7/78/10 5/80/10 4/74/10
f 232/80/5 231/74/5 229/76/5
f 8/82/9 9/92/9 7/78/9
f 11/84/14 9/92/14 8/82/14
f 232/80/10 106/78/10 233/79/10
f 205/87/2 11/84/2 10/85/2
f 207/90/7 205/87/7 12/88/7
f 235/92/9 234/82/9 233/79/9
f 13/94/11 208/112/11 207/90/11
f 14/96/3 208/112/3 13/94/3
f 235/92/14 108/84/14 107/85/14
f 210/99/4 15/114/4 14/96/4
f 17/101/8 15/114/8 210/99/8
f 237/87/2 236/88/2 107/85/2
f 18/104/12 19/115/12 17/101/12
f 211/106/15 19/115/15 18/104/15
f 237/87/7 110/90/7 109/91/7
f 21/109/6 212/116/6 211/106/6
f 3/110/1 212/116/1 21/109/1
f 112/112/11 111/94/11 109/91/11
f 22/20/16 213/21/16 3/93/16
f 23/30/16 22/27/16 5/89/16
f 9/83/16 24/34/16 23/35/16
f 214/43/16 24/40/16 9/83/16
f 25/49/16 214/47/16 11/81/16
f 207/72/16 215/51/16 25/50/16
f 208/113/16 26/54/16 215/55/16
f 14/108/16 27/57/16 26/56/16
f 15/105/16 216/58/16 27/59/16
f 217/62/16 216/60/16 15/105/16
f 19/100/16 218/65/16 217/64/16
f 219/67/16 218/66/16 19/100/16
f 212/95/16 220/69/16 219/68/16
f 3/93/16 213/71/16 220/70/16
f 29/20/3 28/21/3 213/21/3
f 23/30/4 221/30/4 29/27/4
f 222/34/8 221/35/8 23/35/8
f 214/43/12 30/43/12 222/40/12
f 25/49/15 223/49/15 30/47/15
f 224/51/6 223/50/6 25/50/6
f 26/54/1 225/54/1 224/55/1
f 226/57/5 225/56/5 26/56/5
f 31/58/10 226/59/10 27/59/10
f 32/62/9 31/60/9 216/60/9
f 227/65/14 32/64/14 217/64/14
f 219/67/2 228/67/2 227/66/2
f 33/69/7 228/68/7 219/68/7
f 213/71/11 28/71/11 33/70/11
f 113/96/3 238/97/3 111/94/3
f 240/114/4 239/99/4 238/97/4
f 240/114/8 114/101/8 241/102/8
f 242/115/12 115/104/12 241/102/12
f 242/115/15 116/106/15 243/107/15
f 244/116/6 117/109/6 243/107/6
f 230/110/1 229/111/1 117/109/1
f 246/20/13 232/89/13 230/93/13
f 118/30/13 106/86/13 232/89/13
f 118/35/13 119/34/13 235/83/13
f 120/43/13 108/81/13 235/83/13
f 121/49/13 237/77/13 108/81/13
f 121/50/13 122/51/13 110/72/13
f 122/55/13 123/54/13 112/113/13
f 123/56/13 124/57/13 113/108/13
f 124/59/13 125/58/13 240/105/13
f 126/62/13 114/103/13 240/105/13
f 126/64/13 247/65/13 242/100/13
f 248/67/13 116/98/13 242/100/13
f 248/68/13 127/69/13 244/95/13
f 127/70/13 245/71/13 230/93/13
f 129/20/3 246/20/3 245/21/3
f 130/30/4 118/30/4 246/27/4
f 249/34/8 119/34/8 118/35/8
f 131/43/12 120/43/12 119/40/12
f 131/47/15 132/49/15 121/49/15
f 133/51/6 122/51/6 121/50/6
f 134/54/1 123/54/1 122/55/1
f 134/56/5 135/57/5 124/57/5
f 136/58/10 125/58/10 124/59/10
f 137/62/9 126/62/9 125/60/9
f 137/64/14 138/65/14 247/65/14
f 250/67/2 248/67/2 247/66/2
f 139/69/7 127/69/7 248/68/7
f 128/71/11 245/71/11 127/70/11
usemtl car_body_1
f 195/1/1 170/2/1 171/1/1
f 198/3/2 173/4/2 197/4/2
f 188/5/3 152/6/3 153/5/3
f 198/3/4 174/7/4 175/3/4
f 283/7/5 173/4/5 174/7/5
f 190/8/6 155/9/6 273/9/6
f 200/10/7 176/11/7 199/11/7
f 200/10/8 177/12/8 178/10/8
f 189/13/9 157/8/9 190/8/9
f 284/12/10 176/11/10 177/12/10
f 201/14/11 181/15/11 179/14/11
f 189/13/4 155/9/4 156/13/4
f 202/16/12 181/15/12 203/15/12
f 201/14/9 180/16/9 202/16/9
f 191/17/1 160/18/1 158/17/1
f 140/19/13 129/20/13 128/21/13
f 141/22/13 128/21/13 105/23/13
f 192/18/14 159/24/14 160/18/14
f 141/22/13 129/20/13 142/25/13
f 145/26/13 129/27/13 143/28/13
f 274/24/8 158/17/8 159/24/8
f 144/29/13 129/27/13 105/23/13
f 144/29/13 130/30/13 145/26/13
f 277/31/5 161/32/5 275/32/5
f 146/33/13 249/34/13 130/35/13
f 147/36/13 130/35/13 105/23/13
f 277/31/2 162/37/2 163/31/2
f 147/36/13 249/34/13 148/38/13
f 151/39/13 249/40/13 149/41/13
f 275/32/12 162/37/12 276/37/12
f 150/42/13 249/40/13 105/23/13
f 150/42/13 131/43/13 151/39/13
f 278/44/10 166/45/10 164/44/10
f 154/46/13 131/47/13 152/6/13
f 153/5/13 131/47/13 105/23/13
f 193/45/7 165/48/7 166/45/7
f 153/5/13 132/49/13 154/46/13
f 157/8/13 132/50/13 155/9/13
f 278/44/15 165/48/15 279/48/15
f 156/13/13 132/50/13 105/23/13
f 156/13/13 133/51/13 157/8/13
f 281/52/9 167/53/9 280/53/9
f 158/17/13 134/54/13 133/55/13
f 159/24/13 133/55/13 105/23/13
f 159/24/13 134/54/13 160/18/13
f 163/31/13 134/56/13 161/32/13
f 162/37/13 134/56/13 105/23/13
f 162/37/13 135/57/13 163/31/13
f 164/44/13 136/58/13 135/59/13
f 165/48/13 135/59/13 105/23/13
f 165/48/13 136/58/13 166/45/13
f 169/52/13 136/60/13 167/53/13
f 168/61/13 136/60/13 105/23/13
f 168/61/13 137/62/13 169/52/13
f 172/63/13 137/64/13 170/2/13
f 171/1/13 137/64/13 105/23/13
f 171/1/13 138/65/13 172/63/13
f 175/3/13 138/66/13 173/4/13
f 174/7/13 138/66/13 105/23/13
f 174/7/13 250/67/13 175/3/13
f 178/10/13 250/68/13 176/11/13
f 177/12/13 250/68/13 105/23/13
f 177/12/13 139/69/13 178/10/13
f 181/15/13 139/70/13 179/14/13
f 180/16/13 139/70/13 105/23/13
f 180/16/13 128/71/13 181/15/13
f 265/19/3 142/25/3 140/19/3
f 182/22/15 142/25/15 266/25/15
f 265/19/14 141/22/14 182/22/14
f 267/28/4 145/26/4 143/28/4
f 29/20/16 34/19/16 28/21/16
f 28/21/16 35/22/16 1/23/16
f 35/22/16 29/20/16 1/23/16
f 39/26/16 29/27/16 221/30/16
f 29/27/16 38/29/16 1/23/16
f 38/29/16 221/30/16 1/23/16
f 222/34/16 40/33/16 221/35/16
f 221/35/16 41/36/16 1/23/16
f 41/36/16 222/34/16 1/23/16
f 45/39/16 222/40/16 30/43/16
f 222/40/16 44/42/16 1/23/16
f 44/42/16 30/43/16 1/23/16
f 48/46/16 30/47/16 223/49/16
f 30/47/16 47/5/16 1/23/16
f 47/5/16 223/49/16 1/23/16
f 51/8/16 223/50/16 224/51/16
f 223/50/16 50/13/16 1/23/16
f 50/13/16 224/51/16 1/23/16
f 225/54/16 52/17/16 224/55/16
f 224/55/16 53/24/16 1/23/16
f 53/24/16 225/54/16 1/23/16
f 57/31/16 225/56/16 226/57/16
f 225/56/16 56/37/16 1/23/16
f 56/37/16 226/57/16 1/23/16
f 31/58/16 58/44/16 226/59/16
f 226/59/16 59/48/16 1/23/16
f 59/48/16 31/58/16 1/23/16
f 63/52/16 31/60/16 32/62/16
f 31/60/16 62/61/16 1/23/16
f 62/61/16 32/62/16 1/23/16
f 66/63/16 32/64/16 227/65/16
f 32/64/16 65/1/16 1/23/16
f 65/1/16 227/65/16 1/23/16
f 228/67/16 67/4/16 227/66/16
f 227/66/16 68/7/16 1/23/16
f 68/7/16 228/67/16 1/23/16
f 72/10/16 228/68/16 33/69/16
f 228/68/16 71/12/16 1/23/16
f 71/12/16 33/69/16 1/23/16
f 75/15/16 33/70/16 28/71/16
f 33/70/16 74/16/16 1/23/16
f 74/16/16 28/71/16 1/23/16
f 76/25/3 34/19/3 36/25/3
f 35/22/15 76/25/15 36/25/15
f 251/19/14 35/22/14 34/19/14
f 78/26/4 37/28/4 39/26/4
f 38/29/6 78/26/6 39/26/6
f 77/28/2 38/29/2 37/28/2
f 256/38/8 40/33/8 42/38/8
f 41/36/1 256/38/1 42/38/1
f 254/33/7 41/36/7 40/33/7
f 81/39/12 43/41/12 45/39/12
f 44/42/5 81/39/5 45/39/5
f 79/41/11 44/42/11 43/41/11
f 48/46/17 257/6/17 46/6/17
f 82/5/10 48/46/10 47/5/10
f 257/6/3 47/5/3 46/6/3
f 86/8/6 49/9/6 51/8/6
f 50/13/9 86/8/9 51/8/9
f 84/9/4 50/13/4 49/9/4
f 89/18/1 52/17/1 54/18/1
f 88/24/14 54/18/14 53/24/14
f 87/17/8 53/24/8 52/17/8
f 92/31/5 55/32/5 57/31/5
f 91/37/2 57/31/2 56/37/2
f 55/32/12 91/37/12 56/37/12
f 60/45/10 93/44/10 58/44/10
f 94/48/7 60/45/7 59/48/7
f 93/44/15 59/48/15 58/44/15
f 258/52/9 61/53/9 63/52/9
f 97/61/11 63/52/11 62/61/11
f 61/53/6 97/61/6 62/61/6
f 66/63/14 259/2/14 64/2/14
f 260/1/3 66/63/3 65/1/3
f 64/2/1 260/1/1 65/1/1
f 98/3/2 67/4/2 69/3/2
f 263/7/4 69/3/4 68/7/4
f 262/4/5 68/7/5 67/4/5
f 101/10/7 70/11/7 72/10/7
f 100/12/8 72/10/8 71/12/8
f 70/11/10 100/12/10 71/12/10
f 103/15/11 73/14/11 75/15/11
f 264/16/12 75/15/12 74/16/12
f 73/14/9 264/16/9 74/16/9
f 183/29/6 145/26/6 268/26/6
f 267/28/2 144/29/2 183/29/2
f 281/52/11 168/61/11 169/52/11
f 269/33/8 148/38/8 146/33/8
f 184/36/1 148/38/1 185/38/1
f 280/53/6 168/61/6 194/61/6
f 184/36/7 146/33/7 147/36/7
f 186/41/12 151/39/12 149/41/12
f 282/2/14 172/63/14 170/2/14
f 270/42/5 151/39/5 187/39/5
f 270/42/11 149/41/11 150/42/11
f 195/1/3 172/63/3 196/63/3
f 271/6/15 154/46/15 152/6/15
f 188/5/10 154/46/10 272/46/10
f 195/1/1 282/2/1 170/2/1
f 198/3/2 175/3/2 173/4/2
f 188/5/3 271/6/3 152/6/3
f 198/3/4 283/7/4 174/7/4
f 283/7/5 197/4/5 173/4/5
f 190/8/6 157/8/6 155/9/6
f 200/10/7 178/10/7 176/11/7
f 200/10/8 284/12/8 177/12/8
f 189/13/9 156/13/9 157/8/9
f 284/12/10 199/11/10 176/11/10
f 201/14/11 203/15/11 181/15/11
f 189/13/4 273/9/4 155/9/4
f 202/16/12 180/16/12 181/15/12
f 201/14/9 179/14/9 180/16/9
f 191/17/1 192/18/1 160/18/1
f 140/19/13 142/25/13 129/20/13
f 141/22/13 140/19/13 128/21/13
f 192/18/14 274/24/14 159/24/14
f 141/22/13 105/23/13 129/20/13
f 145/26/13 130/30/13 129/27/13
f 274/24/8 191/17/8 158/17/8
f 144/29/13 143/28/13 129/27/13
f 144/29/13 105/23/13 130/30/13
f 277/31/5 163/31/5 161/32/5
f 146/33/13 148/38/13 249/34/13
f 147/36/13 146/33/13 130/35/13
f 277/31/2 276/37/2 162/37/2
f 147/36/13 105/23/13 249/34/13
f 151/39/13 131/43/13 249/40/13
f 275/32/12 161/32/12 162/37/12
f 150/42/13 149/41/13 249/40/13
f 150/42/13 105/23/13 131/43/13
f 278/44/10 193/45/10 166/45/10
f 154/46/13 132/49/13 131/47/13
f 153/5/13 152/6/13 131/47/13
f 193/45/7 279/48/7 165/48/7
f 153/5/13 105/23/13 132/49/13
f 157/8/13 133/51/13 132/50/13
f 278/44/15 164/44/15 165/48/15
f 156/13/13 155/9/13 132/50/13
f 156/13/13 105/23/13 133/51/13
f 281/52/9 169/52/9 167/53/9
f 158/17/13 160/18/13 134/54/13
f 159/24/13 158/17/13 133/55/13
f 159/24/13 105/23/13 134/54/13
f 163/31/13 135/57/13 134/56/13
f 162/37/13 161/32/13 134/56/13
f 162/37/13 105/23/13 135/57/13
f 164/44/13 166/45/13 136/58/13
f 165/48/13 164/44/13 135/59/13
f 165/48/13 105/23/13 136/58/13
f 169/52/13 137/62/13 136/60/13
f 168/61/13 167/53/13 136/60/13
f 168/61/13 105/23/13 137/62/13
f 172/63/13 138/65/13 137/64/13
f 171/1/13 170/2/13 137/64/13
f 171/1/13 105/23/13 138/65/13
f 175/3/13 250/67/13 138/66/13
f 174/7/13 173/4/13 138/66/13
f 174/7/13 105/23/13 250/67/13
f 178/10/13 139/69/13 250/68/13
f 177/12/13 176/11/13 250/68/13
f 177/12/13 105/23/13 139/69/13
f 181/15/13 128/71/13 139/70/13
f 180/16/13 179/14/13 139/70/13
f 180/16/13 105/23/13 128/71/13
f 265/19/3 266/25/3 142/25/3
f 182/22/15 141/22/15 142/25/15
f 265/19/14 140/19/14 141/22/14
f 267/28/4 268/26/4 145/26/4
f 29/20/16 36/25/16 34/19/16
f 28/21/16 34/19/16 35/22/16
f 35/22/16 36/25/16 29/20/16
f 39/26/16 37/28/16 29/27/16
f 29/27/16 37/28/16 38/29/16
f 38/29/16 39/26/16 221/30/16
f 222/34/16 42/38/16 40/33/16
f 221/35/16 40/33/16 41/36/16
f 41/36/16 42/38/16 222/34/16
f 45/39/16 43/41/16 222/40/16
f 222/40/16 43/41/16 44/42/16
f 44/42/16 45/39/16 30/43/16
f 48/46/16 46/6/16 30/47/16
f 30/47/16 46/6/16 47/5/16
f 47/5/16 48/46/16 223/49/16
f 51/8/16 49/9/16 223/50/16
f 223/50/16 49/9/16 50/13/16
f 50/13/16 51/8/16 224/51/16
f 225/54/16 54/18/16 52/17/16
f 224/55/16 52/17/16 53/24/16
f 53/24/16 54/18/16 225/54/16
f 57/31/16 55/32/16 225/56/16
f 225/56/16 55/32/16 56/37/16
f 56/37/16 57/31/16 226/57/16
f 31/58/16 60/45/16 58/44/16
f 226/59/16 58/44/16 59/48/16
f 59/48/16 60/45/16 31/58/16
f 63/52/16 61/53/16 31/60/16
f 31/60/16 61/53/16 62/61/16
f 62/61/16 63/52/16 32/62/16
f 66/63/16 64/2/16 32/64/16
f 32/64/16 64/2/16 65/1/16
f 65/1/16 66/63/16 227/65/16
f 228/67/16 69/3/16 67/4/16
f 227/66/16 67/4/16 68/7/16
f 68/7/16 69/3/16 228/67/16
f 72/10/16 70/11/16 228/68/16
f 228/68/16 70/11/16 71/12/16
f 71/12/16 72/10/16 33/69/16
f 75/15/16 73/14/16 33/70/16
f 33/70/16 73/14/16 74/16/16
f 74/16/16 75/15/16 28/71/16
f 76/25/3 251/19/3 34/19/3
f 35/22/15 252/22/15 76/25/15
f 251/19/14 252/22/14 35/22/14
f 78/26/4 77/28/4 37/28/4
f 38/29/6 253/29/6 78/26/6
f 77/28/2 253/29/2 38/29/2
f 256/38/8 254/33/8 40/33/8
f 41/36/1 255/36/1 256/38/1
f 254/33/7 255/36/7 41/36/7
f 81/39/12 79/41/12 43/41/12
f 44/42/5 80/42/5 81/39/5
f 79/41/11 80/42/11 44/42/11
f 48/46/17 83/46/17 257/6/17
f 82/5/10 83/46/10 48/46/10
f 257/6/3 82/5/3 47/5/3
f 86/8/6 84/9/6 49/9/6
f 50/13/9 85/13/9 86/8/9
f 84/9/4 85/13/4 50/13/4
f 89/18/1 87/17/1 52/17/1
f 88/24/14 89/18/14 54/18/14
f 87/17/8 88/24/8 53/24/8
f 92/31/5 90/32/5 55/32/5
f 91/37/2 92/31/2 57/31/2
f 55/32/12 90/32/12 91/37/12
f 60/45/10 95/45/10 93/44/10
f 94/48/7 95/45/7 60/45/7
f 93/44/15 94/48/15 59/48/15
f 258/52/9 96/53/9 61/53/9
f 97/61/11 258/52/11 63/52/11
f 61/53/6 96/53/6 97/61/6
f 66/63/14 261/63/14 259/2/14
f 260/1/3 261/63/3 66/63/3
f 64/2/1 259/2/1 260/1/1
f 98/3/2 262/4/2 67/4/2
f 263/7/4 98/3/4 69/3/4
f 262/4/5 263/7/5 68/7/5
f 101/10/7 99/11/7 70/11/7
f 100/12/8 101/10/8 72/10/8
f 70/11/10 99/11/10 100/12/10
f 103/15/11 102/14/11 73/14/11
f 264/16/12 103/15/12 75/15/12
f 73/14/9 102/14/9 264/16/9
f 183/29/6 144/29/6 145/26/6
f 267/28/2 143/28/2 144/29/2
f 281/52/11 194/61/11 168/61/11
f 269/33/8 185/38/8 148/38/8
f 184/36/1 147/36/1 148/38/1
f 280/53/6 167/53/6 168/61/6
f 184/36/7 269/33/7 146/33/7
f 186/41/12 187/39/12 151/39/12
f 282/2/14 196/63/14 172/63/14
f 270/42/5 150/42/5 151/39/5
f 270/42/11 186/41/11 149/41/11
f 195/1/3 171/1/3 172/63/3
f 271/6/17 272/46/17 154/46/17
f 188/5/10 153/5/10 154/46/10
usemtl car_body
f 258/52/16 97/61/16 96/53/16
f 261/63/16 260/1/16 259/2/16
f 76/25/16 252/22/16 251/19/16
f 98/3/16 263/7/16 262/4/16
f 101/10/16 100/12/16 99/11/16
f 78/26/16 253/29/16 77/28/16
f 103/15/16 264/16/16 102/14/16
f 182/22/13 266/25/13 265/19/13
f 256/38/16 255/36/16 254/33/16
f 183/29/13 268/26/13 267/28/13
f 184/36/13 185/38/13 269/33/13
f 81/39/16 80/42/16 79/41/16
f 270/42/13 187/39/13 186/41/13
f 188/5/13 272/46/13 271/6/13
f 83/46/16 82/5/16 257/6/16
f 189/13/13 190/8/13 273/9/13
f 274/24/13 192/18/13 191/17/13
f 86/8/16 85/13/16 84/9/16
f 276/37/13 277/31/13 275/32/13
f 279/48/13 193/45/13 278/44/13
f 89/18/16 88/24/16 87/17/16
f 194/61/13 281/52/13 280/53/13
f 195/1/13 196/63/13 282/2/13
f 92/31/16 91/37/16 90/32/16
f 283/7/13 198/3/13 197/4/13
f 284/12/13 200/10/13 199/11/13
f 95/45/16 94/48/16 93/44/16
f 202/16/13 203/15/13 201/14/13
