# Blender 4.5.4 LTS
# www.blender.org
mtllib semaforo.mtl
o Sphere_2
v -0.993780 1.033215 0.313938
v 1.006220 1.033215 0.313938
v -0.953273 1.033215 0.190099
v -0.953273 1.112588 0.195115
v -0.953273 1.185531 0.209758
v -0.953273 1.246134 0.232841
v -0.953273 1.289488 0.262493
v -0.953273 1.312080 0.296314
v -0.953273 1.312080 0.331562
v -0.953273 1.289488 0.365382
v -0.953273 1.246134 0.395035
v -0.953273 1.185531 0.418117
v -0.953273 1.112588 0.432760
v -0.953273 1.033215 0.437776
v -0.953273 0.953841 0.432760
v -0.953273 0.880898 0.418117
v -0.953273 0.820295 0.395035
v -0.953273 0.776942 0.365382
v -0.953273 0.754350 0.331562
v -0.953273 0.754350 0.296314
v -0.953273 0.776942 0.262493
v -0.953273 0.820295 0.232841
v -0.953273 0.880898 0.209758
v -0.953273 0.953841 0.195116
v -0.835033 1.033215 0.076293
v -0.835033 1.185531 0.085919
v -0.835033 1.325507 0.114018
v -0.835033 1.441804 0.158314
v -0.835033 1.524999 0.215217
v -0.835033 1.568352 0.280117
v -0.835033 1.568352 0.347758
v -0.835033 1.524999 0.412659
v -0.835033 1.441804 0.469562
v -0.835033 1.325507 0.513857
v -0.835033 1.185531 0.541956
v -0.835033 1.033215 0.551582
v -0.835033 0.880898 0.541956
v -0.835033 0.740922 0.513857
v -0.835033 0.624626 0.469562
v -0.835033 0.541430 0.412659
v -0.835033 0.498077 0.347758
v -0.835033 0.498077 0.280117
v -0.835033 0.541430 0.215217
v -0.835033 0.624626 0.158314
v -0.835033 0.740922 0.114018
v -0.835033 0.880898 0.085919
v -0.648640 1.033215 -0.018260
v -0.648640 1.246134 -0.004804
v -0.648640 1.441804 0.034475
v -0.648640 1.604372 0.096394
v -0.648640 1.720669 0.175938
v -0.648640 1.781272 0.266661
v -0.648640 1.781272 0.361214
v -0.648640 1.720669 0.451938
v -0.648640 1.604372 0.531481
v -0.648640 1.441804 0.593400
v -0.648640 1.246134 0.632679
v -0.648640 1.033215 0.646136
v -0.648640 0.820295 0.632679
v -0.648640 0.624626 0.593401
v -0.648640 0.462057 0.531481
v -0.648640 0.345761 0.451938
v -0.648640 0.285158 0.361215
v -0.648640 0.285158 0.266661
v -0.648640 0.345761 0.175938
v -0.648640 0.462057 0.096394
v -0.648640 0.624626 0.034475
v -0.648640 0.820295 -0.004804
v -0.409195 1.033215 -0.085901
v -0.409195 1.289487 -0.069705
v -0.409195 1.524999 -0.022428
v -0.409195 1.720669 0.052099
v -0.409195 1.860645 0.147839
v -0.409195 1.933588 0.257035
v -0.409195 1.933588 0.370841
v -0.409195 1.860645 0.480037
v -0.409195 1.720669 0.575776
v -0.409195 1.524999 0.650303
v -0.409195 1.289488 0.697580
v -0.409195 1.033215 0.713776
v -0.409195 0.776942 0.697580
v -0.409195 0.541430 0.650304
v -0.409195 0.345761 0.575777
v -0.409195 0.205784 0.480037
v -0.409195 0.132841 0.370841
v -0.409195 0.132841 0.257035
v -0.409195 0.205784 0.147839
v -0.409195 0.345761 0.052099
v -0.409195 0.541430 -0.022428
v -0.409195 0.776942 -0.069705
v -0.136095 1.033215 -0.121149
v -0.136095 1.312079 -0.103525
v -0.136094 1.568352 -0.052081
v -0.136094 1.781272 0.029016
v -0.136094 1.933588 0.133196
v -0.136094 2.012961 0.252018
v -0.136094 2.012961 0.375857
v -0.136094 1.933588 0.494679
v -0.136094 1.781272 0.598859
v -0.136094 1.568352 0.679956
v -0.136094 1.312080 0.731400
v -0.136094 1.033215 0.749025
v -0.136095 0.754350 0.731401
v -0.136095 0.498077 0.679956
v -0.136095 0.285158 0.598859
v -0.136095 0.132841 0.494679
v -0.136095 0.053468 0.375857
v -0.136095 0.053468 0.252019
v -0.136095 0.132841 0.133196
v -0.136095 0.285158 0.029017
v -0.136095 0.498077 -0.052081
v -0.136095 0.754350 -0.103525
v 0.148535 1.033215 -0.121149
v 0.148535 1.312079 -0.103525
v 0.148535 1.568352 -0.052081
v 0.148535 1.781272 0.029016
v 0.148535 1.933588 0.133196
v 0.148535 2.012961 0.252018
v 0.148535 2.012961 0.375857
v 0.148535 1.933588 0.494679
v 0.148535 1.781272 0.598859
v 0.148535 1.568352 0.679956
v 0.148535 1.312080 0.731400
v 0.148535 1.033215 0.749025
v 0.148535 0.754350 0.731401
v 0.148535 0.498077 0.679956
v 0.148535 0.285158 0.598859
v 0.148535 0.132841 0.494679
v 0.148535 0.053468 0.375857
v 0.148535 0.053468 0.252019
v 0.148535 0.132841 0.133196
v 0.148535 0.285158 0.029017
v 0.148535 0.498077 -0.052081
v 0.148535 0.754350 -0.103525
v 0.421635 1.033215 -0.085901
v 0.421635 1.289487 -0.069705
v 0.421635 1.524999 -0.022428
v 0.421635 1.720669 0.052099
v 0.421635 1.860645 0.147839
v 0.421635 1.933588 0.257035
v 0.421635 1.933588 0.370841
v 0.421635 1.860645 0.480037
v 0.421635 1.720669 0.575776
v 0.421635 1.524999 0.650303
v 0.421635 1.289487 0.697580
v 0.421635 1.033215 0.713776
v 0.421635 0.776942 0.697580
v 0.421635 0.541430 0.650303
v 0.421635 0.345761 0.575776
v 0.421635 0.205784 0.480037
v 0.421635 0.132841 0.370841
v 0.421635 0.132841 0.257035
v 0.421635 0.205784 0.147839
v 0.421635 0.345761 0.052099
v 0.421635 0.541430 -0.022428
v 0.421635 0.776942 -0.069705
v 0.661081 1.033215 -0.018260
v 0.661081 1.246134 -0.004804
v 0.661081 1.441804 0.034475
v 0.661081 1.604372 0.096394
v 0.661081 1.720669 0.175938
v 0.661081 1.781272 0.266661
v 0.661081 1.781272 0.361214
v 0.661081 1.720669 0.451938
v 0.661081 1.604372 0.531481
v 0.661081 1.441804 0.593400
v 0.661081 1.246134 0.632679
v 0.661081 1.033215 0.646136
v 0.661081 0.820295 0.632679
v 0.661081 0.624626 0.593400
v 0.661081 0.462057 0.531481
v 0.661081 0.345761 0.451938
v 0.661081 0.285158 0.361214
v 0.661081 0.285157 0.266661
v 0.661081 0.345761 0.175938
v 0.661081 0.462057 0.096394
v 0.661081 0.624625 0.034475
v 0.661081 0.820295 -0.004804
v 0.847474 1.033215 0.076293
v 0.847474 1.185531 0.085919
v 0.847474 1.325507 0.114018
v 0.847474 1.441804 0.158314
v 0.847474 1.524999 0.215217
v 0.847474 1.568352 0.280117
v 0.847474 1.568352 0.347758
v 0.847474 1.524999 0.412659
v 0.847474 1.441804 0.469562
v 0.847474 1.325507 0.513857
v 0.847474 1.185531 0.541956
v 0.847474 1.033215 0.551582
v 0.847474 0.880898 0.541956
v 0.847474 0.740922 0.513857
v 0.847474 0.624626 0.469562
v 0.847474 0.541430 0.412659
v 0.847474 0.498077 0.347758
v 0.847474 0.498077 0.280117
v 0.847474 0.541430 0.215217
v 0.847474 0.624625 0.158314
v 0.847474 0.740922 0.114018
v 0.847474 0.880898 0.085919
v 0.965713 1.033215 0.190099
v 0.965713 1.112588 0.195115
v 0.965713 1.185531 0.209758
v 0.965713 1.246134 0.232841
v 0.965713 1.289487 0.262493
v 0.965713 1.312079 0.296314
v 0.965713 1.312079 0.331562
v 0.965713 1.289487 0.365382
v 0.965713 1.246134 0.395035
v 0.965713 1.185531 0.418117
v 0.965713 1.112588 0.432760
v 0.965713 1.033215 0.437776
v 0.965713 0.953841 0.432760
v 0.965713 0.880898 0.418117
v 0.965713 0.820295 0.395035
v 0.965713 0.776942 0.365382
v 0.965713 0.754350 0.331562
v 0.965713 0.754350 0.296314
v 0.965713 0.776942 0.262493
v 0.965713 0.820295 0.232841
v 0.965713 0.880898 0.209758
v 0.965713 0.953841 0.195115
vn -0.8541 0.0670 -0.5158
vn -0.5918 0.1044 -0.7993
vn -0.5793 -0.0000 -0.8151
vn -0.8471 -0.0000 -0.5314
vn -0.8741 0.1329 -0.4671
vn -0.6296 0.2139 -0.7469
vn -0.9038 0.1950 -0.3810
vn -0.6924 0.3308 -0.6413
vn -0.9354 0.2466 -0.2536
vn -0.7708 0.4468 -0.4541
vn -0.9567 0.2771 -0.0896
vn -0.8324 0.5280 -0.1681
vn -0.9567 0.2771 0.0896
vn -0.8324 0.5280 0.1681
vn -0.9354 0.2466 0.2536
vn -0.7708 0.4468 0.4541
vn -0.9038 0.1950 0.3810
vn -0.6924 0.3308 0.6413
vn -0.8741 0.1329 0.4671
vn -0.6296 0.2139 0.7469
vn -0.8541 0.0670 0.5158
vn -0.5918 0.1044 0.7993
vn -0.8471 -0.0000 0.5314
vn -0.5793 -0.0000 0.8151
vn -0.8541 -0.0670 0.5158
vn -0.5918 -0.1044 0.7993
vn -0.8741 -0.1329 0.4671
vn -0.6296 -0.2139 0.7469
vn -0.9038 -0.1950 0.3810
vn -0.6924 -0.3308 0.6413
vn -0.9354 -0.2466 0.2536
vn -0.7708 -0.4468 0.4541
vn -0.9567 -0.2771 0.0896
vn -0.8324 -0.5280 0.1681
vn -0.9567 -0.2771 -0.0896
vn -0.8324 -0.5280 -0.1681
vn -0.9354 -0.2466 -0.2536
vn -0.7708 -0.4468 -0.4541
vn -0.9038 -0.1950 -0.3810
vn -0.6924 -0.3308 -0.6413
vn -0.8741 -0.1329 -0.4671
vn -0.6296 -0.2139 -0.7469
vn -0.8541 -0.0670 -0.5158
vn -0.5918 -0.1044 -0.7993
vn -0.3745 0.1205 -0.9194
vn -0.3638 -0.0000 -0.9315
vn -0.4083 0.2523 -0.8773
vn -0.4701 0.4069 -0.7832
vn -0.5595 0.5849 -0.5872
vn -0.6420 0.7318 -0.2286
vn -0.6420 0.7318 0.2285
vn -0.5595 0.5849 0.5872
vn -0.4701 0.4069 0.7832
vn -0.4083 0.2523 0.8773
vn -0.3745 0.1205 0.9194
vn -0.3639 -0.0000 0.9314
vn -0.3745 -0.1205 0.9194
vn -0.4083 -0.2523 0.8773
vn -0.4701 -0.4069 0.7832
vn -0.5595 -0.5849 0.5872
vn -0.6420 -0.7318 0.2286
vn -0.6420 -0.7318 -0.2285
vn -0.5595 -0.5849 -0.5872
vn -0.4701 -0.4069 -0.7832
vn -0.4083 -0.2523 -0.8773
vn -0.3745 -0.1205 -0.9194
vn -0.2071 0.1274 -0.9700
vn -0.2005 -0.0000 -0.9797
vn -0.2285 0.2697 -0.9354
vn -0.2698 0.4454 -0.8537
vn -0.3357 0.6678 -0.6643
vn -0.4041 0.8744 -0.2685
vn -0.4041 0.8744 0.2685
vn -0.3357 0.6678 0.6643
vn -0.2698 0.4454 0.8537
vn -0.2285 0.2697 0.9354
vn -0.2071 0.1273 0.9700
vn -0.2005 -0.0000 0.9797
vn -0.2071 -0.1274 0.9700
vn -0.2285 -0.2697 0.9354
vn -0.2698 -0.4454 0.8537
vn -0.3357 -0.6678 0.6643
vn -0.4041 -0.8744 0.2685
vn -0.4041 -0.8744 -0.2685
vn -0.3357 -0.6678 -0.6643
vn -0.2698 -0.4454 -0.8537
vn -0.2285 -0.2697 -0.9354
vn -0.2071 -0.1273 -0.9700
vn -0.0663 0.1299 -0.9893
vn -0.0640 -0.0000 -0.9980
vn -0.0736 0.2766 -0.9582
vn -0.0878 0.4615 -0.8828
vn -0.1115 0.7061 -0.6992
vn -0.1378 0.9476 -0.2881
vn -0.1378 0.9476 0.2881
vn -0.1116 0.7061 0.6992
vn -0.0878 0.4615 0.8828
vn -0.0736 0.2766 0.9582
vn -0.0663 0.1299 0.9893
vn -0.0640 -0.0000 0.9980
vn -0.0663 -0.1299 0.9893
vn -0.0736 -0.2766 0.9582
vn -0.0878 -0.4615 0.8828
vn -0.1115 -0.7061 0.6992
vn -0.1378 -0.9476 0.2881
vn -0.1378 -0.9476 -0.2881
vn -0.1116 -0.7061 -0.6992
vn -0.0878 -0.4615 -0.8828
vn -0.0736 -0.2766 -0.9582
vn -0.0663 -0.1299 -0.9893
vn 0.0663 0.1299 -0.9893
vn 0.0640 -0.0000 -0.9980
vn 0.0736 0.2766 -0.9582
vn 0.0878 0.4615 -0.8828
vn 0.1115 0.7061 -0.6992
vn 0.1378 0.9476 -0.2881
vn 0.1378 0.9476 0.2881
vn 0.1116 0.7061 0.6992
vn 0.0878 0.4615 0.8828
vn 0.0736 0.2766 0.9582
vn 0.0663 0.1299 0.9893
vn 0.0640 -0.0000 0.9980
vn 0.0663 -0.1299 0.9893
vn 0.0736 -0.2766 0.9582
vn 0.0878 -0.4615 0.8828
vn 0.1115 -0.7061 0.6992
vn 0.1378 -0.9476 0.2881
vn 0.1378 -0.9476 -0.2881
vn 0.1116 -0.7061 -0.6992
vn 0.0878 -0.4615 -0.8828
vn 0.0736 -0.2766 -0.9582
vn 0.0663 -0.1299 -0.9893
vn 0.2071 0.1274 -0.9700
vn 0.2005 -0.0000 -0.9797
vn 0.2285 0.2697 -0.9354
vn 0.2698 0.4454 -0.8537
vn 0.3357 0.6678 -0.6643
vn 0.4041 0.8744 -0.2685
vn 0.4041 0.8744 0.2685
vn 0.3357 0.6678 0.6643
vn 0.2698 0.4454 0.8537
vn 0.2285 0.2697 0.9354
vn 0.2071 0.1274 0.9700
vn 0.2005 -0.0000 0.9797
vn 0.2071 -0.1274 0.9700
vn 0.2285 -0.2697 0.9354
vn 0.2698 -0.4454 0.8537
vn 0.3357 -0.6678 0.6643
vn 0.4041 -0.8744 0.2685
vn 0.4041 -0.8744 -0.2685
vn 0.3357 -0.6678 -0.6643
vn 0.2698 -0.4454 -0.8537
vn 0.2285 -0.2697 -0.9354
vn 0.2071 -0.1274 -0.9700
vn 0.3745 0.1204 -0.9194
vn 0.3639 -0.0000 -0.9314
vn 0.4083 0.2523 -0.8773
vn 0.4701 0.4069 -0.7832
vn 0.5595 0.5849 -0.5872
vn 0.6420 0.7318 -0.2286
vn 0.6420 0.7318 0.2285
vn 0.5595 0.5849 0.5872
vn 0.4701 0.4069 0.7832
vn 0.4083 0.2523 0.8773
vn 0.3745 0.1204 0.9194
vn 0.3639 -0.0000 0.9314
vn 0.3745 -0.1204 0.9194
vn 0.4083 -0.2523 0.8773
vn 0.4701 -0.4069 0.7832
vn 0.5595 -0.5849 0.5872
vn 0.6420 -0.7318 0.2286
vn 0.6420 -0.7318 -0.2285
vn 0.5595 -0.5849 -0.5872
vn 0.4701 -0.4069 -0.7832
vn 0.4083 -0.2523 -0.8773
vn 0.3745 -0.1204 -0.9194
vn 0.5917 0.1044 -0.7993
vn 0.5793 -0.0000 -0.8151
vn 0.6296 0.2139 -0.7469
vn 0.6924 0.3308 -0.6413
vn 0.7708 0.4468 -0.4541
vn 0.8324 0.5280 -0.1681
vn 0.8324 0.5280 0.1681
vn 0.7708 0.4468 0.4542
vn 0.6924 0.3308 0.6413
vn 0.6296 0.2139 0.7469
vn 0.5918 0.1044 0.7993
vn 0.5793 -0.0000 0.8151
vn 0.5917 -0.1044 0.7993
vn 0.6296 -0.2139 0.7469
vn 0.6924 -0.3308 0.6413
vn 0.7708 -0.4468 0.4541
vn 0.8324 -0.5280 0.1681
vn 0.8324 -0.5280 -0.1681
vn 0.7708 -0.4468 -0.4542
vn 0.6924 -0.3308 -0.6413
vn 0.6296 -0.2139 -0.7469
vn 0.5918 -0.1044 -0.7993
vn 0.8541 0.0670 -0.5158
vn 0.8471 -0.0000 -0.5314
vn 0.8741 0.1329 -0.4671
vn 0.9038 0.1950 -0.3810
vn 0.9354 0.2466 -0.2536
vn 0.9567 0.2771 -0.0896
vn 0.9567 0.2771 0.0896
vn 0.9354 0.2466 0.2536
vn 0.9038 0.1950 0.3810
vn 0.8741 0.1329 0.4671
vn 0.8541 0.0670 0.5158
vn 0.8471 -0.0000 0.5314
vn 0.8541 -0.0670 0.5158
vn 0.8741 -0.1329 0.4671
vn 0.9038 -0.1950 0.3810
vn 0.9354 -0.2466 0.2536
vn 0.9567 -0.2771 0.0896
vn 0.9567 -0.2771 -0.0896
vn 0.9354 -0.2466 -0.2536
vn 0.9038 -0.1950 -0.3810
vn 0.8741 -0.1329 -0.4671
vn 0.8541 -0.0670 -0.5158
vn -1.0000 -0.0000 -0.0000
vn 1.0000 -0.0000 -0.0000
vt 0.045455 0.090909
vt 0.045455 0.181818
vt 0.000000 0.181818
vt 0.000000 0.090909
vt 0.090909 0.090909
vt 0.090909 0.181818
vt 0.136364 0.090909
vt 0.136364 0.181818
vt 0.181818 0.090909
vt 0.181818 0.181818
vt 0.227273 0.090909
vt 0.227273 0.181818
vt 0.272727 0.090909
vt 0.272727 0.181818
vt 0.318182 0.090909
vt 0.318182 0.181818
vt 0.363636 0.090909
vt 0.363636 0.181818
vt 0.409091 0.090909
vt 0.409091 0.181818
vt 0.454545 0.090909
vt 0.454545 0.181818
vt 0.500000 0.090909
vt 0.500000 0.181818
vt 0.545455 0.090909
vt 0.545455 0.181818
vt 0.590909 0.090909
vt 0.590909 0.181818
vt 0.636364 0.090909
vt 0.636364 0.181818
vt 0.681818 0.090909
vt 0.681818 0.181818
vt 0.727273 0.090909
vt 0.727273 0.181818
vt 0.772727 0.090909
vt 0.772727 0.181818
vt 0.818182 0.090909
vt 0.818182 0.181818
vt 0.863636 0.090909
vt 0.863636 0.181818
vt 0.909091 0.090909
vt 0.909091 0.181818
vt 0.954545 0.090909
vt 0.954545 0.181818
vt 1.000000 0.090909
vt 1.000000 0.181818
vt 0.045455 0.272727
vt 0.000000 0.272727
vt 0.090909 0.272727
vt 0.136364 0.272727
vt 0.181818 0.272727
vt 0.227273 0.272727
vt 0.272727 0.272727
vt 0.318182 0.272727
vt 0.363636 0.272727
vt 0.409091 0.272727
vt 0.454545 0.272727
vt 0.500000 0.272727
vt 0.545455 0.272727
vt 0.590909 0.272727
vt 0.636364 0.272727
vt 0.681818 0.272727
vt 0.727273 0.272727
vt 0.772727 0.272727
vt 0.818182 0.272727
vt 0.863636 0.272727
vt 0.909091 0.272727
vt 0.954545 0.272727
vt 1.000000 0.272727
vt 0.045455 0.363636
vt 0.000000 0.363636
vt 0.090909 0.363636
vt 0.136364 0.363636
vt 0.181818 0.363636
vt 0.227273 0.363636
vt 0.272727 0.363636
vt 0.318182 0.363636
vt 0.363636 0.363636
vt 0.409091 0.363636
vt 0.454545 0.363636
vt 0.500000 0.363636
vt 0.545455 0.363636
vt 0.590909 0.363636
vt 0.636364 0.363636
vt 0.681818 0.363636
vt 0.727273 0.363636
vt 0.772727 0.363636
vt 0.818182 0.363636
vt 0.863636 0.363636
vt 0.909091 0.363636
vt 0.954545 0.363636
vt 1.000000 0.363636
vt 0.045455 0.454545
vt 0.000000 0.454545
vt 0.090909 0.454545
vt 0.136364 0.454545
vt 0.181818 0.454545
vt 0.227273 0.454545
vt 0.272727 0.454545
vt 0.318182 0.454545
vt 0.363636 0.454545
vt 0.409091 0.454545
vt 0.454545 0.454545
vt 0.500000 0.454545
vt 0.545455 0.454545
vt 0.590909 0.454545
vt 0.636364 0.454545
vt 0.681818 0.454545
vt 0.727273 0.454545
vt 0.772727 0.454545
vt 0.818182 0.454545
vt 0.863636 0.454545
vt 0.909091 0.454545
vt 0.954545 0.454545
vt 1.000000 0.454545
vt 0.045455 0.545455
vt 0.000000 0.545455
vt 0.090909 0.545455
vt 0.136364 0.545455
vt 0.181818 0.545455
vt 0.227273 0.545455
vt 0.272727 0.545455
vt 0.318182 0.545455
vt 0.363636 0.545455
vt 0.409091 0.545455
vt 0.454545 0.545455
vt 0.500000 0.545455
vt 0.545455 0.545455
vt 0.590909 0.545455
vt 0.636364 0.545455
vt 0.681818 0.545455
vt 0.727273 0.545455
vt 0.772727 0.545455
vt 0.818182 0.545455
vt 0.863636 0.545455
vt 0.909091 0.545455
vt 0.954545 0.545455
vt 1.000000 0.545455
vt 0.045455 0.636364
vt 0.000000 0.636364
vt 0.090909 0.636364
vt 0.136364 0.636364
vt 0.181818 0.636364
vt 0.227273 0.636364
vt 0.272727 0.636364
vt 0.318182 0.636364
vt 0.363636 0.636364
vt 0.409091 0.636364
vt 0.454545 0.636364
vt 0.500000 0.636364
vt 0.545455 0.636364
vt 0.590909 0.636364
vt 0.636364 0.636364
vt 0.681818 0.636364
vt 0.727273 0.636364
vt 0.772727 0.636364
vt 0.818182 0.636364
vt 0.863636 0.636364
vt 0.909091 0.636364
vt 0.954545 0.636364
vt 1.000000 0.636364
vt 0.045455 0.727273
vt 0.000000 0.727273
vt 0.090909 0.727273
vt 0.136364 0.727273
vt 0.181818 0.727273
vt 0.227273 0.727273
vt 0.272727 0.727273
vt 0.318182 0.727273
vt 0.363636 0.727273
vt 0.409091 0.727273
vt 0.454545 0.727273
vt 0.500000 0.727273
vt 0.545455 0.727273
vt 0.590909 0.727273
vt 0.636364 0.727273
vt 0.681818 0.727273
vt 0.727273 0.727273
vt 0.772727 0.727273
vt 0.818182 0.727273
vt 0.863636 0.727273
vt 0.909091 0.727273
vt 0.954545 0.727273
vt 1.000000 0.727273
vt 0.045455 0.818182
vt 0.000000 0.818182
vt 0.090909 0.818182
vt 0.136364 0.818182
vt 0.181818 0.818182
vt 0.227273 0.818182
vt 0.272727 0.818182
vt 0.318182 0.818182
vt 0.363636 0.818182
vt 0.409091 0.818182
vt 0.454545 0.818182
vt 0.500000 0.818182
vt 0.545455 0.818182
vt 0.590909 0.818182
vt 0.636364 0.818182
vt 0.681818 0.818182
vt 0.727273 0.818182
vt 0.772727 0.818182
vt 0.818182 0.818182
vt 0.863636 0.818182
vt 0.909091 0.818182
vt 0.954545 0.818182
vt 1.000000 0.818182
vt 0.045455 0.909091
vt 0.000000 0.909091
vt 0.090909 0.909091
vt 0.136364 0.909091
vt 0.181818 0.909091
vt 0.227273 0.909091
vt 0.272727 0.909091
vt 0.318182 0.909091
vt 0.363636 0.909091
vt 0.409091 0.909091
vt 0.454545 0.909091
vt 0.500000 0.909091
vt 0.545455 0.909091
vt 0.590909 0.909091
vt 0.636364 0.909091
vt 0.681818 0.909091
vt 0.727273 0.909091
vt 0.772727 0.909091
vt 0.818182 0.909091
vt 0.863636 0.909091
vt 0.909091 0.909091
vt 0.954545 0.909091
vt 1.000000 0.909091
vt 0.000000 0.000000
vt 0.000000 1.000000
vt 0.045455 0.000000
vt 0.045455 1.000000
vt 0.090909 0.000000
vt 0.090909 1.000000
vt 0.136364 0.000000
vt 0.136364 1.000000
vt 0.181818 0.000000
vt 0.181818 1.000000
vt 0.227273 0.000000
vt 0.227273 1.000000
vt 0.272727 0.000000
vt 0.272727 1.000000
vt 0.318182 0.000000
vt 0.318182 1.000000
vt 0.363636 0.000000
vt 0.363636 1.000000
vt 0.409091 0.000000
vt 0.409091 1.000000
vt 0.454545 0.000000
vt 0.454545 1.000000
vt 0.500000 0.000000
vt 0.500000 1.000000
vt 0.545455 0.000000
vt 0.545455 1.000000
vt 0.590909 0.000000
vt 0.590909 1.000000
vt 0.636364 0.000000
vt 0.636364 1.000000
vt 0.681818 0.000000
vt 0.681818 1.000000
vt 0.727273 0.000000
vt 0.727273 1.000000
vt 0.772727 0.000000
vt 0.772727 1.000000
vt 0.818182 0.000000
vt 0.818182 1.000000
vt 0.863636 0.000000
vt 0.863636 1.000000
vt 0.909091 0.000000
vt 0.909091 1.000000
vt 0.954545 0.000000
vt 0.954545 1.000000
s 1
usemtl Mat.1
f 4/1/1 26/2/2 25/3/3 3/4/4
f 5/5/5 27/6/6 26/2/2 4/1/1
f 6/7/7 28/8/8 27/6/6 5/5/5
f 7/9/9 29/10/10 28/8/8 6/7/7
f 8/11/11 30/12/12 29/10/10 7/9/9
f 9/13/13 31/14/14 30/12/12 8/11/11
f 10/15/15 32/16/16 31/14/14 9/13/13
f 11/17/17 33/18/18 32/16/16 10/15/15
f 12/19/19 34/20/20 33/18/18 11/17/17
f 13/21/21 35/22/22 34/20/20 12/19/19
f 14/23/23 36/24/24 35/22/22 13/21/21
f 15/25/25 37/26/26 36/24/24 14/23/23
f 16/27/27 38/28/28 37/26/26 15/25/25
f 17/29/29 39/30/30 38/28/28 16/27/27
f 18/31/31 40/32/32 39/30/30 17/29/29
f 19/33/33 41/34/34 40/32/32 18/31/31
f 20/35/35 42/36/36 41/34/34 19/33/33
f 21/37/37 43/38/38 42/36/36 20/35/35
f 22/39/39 44/40/40 43/38/38 21/37/37
f 23/41/41 45/42/42 44/40/40 22/39/39
f 24/43/43 46/44/44 45/42/42 23/41/41
f 3/45/4 25/46/3 46/44/44 24/43/43
f 26/2/2 48/47/45 47/48/46 25/3/3
f 27/6/6 49/49/47 48/47/45 26/2/2
f 28/8/8 50/50/48 49/49/47 27/6/6
f 29/10/10 51/51/49 50/50/48 28/8/8
f 30/12/12 52/52/50 51/51/49 29/10/10
f 31/14/14 53/53/51 52/52/50 30/12/12
f 32/16/16 54/54/52 53/53/51 31/14/14
f 33/18/18 55/55/53 54/54/52 32/16/16
f 34/20/20 56/56/54 55/55/53 33/18/18
f 35/22/22 57/57/55 56/56/54 34/20/20
f 36/24/24 58/58/56 57/57/55 35/22/22
f 37/26/26 59/59/57 58/58/56 36/24/24
f 38/28/28 60/60/58 59/59/57 37/26/26
f 39/30/30 61/61/59 60/60/58 38/28/28
f 40/32/32 62/62/60 61/61/59 39/30/30
f 41/34/34 63/63/61 62/62/60 40/32/32
f 42/36/36 64/64/62 63/63/61 41/34/34
f 43/38/38 65/65/63 64/64/62 42/36/36
f 44/40/40 66/66/64 65/65/63 43/38/38
f 45/42/42 67/67/65 66/66/64 44/40/40
f 46/44/44 68/68/66 67/67/65 45/42/42
f 25/46/3 47/69/46 68/68/66 46/44/44
f 48/47/45 70/70/67 69/71/68 47/48/46
f 49/49/47 71/72/69 70/70/67 48/47/45
f 50/50/48 72/73/70 71/72/69 49/49/47
f 51/51/49 73/74/71 72/73/70 50/50/48
f 52/52/50 74/75/72 73/74/71 51/51/49
f 53/53/51 75/76/73 74/75/72 52/52/50
f 54/54/52 76/77/74 75/76/73 53/53/51
f 55/55/53 77/78/75 76/77/74 54/54/52
f 56/56/54 78/79/76 77/78/75 55/55/53
f 57/57/55 79/80/77 78/79/76 56/56/54
f 58/58/56 80/81/78 79/80/77 57/57/55
f 59/59/57 81/82/79 80/81/78 58/58/56
f 60/60/58 82/83/80 81/82/79 59/59/57
f 61/61/59 83/84/81 82/83/80 60/60/58
f 62/62/60 84/85/82 83/84/81 61/61/59
f 63/63/61 85/86/83 84/85/82 62/62/60
f 64/64/62 86/87/84 85/86/83 63/63/61
f 65/65/63 87/88/85 86/87/84 64/64/62
f 66/66/64 88/89/86 87/88/85 65/65/63
f 67/67/65 89/90/87 88/89/86 66/66/64
f 68/68/66 90/91/88 89/90/87 67/67/65
f 47/69/46 69/92/68 90/91/88 68/68/66
f 70/70/67 92/93/89 91/94/90 69/71/68
f 71/72/69 93/95/91 92/93/89 70/70/67
f 72/73/70 94/96/92 93/95/91 71/72/69
f 73/74/71 95/97/93 94/96/92 72/73/70
f 74/75/72 96/98/94 95/97/93 73/74/71
f 75/76/73 97/99/95 96/98/94 74/75/72
f 76/77/74 98/100/96 97/99/95 75/76/73
f 77/78/75 99/101/97 98/100/96 76/77/74
f 78/79/76 100/102/98 99/101/97 77/78/75
f 79/80/77 101/103/99 100/102/98 78/79/76
f 80/81/78 102/104/100 101/103/99 79/80/77
f 81/82/79 103/105/101 102/104/100 80/81/78
f 82/83/80 104/106/102 103/105/101 81/82/79
f 83/84/81 105/107/103 104/106/102 82/83/80
f 84/85/82 106/108/104 105/107/103 83/84/81
f 85/86/83 107/109/105 106/108/104 84/85/82
f 86/87/84 108/110/106 107/109/105 85/86/83
f 87/88/85 109/111/107 108/110/106 86/87/84
f 88/89/86 110/112/108 109/111/107 87/88/85
f 89/90/87 111/113/109 110/112/108 88/89/86
f 90/91/88 112/114/110 111/113/109 89/90/87
f 69/92/68 91/115/90 112/114/110 90/91/88
f 92/93/89 114/116/111 113/117/112 91/94/90
f 93/95/91 115/118/113 114/116/111 92/93/89
f 94/96/92 116/119/114 115/118/113 93/95/91
f 95/97/93 117/120/115 116/119/114 94/96/92
f 96/98/94 118/121/116 117/120/115 95/97/93
f 97/99/95 119/122/117 118/121/116 96/98/94
f 98/100/96 120/123/118 119/122/117 97/99/95
f 99/101/97 121/124/119 120/123/118 98/100/96
f 100/102/98 122/125/120 121/124/119 99/101/97
f 101/103/99 123/126/121 122/125/120 100/102/98
f 102/104/100 124/127/122 123/126/121 101/103/99
f 103/105/101 125/128/123 124/127/122 102/104/100
f 104/106/102 126/129/124 125/128/123 103/105/101
f 105/107/103 127/130/125 126/129/124 104/106/102
f 106/108/104 128/131/126 127/130/125 105/107/103
f 107/109/105 129/132/127 128/131/126 106/108/104
f 108/110/106 130/133/128 129/132/127 107/109/105
f 109/111/107 131/134/129 130/133/128 108/110/106
f 110/112/108 132/135/130 131/134/129 109/111/107
f 111/113/109 133/136/131 132/135/130 110/112/108
f 112/114/110 134/137/132 133/136/131 111/113/109
f 91/115/90 113/138/112 134/137/132 112/114/110
f 114/116/111 136/139/133 135/140/134 113/117/112
f 115/118/113 137/141/135 136/139/133 114/116/111
f 116/119/114 138/142/136 137/141/135 115/118/113
f 117/120/115 139/143/137 138/142/136 116/119/114
f 118/121/116 140/144/138 139/143/137 117/120/115
f 119/122/117 141/145/139 140/144/138 118/121/116
f 120/123/118 142/146/140 141/145/139 119/122/117
f 121/124/119 143/147/141 142/146/140 120/123/118
f 122/125/120 144/148/142 143/147/141 121/124/119
f 123/126/121 145/149/143 144/148/142 122/125/120
f 124/127/122 146/150/144 145/149/143 123/126/121
f 125/128/123 147/151/145 146/150/144 124/127/122
f 126/129/124 148/152/146 147/151/145 125/128/123
f 127/130/125 149/153/147 148/152/146 126/129/124
f 128/131/126 150/154/148 149/153/147 127/130/125
f 129/132/127 151/155/149 150/154/148 128/131/126
f 130/133/128 152/156/150 151/155/149 129/132/127
f 131/134/129 153/157/151 152/156/150 130/133/128
f 132/135/130 154/158/152 153/157/151 131/134/129
f 133/136/131 155/159/153 154/158/152 132/135/130
f 134/137/132 156/160/154 155/159/153 133/136/131
f 113/138/112 135/161/134 156/160/154 134/137/132
f 136/139/133 158/162/155 157/163/156 135/140/134
f 137/141/135 159/164/157 158/162/155 136/139/133
f 138/142/136 160/165/158 159/164/157 137/141/135
f 139/143/137 161/166/159 160/165/158 138/142/136
f 140/144/138 162/167/160 161/166/159 139/143/137
f 141/145/139 163/168/161 162/167/160 140/144/138
f 142/146/140 164/169/162 163/168/161 141/145/139
f 143/147/141 165/170/163 164/169/162 142/146/140
f 144/148/142 166/171/164 165/170/163 143/147/141
f 145/149/143 167/172/165 166/171/164 144/148/142
f 146/150/144 168/173/166 167/172/165 145/149/143
f 147/151/145 169/174/167 168/173/166 146/150/144
f 148/152/146 170/175/168 169/174/167 147/151/145
f 149/153/147 171/176/169 170/175/168 148/152/146
f 150/154/148 172/177/170 171/176/169 149/153/147
f 151/155/149 173/178/171 172/177/170 150/154/148
f 152/156/150 174/179/172 173/178/171 151/155/149
f 153/157/151 175/180/173 174/179/172 152/156/150
f 154/158/152 176/181/174 175/180/173 153/157/151
f 155/159/153 177/182/175 176/181/174 154/158/152
f 156/160/154 178/183/176 177/182/175 155/159/153
f 135/161/134 157/184/156 178/183/176 156/160/154
f 158/162/155 180/185/177 179/186/178 157/163/156
f 159/164/157 181/187/179 180/185/177 158/162/155
f 160/165/158 182/188/180 181/187/179 159/164/157
f 161/166/159 183/189/181 182/188/180 160/165/158
f 162/167/160 184/190/182 183/189/181 161/166/159
f 163/168/161 185/191/183 184/190/182 162/167/160
f 164/169/162 186/192/184 185/191/183 163/168/161
f 165/170/163 187/193/185 186/192/184 164/169/162
f 166/171/164 188/194/186 187/193/185 165/170/163
f 167/172/165 189/195/187 188/194/186 166/171/164
f 168/173/166 190/196/188 189/195/187 167/172/165
f 169/174/167 191/197/189 190/196/188 168/173/166
f 170/175/168 192/198/190 191/197/189 169/174/167
f 171/176/169 193/199/191 192/198/190 170/175/168
f 172/177/170 194/200/192 193/199/191 171/176/169
f 173/178/171 195/201/193 194/200/192 172/177/170
f 174/179/172 196/202/194 195/201/193 173/178/171
f 175/180/173 197/203/195 196/202/194 174/179/172
f 176/181/174 198/204/196 197/203/195 175/180/173
f 177/182/175 199/205/197 198/204/196 176/181/174
f 178/183/176 200/206/198 199/205/197 177/182/175
f 157/184/156 179/207/178 200/206/198 178/183/176
f 180/185/177 202/208/199 201/209/200 179/186/178
f 181/187/179 203/210/201 202/208/199 180/185/177
f 182/188/180 204/211/202 203/210/201 181/187/179
f 183/189/181 205/212/203 204/211/202 182/188/180
f 184/190/182 206/213/204 205/212/203 183/189/181
f 185/191/183 207/214/205 206/213/204 184/190/182
f 186/192/184 208/215/206 207/214/205 185/191/183
f 187/193/185 209/216/207 208/215/206 186/192/184
f 188/194/186 210/217/208 209/216/207 187/193/185
f 189/195/187 211/218/209 210/217/208 188/194/186
f 190/196/188 212/219/210 211/218/209 189/195/187
f 191/197/189 213/220/211 212/219/210 190/196/188
f 192/198/190 214/221/212 213/220/211 191/197/189
f 193/199/191 215/222/213 214/221/212 192/198/190
f 194/200/192 216/223/214 215/222/213 193/199/191
f 195/201/193 217/224/215 216/223/214 194/200/192
f 196/202/194 218/225/216 217/224/215 195/201/193
f 197/203/195 219/226/217 218/225/216 196/202/194
f 198/204/196 220/227/218 219/226/217 197/203/195
f 199/205/197 221/228/219 220/227/218 198/204/196
f 200/206/198 222/229/220 221/228/219 199/205/197
f 179/207/178 201/230/200 222/229/220 200/206/198
f 4/1/1 3/4/4 1/231/221
f 2/232/222 201/209/200 202/208/199
f 5/5/5 4/1/1 1/233/221
f 2/234/222 202/208/199 203/210/201
f 6/7/7 5/5/5 1/235/221
f 2/236/222 203/210/201 204/211/202
f 7/9/9 6/7/7 1/237/221
f 2/238/222 204/211/202 205/212/203
f 8/11/11 7/9/9 1/239/221
f 2/240/222 205/212/203 206/213/204
f 9/13/13 8/11/11 1/241/221
f 2/242/222 206/213/204 207/214/205
f 10/15/15 9/13/13 1/243/221
f 2/244/222 207/214/205 208/215/206
f 11/17/17 10/15/15 1/245/221
f 2/246/222 208/215/206 209/216/207
f 12/19/19 11/17/17 1/247/221
f 2/248/222 209/216/207 210/217/208
f 13/21/21 12/19/19 1/249/221
f 2/250/222 210/217/208 211/218/209
f 14/23/23 13/21/21 1/251/221
f 2/252/222 211/218/209 212/219/210
f 15/25/25 14/23/23 1/253/221
f 2/254/222 212/219/210 213/220/211
f 16/27/27 15/25/25 1/255/221
f 2/256/222 213/220/211 214/221/212
f 17/29/29 16/27/27 1/257/221
f 2/258/222 214/221/212 215/222/213
f 18/31/31 17/29/29 1/259/221
f 2/260/222 215/222/213 216/223/214
f 19/33/33 18/31/31 1/261/221
f 2/262/222 216/223/214 217/224/215
f 20/35/35 19/33/33 1/263/221
f 2/264/222 217/224/215 218/225/216
f 21/37/37 20/35/35 1/265/221
f 2/266/222 218/225/216 219/226/217
f 22/39/39 21/37/37 1/267/221
f 2/268/222 219/226/217 220/227/218
f 23/41/41 22/39/39 1/269/221
f 2/270/222 220/227/218 221/228/219
f 24/43/43 23/41/41 1/271/221
f 2/272/222 221/228/219 222/229/220
f 3/45/4 24/43/43 1/273/221
f 2/274/222 222/229/220 201/230/200
o Tube_5
v 0.864486 1.033214 0.515543
v 0.978665 1.033214 0.515543
v 0.978665 1.033214 0.515543
v 0.978665 1.033215 0.760480
v 0.978665 1.033215 0.756780
v 0.864486 1.033215 0.756780
v 0.864486 1.033215 0.760480
v 0.864486 1.033214 0.515543
v 0.839546 1.238611 0.515542
v 0.950408 1.265936 0.515542
v 0.950408 1.265936 0.515542
v 0.950408 1.265936 0.999485
v 0.950408 1.265936 0.997692
v 0.839546 1.238611 0.997692
v 0.839546 1.238611 0.999485
v 0.839546 1.238611 0.515542
v 0.766177 1.432070 0.515542
v 0.867277 1.485132 0.515542
v 0.867277 1.485132 0.515542
v 0.867277 1.485132 1.198941
v 0.867277 1.485132 1.200896
v 0.766177 1.432070 1.200896
v 0.766177 1.432070 1.196230
v 0.766177 1.432070 0.515542
v 0.648641 1.602350 0.515542
v 0.734106 1.678065 0.515542
v 0.734106 1.678065 0.515542
v 0.734106 1.678065 1.401888
v 0.734106 1.678065 1.400231
v 0.648641 1.602350 1.400231
v 0.648641 1.602350 1.401888
v 0.648641 1.602350 0.515542
v 0.493771 1.739553 0.515542
v 0.558632 1.833521 0.515542
v 0.558632 1.833521 0.515542
v 0.558632 1.833521 1.634317
v 0.558632 1.833521 1.634317
v 0.493771 1.739553 1.634317
v 0.493771 1.739553 1.634317
v 0.493771 1.739553 0.515542
v 0.310565 1.835707 0.515542
v 0.351054 1.942466 0.515542
v 0.351054 1.942466 0.515542
v 0.351054 1.942466 1.755419
v 0.351054 1.942466 1.755419
v 0.310565 1.835707 1.755419
v 0.310565 1.835707 1.756346
v 0.310565 1.835707 0.515542
v 0.109673 1.885222 0.515542
v 0.123436 1.998569 0.515542
v 0.123436 1.998569 0.515542
v 0.123436 1.998569 1.825316
v 0.123436 1.998569 1.825316
v 0.109673 1.885222 1.825316
v 0.109673 1.885222 1.825573
v 0.109673 1.885222 0.515542
v -0.097232 1.885222 0.515542
v -0.110995 1.998569 0.515542
v -0.110995 1.998569 0.515542
v -0.110995 1.998569 1.825316
v -0.110995 1.998569 1.825316
v -0.097232 1.885222 1.825316
v -0.097232 1.885222 1.825363
v -0.097232 1.885222 0.515542
v -0.298125 1.835707 0.515542
v -0.338613 1.942466 0.515542
v -0.338613 1.942466 0.515542
v -0.338613 1.942466 1.755419
v -0.338613 1.942466 1.755419
v -0.298125 1.835707 1.755419
v -0.298125 1.835707 1.758496
v -0.298125 1.835707 0.515542
v -0.481330 1.739553 0.515542
v -0.546191 1.833521 0.515542
v -0.546191 1.833521 0.515542
v -0.546191 1.833521 1.634317
v -0.546191 1.833521 1.634317
v -0.481330 1.739553 1.634317
v -0.481330 1.739553 1.631727
v -0.481330 1.739553 0.515542
v -0.636201 1.602350 0.515542
v -0.721665 1.678065 0.515542
v -0.721665 1.678065 0.515542
v -0.721665 1.678065 1.400343
v -0.721665 1.678065 1.400231
v -0.636201 1.602350 1.400231
v -0.636201 1.602350 1.400343
v -0.636201 1.602350 0.515542
v -0.753736 1.432070 0.515542
v -0.854837 1.485132 0.515542
v -0.854837 1.485132 0.515542
v -0.854837 1.485132 1.200650
v -0.854837 1.485132 1.200896
v -0.753736 1.432070 1.200896
v -0.753736 1.432070 1.204526
v -0.753736 1.432070 0.515542
v -0.827106 1.238611 0.515542
v -0.937967 1.265936 0.515542
v -0.937967 1.265936 0.515542
v -0.937967 1.265936 0.998214
v -0.937967 1.265936 0.997692
v -0.827106 1.238611 0.997692
v -0.827106 1.238611 0.998214
v -0.827106 1.238611 0.515542
v -0.852045 1.033214 0.515543
v -0.966224 1.033214 0.515543
v -0.966224 1.033214 0.515543
v -0.966224 1.033215 0.755094
v -0.966224 1.033215 0.756780
v -0.852045 1.033215 0.756780
v -0.852045 1.033215 0.755094
v -0.852045 1.033214 0.515543
v 0.864486 1.033214 0.515543
v 0.978665 1.033214 0.515543
v 0.978665 1.033215 0.766656
v 0.864486 1.033215 0.766656
v 0.864486 1.033214 0.515543
v -0.852045 1.033214 0.515543
v -0.966224 1.033214 0.515543
v -0.966224 1.033215 0.758801
v -0.852045 1.033215 0.758801
v -0.852045 1.033214 0.515543
vn -0.0000 -0.0000 -1.0000
vn 0.9709 0.2393 -0.0000
vn 0.9927 0.1205 -0.0000
vn 0.1629 -0.6871 0.7081
vn 0.0864 -0.7329 0.6748
vn -0.9709 -0.2393 -0.0000
vn -0.9927 -0.1205 -0.0000
vn 0.8855 0.4647 -0.0000
vn 0.8854 0.4648 -0.0000
vn 0.3095 -0.5965 0.7406
vn 0.3094 -0.5965 0.7406
vn -0.8854 -0.4648 -0.0000
vn -0.8855 -0.4647 -0.0000
vn 0.7485 0.6631 -0.0000
vn 0.4632 -0.5216 0.7165
vn 0.4632 -0.5217 0.7164
vn -0.7485 -0.6631 -0.0000
vn 0.5681 0.8230 -0.0000
vn 0.4918 -0.3610 0.7923
vn 0.4918 -0.3611 0.7923
vn -0.5680 -0.8230 -0.0000
vn -0.5681 -0.8230 -0.0000
vn 0.3546 0.9350 -0.0000
vn 0.3618 -0.1514 0.9199
vn -0.3546 -0.9350 -0.0000
vn 0.1205 0.9927 -0.0000
vn 0.1486 -0.0377 0.9882
vn 0.1485 -0.0376 0.9882
vn -0.1205 -0.9927 -0.0000
vn -0.1205 0.9927 -0.0000
vn -0.1491 -0.0356 0.9882
vn -0.1491 -0.0357 0.9882
vn 0.1205 -0.9927 -0.0000
vn -0.3546 0.9350 -0.0000
vn -0.3636 -0.1469 0.9199
vn 0.3546 -0.9350 -0.0000
vn -0.5681 0.8230 -0.0000
vn -0.4949 -0.3566 0.7924
vn 0.5681 -0.8230 -0.0000
vn -0.7485 0.6631 -0.0000
vn -0.4672 -0.5181 0.7164
vn 0.7485 -0.6631 -0.0000
vn -0.8855 0.4647 -0.0000
vn -0.8854 0.4648 -0.0000
vn -0.3143 -0.5939 0.7406
vn -0.3144 -0.5939 0.7406
vn 0.8854 -0.4647 -0.0000
vn 0.8855 -0.4647 -0.0000
vn -0.9709 0.2393 -0.0000
vn -0.1680 -0.6858 0.7081
vn 0.9709 -0.2393 -0.0000
vn -0.9927 0.1205 -0.0000
vn -0.0915 -0.7323 0.6748
vn 0.9927 -0.1205 -0.0000
vn -0.0000 -1.0000 -0.0000
vt 0.071531 0.605608
vt 0.014529 0.619658
vt 0.000000 0.500000
vt 0.058707 0.500000
vt 0.076923 0.000000
vt 0.076923 1.000000
vt 0.000000 1.000000
vt 0.000000 0.000000
vt 0.985471 0.619658
vt 0.928469 0.605608
vt 0.941293 0.500000
vt 1.000000 0.500000
vt 0.109255 0.705079
vt 0.057272 0.732362
vt 0.153846 0.000000
vt 0.153846 1.000000
vt 0.942728 0.732362
vt 0.890745 0.705079
vt 0.169688 0.792631
vt 0.125745 0.831561
vt 0.230769 0.000000
vt 0.230769 1.000000
vt 0.874255 0.831561
vt 0.830312 0.792631
vt 0.249317 0.863177
vt 0.215968 0.911492
vt 0.307692 0.000000
vt 0.307692 1.000000
vt 0.784032 0.911492
vt 0.750683 0.863177
vt 0.343515 0.912616
vt 0.322698 0.967508
vt 0.384615 0.000000
vt 0.384615 1.000000
vt 0.677302 0.967508
vt 0.656485 0.912616
vt 0.446808 0.938075
vt 0.439732 0.996354
vt 0.461538 0.000000
vt 0.461538 1.000000
vt 0.560268 0.996354
vt 0.553192 0.938075
vt 0.538462 0.000000
vt 0.538462 1.000000
vt 0.615385 0.000000
vt 0.615385 1.000000
vt 0.692308 0.000000
vt 0.692308 1.000000
vt 0.769231 0.000000
vt 0.769231 1.000000
vt 0.846154 0.000000
vt 0.846154 1.000000
vt 0.923077 0.000000
vt 0.923077 1.000000
vt 1.000000 0.000000
vt 1.000000 1.000000
s 1
usemtl Mat
f 231/275/223 232/276/223 224/277/223 223/278/223
f 233/279/224 234/280/224 226/281/225 225/282/225
f 235/283/226 236/284/226 228/285/227 227/286/227
f 237/279/228 238/280/228 230/281/229 229/282/229
f 239/287/223 240/288/223 232/276/223 231/275/223
f 241/289/230 242/290/231 234/280/224 233/279/224
f 243/291/232 244/292/233 236/284/226 235/283/226
f 245/289/234 246/290/235 238/280/228 237/279/228
f 247/293/223 248/294/223 240/288/223 239/287/223
f 249/295/236 250/296/236 242/290/231 241/289/230
f 251/297/237 252/298/238 244/292/233 243/291/232
f 253/295/239 254/296/239 246/290/235 245/289/234
f 255/299/223 256/300/223 248/294/223 247/293/223
f 257/301/240 258/302/240 250/296/236 249/295/236
f 259/303/241 260/304/242 252/298/238 251/297/237
f 261/301/243 262/302/244 254/296/239 253/295/239
f 263/305/223 264/306/223 256/300/223 255/299/223
f 265/307/245 266/308/245 258/302/240 257/301/240
f 267/309/246 268/310/246 260/304/242 259/303/241
f 269/307/247 270/308/247 262/302/244 261/301/243
f 271/311/223 272/312/223 264/306/223 263/305/223
f 273/313/248 274/314/248 266/308/245 265/307/245
f 275/315/249 276/316/250 268/310/246 267/309/246
f 277/313/251 278/314/251 270/308/247 269/307/247
f 279/316/223 280/315/223 272/312/223 271/311/223
f 281/317/252 282/318/252 274/314/248 273/313/248
f 283/312/253 284/311/254 276/316/250 275/315/249
f 285/317/255 286/318/255 278/314/251 277/313/251
f 287/310/223 288/309/223 280/315/223 279/316/223
f 289/319/256 290/320/256 282/318/252 281/317/252
f 291/306/257 292/305/257 284/311/254 283/312/253
f 293/319/258 294/320/258 286/318/255 285/317/255
f 295/304/223 296/303/223 288/309/223 287/310/223
f 297/321/259 298/322/259 290/320/256 289/319/256
f 299/300/260 300/299/260 292/305/257 291/306/257
f 301/321/261 302/322/261 294/320/258 293/319/258
f 303/298/223 304/297/223 296/303/223 295/304/223
f 305/323/262 306/324/262 298/322/259 297/321/259
f 307/294/263 308/293/263 300/299/260 299/300/260
f 309/323/264 310/324/264 302/322/261 301/321/261
f 311/292/223 312/291/223 304/297/223 303/298/223
f 313/325/265 314/326/266 306/324/262 305/323/262
f 315/288/267 316/287/268 308/293/263 307/294/263
f 317/325/269 318/326/270 310/324/264 309/323/264
f 319/284/223 320/283/223 312/291/223 311/292/223
f 321/327/271 322/328/271 314/326/266 313/325/265
f 323/276/272 324/275/272 316/287/268 315/288/267
f 325/327/273 326/328/273 318/326/270 317/325/269
f 327/285/223 328/286/223 320/283/223 319/284/223
f 329/329/274 330/330/274 322/328/271 321/327/271
f 331/277/275 332/278/275 324/275/272 323/276/272
f 333/329/276 334/330/276 326/328/273 325/327/273
f 339/281/277 335/281/277 336/281/277
f 337/281/277 339/281/277 336/281/277
f 337/281/277 338/281/277 339/281/277
f 340/281/277 344/281/277 341/281/277
f 344/281/277 342/281/277 341/281/277
f 343/281/277 342/281/277 344/281/277
o Tube_4
v 0.876704 1.033215 0.490770
v 0.933737 1.033215 0.490770
v 0.933737 1.033215 0.490770
v 0.933737 1.033215 0.651052
v 0.933737 1.033215 0.651052
v 0.876704 1.033215 0.651052
v 0.876704 1.033215 0.651052
v 0.876704 1.033215 0.490770
v 0.844424 1.268068 0.490770
v 0.899342 1.283456 0.490770
v 0.899342 1.283456 0.490770
v 0.899342 1.283456 0.651052
v 0.899342 1.283456 0.651052
v 0.844424 1.268068 0.651052
v 0.844424 1.268068 0.651052
v 0.844424 1.268068 0.490770
v 0.749979 1.485504 0.490770
v 0.798709 1.515138 0.490770
v 0.798709 1.515138 0.490770
v 0.798709 1.515138 0.651052
v 0.798709 1.515138 0.651052
v 0.749979 1.485504 0.651052
v 0.749979 1.485504 0.651052
v 0.749979 1.485504 0.490770
v 0.600372 1.669396 0.490770
v 0.639300 1.711077 0.490770
v 0.639300 1.711077 0.490770
v 0.639300 1.711077 0.651052
v 0.639300 1.711077 0.651052
v 0.600372 1.669396 0.651052
v 0.600372 1.669396 0.651052
v 0.600372 1.669396 0.490770
v 0.406700 1.806104 0.490770
v 0.432938 1.856743 0.490770
v 0.432938 1.856743 0.490770
v 0.432938 1.856743 0.651052
v 0.432938 1.856743 0.651052
v 0.406700 1.806104 0.651052
v 0.406700 1.806104 0.651052
v 0.406700 1.806104 0.490770
v 0.183326 1.885492 0.490770
v 0.194929 1.941332 0.490770
v 0.194929 1.941332 0.490770
v 0.194929 1.941332 0.651052
v 0.194929 1.941332 0.651052
v 0.183326 1.885492 0.651052
v 0.183326 1.885492 0.651052
v 0.183326 1.885492 0.490770
v -0.053184 1.901669 0.490770
v -0.057076 1.958569 0.490770
v -0.057076 1.958569 0.490770
v -0.057076 1.958569 0.651052
v -0.057076 1.958569 0.651052
v -0.053184 1.901669 0.651052
v -0.053184 1.901669 0.651052
v -0.053184 1.901669 0.490770
v -0.285287 1.853438 0.490770
v -0.304386 1.907178 0.490770
v -0.304386 1.907178 0.490770
v -0.304386 1.907178 0.651052
v -0.304386 1.907178 0.651052
v -0.285287 1.853438 0.651052
v -0.285287 1.853438 0.651052
v -0.285287 1.853438 0.490770
v -0.495771 1.744374 0.490770
v -0.528660 1.790968 0.490770
v -0.528660 1.790968 0.490770
v -0.528660 1.790968 0.651052
v -0.528660 1.790968 0.651052
v -0.495771 1.744374 0.651052
v -0.495771 1.744374 0.651052
v -0.495771 1.744374 0.490770
v -0.669024 1.582566 0.490770
v -0.713265 1.618559 0.490770
v -0.713265 1.618559 0.490770
v -0.713265 1.618559 0.651052
v -0.713265 1.618559 0.651052
v -0.669024 1.582566 0.651052
v -0.669024 1.582566 0.651052
v -0.669024 1.582566 0.490770
v -0.792197 1.380016 0.490770
v -0.844509 1.402738 0.490770
v -0.844509 1.402738 0.490770
v -0.844509 1.402738 0.651052
v -0.844509 1.402738 0.651052
v -0.792197 1.380016 0.651052
v -0.792197 1.380016 0.651052
v -0.792197 1.380016 0.490770
v -0.856156 1.151745 0.490770
v -0.912658 1.159511 0.490770
v -0.912658 1.159511 0.490770
v -0.912658 1.159511 0.651052
v -0.912658 1.159511 0.651052
v -0.856156 1.151745 0.651052
v -0.856156 1.151745 0.651052
v -0.856156 1.151745 0.490770
v -0.856156 0.914684 0.490770
v -0.912658 0.906918 0.490770
v -0.912658 0.906918 0.490770
v -0.912658 0.906918 0.651052
v -0.912658 0.906918 0.651052
v -0.856156 0.914684 0.651052
v -0.856156 0.914684 0.651052
v -0.856156 0.914684 0.490770
v -0.792197 0.686413 0.490770
v -0.844509 0.663691 0.490770
v -0.844509 0.663691 0.490770
v -0.844509 0.663691 0.651052
v -0.844509 0.663691 0.651052
v -0.792197 0.686413 0.651052
v -0.792197 0.686413 0.651052
v -0.792197 0.686413 0.490770
v -0.669024 0.483863 0.490770
v -0.713265 0.447870 0.490770
v -0.713265 0.447870 0.490770
v -0.713265 0.447870 0.651052
v -0.713265 0.447870 0.651052
v -0.669024 0.483863 0.651052
v -0.669024 0.483863 0.651052
v -0.669024 0.483863 0.490770
v -0.495771 0.322055 0.490770
v -0.528660 0.275461 0.490770
v -0.528660 0.275461 0.490770
v -0.528660 0.275461 0.651052
v -0.528660 0.275461 0.651052
v -0.495771 0.322055 0.651052
v -0.495771 0.322055 0.651052
v -0.495771 0.322055 0.490770
v -0.285287 0.212991 0.490770
v -0.304386 0.159252 0.490770
v -0.304386 0.159252 0.490770
v -0.304386 0.159252 0.651052
v -0.304386 0.159252 0.651052
v -0.285287 0.212991 0.651052
v -0.285287 0.212991 0.651052
v -0.285287 0.212991 0.490770
v -0.053184 0.164760 0.490770
v -0.057076 0.107860 0.490770
v -0.057076 0.107860 0.490770
v -0.057076 0.107860 0.651052
v -0.057076 0.107860 0.651052
v -0.053184 0.164760 0.651052
v -0.053184 0.164760 0.651052
v -0.053184 0.164760 0.490770
v 0.183326 0.180938 0.490770
v 0.194929 0.125097 0.490770
v 0.194929 0.125097 0.490770
v 0.194929 0.125097 0.651052
v 0.194929 0.125097 0.651052
v 0.183326 0.180938 0.651052
v 0.183326 0.180938 0.651052
v 0.183326 0.180938 0.490770
v 0.406700 0.260325 0.490770
v 0.432938 0.209686 0.490770
v 0.432938 0.209686 0.490770
v 0.432938 0.209686 0.651052
v 0.432938 0.209686 0.651052
v 0.406700 0.260325 0.651052
v 0.406700 0.260325 0.651052
v 0.406700 0.260325 0.490770
v 0.600372 0.397034 0.490770
v 0.639300 0.355352 0.490770
v 0.639300 0.355352 0.490770
v 0.639300 0.355352 0.651052
v 0.639300 0.355352 0.651052
v 0.600372 0.397034 0.651052
v 0.600372 0.397034 0.651052
v 0.600372 0.397034 0.490770
v 0.749979 0.580925 0.490770
v 0.798709 0.551292 0.490770
v 0.798709 0.551292 0.490770
v 0.798709 0.551292 0.651052
v 0.798709 0.551292 0.651052
v 0.749979 0.580925 0.651052
v 0.749979 0.580925 0.651052
v 0.749979 0.580925 0.490770
v 0.844424 0.798361 0.490770
v 0.899342 0.782974 0.490770
v 0.899342 0.782974 0.490770
v 0.899342 0.782974 0.651052
v 0.899342 0.782974 0.651052
v 0.844424 0.798361 0.651052
v 0.844424 0.798361 0.651052
v 0.844424 0.798361 0.490770
vn -0.0000 -0.0000 -1.0000
vn 0.9629 0.2698 -0.0000
vn 1.0000 -0.0000 -0.0000
vn -0.0000 -0.0000 1.0000
vn -0.9629 -0.2698 -0.0000
vn -1.0000 -0.0000 -0.0000
vn 0.8544 0.5196 -0.0000
vn -0.8544 -0.5196 -0.0000
vn 0.6826 0.7308 -0.0000
vn -0.6826 -0.7308 -0.0000
vn 0.4601 0.8879 -0.0000
vn -0.4601 -0.8879 -0.0000
vn 0.2035 0.9791 -0.0000
vn -0.2035 -0.9791 -0.0000
vn -0.0682 0.9977 -0.0000
vn 0.0682 -0.9977 -0.0000
vn -0.3349 0.9423 -0.0000
vn 0.3349 -0.9423 -0.0000
vn -0.5767 0.8170 -0.0000
vn 0.5767 -0.8170 -0.0000
vn -0.7757 0.6311 -0.0000
vn 0.7757 -0.6311 -0.0000
vn -0.9172 0.3984 -0.0000
vn 0.9172 -0.3984 -0.0000
vn -0.9907 0.1362 -0.0000
vn 0.9907 -0.1362 -0.0000
vn -0.9907 -0.1362 -0.0000
vn 0.9907 0.1362 -0.0000
vn -0.9172 -0.3984 -0.0000
vn 0.9172 0.3984 -0.0000
vn -0.7757 -0.6311 -0.0000
vn 0.7757 0.6311 -0.0000
vn -0.5767 -0.8170 -0.0000
vn 0.5767 0.8170 -0.0000
vn -0.3349 -0.9423 -0.0000
vn 0.3349 0.9423 -0.0000
vn -0.0682 -0.9977 -0.0000
vn 0.0682 0.9977 -0.0000
vn 0.2035 -0.9791 -0.0000
vn -0.2035 0.9791 -0.0000
vn 0.4601 -0.8879 -0.0000
vn -0.4601 0.8879 -0.0000
vn 0.6826 -0.7308 -0.0000
vn -0.6826 0.7308 -0.0000
vn 0.8544 -0.5196 -0.0000
vn -0.8544 0.5196 -0.0000
vn 0.9629 -0.2698 -0.0000
vn -0.9629 0.2698 -0.0000
vt 0.048146 0.626603
vt 0.018541 0.634898
vt 0.000000 0.500000
vt 0.030745 0.500000
vt 0.043478 0.000000
vt 0.043478 1.000000
vt 0.000000 1.000000
vt 0.000000 0.000000
vt 0.981459 0.634898
vt 0.951854 0.626603
vt 0.969255 0.500000
vt 1.000000 0.500000
vt 0.099059 0.743817
vt 0.072790 0.759792
vt 0.086957 0.000000
vt 0.086957 1.000000
vt 0.927210 0.759792
vt 0.900941 0.743817
vt 0.179708 0.842948
vt 0.158723 0.865418
vt 0.130435 0.000000
vt 0.130435 1.000000
vt 0.841277 0.865418
vt 0.820292 0.842948
vt 0.284112 0.916645
vt 0.269967 0.943943
vt 0.173913 0.000000
vt 0.173913 1.000000
vt 0.730033 0.943943
vt 0.715888 0.916645
vt 0.404527 0.959440
vt 0.398272 0.989542
vt 0.217391 0.000000
vt 0.217391 1.000000
vt 0.601728 0.989542
vt 0.595473 0.959440
vt 0.532023 0.968161
vt 0.534121 0.998834
vt 0.260870 0.000000
vt 0.260870 1.000000
vt 0.465879 0.998834
vt 0.467977 0.968161
vt 0.657144 0.942161
vt 0.667440 0.971130
vt 0.304348 0.000000
vt 0.304348 1.000000
vt 0.332560 0.971130
vt 0.342856 0.942161
vt 0.770610 0.883367
vt 0.788340 0.908485
vt 0.347826 0.000000
vt 0.347826 1.000000
vt 0.211660 0.908485
vt 0.229390 0.883367
vt 0.864006 0.796141
vt 0.887856 0.815544
vt 0.391304 0.000000
vt 0.391304 1.000000
vt 0.112144 0.815544
vt 0.135994 0.796141
vt 0.930406 0.686952
vt 0.958606 0.699201
vt 0.434783 0.000000
vt 0.434783 1.000000
vt 0.041394 0.699201
vt 0.069594 0.686952
vt 0.964884 0.563897
vt 0.995343 0.568083
vt 0.478261 0.000000
vt 0.478261 1.000000
vt 0.004657 0.568083
vt 0.035116 0.563897
vt 0.964884 0.436103
vt 0.995343 0.431917
vt 0.521739 0.000000
vt 0.521739 1.000000
vt 0.004657 0.431917
vt 0.035116 0.436103
vt 0.930406 0.313048
vt 0.958606 0.300799
vt 0.565217 0.000000
vt 0.565217 1.000000
vt 0.041394 0.300799
vt 0.069594 0.313048
vt 0.864006 0.203859
vt 0.887856 0.184456
vt 0.608696 0.000000
vt 0.608696 1.000000
vt 0.112144 0.184456
vt 0.135994 0.203859
vt 0.770610 0.116633
vt 0.788340 0.091515
vt 0.652174 0.000000
vt 0.652174 1.000000
vt 0.211660 0.091515
vt 0.229390 0.116633
vt 0.657144 0.057839
vt 0.667440 0.028870
vt 0.695652 0.000000
vt 0.695652 1.000000
vt 0.332560 0.028870
vt 0.342856 0.057839
vt 0.532023 0.031839
vt 0.534121 0.001166
vt 0.739130 0.000000
vt 0.739130 1.000000
vt 0.465879 0.001166
vt 0.467977 0.031839
vt 0.404527 0.040560
vt 0.398272 0.010458
vt 0.782609 0.000000
vt 0.782609 1.000000
vt 0.601728 0.010458
vt 0.595473 0.040560
vt 0.284112 0.083355
vt 0.269967 0.056057
vt 0.826087 0.000000
vt 0.826087 1.000000
vt 0.730033 0.056057
vt 0.715888 0.083355
vt 0.179708 0.157052
vt 0.158723 0.134582
vt 0.869565 0.000000
vt 0.869565 1.000000
vt 0.841277 0.134582
vt 0.820292 0.157052
vt 0.099059 0.256183
vt 0.072790 0.240208
vt 0.913043 0.000000
vt 0.913043 1.000000
vt 0.927210 0.240208
vt 0.900941 0.256183
vt 0.048146 0.373397
vt 0.018541 0.365102
vt 0.956522 0.000000
vt 0.956522 1.000000
vt 0.981459 0.365102
vt 0.951854 0.373397
vt 1.000000 0.000000
vt 1.000000 1.000000
s 1
usemtl Mat
f 353/331/278 354/332/278 346/333/278 345/334/278
f 355/335/279 356/336/279 348/337/280 347/338/280
f 357/339/281 358/340/281 350/341/281 349/342/281
f 359/335/282 360/336/282 352/337/283 351/338/283
f 361/343/278 362/344/278 354/332/278 353/331/278
f 363/345/284 364/346/284 356/336/279 355/335/279
f 365/347/281 366/348/281 358/340/281 357/339/281
f 367/345/285 368/346/285 360/336/282 359/335/282
f 369/349/278 370/350/278 362/344/278 361/343/278
f 371/351/286 372/352/286 364/346/284 363/345/284
f 373/353/281 374/354/281 366/348/281 365/347/281
f 375/351/287 376/352/287 368/346/285 367/345/285
f 377/355/278 378/356/278 370/350/278 369/349/278
f 379/357/288 380/358/288 372/352/286 371/351/286
f 381/359/281 382/360/281 374/354/281 373/353/281
f 383/357/289 384/358/289 376/352/287 375/351/287
f 385/361/278 386/362/278 378/356/278 377/355/278
f 387/363/290 388/364/290 380/358/288 379/357/288
f 389/365/281 390/366/281 382/360/281 381/359/281
f 391/363/291 392/364/291 384/358/289 383/357/289
f 393/367/278 394/368/278 386/362/278 385/361/278
f 395/369/292 396/370/292 388/364/290 387/363/290
f 397/371/281 398/372/281 390/366/281 389/365/281
f 399/369/293 400/370/293 392/364/291 391/363/291
f 401/373/278 402/374/278 394/368/278 393/367/278
f 403/375/294 404/376/294 396/370/292 395/369/292
f 405/377/281 406/378/281 398/372/281 397/371/281
f 407/375/295 408/376/295 400/370/293 399/369/293
f 409/379/278 410/380/278 402/374/278 401/373/278
f 411/381/296 412/382/296 404/376/294 403/375/294
f 413/383/281 414/384/281 406/378/281 405/377/281
f 415/381/297 416/382/297 408/376/295 407/375/295
f 417/385/278 418/386/278 410/380/278 409/379/278
f 419/387/298 420/388/298 412/382/296 411/381/296
f 421/389/281 422/390/281 414/384/281 413/383/281
f 423/387/299 424/388/299 416/382/297 415/381/297
f 425/391/278 426/392/278 418/386/278 417/385/278
f 427/393/300 428/394/300 420/388/298 419/387/298
f 429/395/281 430/396/281 422/390/281 421/389/281
f 431/393/301 432/394/301 424/388/299 423/387/299
f 433/397/278 434/398/278 426/392/278 425/391/278
f 435/399/302 436/400/302 428/394/300 427/393/300
f 437/401/281 438/402/281 430/396/281 429/395/281
f 439/399/303 440/400/303 432/394/301 431/393/301
f 441/403/278 442/404/278 434/398/278 433/397/278
f 443/405/304 444/406/304 436/400/302 435/399/302
f 445/407/281 446/408/281 438/402/281 437/401/281
f 447/405/305 448/406/305 440/400/303 439/399/303
f 449/409/278 450/410/278 442/404/278 441/403/278
f 451/411/306 452/412/306 444/406/304 443/405/304
f 453/413/281 454/414/281 446/408/281 445/407/281
f 455/411/307 456/412/307 448/406/305 447/405/305
f 457/415/278 458/416/278 450/410/278 449/409/278
f 459/417/308 460/418/308 452/412/306 451/411/306
f 461/419/281 462/420/281 454/414/281 453/413/281
f 463/417/309 464/418/309 456/412/307 455/411/307
f 465/421/278 466/422/278 458/416/278 457/415/278
f 467/423/310 468/424/310 460/418/308 459/417/308
f 469/425/281 470/426/281 462/420/281 461/419/281
f 471/423/311 472/424/311 464/418/309 463/417/309
f 473/427/278 474/428/278 466/422/278 465/421/278
f 475/429/312 476/430/312 468/424/310 467/423/310
f 477/431/281 478/432/281 470/426/281 469/425/281
f 479/429/313 480/430/313 472/424/311 471/423/311
f 481/433/278 482/434/278 474/428/278 473/427/278
f 483/435/314 484/436/314 476/430/312 475/429/312
f 485/437/281 486/438/281 478/432/281 477/431/281
f 487/435/315 488/436/315 480/430/313 479/429/313
f 489/439/278 490/440/278 482/434/278 481/433/278
f 491/441/316 492/442/316 484/436/314 483/435/314
f 493/443/281 494/444/281 486/438/281 485/437/281
f 495/441/317 496/442/317 488/436/315 487/435/315
f 497/445/278 498/446/278 490/440/278 489/439/278
f 499/447/318 500/448/318 492/442/316 491/441/316
f 501/449/281 502/450/281 494/444/281 493/443/281
f 503/447/319 504/448/319 496/442/317 495/441/317
f 505/451/278 506/452/278 498/446/278 497/445/278
f 507/453/320 508/454/320 500/448/318 499/447/318
f 509/455/281 510/456/281 502/450/281 501/449/281
f 511/453/321 512/454/321 504/448/319 503/447/319
f 513/457/278 514/458/278 506/452/278 505/451/278
f 515/459/322 516/460/322 508/454/320 507/453/320
f 517/461/281 518/462/281 510/456/281 509/455/281
f 519/459/323 520/460/323 512/454/321 511/453/321
f 521/463/278 522/464/278 514/458/278 513/457/278
f 523/465/324 524/466/324 516/460/322 515/459/322
f 525/467/281 526/468/281 518/462/281 517/461/281
f 527/465/325 528/466/325 520/460/323 519/459/323
f 345/334/278 346/333/278 522/464/278 521/463/278
f 347/469/280 348/470/280 524/466/324 523/465/324
f 349/342/281 350/341/281 526/468/281 525/467/281
f 351/469/283 352/470/283 528/466/325 527/465/325
o Cube_2
v -0.963780 0.088409 0.491539
v 0.976220 0.088409 0.491539
v 0.976220 0.088409 -0.265571
v -0.963780 0.088409 -0.265571
v -0.963780 0.118410 0.521539
v 0.976220 0.118410 0.521539
v 1.006220 0.118409 0.491539
v 1.006220 0.118409 -0.265571
v 0.976220 0.118409 -0.295571
v -0.963780 0.118409 -0.295571
v -0.993780 0.118409 -0.265571
v -0.993780 0.118409 0.491539
v -0.963780 2.058409 0.521539
v 0.976220 2.058409 0.521539
v 1.006220 2.058409 0.491539
v 1.006220 2.058409 -0.265571
v 0.976220 2.058409 -0.295571
v -0.963780 2.058409 -0.295571
v -0.993780 2.058409 -0.265571
v -0.993780 2.058409 0.491539
v -0.963780 2.088409 0.491539
v 0.976220 2.088409 0.491539
v 0.976220 2.088409 -0.265571
v -0.963780 2.088409 -0.265571
vn 0.3670 -0.8548 0.3670
vn 0.3670 -0.3670 0.8548
vn -0.3670 -0.3670 0.8548
vn -0.3670 -0.8548 0.3670
vn 0.3670 0.3670 0.8548
vn -0.3670 0.3670 0.8548
vn 0.3670 0.8548 0.3670
vn -0.3670 0.8548 0.3670
vn 0.8548 -0.3670 0.3670
vn 0.8548 0.3670 0.3670
vn 0.3670 -0.8548 -0.3670
vn 0.8548 -0.3670 -0.3670
vn 0.8548 0.3670 -0.3670
vn 0.3670 0.8548 -0.3670
vn 0.3670 -0.3670 -0.8548
vn 0.3670 0.3670 -0.8548
vn -0.3670 -0.8548 -0.3670
vn -0.3670 -0.3670 -0.8548
vn -0.3670 0.3670 -0.8548
vn -0.3670 0.8548 -0.3670
vn -0.8548 -0.3670 -0.3670
vn -0.8548 0.3670 -0.3670
vn -0.8548 -0.3670 0.3670
vn -0.8548 0.3670 0.3670
vt 0.976285 0.000000
vt 0.976285 0.023165
vt 0.000000 0.023165
vt 0.000000 0.000000
vt 0.976285 0.976835
vt 0.000000 0.976835
vt 0.976285 1.000000
vt 0.000000 1.000000
vt 1.000000 0.023165
vt 0.988143 0.000000
vt 1.000000 0.976835
vt 0.988143 1.000000
vt 0.941405 0.000000
vt 0.941405 0.023165
vt 0.941405 0.976835
vt 0.941405 1.000000
vt 0.970703 0.000000
vt 0.970703 1.000000
vt 1.000000 0.000000
vt 1.000000 1.000000
s 1
usemtl Mat
f 530/471/326 534/472/327 533/473/328 529/474/329
f 534/472/327 542/475/330 541/476/331 533/473/328
f 542/475/330 550/477/332 549/478/333 541/476/331
f 535/479/334 534/472/327 530/480/326
f 535/479/334 543/481/335 542/475/330 534/472/327
f 543/481/335 550/482/332 542/475/330
f 531/483/336 536/484/337 535/473/334 530/474/326
f 536/484/337 544/485/338 543/476/335 535/473/334
f 544/485/338 551/486/339 550/478/332 543/476/335
f 537/479/340 536/484/337 531/487/336
f 537/479/340 545/481/341 544/485/338 536/484/337
f 545/481/341 551/488/339 544/485/338
f 532/471/342 538/472/343 537/473/340 531/474/336
f 538/472/343 546/475/344 545/476/341 537/473/340
f 546/475/344 552/477/345 551/478/339 545/476/341
f 539/479/346 538/472/343 532/480/342
f 539/479/346 547/481/347 546/475/344 538/472/343
f 547/481/347 552/482/345 546/475/344
f 529/483/329 540/484/348 539/473/346 532/474/342
f 540/484/348 548/485/349 547/476/347 539/473/346
f 548/485/349 549/486/333 552/478/345 547/476/347
f 533/479/328 540/484/348 529/487/329
f 533/479/328 541/481/331 548/485/349 540/484/348
f 541/481/331 549/488/333 548/485/349
f 550/489/332 551/490/339 552/478/345 549/474/333
f 532/474/342 531/489/336 530/490/326 529/478/329
