# Blender 5.0.0
# www.blender.org
mtllib TreeNew.mtl
o Icosphere
v 0.089624 1.419387 0.052847
v 0.278746 1.593093 0.288834
v -0.129467 1.569817 0.434783
v -0.389534 1.561108 0.002607
v -0.107673 1.560247 -0.401146
v 0.404483 1.578398 -0.251146
v 0.033166 1.939031 0.490625
v -0.320473 1.958222 0.230704
v -0.317562 2.007797 -0.237157
v 0.131160 1.956673 -0.391282
v 0.486291 1.938917 0.117311
v -0.017902 2.244916 0.032877
v -0.029303 1.440552 0.318587
v 0.227971 1.463591 0.185931
v 0.083064 1.553230 0.423696
v 0.422795 1.564232 0.008893
v 0.282912 1.454216 -0.134065
v -0.183069 1.437590 0.045219
v -0.294587 1.533258 0.265513
v -0.005866 1.440416 -0.224721
v -0.294587 1.526070 -0.238383
v 0.176721 1.541894 -0.384954
v 0.436967 1.752087 0.238263
v 0.511186 1.751739 -0.114769
v -0.052643 1.754517 0.481486
v 0.178903 1.753642 0.460768
v -0.417380 1.751821 0.134013
v -0.265179 1.751630 0.366643
v -0.257955 1.761710 -0.375202
v -0.417380 1.762010 -0.146280
v 0.312797 1.748315 -0.408077
v 0.015369 1.750670 -0.465339
v 0.238675 1.973376 0.404858
v -0.156394 1.974965 0.383742
v -0.373315 2.033628 -0.001292
v -0.115362 2.033628 -0.363302
v 0.355021 1.976499 -0.200513
v 0.009291 2.119055 0.322044
v 0.245700 2.125018 0.102618
v -0.196426 2.174273 0.142608
v -0.186657 2.224844 -0.135882
v 0.069234 2.176800 -0.213543
vn 0.1655 -0.9745 0.1517
vn 0.6857 -0.5983 0.4145
vn -0.0679 -0.9965 0.0490
vn -0.0650 -0.9965 -0.0531
vn 0.0796 -0.9915 -0.1025
vn 0.7062 -0.5685 0.4220
vn 0.0303 -0.2569 0.9660
vn -0.8983 -0.3306 0.2894
vn -0.5819 -0.3388 -0.7393
vn 0.5088 -0.4196 -0.7517
vn 0.6035 -0.3771 0.7026
vn -0.4750 -0.0249 0.8796
vn -0.9900 -0.1410 -0.0051
vn -0.3153 -0.1139 -0.9421
vn 0.8267 -0.0696 -0.5583
vn 0.1801 0.6850 0.7059
vn -0.5902 0.5714 0.5703
vn -0.7746 0.5823 -0.2469
vn 0.1150 0.6434 -0.7568
vn 0.6100 0.7760 -0.1602
vn 0.4328 0.8965 -0.0948
vn 0.5695 0.8005 -0.1868
vn 0.4702 0.6307 -0.6173
vn 0.1125 0.9672 -0.2276
vn -0.0563 0.7554 -0.6528
vn -0.4798 0.5917 -0.6479
vn -0.2751 0.9476 0.1624
vn -0.6717 0.7327 0.1095
vn -0.7414 0.5701 0.3541
vn -0.1100 0.9075 0.4053
vn -0.3638 0.6874 0.6286
vn -0.2847 0.6349 0.7183
vn 0.3075 0.8827 0.3553
vn 0.3719 0.8262 0.4232
vn 0.5499 0.7413 0.3847
vn 0.8343 0.4694 -0.2891
vn 0.7777 0.3382 -0.5300
vn 0.5289 0.5154 -0.6742
vn -0.0010 0.3388 -0.9409
vn -0.2998 0.1980 -0.9332
vn -0.5312 0.3130 -0.7873
vn -0.9258 0.2836 -0.2499
vn -0.9876 0.1572 0.0057
vn -0.9098 0.2865 0.3003
vn -0.6708 0.2740 0.6892
vn -0.4707 0.1629 0.8671
vn -0.4593 0.1704 0.8718
vn 0.3621 0.1361 0.9221
vn 0.6530 0.0151 0.7572
vn 0.7537 0.2053 0.6244
vn 0.1854 0.2385 -0.9533
vn 0.1824 -0.2274 -0.9566
vn 0.0318 -0.3377 -0.9407
vn -0.8145 0.1210 -0.5674
vn -0.8042 -0.2000 -0.5598
vn -0.8891 -0.3456 -0.3000
vn -0.8291 0.1351 0.5426
vn -0.8287 -0.1394 0.5421
vn -0.6697 -0.2359 0.7042
vn 0.0884 -0.0903 0.9920
vn 0.0861 -0.2209 0.9715
vn 0.5733 -0.4058 0.7118
vn 0.9710 -0.1241 0.2043
vn 0.9305 -0.3094 0.1959
vn 0.8776 -0.4714 -0.0875
vn 0.3914 -0.8045 -0.4468
vn 0.1648 -0.9073 -0.3868
vn -0.0223 -0.8330 -0.5529
vn -0.2343 -0.8617 -0.4501
vn -0.2712 -0.9440 -0.1879
vn -0.5011 -0.8624 -0.0720
vn -0.5260 -0.8445 0.1005
vn -0.3600 -0.9085 0.2123
vn -0.3724 -0.7632 0.5281
vn 0.6694 -0.7377 -0.0873
vn 0.5375 -0.8351 0.1168
vn 0.2420 -0.9678 0.0699
vn -0.0141 -0.6745 0.7382
vn 0.3307 -0.7987 0.5027
vn 0.5175 -0.6475 0.5595
vt 0.818181 0.000000
vt 0.772726 0.078731
vt 0.863635 0.078731
vt 0.727272 0.157461
vt 0.681818 0.078731
vt 0.636363 0.157461
vt 0.090909 0.000000
vt 0.045454 0.078731
vt 0.136363 0.078731
vt 0.272727 0.000000
vt 0.227273 0.078731
vt 0.318182 0.078731
vt 0.454545 0.000000
vt 0.409090 0.078731
vt 0.500000 0.078731
vt 0.681818 0.236191
vt 0.909090 0.157461
vt 0.818181 0.157461
vt 0.863635 0.236191
vt 0.181818 0.157461
vt 0.090909 0.157461
vt 0.136363 0.236191
vt 0.363636 0.157461
vt 0.272727 0.157461
vt 0.318182 0.236191
vt 0.545454 0.157461
vt 0.454545 0.157461
vt 0.500000 0.236191
vt 0.772726 0.236191
vt 0.954545 0.236191
vt 0.227273 0.236191
vt 0.409090 0.236191
vt 0.590909 0.236191
vt 0.818181 0.314921
vt 0.727272 0.314921
vt 0.772726 0.393651
vt 1.000000 0.314921
vt 0.909091 0.314921
vt 0.954545 0.393651
vt 0.272727 0.314921
vt 0.181818 0.314921
vt 0.227273 0.393651
vt 0.454545 0.314921
vt 0.363636 0.314921
vt 0.409090 0.393651
vt 0.636363 0.314921
vt 0.545454 0.314921
vt 0.590909 0.393651
vt 0.500000 0.393651
vt 0.545454 0.472382
vt 0.318182 0.393651
vt 0.363636 0.472382
vt 0.136363 0.393651
vt 0.181818 0.472382
vt 0.090909 0.314921
vt 0.863635 0.393651
vt 0.909090 0.472382
vt 0.681818 0.393651
vt 0.727272 0.472382
vt 0.045454 0.236191
vt 0.000000 0.157461
vt 0.590909 0.078731
vt 0.636363 0.000000
s 0
usemtl Material.001
f 1/1/1 14/2/1 13/3/1
f 2/4/2 14/5/2 16/6/2
f 1/7/3 13/8/3 18/9/3
f 1/10/4 18/11/4 20/12/4
f 1/13/5 20/14/5 17/15/5
f 2/4/6 16/6/6 23/16/6
f 3/17/7 15/18/7 25/19/7
f 4/20/8 19/21/8 27/22/8
f 5/23/9 21/24/9 29/25/9
f 6/26/10 22/27/10 31/28/10
f 2/4/11 23/16/11 26/29/11
f 3/17/12 25/19/12 28/30/12
f 4/20/13 27/22/13 30/31/13
f 5/23/14 29/25/14 32/32/14
f 6/26/15 31/28/15 24/33/15
f 7/34/16 33/35/16 38/36/16
f 8/37/17 34/38/17 40/39/17
f 9/40/18 35/41/18 41/42/18
f 10/43/19 36/44/19 42/45/19
f 11/46/20 37/47/20 39/48/20
f 39/48/21 42/49/21 12/50/21
f 39/48/22 37/47/22 42/49/22
f 37/47/23 10/43/23 42/49/23
f 42/45/24 41/51/24 12/52/24
f 42/45/25 36/44/25 41/51/25
f 36/44/26 9/40/26 41/51/26
f 41/42/27 40/53/27 12/54/27
f 41/42/28 35/41/28 40/53/28
f 35/41/29 8/55/29 40/53/29
f 40/39/30 38/56/30 12/57/30
f 40/39/31 34/38/31 38/56/31
f 34/38/32 7/34/32 38/56/32
f 38/36/33 39/58/33 12/59/33
f 38/36/34 33/35/34 39/58/34
f 33/35/35 11/46/35 39/58/35
f 24/33/36 37/47/36 11/46/36
f 24/33/37 31/28/37 37/47/37
f 31/28/38 10/43/38 37/47/38
f 32/32/39 36/44/39 10/43/39
f 32/32/40 29/25/40 36/44/40
f 29/25/41 9/40/41 36/44/41
f 30/31/42 35/41/42 9/40/42
f 30/31/43 27/22/43 35/41/43
f 27/22/44 8/55/44 35/41/44
f 28/30/45 34/38/45 8/37/45
f 28/30/46 25/19/46 34/38/46
f 25/19/47 7/34/47 34/38/47
f 26/29/48 33/35/48 7/34/48
f 26/29/49 23/16/49 33/35/49
f 23/16/50 11/46/50 33/35/50
f 31/28/51 32/32/51 10/43/51
f 31/28/52 22/27/52 32/32/52
f 22/27/53 5/23/53 32/32/53
f 29/25/54 30/31/54 9/40/54
f 29/25/55 21/24/55 30/31/55
f 21/24/56 4/20/56 30/31/56
f 27/22/57 28/60/57 8/55/57
f 27/22/58 19/21/58 28/60/58
f 19/21/59 3/61/59 28/60/59
f 25/19/60 26/29/60 7/34/60
f 25/19/61 15/18/61 26/29/61
f 15/18/62 2/4/62 26/29/62
f 23/16/63 24/33/63 11/46/63
f 23/16/64 16/6/64 24/33/64
f 16/6/65 6/26/65 24/33/65
f 17/15/66 22/27/66 6/26/66
f 17/15/67 20/14/67 22/27/67
f 20/14/68 5/23/68 22/27/68
f 20/12/69 21/24/69 5/23/69
f 20/12/70 18/11/70 21/24/70
f 18/11/71 4/20/71 21/24/71
f 18/9/72 19/21/72 4/20/72
f 18/9/73 13/8/73 19/21/73
f 13/8/74 3/61/74 19/21/74
f 16/6/75 17/62/75 6/26/75
f 16/6/76 14/5/76 17/62/76
f 14/5/77 1/63/77 17/62/77
f 13/3/78 15/18/78 3/17/78
f 13/3/79 14/2/79 15/18/79
f 14/2/80 2/4/80 15/18/80
o Cylinder
v -0.046546 0.670028 0.000826
v -0.031917 1.455779 -0.151275
v -0.028994 0.670028 -0.009472
v -0.014964 1.455779 -0.161086
v -0.009300 0.670028 -0.016173
v 0.004227 1.455779 -0.166750
v 0.011534 0.670028 -0.018984
v 0.024252 1.455779 -0.168260
v 0.033104 0.670028 -0.017239
v 0.044533 1.455779 -0.165713
v 0.054323 0.670028 -0.011340
v 0.064387 1.455779 -0.159278
v 0.074076 0.670028 -0.001841
v 0.082877 1.455779 -0.149081
v 0.091574 0.670028 0.010899
v 0.099417 1.455779 -0.135609
v 0.106066 0.670028 0.026439
v 0.113452 1.455779 -0.119446
v 0.116819 0.670028 0.044369
v 0.124273 1.455779 -0.101098
v 0.123424 0.670028 0.064384
v 0.131732 1.455779 -0.081461
v 0.125655 0.670028 0.085630
v 0.135394 1.455779 -0.061187
v 0.123520 0.670028 0.107186
v 0.135165 1.455779 -0.041082
v 0.117471 0.670028 0.127894
v 0.131077 1.455779 -0.021931
v 0.107993 0.670028 0.146785
v 0.123334 1.455779 -0.004499
v 0.095575 0.670028 0.163177
v 0.112096 1.455779 0.010669
v 0.080658 0.670028 0.176328
v 0.097762 1.455779 0.023553
v 0.063703 0.670028 0.185814
v 0.080297 1.455779 0.033819
v 0.045392 0.670028 0.191261
v 0.059732 1.455779 0.041269
v 0.026490 0.670028 0.192603
v 0.038242 1.455779 0.044586
v 0.007625 0.670028 0.189677
v 0.016741 1.455779 0.043579
v -0.010553 0.670028 0.182665
v -0.003766 1.455779 0.038164
v -0.029017 0.670028 0.173074
v -0.022436 1.455779 0.028516
v -0.046190 0.670028 0.160596
v -0.038746 1.455779 0.015144
v -0.060752 0.670028 0.145341
v -0.052273 1.455779 -0.001289
v -0.072250 0.670028 0.127778
v -0.062632 1.455779 -0.020055
v -0.080155 0.670028 0.108512
v -0.069443 1.455779 -0.040414
v -0.084265 0.670028 0.088356
v -0.072482 1.455779 -0.061551
v -0.084415 0.670028 0.068089
v -0.071613 1.455779 -0.082662
v -0.080479 0.670028 0.048481
v -0.066911 1.455779 -0.102906
v -0.072674 0.670028 0.030281
v -0.058508 1.455779 -0.121538
v -0.061296 0.670028 0.014201
v -0.046641 1.455779 -0.137906
v -0.019933 1.236798 -0.114496
v -0.002035 1.236798 -0.124055
v 0.017366 1.236798 -0.129618
v 0.037899 1.236798 -0.131076
v 0.058567 1.236798 -0.128391
v 0.078624 1.236798 -0.121701
v 0.097482 1.236798 -0.111400
v 0.114107 1.236798 -0.097652
v 0.128411 1.236798 -0.081356
v 0.139217 1.236798 -0.062763
v 0.146681 1.236798 -0.043000
v 0.150072 1.236798 -0.022504
v 0.149599 1.236798 -0.002302
v 0.145187 1.236798 0.016972
v 0.137006 1.236798 0.034625
v 0.125599 1.236798 0.049795
v 0.111269 1.236798 0.062157
v 0.094488 1.236798 0.071216
v 0.074799 1.236798 0.077910
v 0.051502 1.236798 0.082980
v 0.027844 1.236798 0.084034
v 0.007065 1.236798 0.079175
v -0.011236 1.236798 0.069427
v -0.027396 1.236798 0.055931
v -0.040990 1.236798 0.039345
v -0.051533 1.236798 0.020334
v -0.058413 1.236798 -0.000442
v -0.061522 1.236798 -0.022093
v -0.060690 1.236798 -0.043829
v -0.055773 1.236798 -0.064939
v -0.047313 1.236798 -0.084344
v -0.035273 1.236798 -0.101412
v 0.008128 0.948221 -0.005875
v 0.029105 0.948221 -0.012185
v 0.050914 0.948221 -0.014490
v 0.072665 0.948221 -0.012668
v 0.093523 0.948221 -0.006791
v 0.112697 0.948221 0.002902
v 0.129439 0.948221 0.016038
v 0.143134 0.948221 0.032080
v 0.153377 0.948221 0.050448
v 0.159770 0.948221 0.070573
v 0.162192 0.948221 0.091594
v 0.160478 0.948221 0.112753
v 0.154741 0.948221 0.133205
v 0.145229 0.948221 0.152143
v 0.132246 0.948221 0.168884
v 0.116631 0.948221 0.182541
v 0.099028 0.948221 0.192560
v 0.080235 0.948221 0.198467
v 0.060828 0.948221 0.200141
v 0.041595 0.948221 0.197487
v 0.023238 0.948221 0.190633
v 0.006415 0.948221 0.179876
v -0.008162 0.948221 0.165584
v -0.023134 0.948221 0.150587
v -0.035322 0.948221 0.133471
v -0.043881 0.948221 0.114500
v -0.048489 0.948221 0.094423
v -0.048940 0.948221 0.074007
v -0.045212 0.948221 0.054046
v -0.037433 0.948221 0.035311
v -0.025845 0.948221 0.018487
v -0.010830 0.948221 0.004159
vn -0.4642 -0.1714 -0.8690
vn -0.2713 -0.1767 -0.9461
vn -0.0698 -0.1712 -0.9828
vn 0.1272 -0.1587 -0.9791
vn 0.3133 -0.1408 -0.9392
vn 0.4760 -0.1182 -0.8715
vn 0.6347 -0.0905 -0.7675
vn 0.7500 -0.0633 -0.6584
vn 0.8642 -0.0290 -0.5023
vn 0.9355 0.0018 -0.3533
vn 0.9859 0.0373 -0.1631
vn 0.9973 0.0699 0.0233
vn 0.9697 0.1019 0.2220
vn 0.8995 0.1306 0.4169
vn 0.7896 0.1548 0.5938
vn 0.6436 0.1712 0.7460
vn 0.4674 0.1782 0.8659
vn 0.3167 0.1796 0.9314
vn 0.2093 0.1754 0.9620
vn 0.0438 0.1751 0.9836
vn -0.2246 0.1660 0.9602
vn -0.4654 0.1406 0.8738
vn -0.6371 0.1099 0.7629
vn -0.7711 0.0777 0.6320
vn -0.8736 0.0449 0.4845
vn -0.9493 0.0099 0.3144
vn -0.9896 -0.0239 0.1421
vn -0.9977 -0.0568 -0.0382
vn -0.9701 -0.0885 -0.2260
vn -0.9106 -0.1151 -0.3970
vn -0.0000 1.0000 -0.0000
vn -0.8093 -0.1383 -0.5709
vn -0.6407 -0.1585 -0.7512
vn -0.0000 -1.0000 -0.0000
vn -0.6569 -0.3075 -0.6884
vn -0.7964 -0.2547 -0.5485
vn -0.9070 -0.1885 -0.3766
vn -0.9766 -0.1143 -0.1824
vn -0.9991 -0.0362 0.0221
vn -0.9739 0.0400 0.2235
vn -0.9061 0.1094 0.4088
vn -0.8026 0.1707 0.5715
vn -0.6910 0.2161 0.6898
vn -0.6822 0.2246 0.6958
vn -0.5167 0.2831 0.8080
vn -0.3300 0.3317 0.8838
vn -0.1270 0.3696 0.9205
vn 0.0796 0.3772 0.9227
vn 0.2780 0.3747 0.8845
vn 0.4634 0.3497 0.8142
vn 0.6259 0.3101 0.7156
vn 0.7627 0.2617 0.5915
vn 0.8749 0.2039 0.4394
vn 0.9534 0.1393 0.2675
vn 0.9943 0.0696 0.0805
vn 0.9934 -0.0035 -0.1145
vn 0.9503 -0.0757 -0.3019
vn 0.8639 -0.1466 -0.4818
vn 0.7433 -0.2115 -0.6346
vn 0.5949 -0.2671 -0.7582
vn 0.4285 -0.3131 -0.8476
vn 0.2544 -0.3464 -0.9029
vn 0.0776 -0.3678 -0.9267
vn -0.0974 -0.3766 -0.9213
vn -0.2672 -0.3732 -0.8884
vn -0.4376 -0.3537 -0.8267
vn -0.5046 0.0751 -0.8601
vn -0.3216 0.0551 -0.9453
vn -0.1336 0.0326 -0.9905
vn 0.0806 0.0047 -0.9967
vn 0.2678 -0.0223 -0.9632
vn 0.4329 -0.0463 -0.9002
vn 0.5873 -0.0678 -0.8066
vn 0.7286 -0.0866 -0.6795
vn 0.8530 -0.1033 -0.5116
vn 0.9431 -0.1171 -0.3112
vn 0.9865 -0.1266 -0.1036
vn 0.9865 -0.1317 0.0977
vn 0.9514 -0.1328 0.2779
vn 0.8865 -0.1272 0.4448
vn 0.7916 -0.1167 0.5997
vn 0.6579 -0.1017 0.7462
vn 0.4866 -0.0829 0.8697
vn 0.2846 -0.0604 0.9567
vn 0.0708 -0.0357 0.9969
vn -0.1533 -0.0090 0.9881
vn -0.3598 0.0170 0.9329
vn -0.4606 0.0370 0.8868
vn -0.5865 0.0657 0.8073
vn -0.7208 0.0845 0.6880
vn -0.8325 0.0994 0.5451
vn -0.9194 0.1118 0.3772
vn -0.9727 0.1208 0.1984
vn -0.9920 0.1263 0.0073
vn -0.9724 0.1281 -0.1952
vn -0.9120 0.1234 -0.3911
vn -0.8111 0.1131 -0.5739
vn -0.6686 0.0966 -0.7373
vn -0.4933 -0.1733 -0.8524
vn -0.2786 -0.1761 -0.9441
vn -0.0741 -0.1710 -0.9825
vn 0.1230 -0.1587 -0.9796
vn 0.3052 -0.1410 -0.9418
vn 0.4796 -0.1180 -0.8695
vn 0.6289 -0.0909 -0.7721
vn 0.7536 -0.0629 -0.6544
vn 0.8610 -0.0295 -0.5078
vn 0.9348 0.0016 -0.3551
vn 0.9834 0.0359 -0.1776
vn 0.9976 0.0689 0.0114
vn 0.9730 0.1009 0.2077
vn 0.9062 0.1299 0.4025
vn 0.7938 0.1546 0.5882
vn 0.6586 0.1715 0.7327
vn 0.4984 0.1802 0.8480
vn 0.3352 0.1779 0.9252
vn 0.1501 0.1795 0.9722
vn -0.0460 0.1792 0.9827
vn -0.2518 0.1661 0.9534
vn -0.4545 0.1411 0.8795
vn -0.6301 0.1105 0.7686
vn -0.7698 0.0779 0.6336
vn -0.8746 0.0447 0.4828
vn -0.9483 0.0101 0.3173
vn -0.9895 -0.0239 0.1423
vn -0.9975 -0.0570 -0.0411
vn -0.9703 -0.0884 -0.2254
vn -0.9055 -0.1157 -0.4083
vn -0.8018 -0.1385 -0.5813
vn -0.6636 -0.1591 -0.7309
vn -0.6156 -0.3162 -0.7218
vn -0.7897 -0.2572 -0.5570
vn -0.8994 -0.1934 -0.3921
vn -0.9659 -0.1281 -0.2250
vn -0.9977 -0.0562 -0.0382
vn -0.9898 0.0127 0.1421
vn -0.9465 0.0772 0.3134
vn -0.8660 0.1396 0.4802
vn -0.7589 0.1928 0.6220
vn -0.6220 0.2416 0.7448
vn -0.4492 0.2953 0.8433
vn -0.2140 0.3415 0.9152
vn 0.0414 0.3673 0.9292
vn 0.1966 0.3811 0.9034
vn 0.2985 0.3739 0.8781
vn 0.4446 0.3519 0.8237
vn 0.6208 0.3112 0.7196
vn 0.7721 0.2584 0.5806
vn 0.8898 0.1955 0.4124
vn 0.9672 0.1247 0.2214
vn 0.9984 0.0512 0.0233
vn 0.9864 -0.0195 -0.1632
vn 0.9315 -0.0923 -0.3518
vn 0.8546 -0.1516 -0.4967
vn 0.7340 -0.2148 -0.6443
vn 0.6150 -0.2621 -0.7437
vn 0.4559 -0.3088 -0.8347
vn 0.2972 -0.3428 -0.8911
vn 0.1199 -0.3672 -0.9224
vn -0.0656 -0.3784 -0.9233
vn -0.2557 -0.3733 -0.8918
vn -0.4407 -0.3534 -0.8251
vn -0.4665 0.0737 -0.8814
vn -0.2876 0.0534 -0.9562
vn -0.1051 0.0309 -0.9940
vn 0.0835 0.0045 -0.9965
vn 0.2711 -0.0225 -0.9623
vn 0.4506 -0.0474 -0.8915
vn 0.6158 -0.0693 -0.7848
vn 0.7576 -0.0878 -0.6468
vn 0.8687 -0.1036 -0.4844
vn 0.9465 -0.1170 -0.3007
vn 0.9854 -0.1270 -0.1135
vn 0.9879 -0.1328 0.0800
vn 0.9544 -0.1321 0.2677
vn 0.8864 -0.1272 0.4452
vn 0.7848 -0.1168 0.6087
vn 0.6549 -0.1017 0.7488
vn 0.4929 -0.0831 0.8661
vn 0.2993 -0.0611 0.9522
vn 0.0859 -0.0365 0.9956
vn -0.1367 -0.0100 0.9906
vn -0.3497 0.0164 0.9367
vn -0.5383 0.0413 0.8418
vn -0.6983 0.0715 0.7122
vn -0.7052 0.0838 0.7040
vn -0.8106 0.0987 0.5772
vn -0.9058 0.1119 0.4086
vn -0.9674 0.1214 0.2221
vn -0.9917 0.1271 0.0219
vn -0.9750 0.1272 -0.1821
vn -0.9165 0.1230 -0.3805
vn -0.8183 0.1130 -0.5636
vn -0.6871 0.0968 -0.7201
vt 1.000000 1.000000
vt 0.968750 0.860655
vt 1.000000 0.860655
vt 0.937500 1.000000
vt 0.937500 0.860655
vt 0.906250 1.000000
vt 0.906250 0.860655
vt 0.875000 1.000000
vt 0.875000 0.860655
vt 0.843750 1.000000
vt 0.843750 0.860655
vt 0.812500 1.000000
vt 0.812500 0.860655
vt 0.781250 1.000000
vt 0.781250 0.860655
vt 0.750000 1.000000
vt 0.750000 0.860655
vt 0.718750 1.000000
vt 0.718750 0.860655
vt 0.687500 1.000000
vt 0.687500 0.860655
vt 0.656250 1.000000
vt 0.656250 0.860655
vt 0.625000 1.000000
vt 0.625000 0.860655
vt 0.593750 1.000000
vt 0.593750 0.860655
vt 0.562500 1.000000
vt 0.562500 0.860655
vt 0.531250 1.000000
vt 0.531250 0.860655
vt 0.500000 1.000000
vt 0.500000 0.860655
vt 0.468750 1.000000
vt 0.468750 0.860655
vt 0.437500 0.860655
vt 0.437500 1.000000
vt 0.406250 0.860655
vt 0.406250 1.000000
vt 0.375000 0.860655
vt 0.375000 1.000000
vt 0.343750 0.860655
vt 0.343750 1.000000
vt 0.312500 0.860655
vt 0.312500 1.000000
vt 0.281250 0.860655
vt 0.281250 1.000000
vt 0.250000 0.860655
vt 0.250000 1.000000
vt 0.218750 0.860655
vt 0.218750 1.000000
vt 0.187500 0.860655
vt 0.187500 1.000000
vt 0.156250 0.860655
vt 0.156250 1.000000
vt 0.125000 0.860655
vt 0.125000 1.000000
vt 0.093750 0.860655
vt 0.093750 1.000000
vt 0.062500 0.860655
vt 0.116663 0.050447
vt 0.485388 0.203178
vt 0.014611 0.203179
vt 0.062500 1.000000
vt 0.031250 0.860655
vt 0.031250 1.000000
vt 0.000000 0.860655
vt 0.528269 0.158156
vt 0.985388 0.296822
vt 0.919706 0.080294
vt 0.000000 0.677023
vt 0.031250 0.677023
vt 0.062500 0.677023
vt 0.093750 0.677023
vt 0.125000 0.677023
vt 0.156250 0.677023
vt 0.187500 0.677023
vt 0.218750 0.677023
vt 0.250000 0.677023
vt 0.281250 0.677023
vt 0.312500 0.677023
vt 0.343750 0.677023
vt 0.375000 0.677023
vt 0.406250 0.677023
vt 0.437500 0.677023
vt 0.468750 0.677023
vt 0.500000 0.677023
vt 0.531250 0.677023
vt 0.562500 0.677023
vt 0.593750 0.677023
vt 0.625000 0.677023
vt 0.656250 0.677023
vt 0.687500 0.677023
vt 0.718750 0.677023
vt 0.750000 0.677023
vt 0.781250 0.677023
vt 0.812500 0.677023
vt 0.843750 0.677023
vt 0.875000 0.677023
vt 0.906250 0.677023
vt 0.937500 0.677023
vt 0.968750 0.677023
vt 1.000000 0.677023
vt 0.968750 0.500000
vt 1.000000 0.500000
vt 0.937500 0.500000
vt 0.906250 0.500000
vt 0.875000 0.500000
vt 0.843750 0.500000
vt 0.812500 0.500000
vt 0.781250 0.500000
vt 0.750000 0.500000
vt 0.718750 0.500000
vt 0.687500 0.500000
vt 0.656250 0.500000
vt 0.625000 0.500000
vt 0.593750 0.500000
vt 0.562500 0.500000
vt 0.531250 0.500000
vt 0.500000 0.500000
vt 0.468750 0.500000
vt 0.437500 0.500000
vt 0.406250 0.500000
vt 0.375000 0.500000
vt 0.343750 0.500000
vt 0.312500 0.500000
vt 0.281250 0.500000
vt 0.250000 0.500000
vt 0.218750 0.500000
vt 0.187500 0.500000
vt 0.156250 0.500000
vt 0.125000 0.500000
vt 0.093750 0.500000
vt 0.062500 0.500000
vt 0.031250 0.500000
vt 0.000000 0.500000
vt 0.968750 1.000000
vt 0.341844 0.471731
vt 0.296822 0.485388
vt 0.250000 0.490000
vt 0.203179 0.485389
vt 0.158156 0.471731
vt 0.383337 0.449553
vt 0.116663 0.449553
vt 0.419706 0.419706
vt 0.080295 0.419706
vt 0.050447 0.383337
vt 0.471731 0.341844
vt 0.028269 0.341844
vt 0.449553 0.383337
vt 0.014612 0.296822
vt 0.485388 0.296822
vt 0.010000 0.250000
vt 0.490000 0.250000
vt 0.028269 0.158156
vt 0.080294 0.080294
vt 0.158156 0.028269
vt 0.050447 0.116663
vt 0.203178 0.014612
vt 0.471731 0.158156
vt 0.250000 0.010000
vt 0.419706 0.080294
vt 0.449553 0.116663
vt 0.296822 0.014612
vt 0.341844 0.028269
vt 0.383337 0.050447
vt 0.000000 1.000000
vt 0.703179 0.485389
vt 0.750000 0.490000
vt 0.658156 0.471731
vt 0.796822 0.485388
vt 0.580295 0.419706
vt 0.616663 0.449553
vt 0.841844 0.471731
vt 0.550447 0.383337
vt 0.883337 0.449553
vt 0.528269 0.341844
vt 0.919706 0.419706
vt 0.949553 0.383337
vt 0.514612 0.296822
vt 0.510000 0.250000
vt 0.514611 0.203179
vt 0.971731 0.341844
vt 0.990000 0.250000
vt 0.949553 0.116663
vt 0.985388 0.203178
vt 0.971731 0.158156
vt 0.883337 0.050447
vt 0.841844 0.028269
vt 0.550447 0.116663
vt 0.796822 0.014612
vt 0.750000 0.010000
vt 0.703178 0.014612
vt 0.580294 0.080294
vt 0.658156 0.028269
vt 0.616663 0.050447
s 0
usemtl Material.002
f 44/64/81 108/65/81 107/66/81
f 108/65/82 48/67/82 109/68/82
f 109/68/83 50/69/83 110/70/83
f 110/70/84 52/71/84 111/72/84
f 111/72/85 54/73/85 112/74/85
f 112/74/86 56/75/86 113/76/86
f 113/76/87 58/77/87 114/78/87
f 114/78/88 60/79/88 115/80/88
f 115/80/89 62/81/89 116/82/89
f 116/82/90 64/83/90 117/84/90
f 117/84/91 66/85/91 118/86/91
f 118/86/92 68/87/92 119/88/92
f 119/88/93 70/89/93 120/90/93
f 120/90/94 72/91/94 121/92/94
f 121/92/95 74/93/95 122/94/95
f 122/94/96 76/95/96 123/96/96
f 123/96/97 78/97/97 124/98/97
f 78/97/98 125/99/98 124/98/98
f 80/100/99 126/101/99 125/99/99
f 82/102/100 127/103/100 126/101/100
f 84/104/101 128/105/101 127/103/101
f 86/106/102 129/107/102 128/105/102
f 88/108/103 130/109/103 129/107/103
f 90/110/104 131/111/104 130/109/104
f 92/112/105 132/113/105 131/111/105
f 94/114/106 133/115/106 132/113/106
f 96/116/107 134/117/107 133/115/107
f 98/118/108 135/119/108 134/117/108
f 100/120/109 136/121/109 135/119/109
f 102/122/110 137/123/110 136/121/110
f 82/124/111 62/125/111 90/126/111
f 104/127/112 138/128/112 137/123/112
f 106/129/113 107/130/113 138/128/113
f 87/131/114 57/132/114 67/133/114
f 138/128/115 170/134/115 169/135/115
f 137/123/116 169/135/116 168/136/116
f 136/121/117 168/136/117 167/137/117
f 135/119/118 167/137/118 166/138/118
f 134/117/119 166/138/119 165/139/119
f 133/115/120 165/139/120 164/140/120
f 132/113/121 164/140/121 163/141/121
f 131/111/122 163/141/122 162/142/122
f 130/109/123 162/142/123 161/143/123
f 129/107/124 161/143/124 160/144/124
f 128/105/125 160/144/125 159/145/125
f 127/103/126 159/145/126 158/146/126
f 126/101/127 158/146/127 157/147/127
f 156/148/128 126/101/128 157/147/128
f 155/149/129 125/99/129 156/148/129
f 154/150/130 124/98/130 155/149/130
f 153/151/131 123/96/131 154/150/131
f 152/152/132 122/94/132 153/151/132
f 151/153/133 121/92/133 152/152/133
f 150/154/134 120/90/134 151/153/134
f 149/155/135 119/88/135 150/154/135
f 148/156/136 118/86/136 149/155/136
f 147/157/137 117/84/137 148/156/137
f 146/158/138 116/82/138 147/157/138
f 145/159/139 115/80/139 146/158/139
f 144/160/140 114/78/140 145/159/140
f 143/161/141 113/76/141 144/160/141
f 142/162/142 112/74/142 143/161/142
f 141/163/143 111/72/143 142/162/143
f 140/164/144 110/70/144 141/163/144
f 108/65/145 140/164/145 139/165/145
f 107/66/146 139/165/146 170/166/146
f 170/166/147 45/167/147 43/168/147
f 139/165/148 47/169/148 45/167/148
f 140/164/149 49/170/149 47/169/149
f 141/163/150 51/171/150 49/170/150
f 142/162/151 53/172/151 51/171/151
f 143/161/152 55/173/152 53/172/152
f 144/160/153 57/174/153 55/173/153
f 145/159/154 59/175/154 57/174/154
f 146/158/155 61/176/155 59/175/155
f 147/157/156 63/177/156 61/176/156
f 148/156/157 65/178/157 63/177/157
f 149/155/158 67/179/158 65/178/158
f 67/179/159 151/153/159 69/180/159
f 69/180/160 152/152/160 71/181/160
f 71/181/161 153/151/161 73/182/161
f 73/182/162 154/150/162 75/183/162
f 75/183/163 155/149/163 77/184/163
f 77/184/164 156/148/164 79/185/164
f 79/185/165 157/147/165 81/186/165
f 81/186/166 158/146/166 83/187/166
f 83/187/167 159/145/167 85/188/167
f 85/188/168 160/144/168 87/189/168
f 87/189/169 161/143/169 89/190/169
f 89/190/170 162/142/170 91/191/170
f 91/191/171 163/141/171 93/192/171
f 93/192/172 164/140/172 95/193/172
f 95/193/173 165/139/173 97/194/173
f 97/194/174 166/138/174 99/195/174
f 166/138/175 101/196/175 99/195/175
f 167/137/176 103/197/176 101/196/176
f 168/136/177 105/198/177 103/197/177
f 169/135/178 43/199/178 105/198/178
f 44/64/179 46/200/179 108/65/179
f 108/65/180 46/200/180 48/67/180
f 109/68/181 48/67/181 50/69/181
f 110/70/182 50/69/182 52/71/182
f 111/72/183 52/71/183 54/73/183
f 112/74/184 54/73/184 56/75/184
f 113/76/185 56/75/185 58/77/185
f 114/78/186 58/77/186 60/79/186
f 115/80/187 60/79/187 62/81/187
f 116/82/188 62/81/188 64/83/188
f 117/84/189 64/83/189 66/85/189
f 118/86/190 66/85/190 68/87/190
f 119/88/191 68/87/191 70/89/191
f 120/90/192 70/89/192 72/91/192
f 121/92/193 72/91/193 74/93/193
f 122/94/194 74/93/194 76/95/194
f 123/96/195 76/95/195 78/97/195
f 78/97/196 80/100/196 125/99/196
f 80/100/197 82/102/197 126/101/197
f 82/102/198 84/104/198 127/103/198
f 84/104/199 86/106/199 128/105/199
f 86/106/200 88/108/200 129/107/200
f 88/108/201 90/110/201 130/109/201
f 90/110/202 92/112/202 131/111/202
f 92/112/203 94/114/203 132/113/203
f 94/114/204 96/116/204 133/115/204
f 96/116/205 98/118/205 134/117/205
f 98/118/206 100/120/206 135/119/206
f 100/120/207 102/122/207 136/121/207
f 102/122/208 104/127/208 137/123/208
f 48/201/111 46/202/111 44/203/111
f 44/203/111 106/204/111 48/201/111
f 106/204/111 104/205/111 50/206/111
f 48/201/111 106/204/111 50/206/111
f 104/205/111 102/207/111 52/208/111
f 102/207/111 100/209/111 52/208/111
f 100/209/111 98/210/111 56/211/111
f 98/210/111 96/212/111 56/211/111
f 100/209/111 54/213/111 52/208/111
f 96/212/111 94/214/111 58/215/111
f 94/214/111 92/216/111 60/217/111
f 62/125/111 92/216/111 90/126/111
f 90/126/111 88/218/111 84/219/111
f 62/125/111 82/124/111 80/220/111
f 88/218/111 86/221/111 84/219/111
f 84/219/111 82/124/111 90/126/111
f 80/220/111 78/222/111 64/223/111
f 78/222/111 76/224/111 68/225/111
f 64/223/111 78/222/111 66/226/111
f 76/224/111 74/227/111 68/225/111
f 74/227/111 72/228/111 70/229/111
f 68/225/111 74/227/111 70/229/111
f 68/225/111 66/226/111 78/222/111
f 64/223/111 62/125/111 80/220/111
f 62/125/111 60/217/111 92/216/111
f 94/214/111 60/217/111 58/215/111
f 58/215/111 56/211/111 96/212/111
f 56/211/111 54/213/111 100/209/111
f 52/208/111 50/206/111 104/205/111
f 104/127/209 106/129/209 138/128/209
f 106/129/210 44/230/210 107/130/210
f 105/231/114 43/232/114 103/233/114
f 43/232/114 45/234/114 99/235/114
f 101/236/114 43/232/114 99/235/114
f 45/234/114 47/237/114 97/238/114
f 47/237/114 49/239/114 95/240/114
f 97/238/114 47/237/114 95/240/114
f 49/239/114 51/241/114 95/240/114
f 51/241/114 53/242/114 93/243/114
f 91/244/114 53/242/114 89/245/114
f 53/242/114 55/246/114 89/245/114
f 55/246/114 57/132/114 87/131/114
f 89/245/114 55/246/114 87/131/114
f 57/132/114 59/247/114 65/248/114
f 59/247/114 61/249/114 63/250/114
f 65/248/114 59/247/114 63/250/114
f 65/248/114 67/133/114 57/132/114
f 67/133/114 69/251/114 87/131/114
f 69/251/114 71/252/114 85/253/114
f 71/252/114 73/254/114 85/253/114
f 73/254/114 75/255/114 85/253/114
f 75/255/114 77/256/114 83/257/114
f 85/253/114 75/255/114 83/257/114
f 77/256/114 79/258/114 83/257/114
f 79/258/114 81/259/114 83/257/114
f 85/253/114 87/131/114 69/251/114
f 91/244/114 93/243/114 53/242/114
f 51/241/114 93/243/114 95/240/114
f 97/238/114 99/235/114 45/234/114
f 101/236/114 103/233/114 43/232/114
f 138/128/211 107/130/211 170/134/211
f 137/123/212 138/128/212 169/135/212
f 136/121/213 137/123/213 168/136/213
f 135/119/214 136/121/214 167/137/214
f 134/117/215 135/119/215 166/138/215
f 133/115/216 134/117/216 165/139/216
f 132/113/217 133/115/217 164/140/217
f 131/111/218 132/113/218 163/141/218
f 130/109/219 131/111/219 162/142/219
f 129/107/220 130/109/220 161/143/220
f 128/105/221 129/107/221 160/144/221
f 127/103/222 128/105/222 159/145/222
f 126/101/223 127/103/223 158/146/223
f 156/148/224 125/99/224 126/101/224
f 155/149/225 124/98/225 125/99/225
f 154/150/226 123/96/226 124/98/226
f 153/151/227 122/94/227 123/96/227
f 152/152/228 121/92/228 122/94/228
f 151/153/229 120/90/229 121/92/229
f 150/154/230 119/88/230 120/90/230
f 149/155/231 118/86/231 119/88/231
f 148/156/232 117/84/232 118/86/232
f 147/157/233 116/82/233 117/84/233
f 146/158/234 115/80/234 116/82/234
f 145/159/235 114/78/235 115/80/235
f 144/160/236 113/76/236 114/78/236
f 143/161/237 112/74/237 113/76/237
f 142/162/238 111/72/238 112/74/238
f 141/163/239 110/70/239 111/72/239
f 140/164/240 109/68/240 110/70/240
f 108/65/241 109/68/241 140/164/241
f 107/66/242 108/65/242 139/165/242
f 170/166/243 139/165/243 45/167/243
f 139/165/244 140/164/244 47/169/244
f 140/164/245 141/163/245 49/170/245
f 141/163/246 142/162/246 51/171/246
f 142/162/247 143/161/247 53/172/247
f 143/161/248 144/160/248 55/173/248
f 144/160/249 145/159/249 57/174/249
f 145/159/250 146/158/250 59/175/250
f 146/158/251 147/157/251 61/176/251
f 147/157/252 148/156/252 63/177/252
f 148/156/253 149/155/253 65/178/253
f 149/155/254 150/154/254 67/179/254
f 67/179/255 150/154/255 151/153/255
f 69/180/256 151/153/256 152/152/256
f 71/181/257 152/152/257 153/151/257
f 73/182/258 153/151/258 154/150/258
f 75/183/259 154/150/259 155/149/259
f 77/184/260 155/149/260 156/148/260
f 79/185/261 156/148/261 157/147/261
f 81/186/262 157/147/262 158/146/262
f 83/187/263 158/146/263 159/145/263
f 85/188/264 159/145/264 160/144/264
f 87/189/265 160/144/265 161/143/265
f 89/190/266 161/143/266 162/142/266
f 91/191/267 162/142/267 163/141/267
f 93/192/268 163/141/268 164/140/268
f 95/193/269 164/140/269 165/139/269
f 97/194/270 165/139/270 166/138/270
f 166/138/271 167/137/271 101/196/271
f 167/137/272 168/136/272 103/197/272
f 168/136/273 169/135/273 105/198/273
f 169/135/274 170/134/274 43/199/274
o Plane
v -0.896980 0.686177 1.076494
v 1.103020 0.686177 1.076494
v -0.896980 0.686177 -0.923506
v 1.103020 0.686177 -0.923506
vn -0.0000 1.0000 -0.0000
vt 1.000000 0.000000
vt 0.000000 1.000000
vt 0.000000 0.000000
vt 1.000000 1.000000
s 0
usemtl Material.003
f 172/260/275 173/261/275 171/262/275
f 172/260/275 174/263/275 173/261/275
o Icosphere.001
v 0.603634 0.627547 0.708284
v 0.715132 0.655893 0.626208
v 0.720991 0.660058 0.818528
v 0.552813 0.660291 0.852173
v 0.463263 0.656802 0.682050
v 0.583868 0.654324 0.538854
v 0.738882 0.756652 0.730287
v 0.651168 0.757198 0.865199
v 0.482216 0.755839 0.784206
v 0.515113 0.746240 0.594575
v 0.665527 0.753268 0.552925
v 0.607796 0.802788 0.708707
v 0.666304 0.633120 0.773440
v 0.665823 0.630593 0.660930
v 0.730888 0.652195 0.729227
v 0.658068 0.648198 0.559127
v 0.589850 0.629500 0.610554
v 0.576253 0.633887 0.792171
v 0.647976 0.653983 0.857437
v 0.526509 0.631424 0.693338
v 0.485372 0.652780 0.778362
v 0.512392 0.648415 0.595594
v 0.705694 0.701126 0.566914
v 0.630044 0.700072 0.516419
v 0.754416 0.705675 0.786421
v 0.746948 0.703891 0.674829
v 0.601959 0.706138 0.886136
v 0.704425 0.705965 0.864950
v 0.444748 0.703085 0.738755
v 0.496327 0.705589 0.838318
v 0.539127 0.698308 0.541034
v 0.465861 0.699002 0.625404
v 0.711766 0.764029 0.630891
v 0.714630 0.765302 0.813058
v 0.558012 0.766522 0.845633
v 0.478442 0.758494 0.687011
v 0.590551 0.758486 0.551139
v 0.682336 0.795670 0.720856
v 0.639615 0.793792 0.619574
v 0.630688 0.796050 0.800637
v 0.541190 0.794444 0.753121
v 0.554785 0.788377 0.642879
vn 0.0657 -0.9976 0.0221
vn 0.3421 -0.9212 -0.1854
vn 0.0077 -0.9969 0.0779
vn -0.0609 -0.9966 0.0555
vn -0.0477 -0.9988 -0.0132
vn 0.6744 -0.5314 -0.5127
vn 0.8429 -0.5197 0.1392
vn -0.0820 -0.5350 0.8408
vn -0.8273 -0.5362 0.1675
vn -0.5165 -0.4906 -0.7018
vn 0.9051 -0.2561 -0.3394
vn 0.8200 -0.2328 0.5229
vn -0.4005 -0.2281 0.8874
vn -0.9692 -0.1742 -0.1742
vn -0.2518 -0.2093 -0.9449
vn 0.5762 0.8116 -0.0969
vn 0.2509 0.8625 0.4394
vn -0.3889 0.8600 0.3303
vn -0.4945 0.8142 -0.3041
vn 0.0720 0.8644 -0.4976
vn -0.1001 0.9857 -0.1352
vn -0.1578 0.9191 -0.3610
vn -0.3740 0.8289 -0.4159
vn -0.1733 0.9820 -0.0754
vn -0.4126 0.9053 -0.1007
vn -0.5309 0.8463 0.0437
vn -0.0651 0.9939 0.0891
vn -0.1837 0.9313 0.3145
vn -0.0240 0.8532 0.5211
vn 0.0866 0.9949 0.0513
vn 0.3114 0.9296 0.1971
vn 0.5575 0.8266 0.0770
vn 0.1050 0.9925 -0.0627
vn 0.3994 0.8979 -0.1851
vn 0.4035 0.8430 -0.3557
vn 0.0575 0.5385 -0.8406
vn -0.2500 0.3642 -0.8971
vn -0.4858 0.5316 -0.6938
vn -0.7532 0.5433 -0.3708
vn -0.9065 0.3807 -0.1826
vn -0.8332 0.5509 0.0474
vn -0.5826 0.5142 0.6294
vn -0.3952 0.2957 0.8697
vn -0.1334 0.4833 0.8652
vn 0.5022 0.5187 0.6919
vn 0.8031 0.3080 0.5101
vn 0.8539 0.4804 0.2000
vn 0.9035 0.3684 -0.2191
vn 0.8973 0.2693 -0.3499
vn 0.7449 0.4390 -0.5024
vn -0.7098 0.3360 -0.6191
vn -0.7224 -0.2962 -0.6249
vn -0.7801 -0.4840 -0.3964
vn -0.8658 0.2336 0.4426
vn -0.8356 -0.3275 0.4411
vn -0.5873 -0.5511 0.5927
vn 0.1986 0.2018 0.9591
vn 0.1899 -0.3394 0.9213
vn 0.4245 -0.5635 0.7087
vn 0.9729 0.2209 -0.0686
vn 0.9349 -0.3504 -0.0570
vn 0.8876 -0.4350 -0.1514
vn 0.5422 0.1986 -0.8164
vn 0.5222 -0.3559 -0.7750
vn 0.1728 -0.5687 -0.8042
vn -0.1686 -0.9357 -0.3099
vn -0.2097 -0.9680 -0.1380
vn -0.3531 -0.9291 -0.1105
vn -0.3794 -0.9240 0.0485
vn -0.2213 -0.9657 0.1355
vn -0.2386 -0.9198 0.3116
vn -0.0819 -0.9236 0.3744
vn 0.0437 -0.9673 0.2498
vn 0.2274 -0.9323 0.2812
vn 0.0116 -0.9446 -0.3280
vn 0.1325 -0.9749 -0.1787
vn 0.0305 -0.9992 -0.0243
vn 0.3565 -0.9264 0.1211
vn 0.2959 -0.9550 0.0202
vn 0.4012 -0.9111 -0.0941
vt 0.818181 0.000000
vt 0.772726 0.078731
vt 0.863635 0.078731
vt 0.727272 0.157461
vt 0.681818 0.078731
vt 0.636363 0.157461
vt 0.090909 0.000000
vt 0.045454 0.078731
vt 0.136363 0.078731
vt 0.272727 0.000000
vt 0.227273 0.078731
vt 0.318182 0.078731
vt 0.454545 0.000000
vt 0.409090 0.078731
vt 0.500000 0.078731
vt 0.681818 0.236191
vt 0.909090 0.157461
vt 0.818181 0.157461
vt 0.863635 0.236191
vt 0.181818 0.157461
vt 0.090909 0.157461
vt 0.136363 0.236191
vt 0.363636 0.157461
vt 0.272727 0.157461
vt 0.318182 0.236191
vt 0.545454 0.157461
vt 0.454545 0.157461
vt 0.500000 0.236191
vt 0.772726 0.236191
vt 0.954545 0.236191
vt 0.227273 0.236191
vt 0.409090 0.236191
vt 0.590909 0.236191
vt 0.818181 0.314921
vt 0.727272 0.314921
vt 0.772726 0.393651
vt 1.000000 0.314921
vt 0.909091 0.314921
vt 0.954545 0.393651
vt 0.272727 0.314921
vt 0.181818 0.314921
vt 0.227273 0.393651
vt 0.454545 0.314921
vt 0.363636 0.314921
vt 0.409090 0.393651
vt 0.636363 0.314921
vt 0.545454 0.314921
vt 0.590909 0.393651
vt 0.500000 0.393651
vt 0.545454 0.472382
vt 0.318182 0.393651
vt 0.363636 0.472382
vt 0.136363 0.393651
vt 0.181818 0.472382
vt 0.090909 0.314921
vt 0.863635 0.393651
vt 0.909090 0.472382
vt 0.681818 0.393651
vt 0.727272 0.472382
vt 0.045454 0.236191
vt 0.000000 0.157461
vt 0.590909 0.078731
vt 0.636363 0.000000
s 0
usemtl Material.004
f 175/264/276 188/265/276 187/266/276
f 176/267/277 188/268/277 190/269/277
f 175/270/278 187/271/278 192/272/278
f 175/273/279 192/274/279 194/275/279
f 175/276/280 194/277/280 191/278/280
f 176/267/281 190/269/281 197/279/281
f 177/280/282 189/281/282 199/282/282
f 178/283/283 193/284/283 201/285/283
f 179/286/284 195/287/284 203/288/284
f 180/289/285 196/290/285 205/291/285
f 176/267/286 197/279/286 200/292/286
f 177/280/287 199/282/287 202/293/287
f 178/283/288 201/285/288 204/294/288
f 179/286/289 203/288/289 206/295/289
f 180/289/290 205/291/290 198/296/290
f 181/297/291 207/298/291 212/299/291
f 182/300/292 208/301/292 214/302/292
f 183/303/293 209/304/293 215/305/293
f 184/306/294 210/307/294 216/308/294
f 185/309/295 211/310/295 213/311/295
f 213/311/296 216/312/296 186/313/296
f 213/311/297 211/310/297 216/312/297
f 211/310/298 184/306/298 216/312/298
f 216/308/299 215/314/299 186/315/299
f 216/308/300 210/307/300 215/314/300
f 210/307/301 183/303/301 215/314/301
f 215/305/302 214/316/302 186/317/302
f 215/305/303 209/304/303 214/316/303
f 209/304/304 182/318/304 214/316/304
f 214/302/305 212/319/305 186/320/305
f 214/302/306 208/301/306 212/319/306
f 208/301/307 181/297/307 212/319/307
f 212/299/308 213/321/308 186/322/308
f 212/299/309 207/298/309 213/321/309
f 207/298/310 185/309/310 213/321/310
f 198/296/311 211/310/311 185/309/311
f 198/296/312 205/291/312 211/310/312
f 205/291/313 184/306/313 211/310/313
f 206/295/314 210/307/314 184/306/314
f 206/295/315 203/288/315 210/307/315
f 203/288/316 183/303/316 210/307/316
f 204/294/317 209/304/317 183/303/317
f 204/294/318 201/285/318 209/304/318
f 201/285/319 182/318/319 209/304/319
f 202/293/320 208/301/320 182/300/320
f 202/293/321 199/282/321 208/301/321
f 199/282/322 181/297/322 208/301/322
f 200/292/323 207/298/323 181/297/323
f 200/292/324 197/279/324 207/298/324
f 197/279/325 185/309/325 207/298/325
f 205/291/326 206/295/326 184/306/326
f 205/291/327 196/290/327 206/295/327
f 196/290/328 179/286/328 206/295/328
f 203/288/329 204/294/329 183/303/329
f 203/288/330 195/287/330 204/294/330
f 195/287/331 178/283/331 204/294/331
f 201/285/332 202/323/332 182/318/332
f 201/285/333 193/284/333 202/323/333
f 193/284/334 177/324/334 202/323/334
f 199/282/335 200/292/335 181/297/335
f 199/282/336 189/281/336 200/292/336
f 189/281/337 176/267/337 200/292/337
f 197/279/338 198/296/338 185/309/338
f 197/279/339 190/269/339 198/296/339
f 190/269/340 180/289/340 198/296/340
f 191/278/341 196/290/341 180/289/341
f 191/278/342 194/277/342 196/290/342
f 194/277/343 179/286/343 196/290/343
f 194/275/344 195/287/344 179/286/344
f 194/275/345 192/274/345 195/287/345
f 192/274/346 178/283/346 195/287/346
f 192/272/347 193/284/347 178/283/347
f 192/272/348 187/271/348 193/284/348
f 187/271/349 177/324/349 193/284/349
f 190/269/350 191/325/350 180/289/350
f 190/269/351 188/268/351 191/325/351
f 188/268/352 175/326/352 191/325/352
f 187/266/353 189/281/353 177/280/353
f 187/266/354 188/265/354 189/281/354
f 188/265/355 176/267/355 189/281/355
o Icosphere.002
v 0.598030 0.627547 -0.226241
v 0.725756 0.664412 -0.170497
v 0.543354 0.660058 -0.074791
v 0.445785 0.660291 -0.215844
v 0.566457 0.656802 -0.365508
v 0.746960 0.662029 -0.315579
v 0.631457 0.759834 -0.093508
v 0.472825 0.757198 -0.120386
v 0.480190 0.755839 -0.307603
v 0.671033 0.750186 -0.354162
v 0.779320 0.776757 -0.260899
v 0.607645 0.818826 -0.239477
v 0.563063 0.633120 -0.142873
v 0.670258 0.633592 -0.191877
v 0.629473 0.652161 -0.101113
v 0.763984 0.660289 -0.251210
v 0.683937 0.633976 -0.279439
v 0.510163 0.633887 -0.218116
v 0.478685 0.653983 -0.126394
v 0.581171 0.631424 -0.302970
v 0.486805 0.652780 -0.307023
v 0.665306 0.648415 -0.354686
v 0.780149 0.724205 -0.214566
v 0.789674 0.715432 -0.290741
v 0.586083 0.705675 -0.056836
v 0.690520 0.706500 -0.112799
v 0.434092 0.706138 -0.157259
v 0.494170 0.705965 -0.071593
v 0.507058 0.703085 -0.360022
v 0.436107 0.705589 -0.273194
v 0.725697 0.702634 -0.351848
v 0.619490 0.699002 -0.385583
v 0.725331 0.787283 -0.186484
v 0.545854 0.765302 -0.082800
v 0.453850 0.766522 -0.213664
v 0.567958 0.758507 -0.349607
v 0.747351 0.773214 -0.316589
v 0.620772 0.811507 -0.160479
v 0.714458 0.819933 -0.267716
v 0.523974 0.796050 -0.164786
v 0.532278 0.795387 -0.265898
v 0.650592 0.801468 -0.315302
vn 0.0431 -0.9955 0.0846
vn 0.4011 -0.8853 0.2352
vn -0.0684 -0.9969 0.0380
vn -0.0750 -0.9966 -0.0339
vn 0.0382 -0.9975 -0.0588
vn 0.8050 -0.4349 0.4035
vn 0.2059 -0.5193 0.8294
vn -0.8044 -0.5350 0.2581
vn -0.4818 -0.5362 -0.6931
vn 0.4452 -0.4555 -0.7709
vn 0.7504 -0.2243 0.6218
vn -0.1549 -0.2328 0.9601
vn -0.9735 -0.2281 -0.0158
vn -0.2243 -0.1742 -0.9588
vn 0.6951 -0.2410 -0.6773
vn 0.3157 0.7749 0.5475
vn -0.3039 0.8625 0.4046
vn -0.4664 0.8547 -0.2280
vn 0.0139 0.6074 -0.7943
vn 0.5429 0.7588 -0.3599
vn -0.0801 0.9608 -0.2653
vn 0.2183 0.7746 -0.5936
vn 0.1764 0.6382 -0.7494
vn -0.1794 0.9320 -0.3150
vn -0.2421 0.8456 -0.4758
vn -0.2547 0.8402 -0.4787
vn -0.2873 0.9574 -0.0299
vn -0.3663 0.9298 -0.0362
vn -0.4879 0.8532 0.1845
vn -0.1617 0.9798 0.1176
vn -0.1622 0.9089 0.3842
vn 0.1250 0.7951 0.5935
vn 0.0135 0.9958 0.0900
vn 0.2892 0.9010 0.3234
vn 0.5162 0.8164 0.2590
vn 0.7960 0.3682 -0.4804
vn 0.6648 0.1605 -0.7296
vn 0.3315 0.3383 -0.8807
vn 0.0042 0.5201 -0.8541
vn -0.1918 0.3808 -0.9046
vn -0.3738 0.5510 -0.7461
vn -0.8088 0.5142 -0.2853
vn -0.9551 0.2957 -0.0180
vn -0.8472 0.4833 0.2206
vn -0.4360 0.5187 0.7354
vn -0.1499 0.3080 0.9395
vn 0.1390 0.4727 0.8702
vn 0.5864 0.3933 0.7082
vn 0.6879 0.3045 0.6588
vn 0.7552 0.4401 0.4857
vn 0.2820 0.2795 -0.9178
vn 0.2990 -0.2854 -0.9106
vn 0.0546 -0.4840 -0.8734
vn -0.7496 0.2336 -0.6193
vn -0.7363 -0.3275 -0.5922
vn -0.7770 -0.5511 -0.3042
vn -0.8017 0.2018 0.5626
vn -0.7705 -0.3394 0.5396
vn -0.4823 -0.5635 0.6708
vn 0.4617 0.1986 0.8645
vn 0.4487 -0.3250 0.8325
vn 0.5535 -0.4747 0.6843
vn 0.9874 0.1130 0.1105
vn 0.9333 -0.3244 0.1541
vn 0.8093 -0.5410 -0.2287
vn 0.2729 -0.9301 -0.2460
vn 0.0712 -0.9762 -0.2049
vn -0.0385 -0.9291 -0.3679
vn -0.1950 -0.9240 -0.3291
vn -0.2121 -0.9657 -0.1495
vn -0.3806 -0.9198 -0.0955
vn -0.3762 -0.9236 0.0732
vn -0.2120 -0.9673 0.1392
vn -0.1680 -0.9323 0.3203
vn 0.3471 -0.9305 -0.1170
vn 0.2985 -0.9535 0.0424
vn 0.0796 -0.9968 0.0081
vn 0.0297 -0.9265 0.3752
vn 0.1184 -0.9610 0.2498
vn 0.3542 -0.8721 0.3376
vt 0.818181 0.000000
vt 0.772726 0.078731
vt 0.863635 0.078731
vt 0.727272 0.157461
vt 0.681818 0.078731
vt 0.636363 0.157461
vt 0.090909 0.000000
vt 0.045454 0.078731
vt 0.136363 0.078731
vt 0.272727 0.000000
vt 0.227273 0.078731
vt 0.318182 0.078731
vt 0.454545 0.000000
vt 0.409090 0.078731
vt 0.500000 0.078731
vt 0.681818 0.236191
vt 0.909090 0.157461
vt 0.818181 0.157461
vt 0.863635 0.236191
vt 0.181818 0.157461
vt 0.090909 0.157461
vt 0.136363 0.236191
vt 0.363636 0.157461
vt 0.272727 0.157461
vt 0.318182 0.236191
vt 0.545454 0.157461
vt 0.454545 0.157461
vt 0.500000 0.236191
vt 0.772726 0.236191
vt 0.954545 0.236191
vt 0.227273 0.236191
vt 0.409090 0.236191
vt 0.590909 0.236191
vt 0.818181 0.314921
vt 0.727272 0.314921
vt 0.772726 0.393651
vt 1.000000 0.314921
vt 0.909091 0.314921
vt 0.954545 0.393651
vt 0.272727 0.314921
vt 0.181818 0.314921
vt 0.227273 0.393651
vt 0.454545 0.314921
vt 0.363636 0.314921
vt 0.409090 0.393651
vt 0.636363 0.314921
vt 0.545454 0.314921
vt 0.590909 0.393651
vt 0.500000 0.393651
vt 0.545454 0.472382
vt 0.318182 0.393651
vt 0.363636 0.472382
vt 0.136363 0.393651
vt 0.181818 0.472382
vt 0.090909 0.314921
vt 0.863635 0.393651
vt 0.909090 0.472382
vt 0.681818 0.393651
vt 0.727272 0.472382
vt 0.045454 0.236191
vt 0.000000 0.157461
vt 0.590909 0.078731
vt 0.636363 0.000000
s 0
usemtl Material.005
f 217/327/356 230/328/356 229/329/356
f 218/330/357 230/331/357 232/332/357
f 217/333/358 229/334/358 234/335/358
f 217/336/359 234/337/359 236/338/359
f 217/339/360 236/340/360 233/341/360
f 218/330/361 232/332/361 239/342/361
f 219/343/362 231/344/362 241/345/362
f 220/346/363 235/347/363 243/348/363
f 221/349/364 237/350/364 245/351/364
f 222/352/365 238/353/365 247/354/365
f 218/330/366 239/342/366 242/355/366
f 219/343/367 241/345/367 244/356/367
f 220/346/368 243/348/368 246/357/368
f 221/349/369 245/351/369 248/358/369
f 222/352/370 247/354/370 240/359/370
f 223/360/371 249/361/371 254/362/371
f 224/363/372 250/364/372 256/365/372
f 225/366/373 251/367/373 257/368/373
f 226/369/374 252/370/374 258/371/374
f 227/372/375 253/373/375 255/374/375
f 255/374/376 258/375/376 228/376/376
f 255/374/377 253/373/377 258/375/377
f 253/373/378 226/369/378 258/375/378
f 258/371/379 257/377/379 228/378/379
f 258/371/380 252/370/380 257/377/380
f 252/370/381 225/366/381 257/377/381
f 257/368/382 256/379/382 228/380/382
f 257/368/383 251/367/383 256/379/383
f 251/367/384 224/381/384 256/379/384
f 256/365/385 254/382/385 228/383/385
f 256/365/386 250/364/386 254/382/386
f 250/364/387 223/360/387 254/382/387
f 254/362/388 255/384/388 228/385/388
f 254/362/389 249/361/389 255/384/389
f 249/361/390 227/372/390 255/384/390
f 240/359/391 253/373/391 227/372/391
f 240/359/392 247/354/392 253/373/392
f 247/354/393 226/369/393 253/373/393
f 248/358/394 252/370/394 226/369/394
f 248/358/395 245/351/395 252/370/395
f 245/351/396 225/366/396 252/370/396
f 246/357/397 251/367/397 225/366/397
f 246/357/398 243/348/398 251/367/398
f 243/348/399 224/381/399 251/367/399
f 244/356/400 250/364/400 224/363/400
f 244/356/401 241/345/401 250/364/401
f 241/345/402 223/360/402 250/364/402
f 242/355/403 249/361/403 223/360/403
f 242/355/404 239/342/404 249/361/404
f 239/342/405 227/372/405 249/361/405
f 247/354/406 248/358/406 226/369/406
f 247/354/407 238/353/407 248/358/407
f 238/353/408 221/349/408 248/358/408
f 245/351/409 246/357/409 225/366/409
f 245/351/410 237/350/410 246/357/410
f 237/350/411 220/346/411 246/357/411
f 243/348/412 244/386/412 224/381/412
f 243/348/413 235/347/413 244/386/413
f 235/347/414 219/387/414 244/386/414
f 241/345/415 242/355/415 223/360/415
f 241/345/416 231/344/416 242/355/416
f 231/344/417 218/330/417 242/355/417
f 239/342/418 240/359/418 227/372/418
f 239/342/419 232/332/419 240/359/419
f 232/332/420 222/352/420 240/359/420
f 233/341/421 238/353/421 222/352/421
f 233/341/422 236/340/422 238/353/422
f 236/340/423 221/349/423 238/353/423
f 236/338/424 237/350/424 221/349/424
f 236/338/425 234/337/425 237/350/425
f 234/337/426 220/346/426 237/350/426
f 234/335/427 235/347/427 220/346/427
f 234/335/428 229/334/428 235/347/428
f 229/334/429 219/387/429 235/347/429
f 232/332/430 233/388/430 222/352/430
f 232/332/431 230/331/431 233/388/431
f 230/331/432 217/389/432 233/388/432
f 229/329/433 231/344/433 219/343/433
f 229/329/434 230/328/434 231/344/434
f 230/328/435 218/330/435 231/344/435
o Icosphere.003
v -0.033269 0.627547 -0.446747
v 0.104655 0.664412 -0.466707
v 0.000105 0.660058 -0.289227
v -0.157162 0.660291 -0.357657
v -0.133513 0.656802 -0.548450
v 0.046195 0.662029 -0.601172
v 0.065106 0.759834 -0.351575
v -0.083865 0.757198 -0.290793
v -0.176296 0.755839 -0.453768
v -0.038665 0.750186 -0.593935
v 0.102517 0.776757 -0.571764
v -0.032075 0.818826 -0.463064
v -0.019036 0.633120 -0.357471
v 0.046224 0.633592 -0.455620
v 0.059411 0.652161 -0.356992
v 0.094593 0.660289 -0.555447
v 0.011690 0.633976 -0.537239
v -0.103653 0.633887 -0.393525
v -0.082052 0.653983 -0.298988
v -0.088042 0.631424 -0.503063
v -0.170369 0.652780 -0.456763
v -0.043808 0.648415 -0.591361
v 0.127646 0.724205 -0.532829
v 0.095585 0.715432 -0.602582
v 0.045880 0.705675 -0.296494
v 0.105128 0.706500 -0.399102
v -0.136216 0.706138 -0.301710
v -0.040005 0.705965 -0.260582
v -0.181096 0.703085 -0.512476
v -0.195618 0.705589 -0.401291
v 0.009007 0.702634 -0.620784
v -0.099029 0.699002 -0.593465
v 0.095866 0.787283 -0.480069
v -0.001993 0.765302 -0.297350
v -0.149160 0.766522 -0.360057
v -0.123854 0.758507 -0.535729
v 0.045995 0.773214 -0.602237
v 0.020723 0.811507 -0.402853
v 0.043806 0.819933 -0.543366
v -0.063804 0.796050 -0.355487
v -0.110049 0.795387 -0.445787
v -0.035550 0.801468 -0.550137
vn 0.0812 -0.9955 0.0492
vn 0.4648 -0.8853 -0.0116
vn -0.0381 -0.9969 0.0683
vn -0.0816 -0.9966 0.0108
vn 0.0015 -0.9975 -0.0701
vn 0.8968 -0.4349 -0.0815
vn 0.6122 -0.5193 0.5963
vn -0.5475 -0.5350 0.6434
vn -0.7748 -0.5362 -0.3350
vn -0.0281 -0.4555 -0.8898
vn 0.9654 -0.2243 0.1329
vn 0.3745 -0.2328 0.8975
vn -0.8356 -0.2281 0.4997
vn -0.6961 -0.1742 -0.6965
vn 0.2337 -0.2410 -0.9420
vn 0.5569 0.7749 0.2989
vn -0.0450 0.8625 0.5040
vn -0.5165 0.8547 0.0521
vn -0.4068 0.6074 -0.6823
vn 0.2716 0.7588 -0.5920
vn -0.2079 0.9608 -0.1832
vn -0.1274 0.7746 -0.6195
vn -0.2451 0.6382 -0.7298
vn -0.3185 0.9320 -0.1731
vn -0.4565 0.8456 -0.2767
vn -0.4688 0.8402 -0.2726
vn -0.2599 0.9574 0.1260
vn -0.3304 0.9298 0.1624
vn -0.3173 0.8532 0.4140
vn -0.0754 0.9798 0.1852
vn 0.0647 0.9089 0.4120
vn 0.4191 0.7951 0.4384
vn 0.0589 0.9958 0.0694
vn 0.4162 0.9010 0.1224
vn 0.5752 0.8164 -0.0520
vn 0.4232 0.3682 -0.8278
vn 0.1803 0.1605 -0.9704
vn -0.1825 0.3383 -0.9232
vn -0.4466 0.5201 -0.7280
vn -0.6398 0.3808 -0.6675
vn -0.7110 0.5510 -0.4370
vn -0.8377 0.5142 0.1840
vn -0.8211 0.2957 0.4882
vn -0.6036 0.4833 0.6341
vn 0.0171 0.5187 0.8548
vn 0.3679 0.3080 0.8774
vn 0.5769 0.4727 0.6662
vn 0.8716 0.3933 0.2927
vn 0.9319 0.3045 0.1972
vn 0.8978 0.4401 0.0146
vn -0.2442 0.2795 -0.9286
vn -0.2259 -0.2854 -0.9314
vn -0.4140 -0.4840 -0.7709
vn -0.9635 0.2336 -0.1311
vn -0.9378 -0.3275 -0.1151
vn -0.8206 -0.5511 0.1511
vn -0.3847 0.2018 0.9007
vn -0.3703 -0.3394 0.8647
vn -0.0563 -0.5635 0.8242
vn 0.8481 0.1986 0.4913
vn 0.8201 -0.3250 0.4709
vn 0.8311 -0.4747 0.2897
vn 0.8973 0.1130 -0.4267
vn 0.8743 -0.3244 -0.3611
vn 0.5672 -0.5410 -0.6210
vn 0.1022 -0.9301 -0.3529
vn -0.0476 -0.9762 -0.2117
vn -0.2267 -0.9291 -0.2923
vn -0.3391 -0.9240 -0.1769
vn -0.2591 -0.9657 -0.0152
vn -0.3738 -0.9198 0.1195
vn -0.2811 -0.9236 0.2606
vn -0.1068 -0.9673 0.2300
vn 0.0261 -0.9323 0.3607
vn 0.2333 -0.9305 -0.2824
vn 0.2760 -0.9535 -0.1213
vn 0.0719 -0.9968 -0.0351
vn 0.2230 -0.9265 0.3032
vn 0.2323 -0.9610 0.1499
vn 0.4790 -0.8721 0.1001
vt 0.818181 0.000000
vt 0.772726 0.078731
vt 0.863635 0.078731
vt 0.727272 0.157461
vt 0.681818 0.078731
vt 0.636363 0.157461
vt 0.090909 0.000000
vt 0.045454 0.078731
vt 0.136363 0.078731
vt 0.272727 0.000000
vt 0.227273 0.078731
vt 0.318182 0.078731
vt 0.454545 0.000000
vt 0.409090 0.078731
vt 0.500000 0.078731
vt 0.681818 0.236191
vt 0.909090 0.157461
vt 0.818181 0.157461
vt 0.863635 0.236191
vt 0.181818 0.157461
vt 0.090909 0.157461
vt 0.136363 0.236191
vt 0.363636 0.157461
vt 0.272727 0.157461
vt 0.318182 0.236191
vt 0.545454 0.157461
vt 0.454545 0.157461
vt 0.500000 0.236191
vt 0.772726 0.236191
vt 0.954545 0.236191
vt 0.227273 0.236191
vt 0.409090 0.236191
vt 0.590909 0.236191
vt 0.818181 0.314921
vt 0.727272 0.314921
vt 0.772726 0.393651
vt 1.000000 0.314921
vt 0.909091 0.314921
vt 0.954545 0.393651
vt 0.272727 0.314921
vt 0.181818 0.314921
vt 0.227273 0.393651
vt 0.454545 0.314921
vt 0.363636 0.314921
vt 0.409090 0.393651
vt 0.636363 0.314921
vt 0.545454 0.314921
vt 0.590909 0.393651
vt 0.500000 0.393651
vt 0.545454 0.472382
vt 0.318182 0.393651
vt 0.363636 0.472382
vt 0.136363 0.393651
vt 0.181818 0.472382
vt 0.090909 0.314921
vt 0.863635 0.393651
vt 0.909090 0.472382
vt 0.681818 0.393651
vt 0.727272 0.472382
vt 0.045454 0.236191
vt 0.000000 0.157461
vt 0.590909 0.078731
vt 0.636363 0.000000
s 0
usemtl Material.006
f 259/390/436 272/391/436 271/392/436
f 260/393/437 272/394/437 274/395/437
f 259/396/438 271/397/438 276/398/438
f 259/399/439 276/400/439 278/401/439
f 259/402/440 278/403/440 275/404/440
f 260/393/441 274/395/441 281/405/441
f 261/406/442 273/407/442 283/408/442
f 262/409/443 277/410/443 285/411/443
f 263/412/444 279/413/444 287/414/444
f 264/415/445 280/416/445 289/417/445
f 260/393/446 281/405/446 284/418/446
f 261/406/447 283/408/447 286/419/447
f 262/409/448 285/411/448 288/420/448
f 263/412/449 287/414/449 290/421/449
f 264/415/450 289/417/450 282/422/450
f 265/423/451 291/424/451 296/425/451
f 266/426/452 292/427/452 298/428/452
f 267/429/453 293/430/453 299/431/453
f 268/432/454 294/433/454 300/434/454
f 269/435/455 295/436/455 297/437/455
f 297/437/456 300/438/456 270/439/456
f 297/437/457 295/436/457 300/438/457
f 295/436/458 268/432/458 300/438/458
f 300/434/459 299/440/459 270/441/459
f 300/434/460 294/433/460 299/440/460
f 294/433/461 267/429/461 299/440/461
f 299/431/462 298/442/462 270/443/462
f 299/431/463 293/430/463 298/442/463
f 293/430/464 266/444/464 298/442/464
f 298/428/465 296/445/465 270/446/465
f 298/428/466 292/427/466 296/445/466
f 292/427/467 265/423/467 296/445/467
f 296/425/468 297/447/468 270/448/468
f 296/425/469 291/424/469 297/447/469
f 291/424/470 269/435/470 297/447/470
f 282/422/471 295/436/471 269/435/471
f 282/422/472 289/417/472 295/436/472
f 289/417/473 268/432/473 295/436/473
f 290/421/474 294/433/474 268/432/474
f 290/421/475 287/414/475 294/433/475
f 287/414/476 267/429/476 294/433/476
f 288/420/477 293/430/477 267/429/477
f 288/420/478 285/411/478 293/430/478
f 285/411/479 266/444/479 293/430/479
f 286/419/480 292/427/480 266/426/480
f 286/419/481 283/408/481 292/427/481
f 283/408/482 265/423/482 292/427/482
f 284/418/483 291/424/483 265/423/483
f 284/418/484 281/405/484 291/424/484
f 281/405/485 269/435/485 291/424/485
f 289/417/486 290/421/486 268/432/486
f 289/417/487 280/416/487 290/421/487
f 280/416/488 263/412/488 290/421/488
f 287/414/489 288/420/489 267/429/489
f 287/414/490 279/413/490 288/420/490
f 279/413/491 262/409/491 288/420/491
f 285/411/492 286/449/492 266/444/492
f 285/411/493 277/410/493 286/449/493
f 277/410/494 261/450/494 286/449/494
f 283/408/495 284/418/495 265/423/495
f 283/408/496 273/407/496 284/418/496
f 273/407/497 260/393/497 284/418/497
f 281/405/498 282/422/498 269/435/498
f 281/405/499 274/395/499 282/422/499
f 274/395/500 264/415/500 282/422/500
f 275/404/501 280/416/501 264/415/501
f 275/404/502 278/403/502 280/416/502
f 278/403/503 263/412/503 280/416/503
f 278/401/504 279/413/504 263/412/504
f 278/401/505 276/400/505 279/413/505
f 276/400/506 262/409/506 279/413/506
f 276/398/507 277/410/507 262/409/507
f 276/398/508 271/397/508 277/410/508
f 271/397/509 261/450/509 277/410/509
f 274/395/510 275/451/510 264/415/510
f 274/395/511 272/394/511 275/451/511
f 272/394/512 259/452/512 275/451/512
f 271/392/513 273/407/513 261/406/513
f 271/392/514 272/391/514 273/407/514
f 272/391/515 260/393/515 273/407/515
o Grid
v -0.040208 0.789953 0.662430
v -0.007370 0.757129 0.662430
v -0.040208 0.724305 0.662430
v -0.027821 0.691481 0.662430
v -0.040208 0.658657 0.647806
v -0.040208 0.789953 0.640179
v -0.030778 0.757129 0.629607
v -0.021627 0.724305 0.629607
v -0.040208 0.691481 0.629607
v -0.040208 0.658657 0.630247
vn 0.9611 0.2761 -0.0000
vn 0.6313 -0.6315 -0.4502
vn 0.7807 -0.4419 0.4419
vn 0.9182 -0.1921 -0.3465
vn 0.6313 0.6315 -0.4502
vn 0.8457 0.2358 0.4787
vn 0.8822 0.3329 -0.3329
vn 1.0000 -0.0000 -0.0000
vt 0.555556 0.444444
vt 0.666667 0.555556
vt 0.555556 0.555556
vt 0.777778 0.444444
vt 0.666667 0.444444
vt 0.888889 0.555556
vt 0.777778 0.555556
vt 1.000000 0.444444
vt 0.888889 0.444444
vt 1.000000 0.555556
s 0
usemtl Material.007
f 301/453/516 307/454/516 306/455/516
f 303/456/517 307/454/517 302/457/517
f 303/456/518 309/458/518 308/459/518
f 305/460/519 309/458/519 304/461/519
f 301/453/520 302/457/520 307/454/520
f 303/456/521 308/459/521 307/454/521
f 303/456/522 304/461/522 309/458/522
f 305/460/523 310/462/523 309/458/523
o Grid.001
v -0.104952 0.783776 0.619587
v -0.060607 0.772956 0.628082
v -0.072975 0.729018 0.636578
v -0.046291 0.707885 0.645073
v -0.039090 0.670991 0.639442
v -0.102048 0.778803 0.598094
v -0.076537 0.753816 0.596377
v -0.052646 0.731052 0.604872
v -0.052703 0.694303 0.613367
v -0.036798 0.667067 0.622481
vn 0.6955 0.7150 -0.0715
vn 0.9115 -0.3091 -0.2714
vn 0.8317 0.1238 0.5412
vn 0.9317 0.2253 -0.2850
vn 0.2963 0.7445 -0.5983
vn 0.5530 0.7301 0.4014
vn 0.6431 0.6482 -0.4077
vn 0.8635 0.5043 -0.0000
vt 0.555556 0.444444
vt 0.666667 0.555556
vt 0.555556 0.555556
vt 0.777778 0.444444
vt 0.666667 0.444444
vt 0.888889 0.555556
vt 0.777778 0.555556
vt 1.000000 0.444444
vt 0.888889 0.444444
vt 1.000000 0.555556
s 0
usemtl Material.008
f 311/463/524 317/464/524 316/465/524
f 313/466/525 317/464/525 312/467/525
f 313/466/526 319/468/526 318/469/526
f 315/470/527 319/468/527 314/471/527
f 311/463/528 312/467/528 317/464/528
f 313/466/529 318/469/529 317/464/529
f 313/466/530 314/471/530 319/468/530
f 315/470/531 320/472/531 319/468/531
o Grid.002
v -0.059569 0.780557 0.692747
v -0.021664 0.755477 0.683264
v -0.048168 0.717913 0.676767
v -0.030319 0.688946 0.668214
v -0.038077 0.658645 0.646617
v -0.061564 0.785694 0.671189
v -0.047563 0.758605 0.652527
v -0.032888 0.729022 0.644121
v -0.045409 0.694168 0.636975
v -0.039651 0.662698 0.629606
vn 0.8946 0.4462 0.0235
vn 0.6884 -0.3787 -0.6186
vn 0.8820 -0.3753 0.2851
vn 0.9028 0.0712 -0.4242
vn 0.4691 0.8266 -0.3111
vn 0.8314 0.2752 0.4828
vn 0.7776 0.5622 -0.2816
vn 0.9807 0.1901 -0.0455
vt 0.555556 0.444444
vt 0.666667 0.555556
vt 0.555556 0.555556
vt 0.777778 0.444444
vt 0.666667 0.444444
vt 0.888889 0.555556
vt 0.777778 0.555556
vt 1.000000 0.444444
vt 0.888889 0.444444
vt 1.000000 0.555556
s 0
usemtl Material.009
f 321/473/532 327/474/532 326/475/532
f 323/476/533 327/474/533 322/477/533
f 323/476/534 329/478/534 328/479/534
f 325/480/535 329/478/535 324/481/535
f 321/473/536 322/477/536 327/474/536
f 323/476/537 328/479/537 327/474/537
f 323/476/538 324/481/538 329/478/538
f 325/480/539 330/482/539 329/478/539
o Grid.005
v -0.082622 0.789953 0.460905
v -0.073678 0.757129 0.492502
v -0.082622 0.724305 0.460905
v -0.079249 0.691481 0.472824
v -0.068550 0.658657 0.456922
v -0.061212 0.789953 0.454845
v -0.048471 0.757129 0.461039
v -0.045978 0.724305 0.469844
v -0.051039 0.691481 0.451966
v -0.051655 0.658657 0.452140
vn 0.2618 0.2761 0.9248
vn 0.6051 -0.6315 0.4848
vn -0.2126 -0.4419 0.8715
vn 0.5835 -0.1921 0.7891
vn 0.6051 0.6315 0.4848
vn -0.2303 0.2358 0.9441
vn 0.5606 0.3329 0.7582
vn 0.2724 -0.0000 0.9622
vt 0.555556 0.444444
vt 0.666667 0.555556
vt 0.555556 0.555556
vt 0.777778 0.444444
vt 0.666667 0.444444
vt 0.888889 0.555556
vt 0.777778 0.555556
vt 1.000000 0.444444
vt 0.888889 0.444444
vt 1.000000 0.555556
s 0
usemtl Material.012
f 331/483/540 337/484/540 336/485/540
f 333/486/541 337/484/541 332/487/541
f 333/486/542 339/488/542 338/489/542
f 335/490/543 339/488/543 334/491/543
f 331/483/544 332/487/544 337/484/544
f 333/486/545 338/489/545 337/484/545
f 333/486/546 334/491/546 339/488/546
f 335/490/547 340/492/547 339/488/547
o Grid.004
v -0.059032 0.783776 0.386940
v -0.055128 0.772956 0.431922
v -0.066671 0.729018 0.422335
v -0.067578 0.707885 0.450325
v -0.060198 0.670991 0.455720
v -0.037560 0.778803 0.383880
v -0.028960 0.753816 0.407960
v -0.030627 0.731052 0.433261
v -0.038817 0.694303 0.435520
v -0.043255 0.667067 0.453306
vn 0.2582 0.7150 0.6497
vn 0.5094 -0.3091 0.8031
vn -0.2942 0.1238 0.9477
vn 0.5279 0.2253 0.8188
vn 0.6564 0.7445 0.1221
vn -0.2356 0.7301 0.6414
vn 0.5675 0.6482 0.5078
vn 0.2352 0.5043 0.8309
vt 0.555556 0.444444
vt 0.666667 0.555556
vt 0.555556 0.555556
vt 0.777778 0.444444
vt 0.666667 0.444444
vt 0.888889 0.555556
vt 0.777778 0.555556
vt 1.000000 0.444444
vt 0.888889 0.444444
vt 1.000000 0.555556
s 0
usemtl Material.011
f 341/493/548 347/494/548 346/495/548
f 343/496/549 347/494/549 342/497/549
f 343/496/550 349/498/550 348/499/550
f 345/500/551 349/498/551 344/501/551
f 341/493/552 342/497/552 347/494/552
f 343/496/553 348/499/553 347/494/553
f 343/496/554 344/501/554 349/498/554
f 345/500/555 350/502/555 349/498/555
o Grid.003
v -0.117066 0.780557 0.450533
v -0.097618 0.755477 0.484422
v -0.098585 0.717913 0.457151
v -0.085494 0.688946 0.471995
v -0.066826 0.658645 0.458649
v -0.096866 0.785694 0.442742
v -0.075096 0.758605 0.451131
v -0.063011 0.729022 0.462962
v -0.059546 0.694168 0.448968
v -0.050886 0.662698 0.452501
vn 0.2210 0.4462 0.8672
vn 0.7827 -0.3787 0.4939
vn -0.0341 -0.3753 0.9263
vn 0.6540 0.0712 0.7531
vn 0.4271 0.8266 0.3666
vn -0.2381 0.2752 0.9314
vn 0.4827 0.5622 0.6715
vn 0.3108 0.1901 0.9313
vt 0.555556 0.444444
vt 0.666667 0.555556
vt 0.555556 0.555556
vt 0.777778 0.444444
vt 0.666667 0.444444
vt 0.888889 0.555556
vt 0.777778 0.555556
vt 1.000000 0.444444
vt 0.888889 0.444444
vt 1.000000 0.555556
s 0
usemtl Material.010
f 351/503/556 357/504/556 356/505/556
f 353/506/557 357/504/557 352/507/557
f 353/506/558 359/508/558 358/509/558
f 355/510/559 359/508/559 354/511/559
f 351/503/560 352/507/560 357/504/560
f 353/506/561 358/509/561 357/504/561
f 353/506/562 354/511/562 359/508/562
f 355/510/563 360/512/563 359/508/563
o Grid.008
v 0.090654 0.789953 0.633527
v 0.059721 0.757129 0.644549
v 0.090654 0.724305 0.633527
v 0.078986 0.691481 0.637684
v 0.095562 0.658657 0.647303
v 0.098122 0.789953 0.654487
v 0.092788 0.757129 0.667612
v 0.084168 0.724305 0.670683
v 0.101671 0.691481 0.664447
v 0.101456 0.658657 0.663843
vn -0.9054 0.2761 0.3226
vn -0.4435 -0.6315 0.6359
vn -0.8837 -0.4419 -0.1543
vn -0.7486 -0.1921 0.6346
vn -0.4435 0.6315 0.6359
vn -0.9573 0.2358 -0.1671
vn -0.7193 0.3329 0.6097
vn -0.9420 -0.0000 0.3356
vt 0.555556 0.444444
vt 0.666667 0.555556
vt 0.555556 0.555556
vt 0.777778 0.444444
vt 0.666667 0.444444
vt 0.888889 0.555556
vt 0.777778 0.555556
vt 1.000000 0.444444
vt 0.888889 0.444444
vt 1.000000 0.555556
s 0
usemtl Material.015
f 361/513/564 367/514/564 366/515/564
f 363/516/565 367/514/565 362/517/565
f 363/516/566 369/518/566 368/519/566
f 365/520/567 369/518/567 364/521/567
f 361/513/568 362/517/568 367/514/568
f 363/516/569 368/519/569 367/514/569
f 363/516/570 364/521/570 369/518/570
f 365/520/571 370/522/571 369/518/571
o Grid.007
v 0.166022 0.783776 0.652154
v 0.121398 0.772956 0.659036
v 0.130198 0.729018 0.646882
v 0.102210 0.707885 0.647836
v 0.097317 0.670991 0.655557
v 0.170500 0.778803 0.673375
v 0.147046 0.753816 0.683555
v 0.121689 0.731052 0.683571
v 0.118892 0.694303 0.675550
v 0.100851 0.667067 0.672303
vn -0.6311 0.7150 0.3008
vn -0.7675 -0.3091 0.5616
vn -0.9651 0.1238 -0.2307
vn -0.7820 0.2253 0.5811
vn -0.0783 0.7445 0.6630
vn -0.6556 0.7301 -0.1925
vn -0.4690 0.6482 0.5999
vn -0.8134 0.5043 0.2898
vt 0.555556 0.444444
vt 0.666667 0.555556
vt 0.555556 0.555556
vt 0.777778 0.444444
vt 0.666667 0.444444
vt 0.888889 0.555556
vt 0.777778 0.555556
vt 1.000000 0.444444
vt 0.888889 0.444444
vt 1.000000 0.555556
s 0
usemtl Material.014
f 371/523/572 377/524/572 376/525/572
f 373/526/573 377/524/573 372/527/573
f 373/526/574 379/528/574 378/529/574
f 375/530/575 379/528/575 374/531/575
f 371/523/576 372/527/576 377/524/576
f 373/526/577 378/529/577 377/524/577
f 373/526/578 374/531/578 379/528/578
f 375/530/579 380/532/579 379/528/579
o Grid.006
v 0.098717 0.780557 0.598470
v 0.066193 0.755477 0.620126
v 0.093340 0.717913 0.617350
v 0.079398 0.688946 0.631398
v 0.093954 0.658645 0.649138
v 0.107831 0.785694 0.618108
v 0.100907 0.758605 0.640387
v 0.089904 0.729022 0.653231
v 0.104097 0.694168 0.655760
v 0.101147 0.662698 0.664634
vn -0.8506 0.4462 0.2781
vn -0.4409 -0.3787 0.8138
vn -0.9265 -0.3753 0.0275
vn -0.7080 0.0712 0.7026
vn -0.3374 0.8266 0.4505
vn -0.9452 0.2752 -0.1757
vn -0.6379 0.5622 0.5263
vn -0.9086 0.1901 0.3720
vt 0.555556 0.444444
vt 0.666667 0.555556
vt 0.555556 0.555556
vt 0.777778 0.444444
vt 0.666667 0.444444
vt 0.888889 0.555556
vt 0.777778 0.555556
vt 1.000000 0.444444
vt 0.888889 0.444444
vt 1.000000 0.555556
s 0
usemtl Material.013
f 381/533/580 387/534/580 386/535/580
f 383/536/581 387/534/581 382/537/581
f 383/536/582 389/538/582 388/539/582
f 385/540/583 389/538/583 384/541/583
f 381/533/584 382/537/584 387/534/584
f 383/536/585 388/539/585 387/534/585
f 383/536/586 384/541/586 389/538/586
f 385/540/587 390/542/587 389/538/587
